<svg width="247" height="51" viewBox="0 0 247 51" fill="none" xmlns="http://www.w3.org/2000/svg">
<g clip-path="url(#clip0_831_6774)">
<path d="M149.903 44.6752C150.53 44.618 151.157 44.7869 151.671 45.1514C151.859 45.3241 152.005 45.5367 152.101 45.7736C152.196 46.0105 152.237 46.2657 152.221 46.5205C152.222 46.7796 152.177 47.0367 152.087 47.2795C152.01 47.5239 151.872 47.7443 151.686 47.9194C151.467 48.1157 151.208 48.2628 150.928 48.351C150.554 48.4744 150.162 48.5298 149.769 48.5147H149.056V50.9107H148.179V44.6752H149.903ZM149.828 45.4044H149.056V47.7855H149.68C149.987 47.7928 150.294 47.7475 150.586 47.6516C150.808 47.5892 151.002 47.4527 151.136 47.2646C151.274 47.0586 151.342 46.8131 151.329 46.5652C151.344 46.3995 151.318 46.2328 151.253 46.0796C151.188 45.9265 151.087 45.7917 150.958 45.6872C150.623 45.469 150.226 45.3695 149.828 45.4044Z" fill="white"/>
<path d="M159.754 47.7855C159.759 48.2285 159.699 48.6699 159.575 49.0951C159.46 49.4651 159.273 49.8088 159.026 50.1071C158.783 50.3979 158.471 50.6231 158.119 50.7619C157.725 50.9304 157.3 51.0117 156.871 51C156.433 51.0132 155.997 50.932 155.593 50.7619C155.241 50.6231 154.93 50.3979 154.687 50.1071C154.443 49.8091 154.261 49.465 154.152 49.0951C154.029 48.6647 153.969 48.2185 153.974 47.7706C153.963 47.1947 154.069 46.6225 154.286 46.089C154.49 45.629 154.826 45.2404 155.252 44.9728C155.748 44.6886 156.315 44.5494 156.886 44.571C157.439 44.5509 157.985 44.6904 158.461 44.9728C158.89 45.236 159.228 45.6259 159.427 46.089C159.659 46.6236 159.77 47.2028 159.754 47.7855ZM154.895 47.7855C154.888 48.2308 154.958 48.674 155.103 49.0951C155.221 49.4428 155.451 49.7413 155.757 49.9434C156.085 50.1657 156.476 50.2754 156.871 50.2559C157.266 50.2722 157.656 50.1628 157.986 49.9434C158.288 49.7405 158.513 49.4417 158.624 49.0951C158.769 48.674 158.84 48.2308 158.832 47.7855C158.87 47.1498 158.704 46.5187 158.357 45.9848C158.186 45.7577 157.959 45.5783 157.699 45.4636C157.439 45.349 157.154 45.303 156.871 45.33C156.474 45.3158 156.081 45.4193 155.742 45.6276C155.44 45.8338 155.211 46.1309 155.088 46.4759C154.942 46.8968 154.872 47.3401 154.88 47.7855" fill="white"/>
<path d="M163.617 44.6752C164.061 44.6602 164.503 44.7258 164.924 44.8687C165.234 44.9734 165.5 45.1774 165.682 45.449C165.859 45.7559 165.947 46.1066 165.934 46.461C165.942 46.7395 165.881 47.0157 165.756 47.2646C165.648 47.4777 165.49 47.6614 165.296 47.8004C165.115 47.9381 164.914 48.0484 164.701 48.1278L166.44 50.9107H165.504L164.018 48.3658H162.874V50.9107H161.997V44.6752H163.617ZM163.617 45.4193H162.829V47.6367H163.676C164.061 47.6665 164.445 47.5613 164.761 47.339C164.877 47.2317 164.967 47.0999 165.026 46.9532C165.086 46.8066 165.111 46.6487 165.102 46.4908C165.118 46.3315 165.092 46.171 165.027 46.0248C164.962 45.8787 164.86 45.7521 164.731 45.6574C164.39 45.4718 164.003 45.3891 163.617 45.4193Z" fill="white"/>
<path d="M170.823 45.33C170.526 45.3259 170.232 45.3868 169.961 45.5086C169.709 45.614 169.489 45.7833 169.322 45.9997C169.137 46.2299 168.996 46.4922 168.906 46.7735C168.813 47.1026 168.768 47.4435 168.772 47.7855C168.761 48.2324 168.837 48.6772 168.995 49.0951C169.124 49.4455 169.364 49.7436 169.679 49.9434C170.015 50.1578 170.41 50.2618 170.808 50.241C171.072 50.2472 171.337 50.2222 171.595 50.1666C171.848 50.1231 172.096 50.0584 172.338 49.9731V50.7321C172.097 50.8191 171.848 50.8839 171.595 50.9255C171.301 50.9763 171.003 51.0012 170.704 51C170.147 51.018 169.596 50.8788 169.114 50.5981C168.693 50.3332 168.366 49.9429 168.178 49.482C167.958 48.9441 167.852 48.3665 167.866 47.7855C167.858 47.3462 167.923 46.9086 168.059 46.4908C168.177 46.1157 168.375 45.7705 168.639 45.4788C168.893 45.1909 169.208 44.9623 169.56 44.8091C169.968 44.654 170.401 44.5783 170.838 44.5859C171.438 44.5745 172.033 44.7018 172.576 44.958L172.249 45.6871C172.033 45.5901 171.809 45.5105 171.58 45.449C171.335 45.3709 171.08 45.3308 170.823 45.33Z" fill="white"/>
<path d="M177.97 50.9108H174.478V44.6604H177.97V45.4194H175.355V47.2796H177.821V48.0237H175.355V50.1518H177.97V50.9108Z" fill="white"/>
<path d="M180.124 50.9108V44.6604H180.986V50.1518H183.705V50.9108H180.124Z" fill="white"/>
<path d="M189.44 50.9108L188.756 49.0506H186.305L185.621 50.9108H184.715L187.092 44.6455H187.998L190.361 50.9108H189.44ZM188.504 48.2916L187.85 46.4611C187.827 46.3647 187.798 46.2702 187.761 46.1784C187.714 46.0516 187.675 45.9224 187.642 45.7914L187.538 45.4491C187.538 45.5682 187.538 45.6872 187.434 45.8212C187.33 45.9551 187.434 46.0742 187.33 46.1784C187.307 46.2746 187.277 46.369 187.241 46.4611L186.572 48.2916H188.504Z" fill="white"/>
<path d="M192.872 44.6604H191.996V50.9108H192.872V44.6604Z" fill="white"/>
<path d="M200.361 50.9108H199.32L196.096 45.7914C196.096 45.9551 196.096 46.1188 196.096 46.2974C196.096 46.476 196.096 46.6843 196.096 46.8778C196.096 47.0712 196.096 47.2796 196.096 47.4879V50.9108H195.294V44.6753H196.334L199.558 49.7649C199.558 49.6309 199.558 49.4821 199.558 49.2887C199.558 49.0952 199.558 48.9166 199.558 48.7083C199.558 48.4999 199.558 48.3065 199.558 48.1279V44.6753H200.361V50.9108Z" fill="white"/>
<path d="M208.592 45.33C208.295 45.3244 208.001 45.3854 207.73 45.5085C207.476 45.6102 207.255 45.7801 207.091 45.9996C206.906 46.2299 206.765 46.4922 206.675 46.7735C206.582 47.1026 206.537 47.4434 206.542 47.7855C206.53 48.2324 206.606 48.6772 206.764 49.0951C206.893 49.4412 207.127 49.738 207.433 49.9433C207.776 50.1563 208.174 50.26 208.577 50.241C208.842 50.2465 209.106 50.2215 209.365 50.1666C209.617 50.1213 209.865 50.0566 210.107 49.9731V50.7321C209.866 50.8191 209.618 50.8838 209.365 50.9255C209.07 50.9763 208.772 51.0012 208.473 50.9999C207.916 51.018 207.365 50.8787 206.883 50.5981C206.458 50.3341 206.126 49.9439 205.932 49.482C205.713 48.9441 205.606 48.3665 205.62 47.7855C205.617 47.3453 205.687 46.9077 205.828 46.4908C205.938 46.1186 206.128 45.775 206.385 45.4844C206.641 45.1938 206.959 44.9633 207.314 44.8091C207.722 44.6529 208.156 44.5772 208.592 44.5859C208.896 44.5854 209.2 44.6153 209.498 44.6752C209.78 44.74 210.054 44.8348 210.316 44.9579L210.003 45.6871C209.787 45.5901 209.564 45.5105 209.335 45.449C209.09 45.3709 208.834 45.3308 208.577 45.33" fill="white"/>
<path d="M215.679 50.9108H212.188V44.6604H215.679V45.4194H213.049V47.2796H215.531V48.0237H213.049V50.1518H215.679V50.9108Z" fill="white"/>
<path d="M219.542 44.6752C219.986 44.6612 220.429 44.7267 220.85 44.8687C221.159 44.9734 221.426 45.1774 221.608 45.449C221.785 45.7559 221.873 46.1066 221.86 46.461C221.868 46.7395 221.807 47.0157 221.682 47.2646C221.574 47.4777 221.416 47.6615 221.221 47.8004C221.037 47.9412 220.831 48.0517 220.612 48.1278L222.365 50.9107H221.355L219.869 48.3659H218.725V50.9107H217.849V44.6752H219.542ZM219.542 45.4193H218.755V47.6367H219.602C219.987 47.6641 220.369 47.5591 220.687 47.339C220.802 47.2317 220.893 47.0999 220.952 46.9532C221.011 46.8066 221.037 46.6487 221.028 46.4908C221.044 46.3315 221.018 46.171 220.953 46.0249C220.887 45.8787 220.786 45.7521 220.657 45.6574C220.316 45.4718 219.929 45.3891 219.542 45.4193Z" fill="white"/>
<path d="M227.982 50.9108L227.283 49.0506H224.847L224.163 50.9108H223.257L225.634 44.6455H226.526L228.903 50.9108H227.982ZM227.046 48.2916L226.392 46.4611C226.356 46.369 226.326 46.2746 226.303 46.1784L226.169 45.7914C226.169 45.6575 226.095 45.5384 226.08 45.4491C226.065 45.3598 226.006 45.6872 225.976 45.8212C225.946 45.9551 225.976 46.0742 225.872 46.1784C225.835 46.2702 225.805 46.3647 225.783 46.4611L225.114 48.2916H227.046Z" fill="white"/>
<path d="M233.241 50.9108L231.295 45.5384C231.295 45.6575 231.295 45.8063 231.295 45.9998C231.295 46.1932 231.295 46.3718 231.295 46.5951C231.295 46.8183 231.295 47.0266 231.295 47.235V50.9108H230.493V44.6753H231.756L233.598 49.75L235.5 44.6753H236.822V50.9108H235.975V46.5951C235.975 46.3867 235.975 46.1932 235.975 46.0146C235.975 45.8361 235.975 45.6724 235.975 45.5533L233.984 50.9108H233.241Z" fill="white"/>
<path d="M240.135 44.6604H239.259V50.9108H240.135V44.6604Z" fill="white"/>
<path d="M245.261 45.33C244.964 45.3244 244.67 45.3854 244.4 45.5086C244.143 45.6136 243.918 45.7827 243.746 45.9997C243.56 46.2271 243.424 46.4906 243.345 46.7736C243.246 47.1019 243.196 47.4428 243.196 47.7855C243.182 48.234 243.263 48.6804 243.434 49.0951C243.562 49.4412 243.796 49.7381 244.102 49.9434C244.444 50.1581 244.844 50.262 245.247 50.241C245.506 50.2472 245.766 50.2222 246.019 50.1666C246.272 50.1249 246.521 50.0602 246.762 49.9731V50.7321C246.526 50.8192 246.282 50.8839 246.034 50.9256C245.735 50.9756 245.431 51.0005 245.128 51C244.575 51.0201 244.028 50.8806 243.553 50.5982C243.128 50.3341 242.795 49.944 242.602 49.482C242.382 48.9441 242.276 48.3665 242.29 47.7855C242.282 47.3462 242.347 46.9086 242.483 46.4908C242.608 46.1185 242.805 45.7746 243.062 45.4789C243.323 45.1906 243.642 44.9621 243.998 44.8091C244.401 44.6527 244.83 44.5769 245.261 44.5859C245.571 44.5854 245.879 44.6153 246.183 44.6752C246.464 44.7427 246.737 44.8374 247 44.958L246.673 45.6872C246.457 45.5901 246.233 45.5105 246.004 45.4491C245.764 45.3711 245.514 45.3309 245.261 45.33Z" fill="white"/>
<path fill-rule="evenodd" clip-rule="evenodd" d="M237.357 0H220.003C217.446 0.00393595 214.996 1.02278 213.189 2.83321C211.381 4.64364 210.364 7.098 210.36 9.65833V27.0403C210.36 28.3086 210.609 29.5646 211.094 30.7364C211.578 31.9082 212.289 32.9729 213.184 33.8697C214.08 34.7666 215.143 35.478 216.313 35.9634C217.482 36.4488 218.736 36.6986 220.003 36.6986H237.357C238.624 36.7005 239.879 36.4521 241.049 35.9674C242.22 35.4827 243.284 34.7714 244.18 33.8741C245.076 32.9769 245.786 31.9114 246.27 30.7387C246.754 29.566 247.002 28.3092 247 27.0403V9.65833C247 7.09679 245.984 4.64014 244.175 2.82885C242.367 1.01757 239.914 0 237.357 0ZM237.743 26.3408C237.739 26.6303 237.622 26.9066 237.416 27.11C237.21 27.3133 236.933 27.4273 236.644 27.4272H220.716C220.427 27.4273 220.149 27.3133 219.944 27.11C219.738 26.9066 219.62 26.6303 219.616 26.3408V10.3726C219.616 10.0806 219.732 9.80046 219.938 9.59393C220.145 9.38741 220.424 9.27139 220.716 9.27139H236.644C236.935 9.27139 237.215 9.38741 237.421 9.59393C237.627 9.80046 237.743 10.0806 237.743 10.3726V26.3408Z" fill="white"/>
<path fill-rule="evenodd" clip-rule="evenodd" d="M198.325 0H180.971C178.415 0.00393595 175.964 1.02278 174.157 2.83321C172.349 4.64364 171.332 7.098 171.328 9.65833V36.6986H180.585V10.3875C180.589 10.0927 180.707 9.81105 180.915 9.60256C181.123 9.39408 181.405 9.27524 181.699 9.27139H184.121C184.415 9.27524 184.696 9.39408 184.905 9.60256C185.113 9.81105 185.231 10.0927 185.235 10.3875V36.6986H194.076V10.3875C194.076 10.0941 194.191 9.81241 194.397 9.60352C194.603 9.39462 194.882 9.2753 195.175 9.27139H197.612C197.905 9.2753 198.185 9.39462 198.39 9.60352C198.596 9.81241 198.712 10.0941 198.711 10.3875V36.6986H207.968V9.65833C207.968 7.09679 206.952 4.64014 205.144 2.82885C203.335 1.01757 200.883 0 198.325 0Z" fill="white"/>
<path fill-rule="evenodd" clip-rule="evenodd" d="M119.904 22.7841H135.966H136.248C138.717 22.7597 141.083 21.7877 142.858 20.0683C144.632 18.3489 145.681 16.0132 145.787 13.5425V9.65833C145.783 7.098 144.766 4.64364 142.959 2.83321C141.151 1.02278 138.701 0.00393595 136.144 0H118.805C116.248 0 113.795 1.01757 111.986 2.82885C110.178 4.64014 109.162 7.09679 109.162 9.65833V27.0403C109.16 28.3092 109.408 29.566 109.892 30.7387C110.376 31.9114 111.086 32.9769 111.982 33.8741C112.878 34.7714 113.942 35.4827 115.112 35.9674C116.283 36.4521 117.538 36.7005 118.805 36.6986H136.159C138.649 36.6967 141.041 35.7308 142.835 34.0027C144.63 32.2747 145.687 29.9185 145.787 27.4272H119.904C119.611 27.4273 119.33 27.3117 119.122 27.1056C118.913 26.8995 118.794 26.6194 118.79 26.3259V23.9002C118.79 23.6042 118.908 23.3203 119.117 23.111C119.325 22.9017 119.609 22.7841 119.904 22.7841ZM118.79 10.2982C118.794 10.0034 118.913 9.72176 119.121 9.51328C119.329 9.30479 119.61 9.18596 119.904 9.1821H134.763C135.055 9.18602 135.335 9.30534 135.541 9.51423C135.747 9.72312 135.862 10.0048 135.862 10.2982V12.724C135.864 12.8699 135.837 13.0147 135.783 13.15C135.728 13.2853 135.648 13.4085 135.545 13.5123C135.443 13.6162 135.321 13.6986 135.187 13.7549C135.052 13.8111 134.908 13.8401 134.763 13.8401H119.904C119.609 13.8401 119.325 13.7225 119.117 13.5132C118.908 13.3039 118.79 13.02 118.79 12.724V10.2982Z" fill="white"/>
<path fill-rule="evenodd" clip-rule="evenodd" d="M72.8788 13.9741H56.8173H56.535C54.0638 13.9912 51.6941 14.9608 49.9179 16.6817C48.1417 18.4026 47.0953 20.7425 46.9961 23.2157V27.0403C46.9961 29.6018 48.012 32.0584 49.8204 33.8697C51.6288 35.681 54.0815 36.6986 56.639 36.6986H73.9783C75.2451 36.7005 76.5 36.4521 77.6708 35.9674C78.8416 35.4827 79.9054 34.7714 80.8012 33.8741C81.697 32.9769 82.4072 31.9114 82.8911 30.7387C83.375 29.566 83.6231 28.3092 83.6212 27.0403V9.65834C83.6212 7.09679 82.6052 4.64014 80.7968 2.82886C78.9884 1.01757 76.5357 2.67587e-06 73.9783 2.67587e-06H56.6241C54.1337 -0.00185438 51.7394 0.962953 49.9441 2.69175C48.1488 4.42054 47.0922 6.77883 46.9961 9.27139H72.8788C73.1718 9.27531 73.4514 9.39462 73.6572 9.60352C73.863 9.81241 73.9783 10.0941 73.9783 10.3875V12.8133C73.9802 12.9591 73.9533 13.1039 73.8989 13.2393C73.8445 13.3746 73.7639 13.4978 73.6616 13.6016C73.5593 13.7054 73.4374 13.7879 73.303 13.8442C73.1686 13.9004 73.0244 13.9294 72.8788 13.9294M73.9783 26.4152C73.9783 26.5599 73.9499 26.7031 73.8946 26.8367C73.8393 26.9703 73.7584 27.0917 73.6563 27.194C73.5542 27.2962 73.433 27.3773 73.2996 27.4327C73.1662 27.488 73.0232 27.5165 72.8788 27.5165H58.0208C57.7278 27.5165 57.4466 27.401 57.238 27.1949C57.0294 26.9888 56.9103 26.7087 56.9064 26.4152V23.9746C56.9103 23.6812 57.0294 23.4011 57.238 23.195C57.4466 22.9889 57.7278 22.8734 58.0208 22.8734H72.8788C73.0232 22.8734 73.1662 22.9018 73.2996 22.9572C73.433 23.0125 73.5542 23.0937 73.6563 23.1959C73.7584 23.2982 73.8393 23.4196 73.8946 23.5532C73.9499 23.6868 73.9783 23.83 73.9783 23.9746V26.4152Z" fill="white"/>
<path fill-rule="evenodd" clip-rule="evenodd" d="M157.822 0C155.266 0.00393595 152.815 1.02278 151.008 2.83321C149.2 4.64364 148.183 7.098 148.179 9.65833V36.6986H157.48V10.1197C157.48 9.86567 157.58 9.62187 157.758 9.44088C157.936 9.2599 158.178 9.15626 158.431 9.15236H162.19C164.614 9.15236 166.938 8.18809 168.652 6.47169C170.365 4.7553 171.328 2.42735 171.328 0H157.822Z" fill="white"/>
<path fill-rule="evenodd" clip-rule="evenodd" d="M95.6707 36.6986C94.4038 36.7005 93.1491 36.4521 91.9782 35.9674C90.8074 35.4827 89.7436 34.7714 88.8478 33.8741C87.952 32.9769 87.2418 31.9114 86.7579 30.7387C86.274 29.566 86.0259 28.3092 86.0278 27.0403V0H95.3141V26.5939C95.3141 26.8465 95.4143 27.0887 95.5926 27.2673C95.771 27.4459 96.0128 27.5463 96.265 27.5463H100.039C102.461 27.5502 104.783 28.5157 106.496 30.2313C108.209 31.9468 109.173 34.2724 109.177 36.6986H95.6707Z" fill="white"/>
<path fill-rule="evenodd" clip-rule="evenodd" d="M0 9.13754H34.6489C34.8671 9.1375 35.0765 9.22325 35.2321 9.37633C35.3877 9.52942 35.4771 9.73758 35.481 9.95602V12.4859C35.4771 12.7044 35.3877 12.9125 35.2321 13.0656C35.0765 13.2187 34.8671 13.3045 34.6489 13.3044H9.12283C7.92676 13.3025 6.74201 13.5365 5.63623 13.9932C4.53045 14.4498 3.5253 15.1201 2.67817 15.9658C1.83104 16.8116 1.15851 17.8162 0.698987 18.9222C0.239466 20.0283 0.00194959 21.2141 0 22.4121V27.591C0.0078696 30.0079 0.972969 32.3229 2.68341 34.0277C4.39384 35.7325 6.70981 36.6878 9.12283 36.6838V23.2902C9.12283 23.0731 9.20893 22.8649 9.36219 22.7114C9.51544 22.5579 9.7233 22.4716 9.94003 22.4716H35.481C36.6764 22.4736 37.8604 22.2395 38.9653 21.7826C40.0703 21.3258 41.0745 20.6552 41.9204 19.8093C42.7663 18.9634 43.4375 17.9587 43.8954 16.8528C44.3533 15.7468 44.589 14.5613 44.589 13.364V9.21193C44.589 8.01464 44.3533 6.8291 43.8954 5.72314C43.4375 4.61717 42.7663 3.6125 41.9204 2.76657C41.0745 1.92065 40.0703 1.25009 38.9653 0.793262C37.8604 0.336434 36.6764 0.102304 35.481 0.10426H9.12283C7.92676 0.102304 6.74201 0.336344 5.63623 0.792989C4.53045 1.24963 3.5253 1.91994 2.67817 2.76567C1.83104 3.61139 1.15851 4.616 0.698987 5.72205C0.239466 6.8281 0.00194959 8.01394 0 9.21193" fill="white"/>
<path d="M122.831 44.571H0V50.8661H122.831V44.571Z" fill="white"/>
<path d="M145.802 44.571H139.428V50.9553H145.802V44.571Z" fill="white"/>
<path d="M138.135 44.571H124.109V50.9553H138.135V44.571Z" fill="white"/>
</g>
<defs>
<clipPath id="clip0_831_6774">
<rect width="247" height="51" fill="white"/>
</clipPath>
</defs>
</svg>
