<svg width="387" height="80" viewBox="0 0 387 80" fill="none" xmlns="http://www.w3.org/2000/svg">
<g clip-path="url(#clip0_831_7456)">
<path d="M32.0527 45.1794C14.0689 33.7624 13.3348 18.438 25.2833 6.36987C21.8937 7.93248 19.0135 10.4162 16.9725 13.5367C14.9314 16.6572 13.8121 20.2883 13.7426 24.0142L1.77376 35.9603C0.692998 37.0402 0.0859375 38.5041 0.0859375 40.0305C0.0859375 41.5568 0.692998 43.0208 1.77376 44.1007L23.2443 65.51C34.1529 76.4589 62.2705 64.3704 32.0527 45.1794Z" fill="white"/>
<path d="M56.9081 52.811C64.228 76.2962 35.8861 91.7833 17.3721 68.4203C39.23 84.1109 59.049 70.5775 56.9081 52.811Z" fill="white"/>
<path d="M49.2827 34.8207C67.2665 46.258 68.021 61.5417 56.1541 73.6505C59.5399 72.085 62.4158 69.6 64.4531 66.4797C66.4904 63.3595 67.6067 59.7299 67.6744 56.0062L79.6432 44.0601C80.724 42.9802 81.331 41.5163 81.331 39.9899C81.331 38.4635 80.724 36.9996 79.6432 35.9197L58.1523 14.4696C47.1825 3.54113 19.1668 15.6297 49.2827 34.8207Z" fill="white"/>
<path d="M24.4474 27.2093C17.1071 3.72415 45.449 -11.7833 63.963 11.5797C42.1255 -4.11099 22.2861 9.4428 24.4474 27.2093Z" fill="white"/>
<path d="M101.521 38.9315C100.345 37.9217 99.3991 36.6733 98.7451 35.2696C98.0912 33.8659 97.7446 32.3391 97.7286 30.7911C97.6736 28.7764 98.1895 26.7871 99.217 25.0521C100.205 23.3694 101.609 21.968 103.295 20.9819C104.97 19.9817 106.889 19.4608 108.841 19.4759H133.961C135.919 19.4759 137.796 20.2521 139.181 21.6337C140.565 23.0153 141.343 24.8891 141.343 26.843H108.882C107.917 26.8357 106.985 27.1918 106.272 27.8402C105.896 28.1792 105.596 28.5939 105.392 29.0569C105.189 29.52 105.085 30.0208 105.089 30.5265C105.091 31.0273 105.199 31.5221 105.406 31.9781C105.614 32.4342 105.916 32.8411 106.292 33.1721C106.971 33.7066 107.795 34.0257 108.658 34.0879C109.727 34.2089 110.803 34.2632 111.879 34.2507H112.532C115.407 34.2507 118.302 34.2507 121.197 34.2507H122.054H126.254H127.722C128.941 34.2094 130.16 34.257 131.372 34.3932C132.704 34.5479 134 34.9263 135.205 35.5125C136.723 36.2515 138.046 37.3365 139.066 38.6799C140.086 40.0233 140.775 41.5875 141.077 43.2459C141.388 44.8785 141.339 46.5589 140.935 48.1708C140.498 49.8688 139.651 51.4341 138.468 52.7295C137.342 53.9853 135.949 54.9729 134.39 55.6193C133.025 56.1477 131.571 56.4102 130.108 56.3927H97.7286C97.7286 54.4442 98.5041 52.5756 99.8845 51.1978C101.265 49.82 103.137 49.046 105.089 49.046H130.332C130.867 49.0325 131.392 48.9025 131.871 48.6653C132.35 48.428 132.771 48.0891 133.105 47.6723C133.439 47.2555 133.678 46.771 133.805 46.2524C133.931 45.7339 133.943 45.194 133.839 44.6705C133.748 44.1294 133.528 43.618 133.198 43.179C132.868 42.74 132.438 42.3861 131.943 42.1469C130.64 41.6697 129.247 41.4889 127.865 41.6179H126.417C125.01 41.6179 123.583 41.6179 122.115 41.6179H121.259C118.322 41.6179 115.366 41.6179 112.389 41.6179H111.818C110.117 41.6435 108.418 41.5141 106.741 41.2312C104.826 40.879 103.034 40.0376 101.541 38.789" fill="white"/>
<path d="M154.086 41.7401V56.4538C153.118 56.4565 152.159 56.2685 151.263 55.9005C150.368 55.5325 149.554 54.9917 148.868 54.3092C148.183 53.6268 147.638 52.816 147.267 51.9233C146.896 51.0306 146.705 50.0736 146.705 49.1071V19.6184C148.663 19.6184 150.54 20.3946 151.924 21.7762C153.309 23.1578 154.086 25.0317 154.086 26.9855V34.3729H182.999V26.9855C182.999 25.0352 183.774 23.1644 185.154 21.7834C186.534 20.4024 188.406 19.6238 190.36 19.6184V49.1071C190.36 50.0719 190.169 51.0272 189.8 51.9186C189.43 52.8099 188.887 53.6198 188.204 54.302C187.52 54.9842 186.709 55.5254 185.816 55.8946C184.923 56.2638 183.966 56.4538 182.999 56.4538V41.7401H154.086Z" fill="white"/>
<path d="M195.519 19.6184C197.476 19.6184 199.354 20.3946 200.738 21.7762C202.122 23.1578 202.9 25.0317 202.9 26.9855V56.4742C200.942 56.4742 199.065 55.698 197.68 54.3164C196.296 52.9348 195.519 51.061 195.519 49.1071V19.6184Z" fill="white"/>
<path d="M215.44 28.4304V49.1071C215.44 50.0736 215.249 51.0306 214.877 51.9233C214.506 52.816 213.962 53.6268 213.277 54.3092C212.591 54.9917 211.777 55.5325 210.882 55.9005C209.986 56.2685 209.027 56.4565 208.059 56.4538V19.6184H216.949L245.494 47.6825V19.6184C247.448 19.6238 249.321 20.4024 250.701 21.7834C252.08 23.1644 252.855 25.0352 252.855 26.9855V56.4538H243.904L215.44 28.4304Z" fill="white"/>
<path d="M298.711 26.9855H265.496V34.3729H283.97C285.927 34.3729 287.805 35.1491 289.189 36.5307C290.573 37.9123 291.351 39.7862 291.351 41.7401H265.496V49.1071C265.496 50.0736 265.305 51.0306 264.934 51.9233C264.563 52.816 264.019 53.6268 263.333 54.3092C262.648 54.9917 261.834 55.5325 260.938 55.9005C260.043 56.2685 259.084 56.4565 258.115 56.4538V19.6184H291.351C293.305 19.6238 295.177 20.4024 296.557 21.7834C297.937 23.1644 298.712 25.0352 298.711 26.9855Z" fill="white"/>
<path d="M311.251 56.4538H303.87V19.6184H344.466C344.466 21.5688 343.692 23.4396 342.312 24.8206C340.932 26.2016 339.06 26.9802 337.106 26.9855H311.251V34.3729H329.724C331.682 34.3729 333.559 35.1491 334.944 36.5307C336.328 37.9123 337.106 39.7862 337.106 41.7401H311.251V49.1071H337.106C339.058 49.1071 340.93 49.8812 342.31 51.2589C343.691 52.6367 344.466 54.5054 344.466 56.4538H311.251Z" fill="white"/>
<path d="M379.456 41.2516L387.021 56.4743H379.599L372.34 41.8622H357.027C356.044 41.8622 355.071 41.669 354.163 41.2937C353.256 40.9183 352.431 40.3682 351.736 39.6746C351.041 38.9811 350.49 38.1577 350.114 37.2516C349.737 36.3454 349.544 35.3742 349.544 34.3933H376.051C377.03 34.3933 377.968 34.0053 378.66 33.3145C379.353 32.6237 379.741 31.6867 379.741 30.7098C379.741 29.7329 379.353 28.7959 378.66 28.1051C377.968 27.4143 377.03 27.0263 376.051 27.0263H357.027C355.042 27.0263 353.139 26.2394 351.736 24.8387C350.332 23.438 349.544 21.5383 349.544 19.5574H375.847C378.058 19.5516 380.221 20.2021 382.062 21.4262C383.902 22.6503 385.336 24.3927 386.181 26.4321C387.027 28.4715 387.246 30.7158 386.811 32.8798C386.376 35.0438 385.306 37.0299 383.738 38.5857C382.539 39.7968 381.073 40.7099 379.456 41.2516Z" fill="white"/>
</g>
<defs>
<clipPath id="clip0_831_7456">
<rect width="387" height="80" fill="white"/>
</clipPath>
</defs>
</svg>
