<svg width="400" height="400" viewBox="0 0 400 400" fill="none" xmlns="http://www.w3.org/2000/svg">
<g clip-path="url(#clip0_831_7468)">
<path d="M180.492 188.583C139.73 162.638 137.984 127.934 164.885 100.44C147.411 107.879 139.517 125.14 138.758 140.504L111.614 167.648C109.187 170.089 107.824 173.391 107.824 176.833C107.824 180.275 109.187 183.577 111.614 186.018L160.331 234.735C185.168 259.633 248.93 232.154 180.492 188.583Z" fill="#821417"/>
<path d="M236.784 205.906C253.378 259.238 189.16 294.428 147.214 241.369C196.736 277 241.657 246.243 236.784 205.906Z" fill="#821417"/>
<path d="M219.523 165.113C260.285 191.043 262.031 225.748 235.13 253.257C252.603 245.818 260.483 228.556 261.257 213.193L288.401 186.003C290.825 183.56 292.184 180.259 292.184 176.818C292.184 173.377 290.825 170.076 288.401 167.633L239.684 118.916C214.771 94.0187 151.04 121.482 219.523 165.113Z" fill="#821417"/>
<path d="M163.215 147.73C146.622 94.4133 210.824 59.2228 252.786 112.282C203.279 76.6359 158.342 107.424 163.215 147.73Z" fill="#821417"/>
<path d="M292.181 399.985C292.133 399.985 292.087 399.966 292.052 399.931C292.018 399.897 291.999 399.851 291.999 399.803V0.18217C291.999 0.133854 292.018 0.0875147 292.052 0.0533499C292.087 0.0191851 292.133 8.67517e-07 292.181 8.67517e-07C292.231 -0.000146718 292.279 0.0185415 292.316 0.0523306C292.352 0.0861197 292.375 0.132502 292.379 0.18217V399.803C292.379 399.828 292.373 399.853 292.363 399.876C292.353 399.899 292.339 399.92 292.32 399.937C292.301 399.954 292.279 399.967 292.256 399.976C292.232 399.984 292.206 399.987 292.181 399.985Z" fill="black"/>
<path d="M107.819 399.985C107.771 399.985 107.724 399.966 107.69 399.931C107.656 399.897 107.637 399.851 107.637 399.803V0.18217C107.637 0.133854 107.656 0.0875147 107.69 0.0533499C107.724 0.0191851 107.771 8.67517e-07 107.819 8.67517e-07C107.869 -0.000146718 107.917 0.0185415 107.953 0.0523306C107.99 0.0861197 108.012 0.132502 108.016 0.18217V399.803C108.016 399.828 108.011 399.853 108.001 399.876C107.991 399.899 107.976 399.92 107.958 399.937C107.939 399.954 107.917 399.967 107.893 399.976C107.869 399.984 107.844 399.987 107.819 399.985Z" fill="black"/>
<path d="M399.818 86.1698H0.197274C0.172105 86.1719 0.146847 86.1688 0.122961 86.1606C0.099075 86.1523 0.0771211 86.1393 0.0585622 86.1221C0.0400034 86.105 0.0251943 86.0842 0.0151047 86.061C0.00501511 86.0379 -8.67472e-05 86.0129 1.11578e-06 85.9876C1.11578e-06 85.9353 0.0207164 85.8851 0.0577283 85.8481C0.0947402 85.8111 0.144932 85.7903 0.197274 85.7903H399.818C399.867 85.7941 399.914 85.8166 399.948 85.8532C399.981 85.8898 400 85.9378 400 85.9876C400 86.036 399.981 86.0823 399.947 86.1164C399.912 86.1506 399.866 86.1698 399.818 86.1698Z" fill="black"/>
<path d="M399.818 267.846H0.197274C0.144932 267.846 0.0947402 267.825 0.0577283 267.788C0.0207164 267.751 1.11578e-06 267.701 1.11578e-06 267.648C-8.67472e-05 267.623 0.00501511 267.598 0.0151047 267.575C0.0251943 267.552 0.0400034 267.531 0.0585622 267.514C0.0771211 267.497 0.099075 267.484 0.122961 267.475C0.146847 267.467 0.172105 267.464 0.197274 267.466H399.818C399.866 267.466 399.912 267.485 399.947 267.52C399.981 267.554 400 267.6 400 267.648C400 267.698 399.981 267.746 399.948 267.783C399.914 267.819 399.867 267.842 399.818 267.846Z" fill="black"/>
<path d="M399.818 109.67H0.197274C0.144932 109.67 0.0947402 109.65 0.0577283 109.613C0.0207164 109.576 1.11578e-06 109.525 1.11578e-06 109.473C-8.67472e-05 109.448 0.00501511 109.423 0.0151047 109.4C0.0251943 109.377 0.0400034 109.356 0.0585622 109.339C0.0771211 109.321 0.099075 109.308 0.122961 109.3C0.146847 109.292 0.172105 109.289 0.197274 109.291H399.818C399.866 109.291 399.912 109.31 399.947 109.344C399.981 109.378 400 109.425 400 109.473C400 109.523 399.981 109.571 399.948 109.608C399.914 109.644 399.867 109.667 399.818 109.67Z" fill="black"/>
<path d="M399.818 244.36H0.197274C0.144932 244.36 0.0947402 244.339 0.0577283 244.302C0.0207164 244.265 1.11578e-06 244.215 1.11578e-06 244.163C-8.67472e-05 244.138 0.00501511 244.113 0.0151047 244.089C0.0251943 244.066 0.0400034 244.045 0.0585622 244.028C0.0771211 244.011 0.099075 243.998 0.122961 243.99C0.146847 243.982 0.172105 243.979 0.197274 243.981H399.818C399.866 243.981 399.912 244 399.947 244.034C399.981 244.068 400 244.114 400 244.163C400 244.213 399.981 244.261 399.948 244.297C399.914 244.334 399.867 244.356 399.818 244.36Z" fill="black"/>
<path d="M211.416 183.862C211.412 183.812 211.419 183.761 211.435 183.713C211.451 183.666 211.478 183.622 211.512 183.585C211.546 183.547 211.588 183.518 211.634 183.498C211.68 183.478 211.73 183.467 211.781 183.467C211.879 183.463 211.975 183.497 212.049 183.562C212.122 183.627 212.168 183.719 212.176 183.817C212.18 183.867 212.173 183.918 212.157 183.965C212.141 184.013 212.114 184.057 212.08 184.094C212.046 184.131 212.004 184.161 211.958 184.181C211.912 184.201 211.862 184.211 211.811 184.211C211.713 184.215 211.617 184.181 211.543 184.116C211.47 184.051 211.424 183.96 211.416 183.862ZM205.708 184.196C205.658 184.192 205.61 184.179 205.565 184.156C205.521 184.133 205.481 184.102 205.448 184.064C205.416 184.026 205.391 183.982 205.376 183.934C205.361 183.886 205.355 183.836 205.359 183.786C205.359 183.736 205.369 183.687 205.389 183.641C205.41 183.595 205.44 183.555 205.477 183.522C205.514 183.489 205.558 183.464 205.606 183.449C205.654 183.435 205.704 183.43 205.754 183.437C205.852 183.445 205.943 183.49 206.008 183.564C206.073 183.637 206.107 183.733 206.103 183.832C206.099 183.93 206.057 184.022 205.987 184.09C205.916 184.158 205.821 184.196 205.723 184.196H205.708ZM217.444 183.179C217.43 183.081 217.453 182.981 217.509 182.9C217.566 182.818 217.651 182.761 217.747 182.739C217.846 182.721 217.947 182.743 218.03 182.8C218.112 182.857 218.169 182.944 218.187 183.042C218.198 183.092 218.199 183.144 218.19 183.194C218.18 183.244 218.161 183.292 218.133 183.335C218.104 183.377 218.068 183.414 218.025 183.442C217.982 183.47 217.934 183.489 217.884 183.498C217.834 183.506 217.783 183.505 217.733 183.493C217.684 183.482 217.637 183.461 217.596 183.431C217.555 183.401 217.521 183.364 217.494 183.32C217.468 183.277 217.451 183.229 217.444 183.179ZM199.636 183.407C199.54 183.385 199.457 183.327 199.403 183.245C199.349 183.163 199.329 183.063 199.347 182.966C199.354 182.917 199.372 182.869 199.398 182.826C199.425 182.784 199.46 182.747 199.501 182.718C199.542 182.69 199.589 182.67 199.638 182.661C199.688 182.651 199.739 182.652 199.788 182.663C199.886 182.681 199.973 182.738 200.03 182.82C200.087 182.903 200.109 183.004 200.091 183.103C200.071 183.189 200.022 183.265 199.954 183.32C199.885 183.375 199.8 183.406 199.712 183.407H199.636ZM223.349 181.813C223.333 181.765 223.326 181.714 223.329 181.664C223.332 181.613 223.346 181.564 223.368 181.519C223.391 181.473 223.422 181.433 223.461 181.4C223.499 181.367 223.544 181.342 223.592 181.327C223.687 181.298 223.789 181.307 223.877 181.353C223.965 181.398 224.031 181.476 224.063 181.57C224.079 181.617 224.086 181.668 224.083 181.719C224.079 181.769 224.066 181.818 224.044 181.864C224.021 181.909 223.989 181.949 223.951 181.982C223.913 182.015 223.868 182.04 223.82 182.055H223.698C223.622 182.054 223.549 182.031 223.486 181.988C223.424 181.944 223.376 181.883 223.349 181.813ZM193.73 181.904C193.681 181.892 193.635 181.87 193.596 181.839C193.556 181.808 193.524 181.769 193.501 181.724C193.478 181.679 193.464 181.63 193.462 181.58C193.46 181.53 193.468 181.48 193.487 181.433C193.519 181.339 193.585 181.261 193.673 181.216C193.761 181.171 193.863 181.161 193.958 181.19C194.052 181.221 194.13 181.288 194.175 181.376C194.22 181.464 194.23 181.566 194.201 181.661C194.181 181.738 194.136 181.807 194.073 181.857C194.009 181.906 193.932 181.933 193.852 181.934L193.73 181.904ZM229.012 179.642C228.975 179.549 228.975 179.445 229.012 179.352C229.048 179.259 229.119 179.184 229.209 179.141C229.3 179.099 229.403 179.095 229.497 179.129C229.591 179.163 229.667 179.233 229.71 179.323C229.752 179.416 229.757 179.521 229.723 179.618C229.689 179.714 229.619 179.793 229.528 179.839H229.361C229.286 179.836 229.213 179.812 229.151 179.769C229.089 179.726 229.041 179.666 229.012 179.596V179.642ZM188.022 179.642C187.975 179.621 187.934 179.59 187.899 179.553C187.865 179.515 187.838 179.471 187.821 179.422C187.804 179.374 187.797 179.323 187.8 179.272C187.803 179.221 187.817 179.171 187.84 179.125C187.885 179.038 187.963 178.972 188.056 178.941C188.15 178.909 188.252 178.916 188.341 178.958C188.387 178.978 188.428 179.007 188.463 179.043C188.497 179.079 188.524 179.122 188.541 179.169C188.558 179.216 188.565 179.266 188.562 179.316C188.559 179.366 188.546 179.415 188.523 179.459C188.493 179.526 188.443 179.581 188.381 179.619C188.319 179.657 188.246 179.676 188.174 179.672L188.022 179.642ZM234.34 176.788C234.289 176.703 234.273 176.601 234.296 176.505C234.319 176.408 234.378 176.325 234.462 176.271C234.549 176.219 234.653 176.203 234.752 176.226C234.851 176.248 234.937 176.308 234.993 176.393C235.044 176.478 235.06 176.579 235.038 176.676C235.015 176.772 234.955 176.856 234.872 176.909C234.803 176.931 234.728 176.931 234.659 176.909C234.602 176.905 234.546 176.888 234.496 176.859C234.446 176.83 234.403 176.79 234.371 176.742L234.34 176.788ZM182.724 176.666C182.64 176.613 182.58 176.529 182.558 176.433C182.535 176.336 182.551 176.235 182.602 176.15C182.658 176.065 182.745 176.005 182.844 175.983C182.942 175.96 183.046 175.977 183.133 176.028C183.216 176.087 183.272 176.174 183.292 176.273C183.312 176.372 183.293 176.474 183.24 176.56C183.204 176.611 183.156 176.653 183.1 176.682C183.045 176.711 182.984 176.726 182.921 176.727C182.84 176.719 182.764 176.681 182.708 176.621L182.724 176.666ZM239.35 173.296C239.281 173.225 239.242 173.129 239.242 173.03C239.242 172.931 239.281 172.835 239.35 172.764C239.424 172.694 239.522 172.655 239.624 172.655C239.725 172.655 239.823 172.694 239.897 172.764C239.966 172.835 240.005 172.931 240.005 173.03C240.005 173.129 239.966 173.225 239.897 173.296C239.829 173.354 239.743 173.386 239.654 173.387C239.594 173.391 239.533 173.381 239.478 173.357C239.423 173.333 239.374 173.297 239.335 173.25L239.35 173.296ZM177.79 173.068C177.753 173.033 177.724 172.99 177.704 172.943C177.684 172.896 177.673 172.846 177.673 172.795C177.673 172.744 177.684 172.693 177.704 172.646C177.724 172.599 177.753 172.557 177.79 172.522C177.861 172.452 177.956 172.413 178.055 172.413C178.155 172.413 178.25 172.452 178.321 172.522C178.391 172.592 178.429 172.688 178.429 172.787C178.429 172.887 178.391 172.982 178.321 173.053C178.286 173.095 178.242 173.129 178.192 173.153C178.142 173.177 178.088 173.189 178.033 173.19C177.929 173.168 177.837 173.108 177.774 173.023L177.79 173.068ZM243.829 169.212C243.758 169.139 243.719 169.041 243.719 168.939C243.719 168.837 243.758 168.739 243.829 168.665C243.902 168.595 244 168.556 244.102 168.556C244.204 168.556 244.302 168.595 244.375 168.665C244.446 168.739 244.485 168.837 244.485 168.939C244.485 169.041 244.446 169.139 244.375 169.212C244.34 169.248 244.297 169.276 244.25 169.294C244.203 169.312 244.153 169.32 244.102 169.318C244.046 169.314 243.992 169.298 243.942 169.272C243.893 169.246 243.849 169.21 243.814 169.166L243.829 169.212ZM173.342 168.863C173.305 168.829 173.276 168.788 173.256 168.742C173.237 168.696 173.226 168.647 173.226 168.597C173.226 168.547 173.237 168.498 173.256 168.452C173.276 168.407 173.305 168.366 173.342 168.331C173.376 168.295 173.417 168.266 173.462 168.246C173.508 168.227 173.557 168.216 173.607 168.216C173.657 168.216 173.706 168.227 173.752 168.246C173.798 168.266 173.839 168.295 173.873 168.331C173.909 168.366 173.938 168.407 173.958 168.452C173.978 168.498 173.988 168.547 173.988 168.597C173.988 168.647 173.978 168.696 173.958 168.742C173.938 168.788 173.909 168.829 173.873 168.863C173.839 168.897 173.799 168.925 173.755 168.943C173.71 168.961 173.663 168.97 173.615 168.969C173.558 168.967 173.503 168.952 173.453 168.926C173.403 168.899 173.36 168.862 173.326 168.817L173.342 168.863ZM247.73 164.597C247.689 164.568 247.654 164.531 247.628 164.489C247.601 164.447 247.583 164.4 247.574 164.35C247.566 164.301 247.567 164.25 247.578 164.201C247.59 164.152 247.61 164.106 247.639 164.065C247.71 163.996 247.806 163.957 247.905 163.957C248.004 163.957 248.1 163.996 248.171 164.065C248.213 164.091 248.249 164.126 248.277 164.167C248.305 164.208 248.324 164.254 248.333 164.303C248.341 164.352 248.34 164.402 248.327 164.45C248.315 164.498 248.293 164.543 248.262 164.582C248.226 164.633 248.178 164.675 248.123 164.704C248.067 164.733 248.006 164.748 247.943 164.749C247.859 164.708 247.794 164.638 247.761 164.551L247.73 164.597ZM169.409 164.141C169.378 164.102 169.354 164.057 169.34 164.009C169.327 163.96 169.324 163.909 169.331 163.859C169.338 163.809 169.355 163.761 169.382 163.718C169.409 163.675 169.444 163.639 169.485 163.61C169.526 163.581 169.572 163.56 169.621 163.549C169.67 163.538 169.721 163.536 169.77 163.545C169.819 163.553 169.867 163.572 169.909 163.598C169.951 163.625 169.988 163.66 170.017 163.701C170.046 163.742 170.067 163.788 170.078 163.837C170.089 163.886 170.09 163.936 170.082 163.986C170.073 164.035 170.055 164.082 170.028 164.125C170.002 164.167 169.967 164.204 169.926 164.233C169.865 164.28 169.79 164.306 169.713 164.308C169.653 164.3 169.596 164.276 169.548 164.238C169.5 164.201 169.463 164.152 169.44 164.096L169.409 164.141ZM251.055 159.587C250.969 159.536 250.906 159.454 250.881 159.357C250.855 159.26 250.869 159.157 250.919 159.071C250.969 158.985 251.051 158.922 251.147 158.893C251.243 158.865 251.345 158.874 251.435 158.919C251.521 158.97 251.584 159.052 251.609 159.149C251.635 159.246 251.621 159.348 251.571 159.435C251.541 159.497 251.494 159.549 251.434 159.585C251.375 159.62 251.306 159.636 251.237 159.633L251.055 159.587ZM166.13 159.04C166.106 158.997 166.091 158.948 166.086 158.899C166.08 158.849 166.085 158.799 166.099 158.751C166.113 158.703 166.137 158.658 166.168 158.619C166.199 158.58 166.238 158.548 166.282 158.524C166.326 158.5 166.374 158.485 166.424 158.48C166.474 158.474 166.524 158.479 166.572 158.493C166.62 158.507 166.664 158.53 166.703 158.562C166.742 158.593 166.774 158.632 166.798 158.676C166.843 158.765 166.852 158.868 166.824 158.964C166.796 159.06 166.732 159.141 166.646 159.192H166.464C166.395 159.18 166.331 159.15 166.277 159.104C166.224 159.059 166.184 159 166.161 158.934L166.13 159.04ZM253.727 154.137C253.68 154.12 253.637 154.094 253.601 154.06C253.566 154.026 253.537 153.985 253.519 153.939C253.5 153.893 253.491 153.843 253.493 153.794C253.495 153.744 253.508 153.695 253.53 153.651C253.546 153.604 253.573 153.561 253.606 153.525C253.64 153.489 253.681 153.46 253.727 153.44C253.772 153.42 253.821 153.41 253.871 153.409C253.921 153.409 253.97 153.419 254.015 153.438C254.063 153.457 254.106 153.484 254.142 153.52C254.179 153.555 254.208 153.597 254.228 153.644C254.247 153.691 254.258 153.741 254.258 153.792C254.258 153.843 254.248 153.893 254.228 153.94C254.198 154.007 254.15 154.065 254.088 154.106C254.026 154.146 253.953 154.167 253.879 154.167C253.824 154.137 253.781 154.089 253.757 154.031L253.727 154.137ZM163.534 153.499C163.515 153.454 163.505 153.404 163.505 153.355C163.505 153.305 163.516 153.256 163.536 153.21C163.556 153.165 163.585 153.124 163.621 153.09C163.657 153.056 163.7 153.03 163.747 153.013C163.84 152.978 163.942 152.981 164.033 153.021C164.124 153.061 164.195 153.134 164.233 153.226C164.252 153.272 164.262 153.321 164.262 153.37C164.262 153.42 164.251 153.469 164.231 153.515C164.211 153.56 164.182 153.601 164.146 153.635C164.11 153.669 164.067 153.695 164.02 153.712H163.883C163.803 153.7 163.729 153.662 163.672 153.605C163.614 153.547 163.577 153.473 163.565 153.393L163.534 153.499ZM255.701 148.413C255.605 148.382 255.525 148.317 255.475 148.23C255.424 148.143 255.408 148.041 255.427 147.943C255.456 147.846 255.521 147.763 255.608 147.712C255.696 147.661 255.8 147.646 255.898 147.67C255.995 147.698 256.078 147.763 256.129 147.85C256.18 147.938 256.195 148.042 256.171 148.14C256.145 148.22 256.095 148.29 256.026 148.339C255.958 148.388 255.876 148.414 255.792 148.413H255.701ZM161.576 147.685C161.562 147.636 161.558 147.585 161.565 147.534C161.571 147.484 161.588 147.436 161.613 147.392C161.639 147.348 161.673 147.31 161.713 147.279C161.754 147.249 161.8 147.226 161.849 147.214C161.946 147.191 162.047 147.207 162.133 147.258C162.218 147.309 162.28 147.391 162.305 147.487C162.328 147.586 162.313 147.69 162.262 147.777C162.211 147.865 162.129 147.93 162.031 147.958H161.94C161.862 147.932 161.794 147.88 161.747 147.812C161.701 147.743 161.678 147.661 161.682 147.578L161.576 147.685ZM256.961 142.341C256.911 142.335 256.863 142.32 256.82 142.295C256.777 142.27 256.739 142.237 256.709 142.197C256.679 142.158 256.658 142.112 256.646 142.064C256.635 142.015 256.633 141.965 256.642 141.916C256.647 141.866 256.663 141.818 256.688 141.775C256.712 141.732 256.746 141.694 256.785 141.664C256.825 141.635 256.871 141.613 256.919 141.602C256.968 141.59 257.018 141.588 257.067 141.597C257.116 141.602 257.164 141.618 257.208 141.643C257.251 141.667 257.289 141.701 257.318 141.741C257.348 141.78 257.37 141.826 257.381 141.874C257.393 141.923 257.394 141.973 257.386 142.022C257.374 142.113 257.329 142.197 257.259 142.256C257.188 142.315 257.098 142.345 257.006 142.341H256.961ZM160.544 141.551C160.531 141.453 160.557 141.353 160.616 141.274C160.676 141.194 160.764 141.141 160.862 141.126C160.913 141.118 160.964 141.12 161.013 141.132C161.063 141.145 161.109 141.168 161.149 141.199C161.189 141.23 161.222 141.27 161.246 141.315C161.27 141.36 161.284 141.41 161.287 141.46C161.301 141.559 161.274 141.659 161.215 141.738C161.155 141.817 161.067 141.87 160.969 141.885C160.92 141.894 160.869 141.893 160.821 141.881C160.772 141.869 160.727 141.848 160.687 141.818C160.647 141.788 160.614 141.75 160.589 141.707C160.565 141.664 160.549 141.616 160.544 141.567V141.551ZM257.447 136.268C257.346 136.268 257.249 136.228 257.178 136.157C257.107 136.086 257.067 135.989 257.067 135.889C257.067 135.788 257.107 135.692 257.178 135.62C257.249 135.549 257.346 135.509 257.447 135.509C257.547 135.509 257.644 135.549 257.715 135.62C257.786 135.692 257.826 135.788 257.826 135.889C257.826 135.989 257.786 136.086 257.715 136.157C257.644 136.228 257.547 136.268 257.447 136.268ZM160.164 135.418C160.164 135.318 160.204 135.221 160.275 135.15C160.346 135.079 160.443 135.039 160.544 135.039C160.644 135.039 160.741 135.079 160.812 135.15C160.883 135.221 160.923 135.318 160.923 135.418C160.923 135.519 160.883 135.615 160.812 135.687C160.741 135.758 160.644 135.798 160.544 135.798C160.45 135.798 160.36 135.765 160.29 135.703C160.22 135.641 160.175 135.556 160.164 135.464V135.418ZM160.544 134.872C160.442 134.868 160.345 134.824 160.274 134.751C160.203 134.677 160.164 134.579 160.164 134.477C160.166 134.427 160.178 134.378 160.199 134.333C160.22 134.287 160.249 134.247 160.286 134.213C160.322 134.179 160.365 134.153 160.412 134.136C160.459 134.118 160.509 134.111 160.559 134.113C160.608 134.11 160.658 134.119 160.705 134.137C160.751 134.155 160.793 134.184 160.827 134.22C160.862 134.255 160.888 134.298 160.905 134.345C160.921 134.392 160.928 134.442 160.923 134.492C160.923 134.593 160.883 134.689 160.812 134.76C160.741 134.832 160.644 134.872 160.544 134.872ZM256.748 129.877C256.739 129.777 256.769 129.677 256.831 129.598C256.893 129.519 256.983 129.467 257.082 129.452C257.132 129.446 257.183 129.449 257.231 129.463C257.28 129.476 257.325 129.499 257.365 129.53C257.404 129.561 257.437 129.6 257.462 129.644C257.486 129.687 257.502 129.736 257.507 129.786C257.516 129.886 257.487 129.986 257.424 130.065C257.362 130.144 257.273 130.196 257.173 130.211C257.08 130.219 256.987 130.194 256.91 130.142C256.833 130.089 256.776 130.012 256.748 129.923V129.877ZM160.984 128.814C160.886 128.799 160.797 128.746 160.738 128.667C160.678 128.587 160.652 128.488 160.665 128.389C160.68 128.291 160.733 128.203 160.812 128.143C160.892 128.083 160.992 128.057 161.09 128.07C161.14 128.076 161.187 128.091 161.231 128.116C161.274 128.141 161.312 128.174 161.341 128.214C161.371 128.254 161.393 128.299 161.404 128.348C161.416 128.396 161.417 128.446 161.409 128.495C161.398 128.584 161.354 128.665 161.287 128.724C161.22 128.783 161.134 128.815 161.045 128.814H160.984ZM255.686 123.941C255.674 123.892 255.673 123.842 255.681 123.792C255.69 123.743 255.708 123.696 255.735 123.653C255.762 123.611 255.797 123.574 255.838 123.545C255.879 123.517 255.925 123.496 255.974 123.486C256.023 123.474 256.073 123.473 256.123 123.481C256.172 123.49 256.219 123.508 256.262 123.535C256.304 123.562 256.341 123.597 256.37 123.638C256.398 123.679 256.419 123.725 256.429 123.774C256.452 123.871 256.437 123.972 256.386 124.057C256.335 124.143 256.252 124.204 256.156 124.229H256.065C255.985 124.233 255.905 124.211 255.837 124.167C255.769 124.124 255.716 124.061 255.686 123.987V123.941ZM162.183 122.863C162.134 122.853 162.089 122.832 162.048 122.803C162.008 122.774 161.974 122.737 161.948 122.695C161.922 122.652 161.906 122.604 161.899 122.555C161.893 122.506 161.896 122.456 161.91 122.408C161.938 122.31 162.003 122.228 162.091 122.177C162.178 122.126 162.282 122.111 162.38 122.134C162.476 122.166 162.556 122.231 162.606 122.318C162.657 122.405 162.674 122.507 162.654 122.605C162.631 122.684 162.583 122.753 162.517 122.802C162.451 122.852 162.372 122.878 162.289 122.878H162.183V122.863ZM253.894 118.202C253.875 118.157 253.865 118.108 253.865 118.058C253.865 118.008 253.876 117.959 253.896 117.914C253.915 117.868 253.944 117.827 253.981 117.793C254.017 117.759 254.06 117.733 254.107 117.717C254.153 117.697 254.204 117.687 254.254 117.687C254.305 117.687 254.355 117.697 254.402 117.717C254.449 117.737 254.491 117.766 254.526 117.802C254.562 117.839 254.589 117.882 254.608 117.929C254.642 118.024 254.637 118.128 254.594 118.219C254.552 118.31 254.475 118.381 254.38 118.415H254.243C254.175 118.421 254.107 118.409 254.046 118.379C253.984 118.35 253.932 118.305 253.894 118.248V118.202ZM164.111 117.125C164.065 117.105 164.024 117.076 163.989 117.04C163.954 117.004 163.927 116.962 163.908 116.915C163.89 116.869 163.881 116.819 163.882 116.769C163.883 116.719 163.894 116.669 163.914 116.624C163.951 116.532 164.023 116.458 164.113 116.418C164.204 116.379 164.307 116.376 164.4 116.411C164.493 116.451 164.566 116.526 164.606 116.619C164.646 116.712 164.648 116.817 164.612 116.912C164.585 116.983 164.537 117.044 164.475 117.087C164.413 117.13 164.339 117.154 164.263 117.155L164.111 117.125ZM251.389 112.722C251.365 112.678 251.35 112.63 251.345 112.58C251.339 112.531 251.344 112.48 251.358 112.432C251.372 112.384 251.395 112.34 251.427 112.301C251.458 112.262 251.497 112.23 251.541 112.206C251.586 112.182 251.635 112.168 251.685 112.164C251.735 112.159 251.786 112.165 251.834 112.181C251.882 112.196 251.927 112.221 251.965 112.254C252.003 112.287 252.035 112.328 252.057 112.373C252.081 112.415 252.096 112.462 252.101 112.511C252.106 112.56 252.101 112.609 252.087 112.655C252.073 112.702 252.05 112.746 252.018 112.783C251.987 112.821 251.949 112.851 251.905 112.874H251.723C251.663 112.887 251.6 112.884 251.542 112.866C251.483 112.847 251.431 112.813 251.389 112.767V112.722ZM166.753 111.659C166.667 111.609 166.604 111.526 166.578 111.429C166.553 111.333 166.566 111.23 166.616 111.143C166.667 111.057 166.749 110.994 166.846 110.969C166.943 110.943 167.046 110.957 167.132 111.006C167.218 111.057 167.281 111.14 167.307 111.236C167.332 111.333 167.319 111.436 167.269 111.523C167.237 111.579 167.19 111.625 167.134 111.657C167.078 111.689 167.015 111.705 166.95 111.705C166.885 111.72 166.818 111.72 166.753 111.705V111.659ZM248.216 107.606C248.186 107.566 248.165 107.521 248.152 107.472C248.14 107.424 248.137 107.374 248.144 107.324C248.151 107.275 248.168 107.228 248.193 107.185C248.219 107.142 248.252 107.104 248.292 107.074C248.333 107.045 248.379 107.025 248.428 107.013C248.477 107.002 248.527 107.001 248.577 107.009C248.626 107.018 248.673 107.036 248.716 107.063C248.758 107.09 248.795 107.124 248.823 107.166C248.853 107.206 248.873 107.253 248.885 107.301C248.896 107.35 248.897 107.401 248.889 107.45C248.88 107.5 248.862 107.547 248.835 107.589C248.808 107.632 248.773 107.668 248.732 107.697C248.671 107.744 248.597 107.771 248.52 107.773C248.463 107.778 248.406 107.769 248.354 107.748C248.301 107.727 248.254 107.694 248.216 107.651V107.606ZM170.062 106.573C170.026 106.539 169.997 106.498 169.977 106.453C169.958 106.407 169.947 106.358 169.947 106.308C169.947 106.258 169.958 106.209 169.977 106.163C169.997 106.117 170.026 106.076 170.062 106.042C170.123 105.962 170.213 105.908 170.312 105.894C170.412 105.88 170.513 105.906 170.594 105.966C170.663 106.037 170.702 106.133 170.702 106.232C170.702 106.331 170.663 106.427 170.594 106.498C170.558 106.545 170.512 106.583 170.46 106.609C170.407 106.636 170.349 106.649 170.29 106.649C170.213 106.663 170.133 106.652 170.062 106.619V106.573ZM244.451 102.93C244.382 102.859 244.343 102.764 244.343 102.664C244.343 102.565 244.382 102.47 244.451 102.399C244.485 102.362 244.526 102.333 244.572 102.314C244.618 102.294 244.667 102.284 244.717 102.284C244.767 102.284 244.816 102.294 244.862 102.314C244.907 102.333 244.949 102.362 244.983 102.399C245.052 102.47 245.091 102.565 245.091 102.664C245.091 102.764 245.052 102.859 244.983 102.93C244.949 102.964 244.909 102.992 244.865 103.01C244.82 103.028 244.772 103.037 244.724 103.036C244.665 103.053 244.603 103.056 244.543 103.046C244.483 103.035 244.425 103.011 244.375 102.975L244.451 102.93ZM173.994 101.943C173.958 101.908 173.928 101.865 173.908 101.818C173.888 101.771 173.878 101.721 173.878 101.67C173.878 101.619 173.888 101.568 173.908 101.521C173.928 101.474 173.958 101.432 173.994 101.397C174.028 101.36 174.07 101.331 174.115 101.312C174.161 101.292 174.21 101.282 174.26 101.282C174.31 101.282 174.359 101.292 174.405 101.312C174.45 101.331 174.492 101.36 174.526 101.397C174.595 101.468 174.634 101.563 174.634 101.662C174.634 101.762 174.595 101.857 174.526 101.928C174.453 102.001 174.356 102.045 174.252 102.049C174.152 102.063 174.05 102.041 173.964 101.989L173.994 101.943ZM240.109 98.7551C240.04 98.6841 240.001 98.5887 240.001 98.4894C240.001 98.39 240.04 98.2946 240.109 98.2237C240.143 98.1874 240.185 98.1585 240.23 98.1387C240.276 98.1189 240.325 98.1087 240.375 98.1087C240.425 98.1087 240.474 98.1189 240.52 98.1387C240.565 98.1585 240.607 98.1874 240.641 98.2237C240.71 98.2946 240.749 98.39 240.749 98.4894C240.749 98.5887 240.71 98.6841 240.641 98.7551C240.605 98.7974 240.561 98.8316 240.512 98.8552C240.462 98.8788 240.407 98.8912 240.352 98.8917C240.253 98.8954 240.156 98.863 240.079 98.8006L240.109 98.7551ZM178.458 97.829C178.387 97.7555 178.348 97.6576 178.348 97.5557C178.348 97.4539 178.387 97.356 178.458 97.2825C178.529 97.2129 178.624 97.174 178.723 97.174C178.823 97.174 178.918 97.2129 178.989 97.2825C179.025 97.3165 179.054 97.3577 179.074 97.4034C179.094 97.4491 179.104 97.4983 179.104 97.5481C179.104 97.5979 179.094 97.6472 179.074 97.6929C179.054 97.7386 179.025 97.7797 178.989 97.8138C178.927 97.872 178.846 97.9045 178.761 97.9049C178.707 97.9258 178.649 97.9338 178.591 97.9286C178.533 97.9233 178.477 97.9048 178.427 97.8745L178.458 97.829ZM235.266 95.2785C235.224 95.2509 235.188 95.2152 235.16 95.1734C235.131 95.1316 235.112 95.0846 235.102 95.0351C235.092 94.9857 235.092 94.9347 235.102 94.8852C235.112 94.8358 235.132 94.7888 235.16 94.7471C235.186 94.7054 235.221 94.6694 235.261 94.6413C235.302 94.6132 235.347 94.5935 235.396 94.5836C235.444 94.5737 235.494 94.5736 235.542 94.5835C235.59 94.5933 235.636 94.6128 235.676 94.6409C235.718 94.667 235.754 94.7014 235.782 94.7418C235.81 94.7823 235.83 94.828 235.84 94.8762C235.85 94.9245 235.85 94.9743 235.84 95.0225C235.83 95.0708 235.811 95.1166 235.783 95.1571C235.753 95.2153 235.707 95.2635 235.651 95.2959C235.594 95.3282 235.529 95.3433 235.464 95.3392C235.395 95.3329 235.327 95.3122 235.266 95.2785ZM183.361 94.4131C183.31 94.3283 183.294 94.2268 183.317 94.1303C183.34 94.0339 183.399 93.9501 183.483 93.897C183.525 93.8693 183.573 93.8504 183.623 93.8415C183.673 93.8326 183.724 93.8339 183.774 93.8452C183.824 93.8566 183.87 93.8777 183.912 93.9075C183.953 93.9373 183.988 93.975 184.014 94.0185C184.065 94.1033 184.081 94.2048 184.058 94.3013C184.036 94.3977 183.976 94.4815 183.893 94.5346C183.823 94.5549 183.749 94.5549 183.68 94.5346C183.614 94.5321 183.55 94.5126 183.495 94.4781C183.439 94.4435 183.393 94.3949 183.361 94.3373V94.4131ZM230.029 92.2422C229.941 92.1967 229.875 92.119 229.844 92.0255C229.813 91.932 229.819 91.8301 229.862 91.7412C229.881 91.6952 229.91 91.6537 229.947 91.6193C229.983 91.5848 230.026 91.5583 230.073 91.5412C230.12 91.5241 230.17 91.5169 230.22 91.5199C230.27 91.523 230.318 91.5363 230.363 91.559C230.409 91.5802 230.451 91.6105 230.486 91.6482C230.52 91.6859 230.547 91.7301 230.564 91.7783C230.581 91.8265 230.588 91.8777 230.585 91.9287C230.582 91.9797 230.568 92.0296 230.545 92.0752C230.508 92.1363 230.457 92.1875 230.397 92.2245C230.336 92.2615 230.267 92.2832 230.196 92.2878C230.137 92.2868 230.08 92.2712 230.029 92.2422ZM188.705 91.4679C188.664 91.3773 188.659 91.2739 188.693 91.1801C188.728 91.0863 188.797 91.0098 188.887 90.967C188.98 90.9247 189.086 90.9201 189.182 90.9541C189.278 90.988 189.358 91.0579 189.403 91.1491C189.423 91.195 189.434 91.2444 189.435 91.2944C189.436 91.3444 189.427 91.3941 189.409 91.4407C189.391 91.4873 189.363 91.5298 189.328 91.5657C189.294 91.6016 189.252 91.6303 189.206 91.6501C189.156 91.6637 189.104 91.6637 189.054 91.6501C188.983 91.6531 188.913 91.6362 188.852 91.6013C188.79 91.5664 188.739 91.515 188.705 91.4528V91.4679ZM224.473 89.9498C224.423 89.9363 224.377 89.9126 224.337 89.8801C224.298 89.8476 224.265 89.8071 224.242 89.7612C224.22 89.7154 224.206 89.6652 224.204 89.614C224.202 89.5628 224.211 89.5117 224.23 89.464C224.245 89.4159 224.27 89.3715 224.303 89.3335C224.336 89.2956 224.377 89.2649 224.422 89.2435C224.468 89.2221 224.518 89.2104 224.568 89.2092C224.619 89.2079 224.669 89.2171 224.715 89.2363C224.763 89.2497 224.807 89.273 224.845 89.3047C224.883 89.3364 224.914 89.3759 224.935 89.4203C224.957 89.4648 224.969 89.5134 224.97 89.5628C224.971 89.6122 224.962 89.6613 224.943 89.7069C224.923 89.783 224.877 89.85 224.814 89.8968C224.75 89.9437 224.673 89.9677 224.594 89.965H224.473V89.9498ZM194.368 89.2059C194.351 89.1581 194.344 89.1075 194.348 89.057C194.351 89.0065 194.364 88.9571 194.387 88.9119C194.409 88.8666 194.441 88.8263 194.479 88.7934C194.518 88.7605 194.562 88.7355 194.611 88.7201C194.709 88.6952 194.814 88.7079 194.903 88.7556C194.993 88.8032 195.062 88.8826 195.096 88.9782C195.125 89.0749 195.113 89.1787 195.065 89.267C195.017 89.3553 194.935 89.4207 194.838 89.4488H194.732C194.654 89.4509 194.577 89.4287 194.511 89.3852C194.446 89.3417 194.396 89.2791 194.368 89.2059ZM218.658 88.3102C218.558 88.2883 218.471 88.2286 218.414 88.1437C218.358 88.0588 218.336 87.9552 218.354 87.8548C218.365 87.8058 218.386 87.7595 218.414 87.7185C218.443 87.6774 218.48 87.6425 218.522 87.6157C218.564 87.5888 218.612 87.5707 218.661 87.5622C218.71 87.5537 218.761 87.5552 218.81 87.5664C218.858 87.5753 218.904 87.594 218.945 87.6213C218.986 87.6485 219.021 87.6838 219.048 87.7249C219.075 87.766 219.093 87.8122 219.102 87.8606C219.111 87.909 219.109 87.9587 219.098 88.0066C219.081 88.091 219.036 88.1672 218.969 88.2223C218.903 88.2775 218.82 88.3085 218.734 88.3102H218.658ZM200.258 87.7333C200.24 87.6347 200.262 87.5331 200.319 87.4506C200.376 87.3682 200.463 87.3115 200.562 87.2931C200.612 87.2844 200.663 87.2859 200.712 87.2973C200.762 87.3088 200.808 87.3299 200.849 87.3596C200.89 87.3893 200.925 87.427 200.951 87.4703C200.977 87.5136 200.995 87.5618 201.002 87.6119C201.016 87.71 200.992 87.8097 200.936 87.8913C200.88 87.9728 200.795 88.0302 200.698 88.0521H200.622C200.542 88.0531 200.464 88.0287 200.398 87.9824C200.333 87.936 200.284 87.8701 200.258 87.7941V87.7333ZM212.692 87.4752C212.642 87.4714 212.593 87.4578 212.549 87.4351C212.504 87.4124 212.464 87.3811 212.432 87.343C212.399 87.3049 212.375 87.2607 212.359 87.213C212.344 87.1654 212.338 87.1152 212.343 87.0653C212.346 87.0154 212.36 86.9668 212.383 86.9222C212.405 86.8776 212.437 86.8379 212.475 86.8055C212.513 86.773 212.557 86.7484 212.605 86.7331C212.652 86.7178 212.703 86.712 212.752 86.7162C212.802 86.72 212.851 86.7337 212.896 86.7564C212.94 86.7791 212.98 86.8104 213.012 86.8485C213.045 86.8866 213.069 86.9307 213.085 86.9784C213.1 87.026 213.106 87.0762 213.102 87.1261C213.094 87.2214 213.051 87.3103 212.98 87.375C212.91 87.4398 212.818 87.4755 212.722 87.4752H212.692ZM206.285 87.0198C206.281 86.9216 206.315 86.8256 206.38 86.752C206.445 86.6783 206.536 86.6328 206.634 86.6251C206.684 86.623 206.734 86.6309 206.781 86.6481C206.828 86.6653 206.871 86.6916 206.907 86.7254C206.944 86.7593 206.974 86.8 206.994 86.8453C207.015 86.8906 207.027 86.9396 207.029 86.9895C207.033 87.0877 206.999 87.1837 206.934 87.2573C206.869 87.3309 206.778 87.3764 206.68 87.3841C206.588 87.3931 206.496 87.3667 206.423 87.3103C206.349 87.2539 206.3 87.1718 206.285 87.0805V87.0198Z" fill="black"/>
<path d="M194.459 267.588C194.455 267.489 194.489 267.393 194.554 267.32C194.619 267.246 194.71 267.201 194.808 267.193C194.91 267.189 195.01 267.224 195.087 267.292C195.163 267.36 195.21 267.455 195.218 267.557C195.218 267.657 195.181 267.753 195.113 267.826C195.046 267.899 194.953 267.944 194.854 267.952C194.803 267.956 194.753 267.95 194.705 267.933C194.657 267.917 194.613 267.891 194.576 267.857C194.539 267.822 194.509 267.781 194.489 267.734C194.469 267.688 194.459 267.638 194.459 267.588ZM188.736 267.922C188.636 267.91 188.545 267.861 188.48 267.785C188.415 267.709 188.382 267.612 188.386 267.512C188.398 267.412 188.447 267.321 188.523 267.256C188.599 267.192 188.696 267.158 188.796 267.163C188.896 267.174 188.987 267.223 189.052 267.299C189.116 267.375 189.15 267.473 189.145 267.572C189.138 267.668 189.094 267.757 189.024 267.821C188.954 267.886 188.862 267.922 188.766 267.922H188.736ZM200.486 266.92C200.475 266.871 200.474 266.82 200.484 266.771C200.493 266.721 200.513 266.674 200.542 266.633C200.57 266.592 200.607 266.557 200.65 266.53C200.692 266.504 200.74 266.486 200.79 266.479C200.888 266.462 200.99 266.484 201.072 266.54C201.155 266.597 201.211 266.685 201.23 266.783C201.241 266.832 201.242 266.883 201.232 266.932C201.222 266.981 201.203 267.028 201.174 267.069C201.146 267.111 201.109 267.146 201.066 267.172C201.024 267.199 200.976 267.216 200.926 267.223C200.828 267.241 200.726 267.219 200.644 267.162C200.561 267.105 200.504 267.018 200.486 266.92ZM182.678 267.132C182.628 267.125 182.581 267.108 182.538 267.081C182.495 267.055 182.459 267.02 182.43 266.978C182.402 266.937 182.382 266.89 182.372 266.841C182.363 266.792 182.364 266.741 182.375 266.692C182.393 266.593 182.45 266.506 182.532 266.449C182.615 266.392 182.716 266.371 182.815 266.388C182.865 266.397 182.913 266.416 182.956 266.444C182.999 266.472 183.035 266.509 183.064 266.551C183.092 266.594 183.111 266.642 183.121 266.692C183.13 266.742 183.129 266.794 183.118 266.844C183.099 266.927 183.053 267.002 182.987 267.056C182.921 267.111 182.839 267.143 182.754 267.147L182.678 267.132ZM206.422 265.493C206.393 265.398 206.402 265.296 206.448 265.208C206.493 265.12 206.571 265.053 206.665 265.022C206.713 265.005 206.763 264.998 206.814 265.002C206.864 265.005 206.914 265.018 206.959 265.041C207.004 265.064 207.044 265.095 207.077 265.134C207.11 265.172 207.135 265.217 207.151 265.265C207.179 265.359 207.17 265.462 207.125 265.55C207.079 265.637 207.002 265.704 206.908 265.735H206.786C206.708 265.738 206.631 265.715 206.566 265.672C206.5 265.628 206.45 265.566 206.422 265.493ZM176.803 265.599C176.708 265.564 176.63 265.495 176.585 265.404C176.539 265.314 176.531 265.21 176.56 265.113C176.595 265.018 176.664 264.94 176.755 264.895C176.845 264.85 176.949 264.841 177.046 264.87C177.141 264.905 177.219 264.974 177.264 265.065C177.309 265.155 177.318 265.259 177.289 265.356C177.259 265.43 177.209 265.493 177.145 265.539C177.08 265.585 177.004 265.611 176.924 265.614H176.803V265.599ZM212.1 263.337C212.058 263.246 212.054 263.143 212.088 263.049C212.122 262.955 212.192 262.879 212.282 262.836C212.326 262.813 212.375 262.8 212.425 262.797C212.475 262.794 212.525 262.801 212.572 262.818C212.619 262.835 212.662 262.862 212.698 262.896C212.735 262.93 212.763 262.972 212.783 263.018C212.806 263.063 212.819 263.111 212.822 263.161C212.825 263.211 212.818 263.261 212.801 263.308C212.784 263.355 212.757 263.398 212.723 263.434C212.688 263.471 212.647 263.499 212.601 263.519C212.551 263.533 212.498 263.533 212.449 263.519C212.372 263.535 212.293 263.526 212.221 263.493C212.15 263.46 212.092 263.406 212.054 263.337H212.1ZM171.11 263.337C171.02 263.294 170.95 263.217 170.916 263.124C170.882 263.03 170.886 262.926 170.928 262.836C170.949 262.789 170.979 262.747 171.017 262.713C171.055 262.678 171.099 262.652 171.147 262.635C171.195 262.618 171.246 262.611 171.297 262.614C171.348 262.617 171.398 262.631 171.444 262.654C171.531 262.699 171.598 262.777 171.629 262.87C171.66 262.964 171.654 263.066 171.611 263.155C171.582 263.22 171.536 263.276 171.477 263.317C171.418 263.357 171.348 263.38 171.277 263.382C171.206 263.382 171.138 263.361 171.08 263.322L171.11 263.337ZM217.444 260.498C217.416 260.456 217.398 260.41 217.389 260.361C217.38 260.312 217.382 260.262 217.393 260.214C217.404 260.165 217.425 260.12 217.455 260.08C217.485 260.04 217.522 260.007 217.565 259.982C217.651 259.934 217.751 259.92 217.847 259.943C217.942 259.965 218.026 260.022 218.081 260.103C218.109 260.146 218.128 260.194 218.137 260.244C218.146 260.294 218.144 260.345 218.133 260.395C218.122 260.444 218.101 260.491 218.071 260.532C218.041 260.573 218.003 260.608 217.96 260.635C217.895 260.65 217.827 260.65 217.762 260.635C217.696 260.642 217.629 260.632 217.567 260.606C217.506 260.579 217.453 260.537 217.413 260.483L217.444 260.498ZM165.827 260.376C165.745 260.318 165.688 260.231 165.668 260.132C165.648 260.033 165.667 259.93 165.721 259.845C165.747 259.803 165.781 259.767 165.821 259.739C165.862 259.711 165.908 259.691 165.956 259.682C166.004 259.672 166.054 259.672 166.102 259.681C166.15 259.691 166.196 259.711 166.237 259.739C166.32 259.792 166.38 259.876 166.403 259.972C166.425 260.069 166.409 260.17 166.358 260.255C166.325 260.31 166.278 260.355 166.222 260.387C166.167 260.419 166.104 260.436 166.039 260.437C165.933 260.445 165.826 260.418 165.736 260.361L165.827 260.376ZM222.453 256.991C222.384 256.92 222.345 256.825 222.345 256.725C222.345 256.626 222.384 256.531 222.453 256.46C222.488 256.423 222.529 256.394 222.574 256.375C222.62 256.355 222.669 256.345 222.719 256.345C222.769 256.345 222.818 256.355 222.864 256.375C222.91 256.394 222.951 256.423 222.985 256.46C223.054 256.531 223.093 256.626 223.093 256.725C223.093 256.825 223.054 256.92 222.985 256.991C222.916 257.047 222.831 257.079 222.742 257.082C222.675 257.099 222.605 257.098 222.538 257.08C222.471 257.061 222.411 257.025 222.362 256.976L222.453 256.991ZM160.878 256.748C160.808 256.677 160.769 256.582 160.769 256.482C160.769 256.383 160.808 256.288 160.878 256.217C160.912 256.18 160.953 256.151 160.999 256.132C161.044 256.112 161.094 256.102 161.143 256.102C161.193 256.102 161.242 256.112 161.288 256.132C161.334 256.151 161.375 256.18 161.409 256.217C161.479 256.288 161.517 256.383 161.517 256.482C161.517 256.582 161.479 256.677 161.409 256.748C161.371 256.791 161.324 256.825 161.272 256.849C161.219 256.872 161.163 256.884 161.105 256.885C161.016 256.866 160.936 256.818 160.878 256.748ZM226.932 252.892C226.896 252.858 226.867 252.817 226.847 252.771C226.827 252.725 226.817 252.676 226.817 252.626C226.817 252.577 226.827 252.527 226.847 252.482C226.867 252.436 226.896 252.395 226.932 252.361C226.966 252.324 227.007 252.295 227.053 252.276C227.099 252.256 227.148 252.246 227.198 252.246C227.247 252.246 227.297 252.256 227.342 252.276C227.388 252.295 227.429 252.324 227.463 252.361C227.5 252.395 227.529 252.436 227.548 252.482C227.568 252.527 227.578 252.577 227.578 252.626C227.578 252.676 227.568 252.725 227.548 252.771C227.529 252.817 227.5 252.858 227.463 252.892C227.428 252.93 227.386 252.96 227.339 252.981C227.292 253.002 227.241 253.013 227.19 253.013C227.129 253.025 227.065 253.02 227.007 252.998C226.948 252.977 226.896 252.94 226.856 252.892H226.932ZM156.323 252.558C156.253 252.485 156.213 252.387 156.213 252.285C156.213 252.183 156.253 252.085 156.323 252.011C156.394 251.942 156.49 251.903 156.589 251.903C156.688 251.903 156.784 251.942 156.855 252.011C156.925 252.085 156.964 252.183 156.964 252.285C156.964 252.387 156.925 252.485 156.855 252.558C156.781 252.617 156.69 252.649 156.596 252.649C156.497 252.654 156.4 252.622 156.323 252.558ZM230.712 248.277C230.643 248.206 230.604 248.111 230.604 248.011C230.604 247.912 230.643 247.816 230.712 247.745C230.742 247.706 230.78 247.672 230.822 247.647C230.865 247.621 230.913 247.605 230.962 247.597C231.012 247.59 231.062 247.593 231.11 247.606C231.158 247.618 231.204 247.64 231.243 247.67C231.313 247.741 231.352 247.836 231.352 247.935C231.352 248.035 231.313 248.13 231.243 248.201C231.21 248.25 231.165 248.29 231.111 248.316C231.058 248.343 230.999 248.355 230.94 248.353C230.884 248.34 230.832 248.314 230.788 248.277H230.712ZM152.391 247.837C152.362 247.796 152.341 247.75 152.33 247.701C152.319 247.652 152.318 247.601 152.326 247.552C152.335 247.503 152.353 247.455 152.38 247.413C152.406 247.371 152.441 247.334 152.482 247.305C152.522 247.275 152.568 247.254 152.616 247.241C152.664 247.229 152.714 247.226 152.764 247.233C152.813 247.24 152.861 247.257 152.903 247.282C152.946 247.308 152.984 247.341 153.014 247.381C153.043 247.422 153.064 247.468 153.075 247.517C153.086 247.566 153.087 247.616 153.079 247.666C153.07 247.715 153.052 247.762 153.025 247.805C152.999 247.847 152.964 247.884 152.923 247.912C152.849 247.941 152.768 247.941 152.695 247.912C152.613 247.912 152.533 247.886 152.467 247.837H152.391ZM234.052 243.206C234.009 243.184 233.97 243.153 233.939 243.116C233.908 243.078 233.884 243.035 233.87 242.988C233.856 242.941 233.851 242.892 233.856 242.844C233.862 242.795 233.877 242.748 233.9 242.705C233.922 242.66 233.954 242.619 233.993 242.587C234.031 242.554 234.076 242.53 234.125 242.516C234.173 242.501 234.224 242.497 234.275 242.504C234.325 242.51 234.373 242.527 234.416 242.553C234.46 242.577 234.499 242.61 234.531 242.648C234.562 242.687 234.586 242.732 234.6 242.78C234.614 242.828 234.618 242.878 234.613 242.928C234.607 242.978 234.592 243.026 234.568 243.07C234.534 243.128 234.486 243.178 234.427 243.212C234.369 243.247 234.302 243.266 234.234 243.267C234.195 243.255 234.159 243.234 234.128 243.206H234.052ZM149.127 242.66C149.101 242.619 149.083 242.572 149.076 242.524C149.068 242.475 149.071 242.426 149.084 242.379C149.097 242.332 149.12 242.288 149.151 242.25C149.182 242.212 149.22 242.181 149.264 242.159C149.306 242.132 149.354 242.114 149.403 242.107C149.453 242.099 149.503 242.102 149.552 242.115C149.6 242.127 149.646 242.15 149.685 242.181C149.724 242.212 149.756 242.251 149.78 242.295C149.806 242.339 149.823 242.387 149.83 242.437C149.836 242.487 149.832 242.538 149.818 242.587C149.804 242.635 149.779 242.681 149.747 242.719C149.714 242.758 149.674 242.789 149.628 242.812C149.569 242.829 149.505 242.829 149.446 242.812C149.397 242.805 149.35 242.788 149.308 242.762C149.266 242.735 149.231 242.701 149.203 242.66H149.127ZM236.724 237.771C236.677 237.753 236.634 237.725 236.597 237.69C236.561 237.655 236.532 237.612 236.512 237.566C236.492 237.519 236.482 237.469 236.482 237.418C236.482 237.367 236.492 237.317 236.511 237.27C236.531 237.224 236.56 237.183 236.596 237.148C236.632 237.113 236.674 237.086 236.721 237.067C236.767 237.049 236.817 237.04 236.867 237.041C236.917 237.042 236.967 237.053 237.013 237.073C237.058 237.091 237.099 237.118 237.134 237.153C237.168 237.187 237.196 237.229 237.214 237.274C237.233 237.319 237.242 237.368 237.241 237.417C237.24 237.466 237.23 237.514 237.21 237.559C237.183 237.629 237.135 237.69 237.072 237.734C237.01 237.777 236.936 237.801 236.861 237.802L236.724 237.771ZM146.516 237.134C146.496 237.087 146.486 237.037 146.486 236.986C146.486 236.935 146.497 236.885 146.516 236.838C146.536 236.792 146.565 236.749 146.602 236.714C146.638 236.679 146.681 236.651 146.729 236.633C146.823 236.597 146.928 236.599 147.022 236.639C147.115 236.678 147.189 236.752 147.23 236.845C147.265 236.94 147.263 237.045 147.223 237.138C147.184 237.231 147.11 237.306 147.017 237.346H146.865C146.807 237.334 146.751 237.308 146.704 237.272C146.657 237.235 146.618 237.188 146.592 237.134H146.516ZM238.698 232.033C238.648 232.02 238.602 231.998 238.562 231.968C238.521 231.937 238.487 231.899 238.462 231.855C238.436 231.811 238.42 231.763 238.413 231.712C238.407 231.662 238.411 231.611 238.424 231.562C238.437 231.515 238.458 231.47 238.488 231.432C238.518 231.393 238.555 231.361 238.597 231.337C238.64 231.313 238.687 231.297 238.735 231.292C238.784 231.286 238.833 231.29 238.88 231.304C238.928 231.315 238.974 231.335 239.015 231.364C239.055 231.393 239.089 231.43 239.115 231.473C239.141 231.515 239.157 231.563 239.164 231.612C239.17 231.661 239.167 231.712 239.153 231.759C239.131 231.84 239.083 231.911 239.018 231.963C238.952 232.015 238.872 232.045 238.789 232.048H238.698V232.033ZM144.573 231.304C144.55 231.207 144.565 231.106 144.616 231.021C144.668 230.935 144.75 230.874 144.846 230.849C144.943 230.825 145.044 230.841 145.13 230.892C145.215 230.943 145.276 231.026 145.302 231.122C145.315 231.17 145.319 231.22 145.312 231.269C145.306 231.319 145.289 231.366 145.263 231.409C145.238 231.451 145.204 231.488 145.163 231.517C145.123 231.546 145.077 231.567 145.028 231.577H144.937C144.879 231.555 144.828 231.518 144.788 231.47C144.748 231.422 144.721 231.365 144.709 231.304H144.573ZM239.867 226.097C239.817 226.091 239.768 226.076 239.724 226.051C239.68 226.027 239.642 225.994 239.611 225.954C239.58 225.915 239.557 225.869 239.543 225.821C239.53 225.772 239.526 225.722 239.533 225.672C239.538 225.622 239.554 225.573 239.578 225.529C239.603 225.485 239.636 225.447 239.675 225.416C239.715 225.385 239.76 225.362 239.809 225.348C239.857 225.335 239.908 225.331 239.958 225.338C240.008 225.343 240.056 225.359 240.1 225.383C240.144 225.408 240.183 225.441 240.214 225.48C240.245 225.52 240.268 225.565 240.281 225.614C240.294 225.662 240.298 225.713 240.292 225.763C240.277 225.854 240.232 225.938 240.162 225.999C240.093 226.06 240.004 226.094 239.912 226.097H239.867ZM143.434 225.307C143.428 225.257 143.431 225.207 143.445 225.158C143.458 225.11 143.481 225.064 143.512 225.025C143.543 224.985 143.582 224.952 143.626 224.928C143.67 224.903 143.718 224.888 143.768 224.882C143.867 224.869 143.966 224.895 144.046 224.955C144.125 225.014 144.178 225.103 144.193 225.201C144.202 225.251 144.2 225.303 144.187 225.352C144.175 225.402 144.152 225.448 144.121 225.488C144.089 225.528 144.05 225.561 144.005 225.585C143.96 225.609 143.91 225.623 143.859 225.626C143.786 225.607 143.719 225.566 143.668 225.509C143.617 225.453 143.583 225.383 143.571 225.307H143.434ZM240.337 220.039C240.287 220.042 240.238 220.033 240.191 220.015C240.145 219.997 240.103 219.968 240.069 219.932C240.034 219.896 240.008 219.854 239.991 219.807C239.975 219.76 239.968 219.709 239.973 219.66C239.973 219.559 240.013 219.463 240.084 219.392C240.155 219.32 240.252 219.28 240.352 219.28C240.402 219.282 240.451 219.294 240.497 219.315C240.542 219.336 240.583 219.365 240.616 219.402C240.65 219.439 240.676 219.482 240.694 219.529C240.711 219.575 240.719 219.625 240.717 219.675C240.713 219.773 240.671 219.866 240.6 219.934C240.53 220.002 240.435 220.039 240.337 220.039ZM143.055 219.204C143.055 219.104 143.095 219.007 143.166 218.936C143.237 218.865 143.334 218.825 143.434 218.825C143.535 218.825 143.631 218.865 143.703 218.936C143.774 219.007 143.814 219.104 143.814 219.204C143.814 219.305 143.774 219.402 143.703 219.473C143.631 219.544 143.535 219.584 143.434 219.584C143.36 219.553 143.297 219.5 143.253 219.432C143.21 219.364 143.188 219.285 143.191 219.204H143.055ZM143.434 218.643C143.336 218.639 143.244 218.597 143.176 218.526C143.108 218.456 143.07 218.361 143.07 218.263C143.07 218.163 143.11 218.066 143.181 217.995C143.252 217.924 143.349 217.884 143.449 217.884C143.551 217.888 143.648 217.931 143.719 218.004C143.789 218.078 143.829 218.176 143.829 218.278C143.825 218.376 143.783 218.469 143.713 218.537C143.642 218.605 143.548 218.643 143.449 218.643H143.434ZM239.821 213.694C239.812 213.644 239.814 213.593 239.827 213.545C239.839 213.496 239.862 213.451 239.894 213.412C239.926 213.373 239.966 213.342 240.011 213.319C240.056 213.297 240.105 213.285 240.155 213.284C240.204 213.277 240.254 213.281 240.301 213.295C240.349 213.308 240.393 213.331 240.432 213.363C240.47 213.394 240.502 213.433 240.525 213.476C240.547 213.52 240.561 213.568 240.565 213.618C240.571 213.667 240.568 213.717 240.554 213.764C240.54 213.812 240.517 213.856 240.486 213.894C240.455 213.933 240.416 213.964 240.372 213.987C240.328 214.01 240.28 214.024 240.231 214.028C240.182 214.034 240.132 214.03 240.084 214.017C240.037 214.003 239.993 213.98 239.954 213.949C239.916 213.917 239.884 213.879 239.861 213.835C239.838 213.791 239.825 213.743 239.821 213.694ZM144.057 212.646C144.006 212.641 143.956 212.625 143.912 212.599C143.867 212.574 143.829 212.539 143.799 212.497C143.769 212.456 143.748 212.408 143.737 212.358C143.727 212.308 143.727 212.256 143.738 212.206C143.756 212.106 143.812 212.018 143.894 211.959C143.976 211.899 144.078 211.874 144.178 211.887C144.278 211.906 144.366 211.962 144.425 212.043C144.485 212.125 144.51 212.227 144.497 212.327C144.483 212.419 144.437 212.502 144.368 212.563C144.298 212.624 144.21 212.659 144.117 212.661L144.057 212.646ZM238.758 207.773C238.735 207.676 238.751 207.574 238.802 207.489C238.853 207.404 238.935 207.342 239.032 207.317C239.13 207.294 239.234 207.309 239.321 207.36C239.409 207.411 239.474 207.493 239.502 207.591C239.513 207.64 239.515 207.69 239.506 207.739C239.498 207.789 239.48 207.836 239.453 207.878C239.426 207.921 239.391 207.957 239.35 207.986C239.309 208.015 239.263 208.035 239.214 208.046H239.123C239.03 208.048 238.939 208.017 238.867 207.959C238.795 207.9 238.746 207.818 238.728 207.727L238.758 207.773ZM145.241 206.695C145.144 206.667 145.063 206.601 145.014 206.513C144.966 206.425 144.955 206.321 144.983 206.224C145.011 206.128 145.076 206.046 145.165 205.998C145.253 205.949 145.357 205.938 145.453 205.966C145.501 205.978 145.545 206 145.584 206.03C145.622 206.06 145.655 206.097 145.679 206.139C145.703 206.182 145.718 206.229 145.724 206.277C145.729 206.326 145.725 206.375 145.711 206.422C145.688 206.5 145.64 206.57 145.575 206.619C145.509 206.668 145.429 206.695 145.347 206.695H145.241ZM236.952 202.019C236.918 201.924 236.922 201.82 236.965 201.729C237.008 201.638 237.085 201.567 237.179 201.533C237.272 201.498 237.375 201.501 237.466 201.541C237.556 201.58 237.628 201.654 237.665 201.746C237.685 201.793 237.695 201.843 237.695 201.894C237.695 201.944 237.685 201.994 237.665 202.041C237.645 202.088 237.616 202.13 237.58 202.165C237.543 202.201 237.5 202.228 237.453 202.247H237.316C237.229 202.251 237.144 202.226 237.072 202.177C237.001 202.128 236.948 202.056 236.921 201.974L236.952 202.019ZM147.214 200.896C147.167 200.877 147.124 200.85 147.088 200.814C147.051 200.779 147.022 200.737 147.002 200.69C146.982 200.643 146.972 200.593 146.972 200.542C146.972 200.492 146.982 200.441 147.002 200.395C147.045 200.304 147.12 200.234 147.213 200.197C147.306 200.161 147.41 200.161 147.503 200.197C147.55 200.216 147.593 200.243 147.63 200.279C147.666 200.314 147.695 200.356 147.715 200.403C147.735 200.45 147.745 200.5 147.745 200.551C147.745 200.601 147.735 200.652 147.715 200.698C147.68 200.765 147.628 200.822 147.564 200.862C147.5 200.902 147.427 200.924 147.351 200.926L147.214 200.896ZM234.477 196.508C234.432 196.419 234.423 196.316 234.451 196.22C234.48 196.124 234.543 196.043 234.629 195.992C234.672 195.966 234.721 195.949 234.771 195.942C234.821 195.936 234.872 195.94 234.921 195.954C234.969 195.968 235.014 195.993 235.053 196.025C235.092 196.058 235.123 196.098 235.145 196.144C235.169 196.188 235.184 196.236 235.19 196.286C235.195 196.335 235.191 196.385 235.177 196.433C235.162 196.481 235.139 196.526 235.108 196.565C235.076 196.604 235.037 196.636 234.993 196.66C234.933 196.674 234.871 196.674 234.811 196.66C234.738 196.675 234.662 196.668 234.592 196.641C234.522 196.615 234.461 196.568 234.416 196.508H234.477ZM149.795 195.476C149.708 195.422 149.644 195.338 149.616 195.24C149.588 195.141 149.598 195.036 149.643 194.945C149.699 194.86 149.785 194.799 149.883 194.774C149.981 194.749 150.085 194.761 150.175 194.808C150.261 194.859 150.324 194.941 150.349 195.038C150.375 195.135 150.361 195.237 150.311 195.324C150.277 195.383 150.229 195.432 150.17 195.467C150.112 195.501 150.045 195.52 149.977 195.521L149.795 195.476ZM231.243 191.422C231.214 191.382 231.194 191.335 231.182 191.287C231.171 191.238 231.17 191.187 231.178 191.138C231.187 191.088 231.205 191.041 231.232 190.999C231.259 190.956 231.294 190.92 231.335 190.891C231.375 190.862 231.422 190.841 231.47 190.83C231.519 190.819 231.57 190.817 231.619 190.826C231.669 190.834 231.716 190.853 231.758 190.879C231.801 190.906 231.837 190.941 231.866 190.982C231.895 191.023 231.916 191.069 231.927 191.118C231.938 191.167 231.94 191.217 231.931 191.267C231.923 191.316 231.904 191.363 231.878 191.406C231.851 191.448 231.816 191.485 231.775 191.514C231.706 191.536 231.631 191.536 231.562 191.514C231.503 191.52 231.444 191.512 231.389 191.491C231.333 191.47 231.283 191.436 231.243 191.392V191.422ZM153.09 190.39C153.02 190.319 152.981 190.224 152.981 190.124C152.981 190.025 153.02 189.93 153.09 189.859C153.161 189.789 153.256 189.75 153.355 189.75C153.455 189.75 153.55 189.789 153.621 189.859C153.663 189.887 153.698 189.924 153.724 189.967C153.751 190.01 153.769 190.058 153.776 190.108C153.783 190.158 153.779 190.209 153.766 190.257C153.752 190.306 153.729 190.351 153.697 190.39C153.661 190.436 153.615 190.474 153.562 190.5C153.51 190.527 153.452 190.541 153.393 190.542C153.333 190.533 153.275 190.513 153.223 190.482C153.171 190.45 153.125 190.409 153.09 190.36V190.39ZM227.479 186.731C227.442 186.697 227.413 186.656 227.393 186.61C227.374 186.565 227.364 186.515 227.364 186.466C227.364 186.416 227.374 186.367 227.393 186.321C227.413 186.275 227.442 186.234 227.479 186.2C227.552 186.13 227.65 186.09 227.752 186.09C227.854 186.09 227.952 186.13 228.025 186.2C228.096 186.274 228.135 186.371 228.135 186.473C228.135 186.575 228.096 186.673 228.025 186.747C227.952 186.806 227.861 186.838 227.767 186.838C227.709 186.843 227.65 186.834 227.597 186.81C227.544 186.786 227.498 186.748 227.463 186.701L227.479 186.731ZM157.022 185.745C156.985 185.71 156.956 185.669 156.937 185.624C156.917 185.578 156.907 185.529 156.907 185.479C156.907 185.429 156.917 185.38 156.937 185.334C156.956 185.288 156.985 185.247 157.022 185.213C157.093 185.144 157.188 185.105 157.287 185.105C157.387 185.105 157.482 185.144 157.553 185.213C157.59 185.249 157.619 185.291 157.639 185.338C157.659 185.385 157.669 185.435 157.669 185.487C157.669 185.538 157.659 185.588 157.639 185.635C157.619 185.682 157.59 185.724 157.553 185.76C157.517 185.795 157.475 185.823 157.427 185.842C157.38 185.86 157.33 185.868 157.28 185.866C157.225 185.864 157.173 185.849 157.125 185.822C157.078 185.796 157.037 185.759 157.006 185.714L157.022 185.745ZM223.137 182.556C223.1 182.522 223.071 182.481 223.052 182.436C223.032 182.39 223.022 182.341 223.022 182.291C223.022 182.241 223.032 182.192 223.052 182.146C223.071 182.1 223.1 182.059 223.137 182.025C223.208 181.956 223.303 181.917 223.402 181.917C223.502 181.917 223.597 181.956 223.668 182.025C223.704 182.059 223.733 182.1 223.753 182.146C223.773 182.192 223.783 182.241 223.783 182.291C223.783 182.341 223.773 182.39 223.753 182.436C223.733 182.481 223.704 182.522 223.668 182.556C223.633 182.599 223.589 182.633 223.539 182.657C223.489 182.68 223.435 182.693 223.38 182.693C223.327 182.685 223.277 182.666 223.233 182.637C223.188 182.608 223.15 182.57 223.121 182.526L223.137 182.556ZM161.485 181.63C161.415 181.559 161.376 181.464 161.376 181.365C161.376 181.265 161.415 181.17 161.485 181.099C161.558 181.029 161.656 180.989 161.758 180.989C161.86 180.989 161.958 181.029 162.031 181.099C162.098 181.172 162.134 181.266 162.134 181.365C162.134 181.463 162.098 181.558 162.031 181.63C161.962 181.684 161.876 181.711 161.789 181.706C161.731 181.717 161.671 181.713 161.616 181.694C161.56 181.676 161.51 181.643 161.47 181.6L161.485 181.63ZM218.309 178.958C218.228 178.903 218.171 178.818 218.152 178.722C218.132 178.626 218.15 178.525 218.203 178.442C218.259 178.358 218.345 178.298 218.444 178.275C218.543 178.253 218.647 178.269 218.734 178.321C218.816 178.379 218.873 178.467 218.893 178.565C218.912 178.664 218.894 178.767 218.84 178.852C218.804 178.903 218.756 178.945 218.701 178.974C218.646 179.003 218.584 179.019 218.521 179.019C218.438 179.015 218.358 178.983 218.294 178.928L218.309 178.958ZM166.419 178.093C166.368 178.008 166.352 177.907 166.375 177.81C166.397 177.714 166.457 177.63 166.54 177.577C166.625 177.526 166.727 177.51 166.823 177.533C166.92 177.555 167.003 177.615 167.057 177.698C167.084 177.741 167.103 177.789 167.112 177.839C167.121 177.889 167.12 177.94 167.108 177.99C167.097 178.039 167.076 178.086 167.046 178.127C167.016 178.169 166.978 178.203 166.935 178.23C166.87 178.245 166.803 178.245 166.738 178.23C166.672 178.235 166.607 178.222 166.548 178.192C166.489 178.163 166.439 178.118 166.404 178.063L166.419 178.093ZM213.087 175.998C213.04 175.977 212.998 175.947 212.964 175.909C212.929 175.871 212.903 175.827 212.885 175.779C212.868 175.731 212.861 175.679 212.865 175.628C212.868 175.577 212.881 175.528 212.904 175.482C212.953 175.393 213.033 175.327 213.129 175.296C213.225 175.265 213.329 175.272 213.421 175.315C213.508 175.36 213.574 175.438 213.605 175.532C213.637 175.625 213.63 175.727 213.587 175.816C213.558 175.88 213.511 175.934 213.452 175.972C213.393 176.009 213.324 176.029 213.254 176.028L213.087 175.998ZM171.748 175.209C171.711 175.116 171.711 175.012 171.748 174.919C171.784 174.826 171.855 174.751 171.945 174.708C171.991 174.688 172.04 174.677 172.09 174.676C172.14 174.675 172.19 174.684 172.236 174.702C172.283 174.72 172.326 174.748 172.361 174.783C172.397 174.817 172.426 174.859 172.446 174.905C172.487 174.996 172.492 175.099 172.458 175.193C172.423 175.287 172.354 175.363 172.264 175.406H172.097C172.021 175.407 171.946 175.386 171.881 175.346C171.816 175.306 171.765 175.247 171.732 175.178L171.748 175.209ZM207.515 173.691C207.42 173.656 207.343 173.586 207.301 173.495C207.258 173.404 207.253 173.299 207.287 173.205C207.319 173.111 207.385 173.033 207.473 172.988C207.561 172.942 207.663 172.933 207.758 172.962C207.853 172.996 207.931 173.066 207.976 173.156C208.021 173.247 208.03 173.351 208.001 173.448C207.973 173.522 207.924 173.587 207.859 173.633C207.794 173.679 207.716 173.705 207.636 173.706H207.515V173.691ZM177.41 173.007C177.382 172.911 177.393 172.807 177.442 172.719C177.49 172.63 177.572 172.565 177.668 172.537C177.763 172.508 177.865 172.517 177.953 172.563C178.041 172.608 178.108 172.686 178.139 172.78C178.168 172.876 178.16 172.981 178.114 173.071C178.069 173.161 177.991 173.231 177.896 173.265H177.775C177.69 173.266 177.608 173.24 177.54 173.191C177.472 173.142 177.421 173.072 177.395 172.992L177.41 173.007ZM201.701 172.112C201.602 172.093 201.515 172.037 201.458 171.954C201.401 171.872 201.379 171.77 201.397 171.671C201.406 171.621 201.425 171.573 201.453 171.53C201.481 171.488 201.517 171.451 201.56 171.423C201.602 171.394 201.65 171.375 201.701 171.365C201.751 171.356 201.802 171.357 201.852 171.368C201.901 171.379 201.948 171.399 201.989 171.428C202.03 171.456 202.065 171.493 202.091 171.535C202.118 171.578 202.136 171.625 202.145 171.674C202.153 171.724 202.152 171.774 202.141 171.823C202.121 171.906 202.075 171.981 202.009 172.036C201.944 172.091 201.862 172.123 201.776 172.127H201.701V172.112ZM183.285 171.55C183.277 171.5 183.278 171.449 183.29 171.4C183.301 171.35 183.322 171.304 183.352 171.263C183.382 171.222 183.419 171.187 183.463 171.161C183.506 171.134 183.554 171.117 183.604 171.11C183.652 171.101 183.701 171.102 183.749 171.113C183.796 171.123 183.841 171.143 183.881 171.172C183.921 171.2 183.954 171.236 183.98 171.278C184.005 171.319 184.022 171.365 184.029 171.413C184.04 171.462 184.041 171.513 184.031 171.562C184.022 171.612 184.002 171.658 183.974 171.7C183.945 171.741 183.908 171.776 183.866 171.803C183.823 171.829 183.775 171.846 183.726 171.854C183.676 171.862 183.625 171.861 183.575 171.849C183.526 171.838 183.479 171.817 183.438 171.787C183.397 171.757 183.363 171.72 183.336 171.676C183.31 171.633 183.293 171.585 183.285 171.535V171.55ZM195.734 171.277C195.684 171.273 195.636 171.259 195.591 171.236C195.546 171.214 195.507 171.182 195.474 171.144C195.442 171.106 195.417 171.062 195.402 171.015C195.387 170.967 195.381 170.917 195.385 170.867C195.396 170.768 195.445 170.676 195.521 170.611C195.597 170.547 195.695 170.513 195.795 170.518C195.894 170.529 195.985 170.578 196.05 170.654C196.115 170.73 196.149 170.828 196.144 170.927C196.136 171.023 196.093 171.112 196.023 171.176C195.952 171.241 195.86 171.277 195.765 171.277H195.734ZM189.312 170.836C189.308 170.786 189.315 170.735 189.331 170.688C189.347 170.64 189.374 170.596 189.408 170.559C189.442 170.522 189.484 170.492 189.53 170.472C189.576 170.452 189.626 170.442 189.677 170.442C189.727 170.44 189.776 170.447 189.823 170.465C189.87 170.482 189.913 170.508 189.95 170.542C189.986 170.576 190.016 170.617 190.037 170.662C190.058 170.707 190.07 170.756 190.071 170.806C190.074 170.856 190.066 170.906 190.049 170.953C190.031 170.999 190.005 171.042 189.971 171.079C189.937 171.116 189.897 171.145 189.851 171.166C189.806 171.187 189.757 171.199 189.707 171.201C189.605 171.201 189.507 171.161 189.433 171.091C189.36 171.02 189.316 170.923 189.312 170.821V170.836Z" fill="black"/>
</g>
<defs>
<clipPath id="clip0_831_7468">
<rect width="400" height="400" fill="white"/>
</clipPath>
</defs>
</svg>
