<svg width="80" height="46" viewBox="0 0 80 46" fill="none" xmlns="http://www.w3.org/2000/svg">
<g clip-path="url(#clip0_72_2098)">
<path d="M19.2754 -3.05176e-05H62.3872V5.75598L79.6278 22.9966L56.6312 46H19.2686L30.7669 34.5017H62.3872V28.7458H30.7669L19.2754 17.2816V-3.05176e-05ZM30.7669 17.2816H62.3872V11.5256H30.7669V17.2816Z" fill="white"/>
<path d="M2.65654 27.6328V27.7898C2.66099 27.9474 2.63228 28.1042 2.57229 28.25C2.51231 28.3959 2.42237 28.5276 2.30831 28.6364C2.05602 28.8684 1.72218 28.9912 1.3797 28.9778C1.19769 28.9807 1.01695 28.9472 0.848101 28.8792C0.679251 28.8111 0.525695 28.7101 0.396474 28.5819C0.269974 28.4574 0.170214 28.3084 0.103293 28.144C0.0363721 27.9797 0.00370336 27.8034 0.00728538 27.6259C0.00259178 27.4453 0.0347018 27.2656 0.101668 27.0978C0.168634 26.93 0.269053 26.7776 0.396807 26.6498C0.524562 26.5221 0.676985 26.4216 0.844788 26.3547C1.01259 26.2877 1.19227 26.2556 1.37288 26.2603C1.61178 26.2539 1.84789 26.313 2.05567 26.431C2.24685 26.5415 2.40666 26.6989 2.51997 26.8884L2.21955 27.066C2.14513 26.921 2.02847 26.8019 1.88498 26.7246C1.73383 26.6366 1.56142 26.5917 1.38654 26.5949C1.251 26.59 1.11593 26.6136 0.990087 26.6642C0.864241 26.7147 0.750409 26.7911 0.65594 26.8884C0.561712 26.9834 0.487719 27.0966 0.43843 27.221C0.38914 27.3454 0.365578 27.4785 0.369167 27.6123C0.370647 27.8688 0.473768 28.1144 0.65594 28.295C0.75274 28.3931 0.868934 28.4698 0.997088 28.5203C1.12524 28.5709 1.26253 28.5942 1.40019 28.5887C1.62781 28.6022 1.85285 28.5344 2.03519 28.3975C2.194 28.2757 2.29927 28.097 2.32879 27.8991H1.37288V27.5849L2.65654 27.6328Z" fill="white"/>
<path d="M4.56084 27.066H4.88858V28.9301H4.56084V28.6091C4.48872 28.7245 4.38786 28.8191 4.26817 28.8838C4.14847 28.9484 4.01404 28.9808 3.87804 28.9779C3.7503 28.982 3.62315 28.9586 3.50531 28.9091C3.38746 28.8596 3.2817 28.7852 3.19525 28.6911C3.01744 28.5086 2.91923 28.263 2.92213 28.0083C2.91917 27.8819 2.94184 27.7563 2.98878 27.6389C3.03572 27.5216 3.10595 27.4149 3.19525 27.3255C3.2817 27.2313 3.38746 27.157 3.50531 27.1075C3.62315 27.058 3.7503 27.0346 3.87804 27.0387C4.01404 27.0358 4.14847 27.0682 4.26817 27.1328C4.38786 27.1975 4.48872 27.2921 4.56084 27.4074V27.066ZM3.87804 28.6638C3.96927 28.6698 4.06074 28.6563 4.14631 28.6241C4.23189 28.5919 4.3096 28.5418 4.37425 28.4772C4.4389 28.4125 4.489 28.3348 4.52118 28.2492C4.55336 28.1636 4.56688 28.0722 4.56084 27.981C4.56198 27.8062 4.49599 27.6375 4.37648 27.5098C4.31432 27.4467 4.23977 27.3971 4.15751 27.3642C4.07526 27.3313 3.98708 27.3158 3.89853 27.3186C3.81204 27.316 3.72597 27.3317 3.64596 27.3646C3.56595 27.3976 3.4938 27.4471 3.43423 27.5098C3.34777 27.6052 3.29001 27.723 3.2676 27.8497C3.2452 27.9765 3.25906 28.1069 3.30759 28.2261C3.35612 28.3452 3.43734 28.4483 3.5419 28.5234C3.64645 28.5984 3.77008 28.6423 3.89853 28.6501L3.87804 28.6638Z" fill="white"/>
<path d="M5.68127 27.3802C5.73025 27.2693 5.81233 27.1764 5.91624 27.114C6.02015 27.0517 6.1408 27.023 6.26165 27.0319V27.3733C6.11671 27.3624 5.97295 27.4062 5.85879 27.4962C5.79708 27.5515 5.74898 27.6204 5.71819 27.6974C5.6874 27.7744 5.67476 27.8574 5.68127 27.94V28.9301H5.36035V27.066H5.68127V27.3802Z" fill="white"/>
<path d="M8.00225 27.066H8.32316V28.9301H8.00225V28.6091C7.92963 28.724 7.82868 28.8182 7.7091 28.8828C7.58952 28.9474 7.45533 28.9801 7.31945 28.9778C7.19182 28.9811 7.06496 28.9573 6.94724 28.9078C6.82953 28.8584 6.72366 28.7845 6.63665 28.691C6.45885 28.5085 6.36064 28.263 6.36354 28.0082C6.36057 27.8819 6.38325 27.7563 6.43019 27.6389C6.47713 27.5216 6.54736 27.4149 6.63665 27.3254C6.72366 27.232 6.82953 27.1582 6.94724 27.1087C7.06496 27.0593 7.19182 27.0354 7.31945 27.0387C7.45533 27.0364 7.58952 27.0692 7.7091 27.1337C7.82868 27.1983 7.92963 27.2925 8.00225 27.4074V27.066ZM7.31945 28.6638C7.44848 28.6572 7.57299 28.6141 7.67851 28.5395C7.78403 28.465 7.86623 28.362 7.91556 28.2426C7.9649 28.1232 7.97935 27.9923 7.95723 27.865C7.9351 27.7377 7.87731 27.6192 7.79058 27.5235C7.73024 27.4598 7.65698 27.4098 7.57572 27.3769C7.49446 27.3439 7.40707 27.3287 7.31945 27.3323C7.23204 27.3304 7.14517 27.3464 7.06415 27.3793C6.98314 27.4122 6.9097 27.4612 6.84833 27.5235C6.7616 27.6192 6.70381 27.7377 6.68168 27.865C6.65956 27.9923 6.67401 28.1232 6.72335 28.2426C6.77268 28.362 6.85488 28.465 6.9604 28.5395C7.06592 28.6141 7.19042 28.6572 7.31945 28.6638Z" fill="white"/>
<path d="M10.3448 27.066H10.6657V28.8481C10.6713 28.9694 10.649 29.0904 10.6005 29.2017C10.5519 29.313 10.4785 29.4116 10.3857 29.49C10.1926 29.6454 9.95079 29.7276 9.70294 29.7221C9.51563 29.7275 9.33003 29.6852 9.16354 29.5992C9.0138 29.5291 8.89139 29.4115 8.8153 29.2647L9.10208 29.1076C9.16084 29.2142 9.24999 29.3011 9.35819 29.357C9.46639 29.4129 9.58875 29.4355 9.70977 29.4217C9.87469 29.4299 10.0363 29.3736 10.1604 29.2647C10.2183 29.2125 10.2637 29.148 10.2933 29.0759C10.3228 29.0038 10.3358 28.9259 10.3311 28.8481V28.5819C10.2598 28.6985 10.1593 28.7944 10.0396 28.8603C9.91984 28.9261 9.78497 28.9596 9.64832 28.9574C9.52125 28.9611 9.39482 28.9381 9.2772 28.8899C9.15959 28.8416 9.0534 28.7692 8.96552 28.6774C8.87625 28.5876 8.80557 28.4811 8.75753 28.3639C8.7095 28.2468 8.68504 28.1212 8.68557 27.9946C8.68466 27.8679 8.70894 27.7423 8.757 27.6251C8.80506 27.5079 8.87594 27.4014 8.96552 27.3118C9.0534 27.2199 9.15959 27.1476 9.2772 27.0993C9.39482 27.0511 9.52125 27.0282 9.64832 27.0319C9.7842 27.0296 9.91838 27.0624 10.038 27.1269C10.1575 27.1915 10.2585 27.2857 10.3311 27.4006L10.3448 27.066ZM9.2045 28.4316C9.30026 28.5183 9.41866 28.5762 9.54595 28.5983C9.67324 28.6204 9.8042 28.606 9.92361 28.5566C10.043 28.5073 10.146 28.4251 10.2205 28.3196C10.2951 28.2141 10.3382 28.0895 10.3448 27.9605C10.3441 27.7847 10.2756 27.6159 10.1536 27.4893C10.0263 27.3663 9.85612 27.2975 9.67904 27.2975C9.50197 27.2975 9.33182 27.3663 9.2045 27.4893C9.08499 27.617 9.019 27.7857 9.02015 27.9605C9.016 28.0517 9.03018 28.1428 9.06184 28.2284C9.09351 28.314 9.14202 28.3924 9.2045 28.4589V28.4316Z" fill="white"/>
<path d="M11.3621 28.1449C11.389 28.2987 11.4716 28.4373 11.5942 28.534C11.7217 28.63 11.8787 28.6784 12.0381 28.6706C12.1435 28.6794 12.2492 28.6583 12.3433 28.61C12.4375 28.5618 12.5162 28.4882 12.5706 28.3975L12.8438 28.5545C12.7585 28.6913 12.6382 28.8027 12.4953 28.8772C12.3524 28.9516 12.1921 28.9864 12.0312 28.9779C11.8979 28.9832 11.7648 28.961 11.6403 28.9129C11.5159 28.8647 11.4026 28.7916 11.3075 28.6979C11.2188 28.608 11.149 28.5013 11.1021 28.3841C11.0552 28.2668 11.0322 28.1414 11.0343 28.0151C11.0296 27.7613 11.1253 27.5159 11.3006 27.3323C11.39 27.2424 11.4964 27.1713 11.6137 27.1233C11.731 27.0752 11.8567 27.0511 11.9834 27.0524C12.1114 27.0464 12.2391 27.0689 12.3573 27.1185C12.4754 27.1681 12.581 27.2435 12.6662 27.3391C12.7679 27.4515 12.8429 27.5854 12.8855 27.7309C12.9281 27.8763 12.9371 28.0295 12.912 28.179L11.3621 28.1449ZM12.0039 27.3255C11.8484 27.3229 11.6966 27.3735 11.5738 27.4689C11.4606 27.5733 11.386 27.7128 11.3621 27.8649H12.6048C12.5895 27.7097 12.5164 27.5659 12.3999 27.4621C12.2818 27.3635 12.1301 27.3144 11.9766 27.3255H12.0039Z" fill="white"/>
<path d="M1.16093 30.043C1.32619 30.038 1.49056 30.069 1.64265 30.1339C1.79475 30.1987 1.93092 30.2959 2.04173 30.4186C2.27397 30.6707 2.4029 31.001 2.4029 31.3438C2.4029 31.6866 2.27397 32.0168 2.04173 32.269C1.93092 32.3917 1.79475 32.4888 1.64265 32.5537C1.49056 32.6185 1.32619 32.6495 1.16093 32.6445H0.143555V30.043H1.16093ZM1.16093 32.3236C1.28854 32.332 1.41638 32.3111 1.53472 32.2626C1.65305 32.2141 1.75874 32.1392 1.84372 32.0437C2.01042 31.8557 2.10056 31.6121 2.09635 31.3609C2.10261 31.1093 2.0122 30.865 1.84372 30.6781C1.75874 30.5825 1.65305 30.5076 1.53472 30.4591C1.41638 30.4106 1.28854 30.3897 1.16093 30.3981H0.478129V32.3031L1.16093 32.3236Z" fill="white"/>
<path d="M2.92955 30.4459C2.90061 30.4466 2.87182 30.4414 2.84486 30.4309C2.8179 30.4203 2.79331 30.4045 2.77251 30.3844C2.75224 30.3651 2.73628 30.3417 2.72569 30.3159C2.7151 30.29 2.7101 30.2621 2.71105 30.2342C2.71044 30.1758 2.73247 30.1196 2.77251 30.0771C2.79331 30.057 2.8179 30.0412 2.84486 30.0306C2.87182 30.0201 2.90061 30.015 2.92955 30.0157C2.9574 30.0156 2.98501 30.0209 3.01079 30.0315C3.03656 30.042 3.06 30.0575 3.07977 30.0771C3.11981 30.1196 3.14183 30.1758 3.14122 30.2342C3.14217 30.2621 3.13718 30.29 3.12659 30.3159C3.116 30.3417 3.10004 30.3651 3.07977 30.3844C3.06 30.404 3.03656 30.4196 3.01079 30.4301C2.98501 30.4407 2.9574 30.446 2.92955 30.4459ZM2.76568 32.6445V30.7873H3.10025V32.6445H2.76568Z" fill="white"/>
<path d="M5.10777 30.7873H5.42869V32.5694C5.43434 32.6907 5.41203 32.8116 5.36349 32.9229C5.31495 33.0342 5.24147 33.1328 5.14874 33.2112C4.95621 33.3677 4.71397 33.4501 4.46594 33.4434C4.27863 33.4488 4.09303 33.4065 3.92654 33.3205C3.78019 33.2479 3.66065 33.1307 3.58514 32.9859L3.86508 32.8289C3.9248 32.9343 4.01435 33.0197 4.12247 33.0743C4.23059 33.129 4.35247 33.1505 4.47277 33.1361C4.63844 33.1432 4.80105 33.0899 4.93024 32.9859C4.98577 32.9322 5.02915 32.8673 5.05742 32.7954C5.08569 32.7236 5.0982 32.6465 5.09411 32.5694V32.3031C5.02334 32.4202 4.92296 32.5166 4.80309 32.5825C4.68322 32.6484 4.54809 32.6816 4.41132 32.6787C4.28369 32.682 4.15681 32.6581 4.0391 32.6087C3.92139 32.5592 3.81553 32.4853 3.72852 32.3919C3.63891 32.3026 3.56846 32.196 3.52149 32.0786C3.47453 31.9612 3.45204 31.8355 3.45541 31.7091C3.45322 31.5828 3.47624 31.4574 3.52314 31.3402C3.57004 31.2229 3.63986 31.1162 3.72852 31.0263C3.81691 30.9351 3.92319 30.8632 4.04068 30.815C4.15818 30.7668 4.28436 30.7434 4.41132 30.7463C4.5472 30.744 4.68138 30.7767 4.80096 30.8413C4.92054 30.9059 5.0215 31.0002 5.09411 31.115L5.10777 30.7873ZM3.97433 32.1529C4.07026 32.2376 4.18806 32.2935 4.31429 32.3145C4.44052 32.3355 4.57011 32.3206 4.68827 32.2715C4.80643 32.2224 4.90841 32.1411 4.98258 32.0368C5.05676 31.9325 5.10013 31.8095 5.10777 31.6817C5.13301 31.581 5.13495 31.476 5.11346 31.3744C5.09197 31.2729 5.04762 31.1775 4.98377 31.0957C4.91992 31.0139 4.83824 30.9477 4.74496 30.9022C4.65169 30.8566 4.54926 30.833 4.44546 30.833C4.34166 30.833 4.23923 30.8566 4.14596 30.9022C4.05268 30.9477 3.971 31.0139 3.90715 31.0957C3.8433 31.1775 3.79895 31.2729 3.77746 31.3744C3.75597 31.476 3.75791 31.581 3.78315 31.6817C3.77738 31.7737 3.79147 31.8658 3.82446 31.9518C3.85745 32.0378 3.90856 32.1157 3.97433 32.1802V32.1529Z" fill="white"/>
<path d="M6.06333 30.4459C6.03439 30.4466 6.00561 30.4415 5.97865 30.4309C5.95169 30.4204 5.92709 30.4046 5.90629 30.3844C5.88602 30.3651 5.87006 30.3418 5.85947 30.3159C5.84888 30.29 5.84389 30.2622 5.84484 30.2342C5.84422 30.1759 5.86625 30.1196 5.90629 30.0772C5.92709 30.0571 5.95169 30.0412 5.97865 30.0307C6.00561 30.0201 6.03439 30.0151 6.06333 30.0158C6.09129 30.0148 6.11913 30.0198 6.14502 30.0304C6.17091 30.0409 6.19427 30.0569 6.21355 30.0772C6.23558 30.0969 6.2531 30.1211 6.26489 30.1482C6.27668 30.1753 6.28245 30.2047 6.28183 30.2342C6.2829 30.2629 6.27728 30.2913 6.26543 30.3174C6.25358 30.3435 6.23581 30.3664 6.21355 30.3844C6.19427 30.4047 6.17091 30.4207 6.14502 30.4313C6.11913 30.4419 6.09129 30.4469 6.06333 30.4459ZM5.89947 32.6445V30.7873H6.22038V32.6445H5.89947Z" fill="white"/>
<path d="M7.70857 31.1014H7.19647V32.1051C7.19085 32.1754 7.21019 32.2456 7.25109 32.3031C7.27217 32.3248 7.2978 32.3416 7.32614 32.3522C7.35447 32.3628 7.38481 32.367 7.41497 32.3645H7.68808V32.6513C7.47941 32.7028 7.25924 32.6786 7.06674 32.5831C6.99588 32.5283 6.94041 32.4561 6.90572 32.3735C6.87102 32.291 6.85828 32.2008 6.86873 32.1119V31.1082H6.51367V30.7941H6.87555V30.3708L7.20329 30.2752V30.7941H7.69491L7.70857 31.1014Z" fill="white"/>
<path d="M9.52472 30.7873H9.84563V32.6445H9.52472V32.3031C9.4521 32.4179 9.35115 32.5122 9.23157 32.5768C9.11199 32.6414 8.9778 32.6741 8.84192 32.6718C8.71429 32.6751 8.58742 32.6512 8.4697 32.6018C8.35199 32.5523 8.24613 32.4784 8.15912 32.385C7.98132 32.2025 7.8831 31.957 7.886 31.7022C7.88303 31.5758 7.90571 31.4502 7.95265 31.3329C7.99959 31.2155 8.06983 31.1089 8.15912 31.0194C8.24613 30.926 8.35199 30.8521 8.4697 30.8026C8.58742 30.7532 8.71429 30.7293 8.84192 30.7326C8.9778 30.7303 9.11199 30.763 9.23157 30.8276C9.35115 30.8922 9.4521 30.9865 9.52472 31.1013V30.7873ZM8.84192 32.385C9.01772 32.3843 9.18648 32.3158 9.31305 32.1938C9.37618 32.1316 9.42575 32.0571 9.45865 31.9748C9.49156 31.8926 9.50708 31.8044 9.50423 31.7159C9.50423 31.5348 9.4323 31.3611 9.30425 31.233C9.1762 31.105 9.00253 31.0331 8.82144 31.0331C8.73403 31.0312 8.64714 31.0471 8.56613 31.08C8.48511 31.1129 8.41167 31.162 8.35031 31.2243C8.2283 31.3509 8.15982 31.5196 8.15912 31.6954C8.15912 31.8765 8.23106 32.0502 8.35911 32.1782C8.48716 32.3063 8.66083 32.3782 8.84192 32.3782V32.385Z" fill="white"/>
<path d="M10.3174 32.6445V29.9133H10.6451V32.6445H10.3174Z" fill="white"/>
<path d="M13.5539 31.2994C13.6707 31.3528 13.7701 31.438 13.8407 31.5452C13.9093 31.6559 13.9448 31.7838 13.9431 31.914C13.9457 32.011 13.9275 32.1075 13.8898 32.1969C13.8522 32.2864 13.7958 32.3668 13.7246 32.4328C13.6547 32.5022 13.5715 32.5567 13.4799 32.5931C13.3884 32.6295 13.2905 32.647 13.192 32.6445H12.0654V30.043H13.1101C13.205 30.0397 13.2996 30.0562 13.3878 30.0915C13.4759 30.1267 13.5558 30.18 13.6222 30.2479C13.6905 30.3129 13.7445 30.3914 13.7809 30.4784C13.8174 30.5653 13.8354 30.6589 13.8339 30.7532C13.8378 30.8606 13.8142 30.9672 13.7652 31.0628C13.7161 31.1584 13.6434 31.2399 13.5539 31.2994ZM13.1101 30.364H12.4273V31.1628H13.1101C13.1612 31.1635 13.2118 31.1535 13.2589 31.1335C13.3059 31.1135 13.3482 31.084 13.3832 31.0468C13.4528 30.9702 13.4913 30.8703 13.4913 30.7668C13.4913 30.6633 13.4528 30.5635 13.3832 30.4869C13.3491 30.4481 13.3071 30.417 13.26 30.3958C13.2129 30.3746 13.1618 30.3638 13.1101 30.364ZM13.192 32.3236C13.2468 32.3246 13.3012 32.3141 13.3517 32.293C13.4023 32.2718 13.4479 32.2404 13.4856 32.2007C13.5612 32.119 13.6027 32.0116 13.6017 31.9003C13.6028 31.8445 13.5924 31.789 13.5713 31.7373C13.5502 31.6857 13.5187 31.6389 13.4788 31.5998C13.4423 31.5603 13.398 31.529 13.3485 31.5078C13.2991 31.4866 13.2458 31.4761 13.192 31.477H12.4137V32.3031L13.192 32.3236Z" fill="white"/>
<path d="M14.6256 31.1014C14.6746 30.9906 14.7567 30.8976 14.8606 30.8353C14.9645 30.7729 15.0851 30.7442 15.206 30.7532V31.0946C15.059 31.0845 14.9135 31.1282 14.7963 31.2175C14.7354 31.2732 14.6883 31.3423 14.6587 31.4193C14.629 31.4963 14.6177 31.5792 14.6256 31.6613V32.6445H14.3047V30.7873H14.6256V31.1014Z" fill="white"/>
<path d="M16.9398 30.7873H17.2675V32.6445H16.9398V32.3031C16.8676 32.4184 16.7668 32.5131 16.6471 32.5777C16.5274 32.6424 16.393 32.6748 16.257 32.6718C16.1292 32.676 16.0021 32.6526 15.8842 32.6031C15.7664 32.5536 15.6606 32.4792 15.5742 32.385C15.3964 32.2025 15.2981 31.957 15.301 31.7022C15.2981 31.5759 15.3207 31.4503 15.3677 31.3329C15.4146 31.2155 15.4849 31.1089 15.5742 31.0194C15.6606 30.9253 15.7664 30.851 15.8842 30.8015C16.0021 30.752 16.1292 30.7284 16.257 30.7326C16.393 30.7297 16.5274 30.7622 16.6471 30.8268C16.7668 30.8914 16.8676 30.986 16.9398 31.1014V30.7873ZM16.257 32.385C16.3482 32.3911 16.4397 32.3775 16.5252 32.3453C16.6108 32.3132 16.6885 32.263 16.7532 32.1984C16.8178 32.1338 16.8679 32.0561 16.9001 31.9705C16.9323 31.8849 16.9458 31.7934 16.9398 31.7022C16.9458 31.611 16.9323 31.5195 16.9001 31.4339C16.8679 31.3483 16.8178 31.2707 16.7532 31.206C16.6885 31.1414 16.6108 31.0913 16.5252 31.0591C16.4397 31.0269 16.3482 31.0134 16.257 31.0194C16.1705 31.0168 16.0844 31.0325 16.0044 31.0654C15.9244 31.0984 15.8522 31.1479 15.7927 31.2106C15.7297 31.2715 15.6802 31.3449 15.6473 31.426C15.6143 31.5071 15.5987 31.5942 15.6015 31.6817C15.6015 31.8628 15.6734 32.0365 15.8015 32.1646C15.9295 32.2926 16.1032 32.3645 16.2843 32.3645L16.257 32.385Z" fill="white"/>
<path d="M18.6679 30.7395C18.765 30.7342 18.8622 30.7497 18.9529 30.7851C19.0436 30.8204 19.1256 30.8747 19.1936 30.9443C19.3279 31.0989 19.3965 31.2998 19.3848 31.5042V32.6445H19.0639V31.5247C19.0708 31.3949 19.0267 31.2674 18.941 31.1696C18.8965 31.1275 18.8439 31.0948 18.7864 31.0737C18.7288 31.0526 18.6676 31.0434 18.6064 31.0468C18.4598 31.0431 18.3176 31.097 18.2104 31.197C18.1073 31.3289 18.0562 31.4942 18.067 31.6613V32.6445H17.7393V30.7873H18.067V31.0536C18.1311 30.9535 18.2203 30.8717 18.3257 30.8167C18.4311 30.7616 18.549 30.735 18.6679 30.7395Z" fill="white"/>
<path d="M21.3575 30.043H21.6853V32.6445H21.3575V32.3031C21.2854 32.4184 21.1846 32.5131 21.0649 32.5777C20.9452 32.6424 20.8107 32.6748 20.6747 32.6718C20.547 32.676 20.4198 32.6526 20.302 32.6031C20.1842 32.5536 20.0784 32.4792 19.9919 32.385C19.8123 32.2032 19.7117 31.9578 19.712 31.7022C19.7103 31.5754 19.7342 31.4497 19.7823 31.3323C19.8304 31.215 19.9017 31.1086 19.9919 31.0194C20.0784 30.9253 20.1842 30.851 20.302 30.8015C20.4198 30.752 20.547 30.7285 20.6747 30.7326C20.8107 30.7297 20.9452 30.7622 21.0649 30.8268C21.1846 30.8915 21.2854 30.986 21.3575 31.1014V30.043ZM20.6747 32.385C20.766 32.3911 20.8574 32.3775 20.943 32.3454C21.0286 32.3132 21.1063 32.2631 21.171 32.1984C21.2356 32.1338 21.2857 32.0561 21.3179 31.9705C21.35 31.885 21.3636 31.7935 21.3575 31.7022C21.3636 31.611 21.35 31.5195 21.3179 31.4339C21.2857 31.3484 21.2356 31.2707 21.171 31.2061C21.1063 31.1414 21.0286 31.0913 20.943 31.0591C20.8574 31.0269 20.766 31.0134 20.6747 31.0194C20.5883 31.0168 20.5022 31.0325 20.4222 31.0654C20.3422 31.0984 20.27 31.1479 20.2104 31.2106C20.1475 31.2715 20.098 31.3449 20.0651 31.426C20.0321 31.5071 20.0165 31.5942 20.0193 31.6817C20.0193 31.8628 20.0912 32.0365 20.2192 32.1646C20.3473 32.2926 20.521 32.3645 20.702 32.3645L20.6747 32.385Z" fill="white"/>
<path d="M22.3202 30.4459C22.2912 30.4466 22.2624 30.4415 22.2355 30.4309C22.2085 30.4204 22.1839 30.4046 22.1631 30.3844C22.1429 30.3651 22.1269 30.3418 22.1163 30.3159C22.1057 30.29 22.1007 30.2622 22.1017 30.2342C22.1011 30.1759 22.1231 30.1196 22.1631 30.0772C22.1839 30.0571 22.2085 30.0412 22.2355 30.0307C22.2624 30.0201 22.2912 30.0151 22.3202 30.0158C22.3481 30.0148 22.376 30.0198 22.4019 30.0304C22.4278 30.0409 22.4511 30.0569 22.4704 30.0772C22.5123 30.1189 22.5368 30.1751 22.5387 30.2342C22.5383 30.2626 22.5321 30.2906 22.5203 30.3165C22.5086 30.3424 22.4916 30.3655 22.4704 30.3844C22.4511 30.4047 22.4278 30.4207 22.4019 30.4313C22.376 30.4419 22.3481 30.4469 22.3202 30.4459ZM22.1563 32.6445V30.7873H22.4772V32.6445H22.1563Z" fill="white"/>
<path d="M23.8846 30.7395C23.9818 30.7342 24.079 30.7498 24.1697 30.7851C24.2603 30.8204 24.3424 30.8747 24.4104 30.9444C24.5465 31.0983 24.6175 31.299 24.6084 31.5042V32.6445H24.267V31.5247C24.2739 31.3949 24.2298 31.2675 24.1441 31.1697C24.0986 31.127 24.0448 31.0941 23.9861 31.073C23.9274 31.0518 23.865 31.0429 23.8027 31.0468C23.6583 31.0442 23.5187 31.0981 23.4135 31.197C23.308 31.328 23.2545 31.4934 23.2633 31.6613V32.6445H22.9424V30.7873H23.2633V31.0536C23.3292 30.9504 23.4216 30.8667 23.5309 30.8114C23.6403 30.7562 23.7624 30.7313 23.8846 30.7395Z" fill="white"/>
<path d="M26.5812 30.7873H26.9021V32.5694C26.9078 32.6907 26.8855 32.8116 26.8369 32.9229C26.7884 33.0342 26.7149 33.1328 26.6222 33.2112C26.4296 33.3677 26.1874 33.4501 25.9394 33.4434C25.752 33.4488 25.5664 33.4064 25.4 33.3204C25.2536 33.2479 25.1341 33.1307 25.0586 32.9859L25.3385 32.8288C25.3982 32.9343 25.4878 33.0196 25.5959 33.0743C25.704 33.129 25.8259 33.1505 25.9462 33.1361C26.1119 33.1432 26.2745 33.0898 26.4037 32.9859C26.4592 32.9322 26.5026 32.8673 26.5308 32.7954C26.5591 32.7236 26.5716 32.6465 26.5675 32.5694V32.3031C26.4962 32.4197 26.3958 32.5157 26.276 32.5815C26.1563 32.6474 26.0214 32.6809 25.8847 32.6786C25.7571 32.6819 25.6302 32.6581 25.5125 32.6086C25.3948 32.5592 25.2889 32.4853 25.2019 32.3918C25.1114 32.303 25.0399 32.1966 24.9918 32.0792C24.9437 31.9618 24.9199 31.8359 24.922 31.709C24.9211 31.5824 24.9454 31.4568 24.9934 31.3396C25.0415 31.2223 25.1124 31.1158 25.2019 31.0263C25.2901 30.9347 25.3963 30.8626 25.5139 30.8144C25.6314 30.7662 25.7577 30.743 25.8847 30.7463C26.0206 30.744 26.1548 30.7767 26.2744 30.8413C26.394 30.9059 26.4949 31.0001 26.5675 31.115L26.5812 30.7873ZM25.4477 32.1529C25.5091 32.2152 25.5826 32.2642 25.6636 32.2971C25.7446 32.33 25.8315 32.346 25.9189 32.3441C26.0947 32.3434 26.2634 32.2749 26.39 32.1529C26.4523 32.0915 26.5014 32.018 26.5342 31.937C26.5671 31.856 26.5831 31.7691 26.5812 31.6817C26.5848 31.5941 26.5696 31.5068 26.5366 31.4255C26.5036 31.3442 26.4536 31.271 26.39 31.2106C26.3291 31.1477 26.2558 31.0981 26.1747 31.0652C26.0935 31.0323 26.0064 31.0167 25.9189 31.0194C25.7378 31.0194 25.5641 31.0913 25.4361 31.2194C25.308 31.3474 25.2361 31.5211 25.2361 31.7022C25.2359 31.7923 25.2546 31.8813 25.291 31.9637C25.3275 32.046 25.3809 32.1198 25.4477 32.1801V32.1529Z" fill="white"/>
<path d="M2.23925 36.2633L1.95248 36.4272L1.68618 36.1472C1.48323 36.3319 1.21615 36.4299 0.941934 36.4203C0.714511 36.4314 0.490959 36.3584 0.313762 36.2155C0.233035 36.1484 0.168868 36.0636 0.126237 35.9677C0.0836058 35.8717 0.0636588 35.7673 0.0679549 35.6624C0.067317 35.5082 0.109897 35.3568 0.190864 35.2254C0.278554 35.0905 0.401274 34.9819 0.54591 34.9113C0.431358 34.7816 0.370345 34.6132 0.375211 34.4402C0.372515 34.3415 0.391269 34.2433 0.43017 34.1526C0.46907 34.0618 0.527192 33.9806 0.600535 33.9144C0.751985 33.7834 0.946514 33.7128 1.14677 33.7164C1.31468 33.7156 1.4789 33.7657 1.61791 33.8599C1.75888 33.9522 1.86469 34.0892 1.91834 34.249L1.63156 34.4129C1.59967 34.3069 1.53515 34.2137 1.44721 34.1466C1.36171 34.0849 1.25904 34.0515 1.1536 34.0511C1.04092 34.0465 0.930828 34.0855 0.846342 34.1602C0.80591 34.1945 0.773821 34.2375 0.752523 34.286C0.731224 34.3345 0.721284 34.3873 0.723444 34.4402C0.72372 34.5164 0.742465 34.5913 0.778069 34.6587C0.83156 34.7381 0.890896 34.8135 0.955592 34.884L1.63839 35.6419C1.7052 35.49 1.74893 35.3288 1.76812 35.1639L2.06855 35.3415C2.03685 35.5364 1.96973 35.7238 1.87054 35.8946L2.23925 36.2633ZM0.948768 36.0926C1.13895 36.0998 1.32465 36.0338 1.46769 35.9082L0.784893 35.1503C0.683466 35.1867 0.595672 35.2534 0.533387 35.3413C0.471103 35.4292 0.43734 35.5342 0.436671 35.6419C0.43339 35.7033 0.443954 35.7647 0.467593 35.8214C0.491232 35.8781 0.527339 35.9288 0.573228 35.9697C0.680715 36.0523 0.813232 36.0957 0.948768 36.0926Z" fill="white"/>
<path d="M5.93368 33.7643V36.3999H5.59229V34.3515L4.74562 35.7717H4.69782L3.84433 34.3515V36.3999H3.50293V33.7984H3.89213L4.72514 35.164L5.55132 33.7984L5.93368 33.7643Z" fill="white"/>
<path d="M7.98155 34.5085H8.3093V36.3999H7.98155V36.0858C7.90943 36.2012 7.80859 36.2957 7.68889 36.3604C7.5692 36.425 7.43476 36.4574 7.29876 36.4545C7.17101 36.4586 7.04387 36.4352 6.92603 36.3857C6.80818 36.3362 6.70241 36.2619 6.61596 36.1677C6.43629 35.9859 6.33569 35.7406 6.33602 35.4849C6.33434 35.3582 6.35826 35.2323 6.40637 35.115C6.45447 34.9976 6.52575 34.8913 6.61596 34.8022C6.70241 34.708 6.80818 34.6336 6.92603 34.5841C7.04387 34.5346 7.17101 34.5112 7.29876 34.5153C7.43476 34.5124 7.5692 34.5448 7.68889 34.6095C7.80859 34.6741 7.90943 34.7687 7.98155 34.8841V34.5085ZM7.29876 36.1062C7.47984 36.1062 7.65352 36.0343 7.78157 35.9063C7.90962 35.7782 7.98155 35.6045 7.98155 35.4234C7.98428 35.3359 7.96869 35.2489 7.93576 35.1677C7.90284 35.0866 7.85331 35.0132 7.79037 34.9523C7.66374 34.8333 7.49647 34.767 7.32266 34.767C7.14884 34.767 6.98157 34.8333 6.85494 34.9523C6.792 35.0132 6.74247 35.0866 6.70955 35.1677C6.67663 35.2489 6.66103 35.3359 6.66376 35.4234C6.66376 35.6045 6.7357 35.7782 6.86375 35.9063C6.99179 36.0343 7.16547 36.1062 7.34656 36.1062H7.29876Z" fill="white"/>
<path d="M9.10215 34.8226C9.15114 34.7118 9.23322 34.6188 9.33713 34.5565C9.44103 34.4941 9.56169 34.4655 9.68254 34.4744V34.8158C9.53559 34.8058 9.39001 34.8494 9.27285 34.9387C9.21319 34.9953 9.16691 35.0645 9.13738 35.1413C9.10785 35.2181 9.09581 35.3005 9.10215 35.3825V36.3999H8.78125V34.5427H9.10215V34.8226Z" fill="white"/>
<path d="M11.5529 36.3999H11.1568L10.3033 35.5191V36.3999H9.98242V33.7984H10.3033V35.362L11.109 34.5427H11.5255L10.6379 35.444L11.5529 36.3999Z" fill="white"/>
<path d="M11.8942 35.5874C11.9211 35.7412 12.0038 35.8798 12.1264 35.9765C12.2538 36.0725 12.4108 36.1208 12.5702 36.1131C12.6756 36.1218 12.7814 36.1008 12.8755 36.0525C12.9696 36.0043 13.0483 35.9307 13.1028 35.84L13.3759 35.997C13.2896 36.1343 13.168 36.246 13.024 36.3204C12.8799 36.3949 12.7185 36.4294 12.5565 36.4204C12.3009 36.4207 12.0555 36.3201 11.8737 36.1404C11.7839 36.051 11.7128 35.9446 11.6647 35.8273C11.6166 35.7101 11.5925 35.5843 11.5938 35.4576C11.5916 35.203 11.6897 34.9577 11.8669 34.7748C11.9563 34.6849 12.0627 34.6138 12.18 34.5658C12.2973 34.5177 12.423 34.4935 12.5497 34.4948C12.6777 34.4888 12.8054 34.5114 12.9236 34.561C13.0417 34.6106 13.1472 34.686 13.2325 34.7816C13.3342 34.894 13.4092 35.0279 13.4518 35.1734C13.4943 35.3188 13.5034 35.472 13.4783 35.6215L11.8942 35.5874ZM12.5361 34.768C12.3805 34.7654 12.2288 34.8159 12.1059 34.9113C11.989 35.0127 11.9136 35.1538 11.8942 35.3074H13.1369C13.1298 35.2296 13.1075 35.154 13.0712 35.0849C13.0349 35.0157 12.9853 34.9545 12.9253 34.9046C12.8173 34.8118 12.6783 34.763 12.5361 34.768Z" fill="white"/>
<path d="M14.776 34.8226H14.2775V35.8264C14.2719 35.8967 14.2912 35.9668 14.3321 36.0243C14.3537 36.0453 14.3795 36.0616 14.4077 36.0722C14.4359 36.0827 14.4659 36.0874 14.496 36.0858H14.776V36.3725C14.5674 36.4253 14.3468 36.401 14.1546 36.3043C14.0838 36.2495 14.0283 36.1774 13.9936 36.0948C13.9589 36.0123 13.9461 35.9221 13.9566 35.8332V34.8294H13.5879V34.5154H13.9566V34.092L14.2775 33.9964V34.5154H14.776V34.8226Z" fill="white"/>
<path d="M15.3016 34.1672C15.2727 34.1678 15.2439 34.1628 15.2169 34.1522C15.19 34.1417 15.1654 34.1259 15.1446 34.1057C15.1243 34.0865 15.1083 34.0631 15.0977 34.0372C15.0872 34.0113 15.0822 33.9835 15.0831 33.9555C15.0825 33.8972 15.1045 33.8408 15.1446 33.7984C15.1654 33.7783 15.19 33.7625 15.2169 33.752C15.2439 33.7414 15.2727 33.7363 15.3016 33.737C15.3296 33.736 15.3574 33.7411 15.3833 33.7517C15.4092 33.7623 15.4326 33.7781 15.4518 33.7984C15.4739 33.8181 15.4914 33.8424 15.5032 33.8695C15.515 33.8966 15.5207 33.926 15.5201 33.9555C15.5212 33.9842 15.5156 34.0126 15.5037 34.0387C15.4919 34.0648 15.4741 34.0877 15.4518 34.1057C15.4326 34.126 15.4092 34.142 15.3833 34.1526C15.3574 34.1632 15.3296 34.1681 15.3016 34.1672ZM15.1377 36.3657V34.5086H15.4655V36.3999L15.1377 36.3657Z" fill="white"/>
<path d="M16.8651 34.4608C16.9623 34.4555 17.0595 34.471 17.1502 34.5063C17.2408 34.5416 17.3229 34.5959 17.3909 34.6656C17.527 34.8195 17.598 35.0203 17.5889 35.2255V36.3999H17.2612V35.2801C17.2681 35.1503 17.224 35.0228 17.1382 34.925C17.0938 34.8829 17.0412 34.8502 16.9836 34.8291C16.9261 34.808 16.8649 34.7988 16.8037 34.8022C16.732 34.7997 16.6606 34.8118 16.5938 34.8376C16.5269 34.8634 16.4659 34.9024 16.4145 34.9524C16.3601 35.016 16.3188 35.0898 16.293 35.1695C16.2672 35.2492 16.2574 35.3332 16.2643 35.4167V36.3999H15.9365V34.5427H16.2643V34.809C16.3241 34.7025 16.4114 34.6141 16.5171 34.5528C16.6228 34.4916 16.743 34.4598 16.8651 34.4608Z" fill="white"/>
<path d="M19.5619 34.5085H19.8828V36.2906C19.8884 36.4119 19.8661 36.5329 19.8176 36.6442C19.769 36.7555 19.6956 36.8541 19.6028 36.9325C19.4103 37.089 19.1681 37.1714 18.92 37.1646C18.7327 37.17 18.5471 37.1277 18.3806 37.0417C18.2343 36.9691 18.1148 36.852 18.0392 36.7071L18.3192 36.5501C18.3789 36.6555 18.4685 36.741 18.5766 36.7956C18.6847 36.8503 18.8066 36.8718 18.9269 36.8574C19.0925 36.8646 19.2552 36.8111 19.3844 36.7071C19.4399 36.6535 19.4833 36.5885 19.5115 36.5167C19.5398 36.4448 19.5523 36.3677 19.5482 36.2906V36.0243C19.4774 36.1414 19.3771 36.2378 19.2572 36.3037C19.1373 36.3697 19.0022 36.4028 18.8654 36.3999C18.7378 36.4032 18.6109 36.3793 18.4932 36.3299C18.3755 36.2805 18.2696 36.2065 18.1826 36.1131C18.093 36.0239 18.0226 35.9174 17.9756 35.8C17.9286 35.6825 17.9061 35.5567 17.9095 35.4303C17.9073 35.304 17.9304 35.1786 17.9773 35.0614C18.0241 34.9442 18.094 34.8374 18.1826 34.7475C18.271 34.6563 18.3773 34.5844 18.4948 34.5362C18.6123 34.488 18.7385 34.4647 18.8654 34.4676C19.0015 34.464 19.1362 34.4961 19.256 34.5608C19.3759 34.6255 19.4766 34.7205 19.5482 34.8363L19.5619 34.5085ZM18.4284 35.8741C18.5244 35.9588 18.6422 36.0149 18.7684 36.0358C18.8946 36.0568 19.0242 36.0419 19.1424 35.9927C19.2605 35.9436 19.3625 35.8623 19.4367 35.758C19.5109 35.6538 19.5542 35.5308 19.5619 35.4031C19.5871 35.3024 19.5891 35.1972 19.5676 35.0957C19.5461 34.9941 19.5017 34.8989 19.4379 34.817C19.374 34.7352 19.2923 34.6689 19.1991 34.6234C19.1058 34.5779 19.0034 34.5542 18.8996 34.5542C18.7958 34.5542 18.6933 34.5779 18.6001 34.6234C18.5068 34.6689 18.4251 34.7352 18.3613 34.817C18.2974 34.8989 18.253 34.9941 18.2316 35.0957C18.2101 35.1972 18.212 35.3024 18.2372 35.4031C18.2315 35.495 18.2456 35.5871 18.2786 35.6731C18.3115 35.7591 18.3627 35.837 18.4284 35.9015V35.8741Z" fill="white"/>
<path d="M0.983218 40.1416C0.76294 40.1464 0.546356 40.0846 0.361881 39.9641C0.191575 39.8554 0.0638091 39.6915 0 39.4998L0.293597 39.3291C0.336566 39.4307 0.400813 39.5219 0.482008 39.5965C0.563204 39.6711 0.659464 39.7275 0.764291 39.7618C0.869118 39.7961 0.980081 39.8075 1.0897 39.7953C1.19931 39.7831 1.30502 39.7475 1.39972 39.6909C1.44539 39.6571 1.48225 39.6128 1.5072 39.5617C1.53216 39.5106 1.54447 39.4542 1.54312 39.3974C1.54593 39.3422 1.53416 39.2873 1.50898 39.2382C1.48381 39.189 1.44612 39.1474 1.39972 39.1174C1.25156 39.032 1.0933 38.9655 0.928604 38.9194L0.682796 38.8374L0.464297 38.7419C0.393971 38.7064 0.329497 38.6603 0.273114 38.6053C0.218867 38.5479 0.17647 38.4803 0.148351 38.4065C0.120232 38.3327 0.10694 38.2541 0.10924 38.1751C0.106208 38.0731 0.126111 37.9717 0.167469 37.8783C0.208828 37.785 0.270592 37.7021 0.348222 37.6358C0.512306 37.5035 0.717856 37.4333 0.928604 37.4378C1.12049 37.4318 1.30932 37.4867 1.46801 37.5948C1.61837 37.6962 1.73677 37.8383 1.80941 38.0044L1.52263 38.1751C1.48015 38.053 1.39939 37.9478 1.29237 37.8753C1.18535 37.8027 1.05778 37.7666 0.928604 37.7723C0.806419 37.7662 0.685864 37.8024 0.587205 37.8748C0.544701 37.9076 0.510715 37.9501 0.488134 37.9989C0.465554 38.0476 0.455041 38.101 0.457472 38.1546C0.454747 38.2057 0.464508 38.2567 0.485926 38.3031C0.507343 38.3495 0.539765 38.3899 0.580371 38.4209C0.71336 38.4996 0.855543 38.5615 1.0037 38.6053L1.15392 38.66L1.29731 38.7077L1.43387 38.7623L1.55678 38.8307C1.59736 38.849 1.63434 38.8745 1.66601 38.9058L1.75478 38.9946C1.78507 39.0271 1.81038 39.0638 1.82989 39.1037L1.87086 39.2335C1.87453 39.2858 1.87453 39.3383 1.87086 39.3905C1.8741 39.4943 1.85365 39.5974 1.81105 39.692C1.76846 39.7867 1.70484 39.8704 1.62505 39.9368C1.44058 40.076 1.21422 40.1482 0.983218 40.1416Z" fill="white"/>
<path d="M3.19588 38.5439H2.70427V39.5476C2.69865 39.6179 2.71799 39.6881 2.75889 39.7456C2.77997 39.7673 2.80561 39.7841 2.83394 39.7947C2.86227 39.8053 2.89261 39.8095 2.92277 39.807H3.19588V40.0938C2.987 40.1419 2.768 40.1178 2.57454 40.0256C2.50441 39.9705 2.44988 39.898 2.41635 39.8154C2.38282 39.7327 2.37144 39.6428 2.38335 39.5544V38.5507H2.01465V38.2366H2.4175V37.8132L2.73841 37.7177V38.2366H3.23003L3.19588 38.5439Z" fill="white"/>
<path d="M4.85496 38.2298H5.18269V40.087H4.85496V39.8138C4.79166 39.9153 4.70284 39.9982 4.5974 40.0546C4.49195 40.1109 4.37357 40.1385 4.25409 40.1347C4.15641 40.1392 4.05892 40.1226 3.96821 40.0861C3.87751 40.0495 3.7957 39.994 3.72833 39.9231C3.59093 39.77 3.51974 39.5686 3.53033 39.3632V38.223H3.85807V39.3428C3.85351 39.4072 3.86204 39.4718 3.88317 39.5328C3.90429 39.5938 3.93756 39.6499 3.98097 39.6977C4.02545 39.7399 4.07806 39.7725 4.13559 39.7937C4.19312 39.8148 4.25435 39.824 4.31554 39.8207C4.38831 39.8241 4.46101 39.8124 4.52912 39.7866C4.59724 39.7608 4.65934 39.7213 4.71156 39.6705C4.81468 39.5385 4.86571 39.3733 4.85496 39.2061V38.2298Z" fill="white"/>
<path d="M7.19658 37.4855H7.5175V40.087H7.19658V39.7729C7.12301 39.8868 7.02186 39.9805 6.9025 40.0449C6.78313 40.1094 6.64943 40.1426 6.51379 40.1416C6.38616 40.1449 6.25928 40.121 6.14157 40.0716C6.02386 40.0221 5.918 39.9483 5.83099 39.8549C5.65319 39.6724 5.55498 39.4268 5.55787 39.1721C5.55491 39.0457 5.57758 38.92 5.62452 38.8027C5.67146 38.6853 5.7417 38.5787 5.83099 38.4893C5.918 38.3958 6.02386 38.3219 6.14157 38.2725C6.25928 38.223 6.38616 38.1992 6.51379 38.2025C6.64967 38.2002 6.78385 38.2329 6.90343 38.2975C7.02301 38.3621 7.12396 38.4563 7.19658 38.5712V37.4855ZM6.51379 39.8275C6.69487 39.8275 6.86855 39.7555 6.9966 39.6275C7.12465 39.4994 7.19658 39.3258 7.19658 39.1447C7.19588 38.9689 7.1274 38.8001 7.0054 38.6736C6.94403 38.6113 6.87059 38.5622 6.78958 38.5294C6.70856 38.4965 6.62168 38.4805 6.53427 38.4824C6.35318 38.4824 6.17951 38.5543 6.05146 38.6824C5.92341 38.8104 5.85147 38.9842 5.85147 39.1652C5.84863 39.2538 5.86414 39.3419 5.89704 39.4242C5.92995 39.5065 5.97953 39.581 6.04265 39.6432C6.17239 39.7577 6.34078 39.8187 6.51379 39.8139V39.8275Z" fill="white"/>
<path d="M8.15214 37.8884C8.09381 37.889 8.03752 37.8669 7.9951 37.8269C7.97548 37.8071 7.95995 37.7837 7.94941 37.758C7.93886 37.7322 7.93351 37.7046 7.93365 37.6767C7.93298 37.6478 7.93806 37.619 7.94861 37.592C7.95916 37.5651 7.97497 37.5405 7.9951 37.5197C8.03794 37.4803 8.09398 37.4585 8.15214 37.4585C8.21031 37.4585 8.26636 37.4803 8.30919 37.5197C8.32933 37.5405 8.34513 37.5651 8.35568 37.592C8.36623 37.619 8.37131 37.6478 8.37064 37.6767C8.37078 37.7046 8.36543 37.7322 8.35489 37.758C8.34434 37.7837 8.32881 37.8071 8.30919 37.8269C8.26677 37.8669 8.21047 37.889 8.15214 37.8884ZM7.98828 40.087V38.2298H8.31602V40.087H7.98828Z" fill="white"/>
<path d="M10.3583 39.8549C10.1691 39.9832 9.94104 40.0415 9.71344 40.0199C9.48584 39.9983 9.27289 39.8979 9.11123 39.7363C8.94957 39.5746 8.84929 39.3617 8.82766 39.1341C8.80602 38.9065 8.86439 38.6785 8.9927 38.4893C9.17757 38.3155 9.42176 38.2187 9.67549 38.2187C9.92923 38.2187 10.1734 38.3155 10.3583 38.4893C10.5336 38.6734 10.6314 38.9178 10.6314 39.1721C10.6314 39.4263 10.5336 39.6708 10.3583 39.8549ZM9.67549 39.8549C9.85658 39.8549 10.0303 39.7829 10.1583 39.6548C10.2864 39.5268 10.3583 39.3532 10.3583 39.1721C10.361 39.0846 10.3454 38.9974 10.3125 38.9163C10.2796 38.8351 10.23 38.7618 10.1671 38.7009C10.1075 38.6381 10.0354 38.5886 9.95537 38.5557C9.87536 38.5228 9.78929 38.5071 9.7028 38.5097C9.61539 38.5078 9.52852 38.5238 9.4475 38.5567C9.36649 38.5896 9.29304 38.6386 9.23167 38.7009C9.11216 38.8285 9.04618 38.9972 9.04732 39.1721C9.04129 39.2633 9.05481 39.3547 9.08699 39.4403C9.11916 39.5259 9.16926 39.6036 9.23391 39.6682C9.29856 39.7329 9.37627 39.783 9.46185 39.8152C9.54743 39.8474 9.63889 39.8609 9.73012 39.8549H9.67549Z" fill="white"/>
</g>
<defs>
<clipPath id="clip0_72_2098">
<rect width="79.6346" height="46" fill="white"/>
</clipPath>
</defs>
</svg>
