<svg width="201" height="318" viewBox="0 0 201 318" fill="none" xmlns="http://www.w3.org/2000/svg">
<g clip-path="url(#clip0_969_1467)">
<path d="M49.5445 122.473L50.455 148.99C74.3173 154.201 82.2714 167.074 82.8899 194.551H89.9679C92.6307 164.502 80.8284 129.638 49.5273 122.473H49.5445Z" fill="#0F4E58"/>
<path d="M182.893 64.9816C179.818 65.0502 176.76 64.416 173.943 63.1475C159.907 57.0968 153.688 49.8118 148.534 36.5275C148.07 35.3105 147.246 34.2649 146.215 33.4764L120.91 14.6213C116.924 19.6608 111.684 23.6032 105.689 25.9515C87.1175 33.2536 46.7113 58.5023 84.6265 133.186C95.2949 154.201 99.0401 178.061 94.917 201.253L83.0975 267.931C78.9401 293.231 91.9793 312.549 108.987 316.492C128.434 320.983 145.287 309.79 146.352 292.614C146.627 288.14 145.785 283.632 143.775 279.604C140.769 273.571 134.584 266.886 123.057 268.205C118.917 268.685 115.103 270.828 112.835 274.325C111.959 275.679 111.426 277.033 111.134 278.37C110.98 279.09 110.945 279.827 110.945 280.547V290.489H117.147V282.724C117.147 279.553 119.484 276.896 122.662 276.759C122.696 276.759 123.761 276.759 123.864 276.759C130.169 277.136 133.588 283.289 133.932 288.5C134.103 291.311 133.382 294.157 131.75 296.454C129.688 299.333 126.785 300.842 123.813 301.579C115.343 303.67 106.702 299.282 102.476 291.654C101.754 290.334 101.136 288.946 100.621 287.506C98.748 282.21 98.6621 276.45 100.002 270.999C100.208 270.177 100.466 269.388 100.758 268.6C104.881 257.458 136.852 170.844 142.556 154.235C156.059 114.811 130.977 92.0301 116.048 81.557C110.447 77.6145 107.114 72.9522 107.836 67.5356C108.317 65.2045 111.083 64.1931 112.973 65.6501C121.494 72.2837 128.4 72.0609 135.856 71.3752C149.118 70.1411 163.274 73.0208 173.908 81.0427L182.859 72.558V64.9473L182.893 64.9816Z" fill="#0F4E58"/>
<path d="M114.878 317.554C132.155 317.554 146.161 303.579 146.161 286.34C146.161 269.102 132.155 255.127 114.878 255.127C97.6 255.127 83.5938 269.102 83.5938 286.34C83.5938 303.579 97.6 317.554 114.878 317.554Z" stroke="white" stroke-width="0.5" stroke-miterlimit="10" stroke-linecap="round"/>
<path d="M45.3884 252.041C70.2184 252.041 90.3471 223.033 90.3471 187.248C90.3471 151.464 70.2184 122.455 45.3884 122.455C20.5584 122.455 0.429688 151.464 0.429688 187.248C0.429688 223.033 20.5584 252.041 45.3884 252.041Z" stroke="white" stroke-width="0.5" stroke-miterlimit="10" stroke-linecap="round"/>
<path d="M91.1892 187.248C121.551 187.248 146.164 162.691 146.164 132.397C146.164 102.104 121.551 77.5459 91.1892 77.5459C60.8277 77.5459 36.2148 102.104 36.2148 132.397C36.2148 162.691 60.8277 187.248 91.1892 187.248Z" stroke="white" stroke-width="0.5" stroke-miterlimit="10" stroke-linecap="round"/>
<path d="M101.582 0.205811L200.794 74.1521" stroke="white" stroke-width="0.25" stroke-miterlimit="10" stroke-linecap="round"/>
<path d="M182.895 94.447V34.0935" stroke="white" stroke-width="0.25" stroke-miterlimit="10" stroke-linecap="round"/>
<path d="M159.719 94.5498L197.101 59.1194" stroke="white" stroke-width="0.25" stroke-miterlimit="10" stroke-linecap="round"/>
<path d="M123.675 132.02C153.904 132.02 178.409 107.57 178.409 77.4089C178.409 47.2479 153.904 22.7976 123.675 22.7976C93.4466 22.7976 68.9414 47.2479 68.9414 77.4089C68.9414 107.57 93.4466 132.02 123.675 132.02Z" stroke="white" stroke-width="0.5" stroke-miterlimit="10" stroke-linecap="round"/>
</g>
<defs>
<clipPath id="clip0_969_1467">
<rect width="201" height="318" fill="white"/>
</clipPath>
</defs>
</svg>
