<svg width="378" height="141" viewBox="0 0 378 141" fill="none" xmlns="http://www.w3.org/2000/svg">
<g clip-path="url(#clip0_969_1446)">
<path d="M236.059 97.5002H221.957V135.548H236.059C246.544 135.548 256.914 129.018 256.914 116.515C256.914 104.012 246.563 97.481 236.059 97.481V97.5002ZM235.982 133.795H227.363V99.2533H235.982C245.12 99.2533 251.431 107.364 251.431 116.534C251.431 125.704 245.12 133.815 235.982 133.815V133.795Z" fill="#E0DAD4"/>
<path d="M357.145 97.5002H343.043V135.548H357.145C367.63 135.548 378 129.018 378 116.515C378 104.012 367.649 97.481 357.145 97.481V97.5002ZM357.068 133.795H348.449V99.2533H357.068C366.206 99.2533 372.517 107.364 372.517 116.534C372.517 125.704 366.206 133.815 357.068 133.815V133.795Z" fill="#E0DAD4"/>
<path d="M322.823 121.793C329.153 121.389 335.117 117.228 335.117 109.656C335.117 101.661 328.479 97.481 321.784 97.481H311.222H305.816V135.529H311.222V121.813H314.974C318.552 121.813 321.919 123.431 324.17 126.224L333.558 137.899H335.809L322.843 121.774L322.823 121.793ZM311.203 120.079V99.2341H319.187C324.94 99.2341 329.691 103.858 329.691 109.618C329.691 115.494 325.671 120.059 319.803 120.059H311.184L311.203 120.079Z" fill="#E0DAD4"/>
<path d="M135.71 97.6155H88.2867C83.0346 97.6155 77.8594 100.891 77.8594 107.132C77.8594 113.374 82.8037 116.495 87.9212 116.649H94.1545C99.0988 116.688 102.504 120.31 102.504 125.28C102.504 130.25 99.0603 133.911 94.0583 133.911H80.1872V135.664H96.5208C102.254 135.664 107.91 132.1 107.91 125.28C107.91 118.46 102.254 114.896 96.5208 114.896H90.9993C86.4205 114.896 83.2654 111.717 83.2654 107.132C83.2654 102.547 86.4205 99.3686 90.9993 99.3686H118.491V135.664H123.897V99.3686H135.71V97.6155Z" fill="#E0DAD4"/>
<path d="M210.473 97.5004V127.9L179.172 96.5564V135.799H180.923V105.977L212.205 137.321V97.5004H210.473Z" fill="#E0DAD4"/>
<path d="M154.238 96.5564C144.58 96.5564 139.059 101.7 139.059 110.1V135.664H144.465V122.834H164.011V135.664H169.417V110.1C169.417 101.7 163.876 96.5564 154.238 96.5564ZM144.465 121.081V109.059C144.465 103.646 147.581 98.3288 154.238 98.3288C160.894 98.3288 164.011 103.665 164.011 109.059V121.081H144.465Z" fill="#E0DAD4"/>
<path d="M280.867 96.5564C271.209 96.5564 265.688 101.7 265.688 110.1V135.664H271.094V122.834H290.64V135.664H296.046V110.1C296.046 101.7 290.505 96.5564 280.867 96.5564ZM271.094 121.081V109.059C271.094 103.646 274.21 98.3288 280.867 98.3288C287.523 98.3288 290.64 103.665 290.64 109.059V121.081H271.094Z" fill="#E0DAD4"/>
<path d="M94.8841 51.1872H79.8203V89.2355H85.2264V75.5188H94.8841C101.598 75.5188 108.216 71.3384 108.216 63.3434C108.216 55.3485 101.579 51.168 94.8841 51.168V51.1872ZM92.9218 73.785H85.2264V52.9403H92.9218C98.7703 52.9403 102.81 57.5061 102.81 63.3627C102.81 69.2192 98.7703 73.785 92.9218 73.785Z" fill="#E0DAD4"/>
<path d="M204.49 68.4486H198.968C194.39 68.4486 191.234 65.2699 191.234 60.6848C191.234 56.0998 194.39 52.9211 198.968 52.9211H210.685V51.168H196.275C191.023 51.168 185.848 54.443 185.848 60.6848C185.848 66.9267 190.792 70.0476 195.909 70.2017H196.179C196.217 70.2017 196.256 70.2017 196.294 70.2017H202.162C207.106 70.2402 210.512 73.862 210.512 78.8324C210.512 83.8027 207.068 87.4631 202.066 87.4631H187.733V89.2162H204.528C210.261 89.2162 215.918 85.6522 215.918 78.8324C215.918 72.0126 210.261 68.4486 204.528 68.4486H204.49Z" fill="#E0DAD4"/>
<path d="M231.019 51.1868H225.613V89.235H231.019V51.1868Z" fill="#E0DAD4"/>
<path d="M121.549 51.1868H116.316V89.235H121.549H121.722H141.25V87.4819H121.722V71.0874H137.21V69.3343H121.722V52.9399H141.25V51.1868H121.722H121.549Z" fill="#E0DAD4"/>
<path d="M178.418 63.3622C178.418 55.3673 171.78 51.1868 165.085 51.1868H154.523H149.117V89.235H154.523V75.5184H158.275C160.949 75.5184 163.527 76.4238 165.585 78.0613C165.72 78.254 165.836 78.3888 165.932 78.4852C165.816 78.3503 165.701 78.1962 165.585 78.0613C166.259 78.6008 166.894 79.2172 167.452 79.9108L176.84 91.5853H179.091L166.124 75.4606C172.454 75.056 178.418 70.8948 178.418 63.3237V63.3622ZM154.504 73.7845V52.9399H162.488C168.24 52.9399 172.992 57.5635 172.992 63.3237C172.992 69.1995 168.971 73.7653 163.104 73.7653H154.485L154.504 73.7845Z" fill="#E0DAD4"/>
<path d="M312.184 51.1873V81.4717L280.883 50.1277V89.3703H282.634V59.5482L313.935 90.873V51.1873H312.184Z" fill="#E0DAD4"/>
<path d="M255.968 50.1277C246.311 50.1277 240.789 55.2714 240.789 63.6709V89.2355H246.195V76.405H265.742V89.2355H271.148V63.6709C271.148 55.2714 265.607 50.1277 255.968 50.1277ZM265.742 74.6519H246.195V62.6306C246.195 57.2172 249.312 51.9001 255.968 51.9001C262.625 51.9001 265.742 57.2364 265.742 62.6306V74.6519Z" fill="#E0DAD4"/>
<path d="M18.7576 83.7641C19.9889 69.7778 14.5251 53.5374 0 50.2046L0.423249 62.5534C11.4854 64.9808 15.1793 70.9722 15.4678 83.7641H18.7576Z" fill="url(#paint0_linear_969_1446)"/>
<path d="M57.6972 22.5978C51.1945 19.7851 48.3087 16.3945 45.9039 10.2104C45.6923 9.65173 45.3075 9.15084 44.8266 8.78481L33.1102 0C31.2633 2.35032 28.8393 4.18049 26.0497 5.27859C17.4308 8.66922 -1.30761 20.4401 16.2765 55.194C21.2208 64.9806 22.9523 76.0772 21.0476 86.8848L15.5646 117.94C13.6408 129.711 19.6817 138.707 27.5695 140.557C36.5924 142.657 44.4033 137.436 44.9035 129.441C45.0382 127.36 44.6342 125.261 43.7107 123.392C42.3063 120.579 39.4397 117.478 34.1107 118.094C32.1868 118.306 30.4168 119.308 29.378 120.945C28.9739 121.581 28.7238 122.197 28.5892 122.833C28.5122 123.161 28.493 123.507 28.493 123.854V128.478H31.3788V124.856C31.3788 123.373 32.4561 122.14 33.9375 122.082C33.9375 122.082 34.4569 122.082 34.4954 122.082C37.4197 122.255 39.0165 125.126 39.1704 127.553C39.2474 128.863 38.9203 130.192 38.1508 131.252C37.1888 132.6 35.8421 133.294 34.4762 133.641C30.5515 134.623 26.5306 132.581 24.5875 129.017C24.2413 128.401 23.9719 127.765 23.7218 127.091C22.8561 124.625 22.8176 121.947 23.4332 119.404C23.5294 119.019 23.6449 118.653 23.7795 118.287C25.6841 113.104 40.5171 72.7829 43.172 65.0384C49.4438 46.6789 37.8045 36.0832 30.8786 31.2092C28.2814 29.379 26.7423 27.2021 27.0693 24.6784C27.3002 23.5995 28.5699 23.1179 29.4549 23.8115C33.3988 26.8938 36.6117 26.7975 40.0746 26.47C46.231 25.8921 52.7913 27.2406 57.7164 30.978L61.872 27.0287V23.4839C60.4483 23.5225 59.0246 23.2335 57.7164 22.6363L57.6972 22.5978Z" fill="url(#paint1_linear_969_1446)"/>
<path d="M10.7555 5.35614C12.1022 5.35614 13.2181 4.25804 13.2181 2.89023C13.2181 1.52242 12.1215 0.424316 10.7555 0.424316C9.38957 0.424316 8.29297 1.52242 8.29297 2.89023C8.29297 4.25804 9.38957 5.35614 10.7555 5.35614ZM10.7555 0.771085C11.9291 0.771085 12.8718 1.71507 12.8718 2.89023C12.8718 4.06539 11.9291 5.00937 10.7555 5.00937C9.58196 5.00937 8.63926 4.06539 8.63926 2.89023C8.63926 1.71507 9.58196 0.771085 10.7555 0.771085Z" fill="url(#paint2_linear_969_1446)"/>
<path d="M10.3502 3.14003H10.8119L11.2159 4.00695H11.6392L11.1967 3.08223C11.3698 3.02444 11.6007 2.83179 11.6007 2.46575C11.6007 2.09972 11.3698 1.77222 10.8504 1.77222H10.0039V4.00695H10.3694V3.14003H10.3502ZM10.3502 2.08046H10.7927C11.0428 2.08046 11.2159 2.21531 11.2159 2.48502C11.2159 2.73546 11.062 2.87032 10.7927 2.87032H10.3694V2.09972L10.3502 2.08046Z" fill="url(#paint3_linear_969_1446)"/>
</g>
<defs>
<linearGradient id="paint0_linear_969_1446" x1="-44.672" y1="17.8973" x2="100.256" y2="148.259" gradientUnits="userSpaceOnUse">
<stop stop-color="#E2AE6B"/>
<stop offset="1" stop-color="#A26D30"/>
</linearGradient>
<linearGradient id="paint1_linear_969_1446" x1="-37.0337" y1="9.42055" x2="107.876" y2="139.782" gradientUnits="userSpaceOnUse">
<stop stop-color="#E2AE6B"/>
<stop offset="1" stop-color="#A26D30"/>
</linearGradient>
<linearGradient id="paint2_linear_969_1446" x1="-12.3885" y1="-17.993" x2="132.54" y2="112.368" gradientUnits="userSpaceOnUse">
<stop stop-color="#E2AE6B"/>
<stop offset="1" stop-color="#A26D30"/>
</linearGradient>
<linearGradient id="paint3_linear_969_1446" x1="-12.4668" y1="-17.9165" x2="132.462" y2="112.445" gradientUnits="userSpaceOnUse">
<stop stop-color="#E2AE6B"/>
<stop offset="1" stop-color="#A26D30"/>
</linearGradient>
<clipPath id="clip0_969_1446">
<rect width="378" height="141" fill="white"/>
</clipPath>
</defs>
</svg>
