<svg width="893" height="207" viewBox="0 0 893 207" fill="none" xmlns="http://www.w3.org/2000/svg">
<g clip-path="url(#clip0_969_1635)">
<path d="M789.385 207C732.168 207 685.77 160.67 685.77 103.489C685.77 46.3071 732.168 0 789.385 0C846.602 0 893 46.3295 893 103.511C893 160.693 846.624 207.022 789.385 207.022" fill="url(#paint0_linear_969_1635)"/>
<path d="M184.56 43.3859V172.601C184.56 180.218 181.479 187.115 176.463 192.103C171.47 197.091 164.588 200.192 156.964 200.192H27.5963C19.9719 200.192 13.0897 197.091 8.09671 192.103C3.08125 187.115 0 180.218 0 172.601V43.3859C0 35.7692 3.08125 28.8939 8.09671 23.8835C13.0897 18.8955 19.9719 15.8174 27.5963 15.8174H156.964C164.588 15.8174 171.47 18.8955 176.463 23.8835C181.479 28.8939 184.56 35.7692 184.56 43.3859Z" fill="#EDECEC"/>
<path d="M79.4374 121.958C80.7419 107.241 74.9618 90.1652 59.668 86.6602L60.1178 99.6468C71.7905 102.186 75.6815 108.499 75.9738 121.958H79.4374Z" fill="url(#paint1_linear_969_1635)"/>
<path d="M120.507 57.6083C113.647 54.6425 110.611 51.0701 108.092 44.5767C107.867 43.9926 107.462 43.4758 106.945 43.0938L94.5745 33.8594C92.6178 36.3309 90.0764 38.2632 87.1301 39.409C78.0438 42.9815 58.2968 55.339 76.8292 91.9173C82.0471 102.208 83.8689 113.891 81.8672 125.238L76.0871 157.884C74.0629 170.264 80.4278 179.723 88.7494 181.656C98.263 183.857 106.495 178.375 107.034 169.972C107.169 167.77 106.765 165.568 105.775 163.614C104.313 160.67 101.277 157.39 95.6541 158.041C93.6299 158.266 91.7632 159.322 90.6611 161.03C90.2338 161.681 89.9639 162.355 89.829 163.007C89.7615 163.366 89.739 163.726 89.739 164.085V168.961H92.7753V165.164C92.7753 163.614 93.9223 162.31 95.4742 162.243C95.4742 162.243 96.014 162.243 96.0589 162.243C99.1402 162.423 100.827 165.433 100.984 167.995C101.074 169.365 100.715 170.758 99.9274 171.882C98.9153 173.297 97.4984 174.039 96.0365 174.398C91.8981 175.432 87.6699 173.275 85.6007 169.545C85.2408 168.894 84.9485 168.22 84.7011 167.523C83.7789 164.939 83.7339 162.108 84.4087 159.434C84.4986 159.03 84.6336 158.648 84.791 158.266C86.8152 152.806 102.446 110.409 105.235 102.275C111.848 82.975 99.5675 71.8083 92.2805 66.6855C89.5366 64.7532 87.9173 62.4615 88.2546 59.8102C88.502 58.6643 89.8515 58.17 90.7736 58.889C94.9344 62.1469 98.308 62.0346 101.952 61.6975C108.429 61.0909 115.356 62.5064 120.551 66.4383L124.937 62.2817V58.552C123.43 58.5969 121.946 58.2824 120.551 57.6533L120.507 57.6083Z" fill="url(#paint2_linear_969_1635)"/>
<path d="M71.0239 39.4763C72.4409 39.4763 73.6104 38.3079 73.6104 36.8924C73.6104 35.4769 72.4409 34.3086 71.0239 34.3086C69.607 34.3086 68.4375 35.4769 68.4375 36.8924C68.4375 38.3079 69.607 39.4763 71.0239 39.4763ZM71.0239 34.6681C72.2609 34.6681 73.2505 35.6567 73.2505 36.8924C73.2505 38.1282 72.2385 39.1168 71.0239 39.1168C69.8094 39.1168 68.7974 38.1282 68.7974 36.8924C68.7974 35.6567 69.787 34.6681 71.0239 34.6681Z" fill="url(#paint3_linear_969_1635)"/>
<path d="M70.5777 37.1626H71.0725L71.4998 38.0613H71.9271L71.4548 37.0952C71.6347 37.0278 71.8821 36.8256 71.8821 36.4436C71.8821 36.0616 71.6347 35.7246 71.095 35.7246H70.1953V38.0613H70.5777V37.1626ZM70.5777 36.0392H71.0275C71.2974 36.0392 71.4773 36.174 71.4773 36.4661C71.4773 36.7132 71.3199 36.8705 71.0275 36.8705H70.5777V36.0616V36.0392Z" fill="url(#paint4_linear_969_1635)"/>
<path d="M777.465 119.712C778.769 104.995 772.989 87.9191 757.695 84.4141L758.145 97.4007C769.818 99.9396 773.709 106.253 774.001 119.712H777.465Z" fill="white"/>
<path d="M818.534 55.3622C811.674 52.3964 808.638 48.824 806.119 42.3306C805.894 41.7465 805.489 41.2297 804.972 40.8477L792.602 31.6133C790.645 34.0848 788.104 36.0171 785.157 37.1629C776.071 40.7354 756.324 53.0929 774.857 89.6712C780.074 99.9617 781.896 111.645 779.895 122.992L774.114 155.638C772.09 168.018 778.455 177.477 786.777 179.409C796.29 181.611 804.522 176.129 805.062 167.726C805.197 165.524 804.792 163.322 803.802 161.367C802.34 158.424 799.304 155.144 793.682 155.795C791.657 156.02 789.791 157.076 788.689 158.784C788.261 159.435 787.991 160.109 787.856 160.761C787.789 161.12 787.766 161.48 787.766 161.839V166.715H790.803V162.918C790.803 161.367 791.95 160.064 793.502 159.997C793.502 159.997 794.041 159.997 794.086 159.997C797.168 160.177 798.854 163.187 799.012 165.749C799.102 167.119 798.742 168.512 797.955 169.636C796.943 171.051 795.526 171.793 794.064 172.152C789.925 173.186 785.697 171.029 783.628 167.299C783.268 166.647 782.976 165.973 782.728 165.277C781.806 162.693 781.761 159.862 782.436 157.188C782.526 156.784 782.661 156.402 782.818 156.02C784.843 150.56 800.474 108.163 803.263 100.029C809.875 80.7289 797.595 69.5622 790.308 64.4394C787.564 62.5071 785.945 60.2154 786.282 57.5641C786.529 56.4182 787.879 55.9239 788.801 56.6429C792.962 59.9008 796.335 59.7885 799.979 59.4514C806.456 58.8448 813.383 60.2603 818.579 64.1922L822.965 60.0356V56.3059C821.458 56.3508 819.973 56.0363 818.579 55.4072L818.534 55.3622Z" fill="white"/>
<path d="M769.051 37.2302C770.468 37.2302 771.638 36.0618 771.638 34.6463C771.638 33.2308 770.468 32.0625 769.051 32.0625C767.634 32.0625 766.465 33.2308 766.465 34.6463C766.465 36.0618 767.634 37.2302 769.051 37.2302ZM769.051 32.422C770.288 32.422 771.278 33.4106 771.278 34.6463C771.278 35.8821 770.266 36.8707 769.051 36.8707C767.837 36.8707 766.825 35.8821 766.825 34.6463C766.825 33.4106 767.814 32.422 769.051 32.422Z" fill="white"/>
<path d="M768.605 34.9165H769.1L769.527 35.8152H769.954L769.482 34.8491C769.662 34.7817 769.909 34.5795 769.909 34.1975C769.909 33.8155 769.662 33.4785 769.122 33.4785H768.223V35.8152H768.605V34.9165ZM768.605 33.7931H769.055C769.325 33.7931 769.505 33.9279 769.505 34.22C769.505 34.4671 769.347 34.6244 769.055 34.6244H768.605V33.8155V33.7931Z" fill="white"/>
</g>
<defs>
<linearGradient id="paint0_linear_969_1635" x1="685.77" y1="103.511" x2="893" y2="103.511" gradientUnits="userSpaceOnUse">
<stop stop-color="#E2AE6B"/>
<stop offset="1" stop-color="#A26D30"/>
</linearGradient>
<linearGradient id="paint1_linear_969_1635" x1="12.5946" y1="52.6882" x2="165.035" y2="190.144" gradientUnits="userSpaceOnUse">
<stop stop-color="#E2AE6B"/>
<stop offset="1" stop-color="#A26D30"/>
</linearGradient>
<linearGradient id="paint2_linear_969_1635" x1="20.6246" y1="43.7679" x2="173.065" y2="181.224" gradientUnits="userSpaceOnUse">
<stop stop-color="#E2AE6B"/>
<stop offset="1" stop-color="#A26D30"/>
</linearGradient>
<linearGradient id="paint3_linear_969_1635" x1="46.6214" y1="14.941" x2="199.062" y2="152.397" gradientUnits="userSpaceOnUse">
<stop stop-color="#E2AE6B"/>
<stop offset="1" stop-color="#A26D30"/>
</linearGradient>
<linearGradient id="paint4_linear_969_1635" x1="46.5349" y1="15.0313" x2="198.998" y2="152.487" gradientUnits="userSpaceOnUse">
<stop stop-color="#E2AE6B"/>
<stop offset="1" stop-color="#A26D30"/>
</linearGradient>
<clipPath id="clip0_969_1635">
<rect width="893" height="207" fill="white"/>
</clipPath>
</defs>
</svg>
