<svg width="400" height="400" viewBox="0 0 400 400" fill="none" xmlns="http://www.w3.org/2000/svg">
<g clip-path="url(#clip0_910_1647)">
<path d="M105.745 399.985C105.722 399.985 105.698 399.98 105.677 399.971C105.655 399.962 105.635 399.949 105.619 399.932C105.602 399.915 105.589 399.895 105.58 399.872C105.571 399.85 105.566 399.827 105.566 399.803V0.182337C105.566 0.134021 105.585 0.0876813 105.619 0.0535165C105.652 0.0193517 105.698 0.000144306 105.745 0.000144306C105.77 -0.00196058 105.795 0.00120231 105.818 0.00941031C105.842 0.0176183 105.863 0.0306867 105.881 0.0478179C105.9 0.0649491 105.914 0.0857732 105.924 0.108927C105.934 0.132081 105.939 0.15708 105.939 0.182337V399.803C105.939 399.828 105.934 399.853 105.924 399.876C105.914 399.899 105.9 399.92 105.881 399.937C105.863 399.954 105.842 399.967 105.818 399.976C105.795 399.984 105.77 399.987 105.745 399.985Z" fill="black"/>
<path d="M138.179 399.985C138.155 399.985 138.132 399.98 138.11 399.971C138.089 399.962 138.069 399.949 138.052 399.932C138.036 399.915 138.023 399.895 138.014 399.872C138.005 399.85 138 399.827 138 399.803V0.182337C138 0.134021 138.019 0.0876813 138.052 0.0535165C138.086 0.0193517 138.131 0.000144306 138.179 0.000144306C138.203 -0.00196058 138.228 0.00120231 138.252 0.00941031C138.275 0.0176183 138.297 0.0306867 138.315 0.0478179C138.333 0.0649491 138.348 0.0857732 138.358 0.108927C138.367 0.132081 138.373 0.15708 138.372 0.182337V399.803C138.373 399.828 138.367 399.853 138.358 399.876C138.348 399.899 138.333 399.92 138.315 399.937C138.297 399.954 138.275 399.967 138.252 399.976C138.228 399.984 138.203 399.987 138.179 399.985Z" fill="black"/>
<path d="M284.179 399.985C284.155 399.985 284.132 399.98 284.11 399.971C284.089 399.962 284.069 399.949 284.052 399.932C284.036 399.915 284.023 399.895 284.014 399.872C284.005 399.85 284 399.827 284 399.803V0.182337C284 0.134021 284.019 0.0876813 284.052 0.0535165C284.086 0.0193517 284.131 0.000144306 284.179 0.000144306C284.203 -0.00196058 284.228 0.00120231 284.252 0.00941031C284.275 0.0176183 284.297 0.0306867 284.315 0.0478179C284.333 0.0649491 284.348 0.0857732 284.358 0.108927C284.367 0.132081 284.373 0.15708 284.372 0.182337V399.803C284.373 399.828 284.367 399.853 284.358 399.876C284.348 399.899 284.333 399.92 284.315 399.937C284.297 399.954 284.275 399.967 284.252 399.976C284.228 399.984 284.203 399.987 284.179 399.985Z" fill="black"/>
<path d="M316.69 399.985C316.665 399.987 316.64 399.984 316.617 399.976C316.593 399.967 316.572 399.954 316.554 399.937C316.535 399.92 316.521 399.899 316.511 399.876C316.501 399.853 316.496 399.828 316.496 399.803V0.182337C316.496 0.15708 316.501 0.132081 316.511 0.108927C316.521 0.0857732 316.535 0.0649491 316.554 0.0478179C316.572 0.0306867 316.593 0.0176183 316.617 0.00941031C316.64 0.00120231 316.665 -0.00196058 316.69 0.000144306C316.737 0.000144306 316.783 0.0193517 316.816 0.0535165C316.85 0.0876813 316.869 0.134021 316.869 0.182337V399.803C316.869 399.827 316.864 399.85 316.855 399.872C316.846 399.895 316.833 399.915 316.816 399.932C316.8 399.949 316.78 399.962 316.758 399.971C316.736 399.98 316.713 399.985 316.69 399.985Z" fill="black"/>
<path d="M399.822 112.039H7.65844C7.63374 112.041 7.60895 112.038 7.58551 112.03C7.56207 112.021 7.54053 112.008 7.52231 111.991C7.5041 111.974 7.48957 111.953 7.47967 111.93C7.46977 111.907 7.46476 111.882 7.46484 111.857C7.46484 111.804 7.48517 111.754 7.52149 111.717C7.55782 111.68 7.60707 111.659 7.65844 111.659H399.822C399.871 111.663 399.916 111.686 399.95 111.722C399.983 111.759 400.001 111.807 400.001 111.857C400.001 111.905 399.982 111.951 399.948 111.986C399.915 112.02 399.87 112.039 399.822 112.039Z" fill="black"/>
<path d="M399.822 171.156H7.65844C7.60707 171.156 7.55782 171.135 7.52149 171.098C7.48517 171.061 7.46484 171.011 7.46484 170.959C7.46476 170.933 7.46977 170.908 7.47967 170.885C7.48957 170.862 7.5041 170.841 7.52231 170.824C7.54053 170.807 7.56207 170.794 7.58551 170.786C7.60895 170.778 7.63374 170.774 7.65844 170.777H399.822C399.87 170.777 399.915 170.796 399.948 170.83C399.982 170.864 400.001 170.91 400.001 170.959C400.001 171.008 399.983 171.057 399.95 171.093C399.916 171.13 399.871 171.152 399.822 171.156Z" fill="black"/>
<path d="M392.342 183.12H0.193684C0.168985 183.122 0.144107 183.119 0.120667 183.11C0.0972263 183.102 0.075682 183.089 0.0574695 183.072C0.039257 183.055 0.0247242 183.034 0.0148228 183.011C0.00492153 182.988 -8.51285e-05 182.963 1.09496e-06 182.937C1.09496e-06 182.885 0.0204208 182.835 0.056742 182.798C0.0930633 182.761 0.142318 182.74 0.193684 182.74H392.342C392.394 182.74 392.443 182.761 392.479 182.798C392.516 182.835 392.536 182.885 392.536 182.937C392.536 182.963 392.531 182.988 392.521 183.011C392.511 183.034 392.497 183.055 392.479 183.072C392.46 183.089 392.439 183.102 392.415 183.11C392.392 183.119 392.367 183.122 392.342 183.12Z" fill="black"/>
<path d="M392.342 219.827H0.193684C0.142318 219.827 0.0930633 219.806 0.056742 219.769C0.0204208 219.732 1.09496e-06 219.682 1.09496e-06 219.63C-8.51285e-05 219.604 0.00492153 219.579 0.0148228 219.556C0.0247242 219.533 0.039257 219.512 0.0574695 219.495C0.075682 219.478 0.0972263 219.465 0.120667 219.457C0.144107 219.448 0.168985 219.445 0.193684 219.447H392.342C392.367 219.445 392.392 219.448 392.415 219.457C392.439 219.465 392.46 219.478 392.479 219.495C392.497 219.512 392.511 219.533 392.521 219.556C392.531 219.579 392.536 219.604 392.536 219.63C392.536 219.682 392.516 219.732 392.479 219.769C392.443 219.806 392.394 219.827 392.342 219.827Z" fill="black"/>
<path d="M392.341 288.325H0.192259C0.165657 288.33 0.138455 288.328 0.112422 288.321C0.0863894 288.314 0.0620712 288.302 0.0410412 288.285C0.0200113 288.267 0.00274754 288.246 -0.00969828 288.222C-0.0221441 288.197 -0.0295067 288.171 -0.0312489 288.143C-0.0313351 288.118 -0.0262376 288.093 -0.0163362 288.07C-0.00643492 288.047 0.00809789 288.026 0.0263104 288.009C0.0445229 287.992 0.0659763 287.979 0.0894165 287.97C0.112857 287.962 0.137735 287.959 0.162434 287.961H392.311C392.336 287.959 392.361 287.962 392.384 287.97C392.408 287.979 392.429 287.992 392.447 288.009C392.466 288.026 392.48 288.047 392.49 288.07C392.5 288.093 392.505 288.118 392.505 288.143C392.502 288.188 392.484 288.231 392.454 288.264C392.425 288.297 392.384 288.319 392.341 288.325Z" fill="black"/>
<path d="M209.421 308C209.35 307.997 209.279 307.98 209.214 307.949C209.15 307.919 209.091 307.875 209.043 307.821C208.994 307.767 208.957 307.704 208.932 307.636C208.907 307.567 208.896 307.494 208.899 307.421C208.91 307.271 208.978 307.132 209.087 307.032C209.197 306.932 209.34 306.88 209.486 306.886C209.557 306.889 209.626 306.906 209.69 306.937C209.754 306.968 209.811 307.012 209.857 307.066C209.904 307.12 209.94 307.184 209.962 307.252C209.984 307.321 209.993 307.393 209.987 307.465C209.987 307.607 209.932 307.743 209.834 307.843C209.736 307.944 209.603 308 209.465 308H209.421ZM217.602 307.332C217.596 307.258 217.604 307.185 217.626 307.115C217.648 307.045 217.683 306.98 217.73 306.924C217.776 306.868 217.833 306.822 217.897 306.789C217.961 306.756 218.031 306.736 218.102 306.73C218.174 306.724 218.246 306.732 218.314 306.755C218.382 306.777 218.446 306.814 218.5 306.861C218.555 306.909 218.6 306.967 218.632 307.032C218.665 307.098 218.684 307.169 218.69 307.243C218.696 307.316 218.688 307.389 218.666 307.459C218.644 307.529 218.608 307.594 218.562 307.65C218.515 307.706 218.458 307.752 218.395 307.785C218.331 307.818 218.261 307.838 218.189 307.844C218.118 307.85 218.046 307.842 217.978 307.819C217.909 307.797 217.846 307.761 217.792 307.713C217.737 307.665 217.692 307.607 217.66 307.542C217.627 307.476 217.607 307.405 217.602 307.332ZM200.718 306.931C200.647 306.92 200.578 306.895 200.517 306.856C200.456 306.817 200.403 306.766 200.363 306.705C200.322 306.644 200.294 306.576 200.28 306.503C200.266 306.431 200.267 306.356 200.283 306.285C200.309 306.14 200.39 306.012 200.509 305.929C200.627 305.845 200.772 305.813 200.914 305.839C201.055 305.866 201.18 305.949 201.261 306.07C201.343 306.191 201.374 306.34 201.349 306.485C201.329 306.613 201.266 306.73 201.17 306.815C201.075 306.901 200.953 306.949 200.827 306.953H200.718V306.931ZM226.196 306.039C226.18 305.968 226.178 305.894 226.19 305.821C226.202 305.749 226.228 305.679 226.267 305.617C226.305 305.555 226.355 305.501 226.414 305.459C226.473 305.417 226.539 305.387 226.61 305.371C226.68 305.355 226.752 305.353 226.823 305.365C226.894 305.377 226.962 305.404 227.022 305.443C227.083 305.483 227.135 305.534 227.177 305.594C227.218 305.655 227.247 305.723 227.262 305.794C227.278 305.866 227.28 305.94 227.268 306.013C227.256 306.085 227.23 306.155 227.192 306.217C227.153 306.279 227.103 306.333 227.044 306.375C226.986 306.417 226.919 306.447 226.849 306.463C226.779 306.479 226.706 306.481 226.636 306.469C226.565 306.456 226.497 306.43 226.436 306.39C226.376 306.351 226.323 306.3 226.282 306.24C226.241 306.179 226.212 306.111 226.196 306.039ZM192.232 304.658C192.097 304.608 191.986 304.505 191.925 304.371C191.864 304.237 191.857 304.084 191.906 303.945C191.951 303.807 192.047 303.693 192.173 303.627C192.299 303.56 192.445 303.546 192.581 303.589C192.717 303.639 192.829 303.741 192.893 303.874C192.958 304.007 192.971 304.16 192.929 304.302C192.892 304.413 192.822 304.51 192.728 304.578C192.634 304.646 192.522 304.682 192.407 304.68H192.232V304.658ZM234.551 303.544C234.501 303.402 234.508 303.246 234.569 303.109C234.63 302.971 234.74 302.864 234.877 302.809C235.013 302.759 235.163 302.766 235.293 302.828C235.424 302.891 235.525 303.004 235.574 303.143C235.623 303.282 235.616 303.435 235.555 303.569C235.494 303.702 235.383 303.806 235.247 303.856H235.052C234.948 303.856 234.847 303.827 234.759 303.772C234.671 303.717 234.599 303.638 234.551 303.544ZM184.16 301.183C184.093 301.152 184.033 301.107 183.984 301.052C183.935 300.996 183.898 300.93 183.876 300.859C183.853 300.787 183.845 300.712 183.853 300.637C183.861 300.562 183.884 300.49 183.921 300.425C183.986 300.297 184.098 300.199 184.232 300.154C184.366 300.108 184.512 300.117 184.639 300.18C184.766 300.251 184.861 300.369 184.906 300.51C184.951 300.651 184.941 300.804 184.878 300.938C184.831 301.025 184.762 301.099 184.678 301.15C184.594 301.201 184.498 301.227 184.4 301.227C184.317 301.236 184.234 301.22 184.16 301.183ZM242.471 299.868C242.407 299.737 242.394 299.586 242.434 299.446C242.475 299.305 242.565 299.185 242.689 299.111C242.751 299.075 242.82 299.053 242.892 299.045C242.963 299.037 243.035 299.044 243.104 299.065C243.172 299.085 243.236 299.12 243.292 299.166C243.348 299.212 243.394 299.269 243.428 299.333C243.463 299.398 243.485 299.468 243.492 299.541C243.5 299.614 243.493 299.688 243.473 299.758C243.453 299.829 243.419 299.894 243.374 299.951C243.329 300.008 243.274 300.056 243.211 300.091C243.126 300.117 243.035 300.117 242.95 300.091C242.858 300.094 242.768 300.076 242.685 300.037C242.601 299.999 242.528 299.941 242.471 299.868ZM176.61 296.526C176.552 296.484 176.502 296.43 176.463 296.368C176.425 296.306 176.399 296.237 176.386 296.164C176.374 296.092 176.376 296.017 176.392 295.946C176.408 295.874 176.438 295.806 176.48 295.746C176.521 295.686 176.574 295.635 176.634 295.596C176.695 295.556 176.763 295.53 176.833 295.517C176.904 295.505 176.977 295.507 177.047 295.523C177.117 295.54 177.183 295.57 177.241 295.613C177.3 295.655 177.35 295.709 177.389 295.771C177.427 295.833 177.453 295.902 177.465 295.975C177.478 296.047 177.476 296.122 177.459 296.193C177.443 296.265 177.414 296.333 177.372 296.393C177.32 296.468 177.252 296.529 177.172 296.571C177.093 296.614 177.005 296.637 176.915 296.638C176.806 296.627 176.701 296.589 176.61 296.526ZM249.825 295.033C249.781 294.977 249.749 294.911 249.731 294.84C249.714 294.77 249.711 294.696 249.723 294.625C249.735 294.553 249.763 294.485 249.803 294.425C249.843 294.365 249.895 294.314 249.956 294.276C250.013 294.232 250.078 294.2 250.147 294.182C250.216 294.164 250.288 294.16 250.359 294.17C250.43 294.181 250.498 294.205 250.559 294.242C250.621 294.28 250.674 294.329 250.717 294.387C250.759 294.447 250.789 294.515 250.805 294.587C250.821 294.658 250.823 294.733 250.81 294.805C250.798 294.878 250.772 294.947 250.734 295.009C250.695 295.071 250.645 295.125 250.587 295.167C250.488 295.2 250.381 295.2 250.282 295.167C250.206 295.191 250.125 295.197 250.046 295.186C249.967 295.174 249.892 295.145 249.825 295.1V295.033ZM169.757 290.934C169.705 290.884 169.663 290.824 169.635 290.757C169.607 290.69 169.592 290.617 169.592 290.544C169.592 290.471 169.607 290.399 169.635 290.332C169.663 290.265 169.705 290.204 169.757 290.154C169.806 290.101 169.865 290.059 169.93 290.03C169.996 290 170.066 289.986 170.138 289.986C170.209 289.986 170.28 290 170.345 290.03C170.411 290.059 170.47 290.101 170.518 290.154C170.57 290.204 170.612 290.265 170.64 290.332C170.669 290.399 170.683 290.471 170.683 290.544C170.683 290.617 170.669 290.69 170.64 290.757C170.612 290.824 170.57 290.884 170.518 290.934C170.472 290.994 170.412 291.042 170.344 291.073C170.276 291.104 170.201 291.118 170.127 291.112C169.995 291.119 169.864 291.08 169.757 291.001V290.934ZM256.483 289.308C256.431 289.258 256.389 289.197 256.361 289.13C256.333 289.063 256.318 288.991 256.318 288.918C256.318 288.845 256.333 288.772 256.361 288.705C256.389 288.638 256.431 288.578 256.483 288.528C256.532 288.475 256.591 288.432 256.656 288.403C256.722 288.374 256.792 288.359 256.864 288.359C256.935 288.359 257.006 288.374 257.071 288.403C257.137 288.432 257.196 288.475 257.244 288.528C257.296 288.578 257.338 288.638 257.366 288.705C257.395 288.772 257.409 288.845 257.409 288.918C257.409 288.991 257.395 289.063 257.366 289.13C257.338 289.197 257.296 289.258 257.244 289.308C257.197 289.358 257.139 289.398 257.075 289.425C257.012 289.452 256.943 289.465 256.875 289.464C256.807 289.476 256.737 289.474 256.67 289.459C256.603 289.444 256.539 289.415 256.483 289.375V289.308ZM163.708 284.429C163.609 284.324 163.553 284.184 163.553 284.039C163.553 283.893 163.609 283.753 163.708 283.649C163.757 283.596 163.816 283.553 163.882 283.524C163.947 283.495 164.018 283.48 164.089 283.48C164.16 283.48 164.231 283.495 164.296 283.524C164.362 283.553 164.421 283.596 164.47 283.649C164.569 283.753 164.625 283.893 164.625 284.039C164.625 284.184 164.569 284.324 164.47 284.429C164.371 284.511 164.249 284.557 164.122 284.562C163.98 284.593 163.833 284.569 163.708 284.495V284.429ZM262.292 282.691C262.24 282.641 262.199 282.58 262.17 282.513C262.142 282.446 262.127 282.374 262.127 282.301C262.127 282.228 262.142 282.156 262.17 282.088C262.199 282.021 262.24 281.961 262.292 281.911C262.335 281.852 262.389 281.803 262.45 281.766C262.512 281.729 262.58 281.704 262.65 281.694C262.721 281.683 262.793 281.687 262.862 281.706C262.932 281.724 262.997 281.756 263.054 281.8C263.106 281.85 263.147 281.91 263.176 281.977C263.204 282.044 263.219 282.116 263.219 282.189C263.219 282.263 263.204 282.335 263.176 282.402C263.147 282.469 263.106 282.529 263.054 282.579C263.006 282.651 262.94 282.71 262.864 282.749C262.788 282.788 262.704 282.806 262.619 282.802C262.508 282.816 262.396 282.801 262.292 282.758V282.691ZM158.595 277.121C158.527 276.995 158.507 276.848 158.539 276.708C158.572 276.568 158.653 276.445 158.769 276.363C158.894 276.287 159.043 276.263 159.185 276.296C159.327 276.33 159.45 276.417 159.531 276.542C159.57 276.602 159.597 276.671 159.609 276.743C159.622 276.814 159.62 276.888 159.603 276.959C159.587 277.03 159.557 277.097 159.514 277.155C159.472 277.214 159.418 277.263 159.357 277.299C159.265 277.328 159.166 277.328 159.074 277.299C158.991 277.32 158.905 277.321 158.821 277.302C158.738 277.283 158.661 277.243 158.595 277.188V277.121ZM267.166 275.316C267.042 275.242 266.953 275.121 266.916 274.979C266.879 274.837 266.899 274.686 266.97 274.559C267.043 274.432 267.161 274.34 267.3 274.303C267.438 274.265 267.586 274.285 267.71 274.358C267.833 274.433 267.923 274.554 267.96 274.696C267.996 274.838 267.977 274.989 267.906 275.116C267.86 275.198 267.793 275.266 267.713 275.313C267.632 275.36 267.541 275.384 267.449 275.383C267.356 275.406 267.259 275.406 267.166 275.383V275.316ZM154.526 269.167C154.467 269.034 154.461 268.882 154.51 268.745C154.559 268.607 154.658 268.495 154.787 268.432C154.921 268.378 155.069 268.378 155.202 268.432C155.335 268.486 155.444 268.589 155.506 268.722C155.565 268.855 155.571 269.007 155.522 269.144C155.473 269.282 155.374 269.394 155.244 269.457C155.173 269.476 155.098 269.476 155.027 269.457C154.932 269.471 154.834 269.457 154.746 269.418C154.658 269.378 154.582 269.315 154.526 269.234V269.167ZM270.995 267.34C270.862 267.281 270.756 267.172 270.699 267.035C270.643 266.898 270.64 266.744 270.691 266.605C270.748 266.469 270.855 266.36 270.989 266.302C271.122 266.244 271.273 266.241 271.409 266.293C271.477 266.32 271.538 266.361 271.591 266.413C271.643 266.464 271.684 266.526 271.713 266.595C271.741 266.663 271.756 266.737 271.756 266.812C271.756 266.886 271.742 266.96 271.713 267.028C271.672 267.131 271.603 267.218 271.514 267.282C271.425 267.345 271.321 267.381 271.213 267.385L270.995 267.34ZM151.546 260.657C151.526 260.586 151.519 260.513 151.527 260.44C151.535 260.367 151.557 260.297 151.591 260.233C151.625 260.169 151.672 260.112 151.727 260.066C151.783 260.021 151.847 259.986 151.915 259.966C152.054 259.925 152.203 259.941 152.329 260.012C152.456 260.083 152.55 260.203 152.59 260.345C152.613 260.415 152.622 260.489 152.616 260.563C152.609 260.637 152.588 260.708 152.553 260.773C152.519 260.838 152.471 260.895 152.414 260.94C152.356 260.985 152.29 261.018 152.22 261.035H152.068C151.975 261.059 151.878 261.056 151.786 261.029C151.695 261.002 151.612 260.95 151.546 260.879V260.657ZM273.715 258.807C273.577 258.771 273.459 258.68 273.386 258.555C273.313 258.43 273.29 258.281 273.323 258.139C273.339 258.068 273.368 258 273.409 257.941C273.451 257.882 273.504 257.832 273.565 257.794C273.626 257.756 273.694 257.732 273.765 257.722C273.836 257.713 273.907 257.718 273.976 257.738C274.047 257.75 274.115 257.778 274.175 257.82C274.235 257.862 274.285 257.916 274.322 257.98C274.36 258.043 274.383 258.114 274.391 258.188C274.399 258.262 274.391 258.336 274.368 258.406C274.339 258.526 274.272 258.633 274.177 258.709C274.083 258.786 273.966 258.828 273.846 258.83H273.715V258.807ZM149.696 251.879C149.684 251.805 149.686 251.73 149.702 251.658C149.719 251.585 149.749 251.517 149.792 251.457C149.834 251.397 149.888 251.346 149.95 251.307C150.012 251.269 150.081 251.243 150.153 251.232C150.225 251.223 150.297 251.228 150.367 251.248C150.436 251.268 150.501 251.301 150.558 251.347C150.615 251.393 150.662 251.449 150.697 251.514C150.732 251.578 150.754 251.649 150.762 251.723C150.781 251.867 150.744 252.013 150.658 252.13C150.573 252.247 150.446 252.324 150.305 252.346C150.186 252.357 150.067 252.325 149.968 252.256C149.869 252.187 149.796 252.085 149.761 251.968L149.696 251.879ZM275.195 250.052C275.054 250.035 274.925 249.963 274.836 249.85C274.747 249.738 274.704 249.594 274.716 249.45C274.721 249.377 274.741 249.305 274.773 249.24C274.806 249.175 274.851 249.116 274.905 249.069C274.96 249.021 275.023 248.985 275.092 248.963C275.16 248.94 275.232 248.932 275.303 248.938C275.45 248.955 275.584 249.029 275.677 249.146C275.771 249.262 275.816 249.411 275.804 249.562C275.788 249.697 275.723 249.822 275.623 249.913C275.523 250.003 275.393 250.053 275.26 250.052H275.195ZM149 242.922C149 242.775 149.057 242.633 149.159 242.528C149.261 242.424 149.4 242.365 149.544 242.365C149.688 242.365 149.827 242.424 149.929 242.528C150.031 242.633 150.088 242.775 150.088 242.922C150.088 243.07 150.031 243.212 149.929 243.316C149.827 243.421 149.688 243.479 149.544 243.479C149.447 243.453 149.359 243.399 149.29 243.324C149.221 243.25 149.173 243.157 149.152 243.056L149 242.922ZM274.912 240.694C274.906 240.62 274.915 240.546 274.938 240.476C274.962 240.406 274.999 240.342 275.048 240.287C275.097 240.233 275.157 240.189 275.223 240.16C275.29 240.13 275.361 240.115 275.434 240.115C275.505 240.112 275.577 240.124 275.644 240.149C275.711 240.174 275.772 240.213 275.825 240.262C275.877 240.312 275.92 240.372 275.95 240.438C275.98 240.505 275.997 240.577 276 240.65C276.002 240.723 275.991 240.796 275.967 240.865C275.942 240.933 275.904 240.996 275.856 241.05C275.807 241.104 275.749 241.148 275.684 241.178C275.619 241.209 275.549 241.226 275.477 241.229C275.38 241.206 275.29 241.156 275.218 241.086C275.145 241.015 275.092 240.926 275.064 240.828L274.912 240.694ZM149.653 239.246C149.58 239.244 149.509 239.226 149.443 239.193C149.378 239.161 149.32 239.115 149.273 239.059C149.226 239.002 149.191 238.936 149.17 238.865C149.149 238.793 149.143 238.718 149.152 238.645C149.155 238.572 149.172 238.502 149.202 238.436C149.232 238.371 149.275 238.312 149.328 238.265C149.381 238.217 149.443 238.18 149.51 238.157C149.577 238.135 149.648 238.126 149.718 238.132C149.79 238.138 149.859 238.158 149.923 238.191C149.987 238.225 150.044 238.27 150.09 238.326C150.137 238.382 150.172 238.447 150.194 238.517C150.216 238.587 150.224 238.661 150.218 238.734C150.216 238.804 150.199 238.873 150.17 238.937C150.142 239.001 150.101 239.058 150.05 239.105C150 239.153 149.941 239.19 149.876 239.214C149.812 239.238 149.743 239.249 149.674 239.246H149.653ZM274.172 231.916C274.146 231.772 274.178 231.622 274.259 231.501C274.341 231.38 274.466 231.297 274.607 231.27C274.677 231.254 274.75 231.253 274.821 231.267C274.891 231.281 274.958 231.31 275.018 231.352C275.077 231.394 275.127 231.448 275.165 231.51C275.203 231.573 275.228 231.643 275.238 231.716C275.254 231.788 275.255 231.862 275.241 231.935C275.227 232.007 275.199 232.076 275.158 232.136C275.117 232.197 275.065 232.248 275.004 232.287C274.943 232.326 274.874 232.351 274.803 232.362C274.662 232.388 274.516 232.356 274.398 232.272C274.28 232.189 274.198 232.061 274.172 231.916ZM150.893 230.424C150.75 230.391 150.625 230.304 150.544 230.179C150.463 230.055 150.432 229.903 150.458 229.755C150.494 229.613 150.581 229.49 150.703 229.412C150.824 229.333 150.969 229.305 151.11 229.332C151.252 229.359 151.377 229.442 151.458 229.563C151.54 229.684 151.571 229.833 151.546 229.978C151.516 230.104 151.447 230.216 151.349 230.297C151.25 230.377 151.128 230.422 151.002 230.424H150.893ZM272.192 223.406C272.151 223.267 272.164 223.117 272.229 222.988C272.294 222.859 272.406 222.761 272.54 222.715C272.679 222.672 272.828 222.685 272.958 222.751C273.087 222.817 273.187 222.932 273.236 223.071C273.259 223.142 273.268 223.216 273.262 223.29C273.256 223.363 273.234 223.435 273.2 223.5C273.165 223.565 273.117 223.622 273.06 223.667C273.003 223.712 272.937 223.744 272.866 223.762H272.714C272.602 223.765 272.491 223.733 272.398 223.669C272.304 223.605 272.232 223.513 272.192 223.406ZM153.243 221.891C153.111 221.836 153.004 221.732 152.943 221.6C152.883 221.468 152.873 221.317 152.916 221.178C152.965 221.039 153.066 220.926 153.197 220.863C153.328 220.8 153.477 220.793 153.613 220.844C153.682 220.866 153.745 220.902 153.8 220.951C153.854 221 153.898 221.06 153.929 221.127C153.959 221.194 153.976 221.266 153.978 221.34C153.98 221.414 153.966 221.488 153.939 221.556C153.903 221.662 153.835 221.753 153.745 221.817C153.655 221.881 153.548 221.915 153.439 221.913H153.243V221.891ZM268.972 215.207C268.912 215.074 268.906 214.922 268.955 214.784C269.004 214.647 269.104 214.534 269.233 214.472C269.297 214.438 269.367 214.419 269.438 214.414C269.51 214.41 269.581 214.42 269.649 214.445C269.716 214.471 269.778 214.509 269.83 214.56C269.882 214.611 269.923 214.671 269.951 214.739C270.012 214.869 270.021 215.019 269.977 215.156C269.932 215.293 269.837 215.407 269.712 215.474C269.633 215.494 269.551 215.494 269.472 215.474C269.36 215.49 269.245 215.474 269.141 215.426C269.038 215.379 268.949 215.303 268.885 215.207H268.972ZM156.659 213.692C156.597 213.659 156.541 213.614 156.496 213.559C156.452 213.504 156.418 213.44 156.398 213.371C156.377 213.303 156.371 213.231 156.378 213.16C156.386 213.088 156.407 213.019 156.441 212.957C156.473 212.89 156.518 212.831 156.573 212.783C156.628 212.734 156.692 212.698 156.761 212.675C156.83 212.652 156.902 212.643 156.974 212.65C157.047 212.656 157.117 212.677 157.181 212.712C157.304 212.786 157.395 212.906 157.435 213.047C157.476 213.187 157.462 213.338 157.398 213.469C157.351 213.557 157.282 213.63 157.198 213.681C157.114 213.732 157.018 213.759 156.92 213.759L156.659 213.692ZM264.686 207.565C264.609 207.44 264.582 207.289 264.61 207.144C264.639 206.999 264.72 206.871 264.838 206.785C264.898 206.744 264.965 206.715 265.036 206.7C265.107 206.685 265.18 206.685 265.251 206.7C265.321 206.714 265.389 206.743 265.449 206.784C265.509 206.826 265.56 206.879 265.599 206.941C265.639 207.001 265.668 207.068 265.682 207.139C265.696 207.21 265.696 207.283 265.681 207.353C265.667 207.424 265.639 207.491 265.599 207.551C265.559 207.61 265.507 207.66 265.447 207.699C265.36 207.768 265.253 207.807 265.142 207.81C265.039 207.825 264.933 207.81 264.837 207.767C264.74 207.723 264.658 207.654 264.599 207.565H264.686ZM161.141 206.072C161.041 205.968 160.985 205.828 160.985 205.682C160.985 205.537 161.041 205.397 161.141 205.293C161.18 205.23 161.231 205.176 161.292 205.135C161.353 205.094 161.421 205.066 161.493 205.053C161.564 205.041 161.638 205.044 161.708 205.062C161.779 205.08 161.845 205.113 161.902 205.159C162.002 205.263 162.058 205.403 162.058 205.549C162.058 205.695 162.002 205.835 161.902 205.939C161.851 206.007 161.785 206.062 161.709 206.1C161.634 206.139 161.551 206.16 161.467 206.161C161.323 206.18 161.178 206.148 161.054 206.072H161.141ZM259.42 200.569C259.321 200.465 259.265 200.325 259.265 200.18C259.265 200.034 259.321 199.894 259.42 199.79C259.522 199.688 259.659 199.63 259.801 199.63C259.943 199.63 260.08 199.688 260.182 199.79C260.237 199.838 260.281 199.897 260.311 199.965C260.342 200.032 260.357 200.105 260.357 200.18C260.357 200.254 260.342 200.327 260.311 200.394C260.281 200.462 260.237 200.521 260.182 200.569C260.089 200.664 259.965 200.72 259.834 200.725C259.744 200.745 259.651 200.74 259.564 200.713C259.476 200.686 259.397 200.636 259.333 200.569H259.42ZM166.624 199.166C166.571 199.114 166.529 199.052 166.501 198.983C166.472 198.914 166.457 198.84 166.457 198.765C166.457 198.69 166.472 198.616 166.501 198.547C166.529 198.478 166.571 198.416 166.624 198.364C166.725 198.262 166.862 198.205 167.005 198.205C167.147 198.205 167.284 198.262 167.385 198.364C167.438 198.416 167.48 198.478 167.508 198.547C167.537 198.616 167.552 198.69 167.552 198.765C167.552 198.84 167.537 198.914 167.508 198.983C167.48 199.052 167.438 199.114 167.385 199.166C167.334 199.218 167.273 199.259 167.205 199.286C167.138 199.313 167.066 199.325 166.994 199.322C166.911 199.333 166.827 199.325 166.747 199.298C166.668 199.271 166.596 199.226 166.537 199.166H166.624ZM253.263 194.398C253.163 194.294 253.107 194.154 253.107 194.008C253.107 193.862 253.163 193.722 253.263 193.618C253.313 193.564 253.374 193.521 253.442 193.492C253.509 193.463 253.581 193.448 253.654 193.448C253.727 193.448 253.8 193.463 253.867 193.492C253.935 193.521 253.995 193.564 254.046 193.618C254.146 193.722 254.201 193.862 254.201 194.008C254.201 194.154 254.146 194.294 254.046 194.398C253.995 194.46 253.932 194.51 253.861 194.545C253.789 194.58 253.712 194.598 253.633 194.599C253.547 194.601 253.461 194.585 253.383 194.55C253.304 194.516 253.233 194.464 253.176 194.398H253.263ZM172.955 193.061C172.903 193.011 172.862 192.951 172.833 192.884C172.805 192.817 172.79 192.744 172.79 192.671C172.79 192.598 172.805 192.526 172.833 192.459C172.862 192.392 172.903 192.331 172.955 192.281C173.057 192.179 173.194 192.122 173.336 192.122C173.478 192.122 173.615 192.179 173.717 192.281C173.769 192.331 173.81 192.392 173.839 192.459C173.867 192.526 173.881 192.598 173.881 192.671C173.881 192.744 173.867 192.817 173.839 192.884C173.81 192.951 173.769 193.011 173.717 193.061C173.628 193.147 173.512 193.194 173.39 193.195C173.3 193.226 173.203 193.23 173.11 193.206C173.018 193.182 172.934 193.132 172.868 193.061H172.955ZM246.344 189.14C246.224 189.062 246.139 188.939 246.106 188.798C246.074 188.656 246.096 188.507 246.17 188.383C246.208 188.319 246.258 188.263 246.317 188.22C246.376 188.176 246.443 188.145 246.514 188.128C246.585 188.112 246.658 188.11 246.73 188.123C246.802 188.136 246.87 188.164 246.931 188.204C246.991 188.243 247.043 188.293 247.083 188.352C247.123 188.412 247.151 188.479 247.166 188.55C247.18 188.621 247.18 188.694 247.166 188.764C247.152 188.835 247.124 188.902 247.084 188.962C247.041 189.047 246.975 189.118 246.894 189.166C246.813 189.213 246.72 189.235 246.627 189.229C246.562 189.241 246.496 189.239 246.433 189.224C246.369 189.209 246.309 189.18 246.257 189.14H246.344ZM180.048 187.915C179.977 187.788 179.957 187.637 179.994 187.495C180.031 187.353 180.12 187.232 180.244 187.157C180.368 187.084 180.516 187.064 180.654 187.102C180.793 187.139 180.911 187.231 180.984 187.358C181.023 187.419 181.05 187.487 181.062 187.559C181.075 187.63 181.073 187.704 181.056 187.775C181.04 187.846 181.01 187.913 180.967 187.971C180.925 188.03 180.871 188.079 180.81 188.115C180.716 188.134 180.62 188.134 180.527 188.115C180.424 188.139 180.316 188.133 180.216 188.098C180.116 188.062 180.028 187.999 179.961 187.915H180.048ZM238.794 184.907C238.665 184.844 238.565 184.732 238.516 184.594C238.467 184.457 238.473 184.305 238.533 184.172C238.594 184.04 238.704 183.937 238.838 183.887C238.973 183.837 239.121 183.844 239.251 183.905C239.317 183.933 239.376 183.975 239.426 184.029C239.475 184.082 239.513 184.145 239.538 184.214C239.562 184.283 239.572 184.356 239.568 184.43C239.564 184.503 239.544 184.574 239.512 184.64C239.471 184.736 239.404 184.818 239.32 184.877C239.235 184.937 239.136 184.97 239.033 184.974C238.913 184.996 238.789 184.972 238.685 184.907H238.794ZM187.794 183.838C187.766 183.769 187.751 183.695 187.751 183.621C187.751 183.546 187.766 183.473 187.795 183.404C187.823 183.336 187.864 183.274 187.917 183.222C187.969 183.17 188.031 183.129 188.098 183.102C188.164 183.073 188.235 183.057 188.307 183.056C188.378 183.054 188.45 183.067 188.516 183.094C188.583 183.121 188.644 183.161 188.696 183.213C188.747 183.264 188.788 183.325 188.817 183.392C188.868 183.531 188.864 183.685 188.808 183.822C188.751 183.959 188.645 184.068 188.512 184.127H188.294C188.176 184.152 188.053 184.137 187.943 184.085C187.834 184.033 187.743 183.946 187.685 183.838H187.794ZM230.744 181.81C230.673 181.793 230.607 181.76 230.55 181.715C230.493 181.67 230.445 181.613 230.41 181.548C230.376 181.483 230.354 181.412 230.348 181.338C230.342 181.264 230.351 181.19 230.374 181.12C230.396 181.003 230.455 180.896 230.541 180.816C230.628 180.736 230.737 180.686 230.852 180.674C230.921 180.694 230.985 180.729 231.041 180.774C231.096 180.82 231.143 180.877 231.177 180.941C231.211 181.005 231.233 181.075 231.241 181.148C231.249 181.221 231.242 181.294 231.222 181.365C231.189 181.48 231.121 181.582 231.026 181.654C230.932 181.727 230.818 181.766 230.7 181.766H230.548L230.744 181.81ZM195.931 180.875C195.911 180.804 195.905 180.731 195.913 180.658C195.92 180.585 195.942 180.515 195.977 180.451C196.011 180.387 196.057 180.33 196.113 180.284C196.169 180.238 196.233 180.204 196.301 180.184C196.442 180.149 196.591 180.172 196.717 180.246C196.842 180.321 196.935 180.442 196.976 180.585C196.995 180.655 197 180.729 196.991 180.801C196.982 180.874 196.958 180.943 196.921 181.006C196.884 181.068 196.835 181.123 196.778 181.165C196.72 181.208 196.654 181.238 196.584 181.253H196.453C196.334 181.264 196.215 181.232 196.116 181.163C196.017 181.094 195.944 180.992 195.91 180.875H195.931ZM222.236 179.85C222.165 179.841 222.095 179.819 222.032 179.783C221.969 179.747 221.914 179.698 221.869 179.64C221.825 179.582 221.792 179.516 221.773 179.445C221.754 179.373 221.749 179.299 221.758 179.226C221.784 179.08 221.865 178.95 221.982 178.863C222.099 178.776 222.245 178.738 222.389 178.758C222.46 178.769 222.529 178.794 222.592 178.833C222.654 178.871 222.707 178.922 222.75 178.982C222.793 179.043 222.823 179.111 222.839 179.183C222.856 179.256 222.858 179.331 222.846 179.404C222.821 179.534 222.753 179.651 222.654 179.736C222.555 179.821 222.431 179.869 222.302 179.872L222.236 179.85ZM204.439 179.114C204.429 179.041 204.435 178.967 204.454 178.896C204.473 178.825 204.506 178.758 204.55 178.7C204.595 178.642 204.65 178.594 204.713 178.558C204.776 178.522 204.846 178.499 204.917 178.491C205.058 178.471 205.201 178.51 205.315 178.597C205.429 178.685 205.505 178.814 205.526 178.959C205.539 179.032 205.536 179.108 205.518 179.18C205.5 179.253 205.468 179.32 205.422 179.379C205.377 179.438 205.321 179.486 205.256 179.521C205.192 179.556 205.121 179.577 205.048 179.582C204.904 179.602 204.758 179.564 204.641 179.477C204.524 179.39 204.443 179.26 204.417 179.114H204.439ZM213.664 179.114C213.518 179.109 213.379 179.045 213.278 178.937C213.176 178.829 213.12 178.685 213.12 178.535C213.12 178.463 213.134 178.392 213.162 178.325C213.189 178.259 213.23 178.199 213.28 178.149C213.331 178.099 213.391 178.06 213.457 178.035C213.523 178.009 213.593 177.997 213.664 178C213.808 178 213.946 178.059 214.048 178.164C214.15 178.268 214.208 178.41 214.208 178.557C214.208 178.705 214.15 178.847 214.048 178.951C213.946 179.056 213.808 179.114 213.664 179.114Z" fill="black"/>
<path d="M249.607 149.545V182.222H246.94C236.206 175.608 223.845 172.106 211.237 172.106C198.629 172.106 186.268 175.608 175.534 182.222H173.629V150.264L210.835 165.841L249.607 149.545Z" fill="#4A65A8"/>
<path d="M261.295 202.029C257.53 196.817 252.924 192.268 247.665 188.569C236.935 181.235 224.24 177.311 211.243 177.311C198.245 177.311 185.55 181.235 174.819 188.569C169.561 192.268 164.955 196.817 161.19 202.029C157.541 207.24 154.966 213.125 153.613 219.341C157.906 207.671 166.002 197.786 176.597 191.278C181.158 188.481 186.049 186.263 191.158 184.675C192.174 189.288 193.317 201.606 181.042 214.304C181.042 214.304 200.512 248.589 206.438 270.049V278.515H203.518C203.518 278.515 204.153 288.25 209.359 288.25V222.854C207.848 222.287 206.591 221.195 205.818 219.778C205.044 218.362 204.806 216.714 205.146 215.136C205.486 213.558 206.382 212.155 207.67 211.183C208.958 210.21 210.552 209.733 212.163 209.838C213.774 209.943 215.293 210.623 216.444 211.755C217.595 212.887 218.3 214.394 218.433 216.003C218.565 217.611 218.114 219.214 217.164 220.518C216.213 221.823 214.825 222.742 213.253 223.108V288.335C213.253 288.335 218.29 287.404 218.29 278.134H215.369C215.369 278.134 217.782 254.896 240.766 214.135C240.766 214.135 228.068 200.928 232.3 184.929C237.076 186.506 241.65 188.637 245.93 191.278C256.537 197.784 264.647 207.668 268.956 219.341C267.578 213.119 264.973 207.233 261.295 202.029Z" fill="#4A65A8"/>
<path d="M275.347 138.877H273.23V170.539H275.347V138.877Z" fill="#4A65A8"/>
<path d="M283.514 135.365L275.133 138.878H273.228V139.682L249.609 149.545L210.837 165.756L173.631 150.18L138.203 135.365L212.615 112L283.514 135.365Z" fill="#4A65A8"/>
</g>
<defs>
<clipPath id="clip0_910_1647">
<rect width="400" height="400" fill="white"/>
</clipPath>
</defs>
</svg>
