<svg width="266" height="118" viewBox="0 0 266 118" fill="none" xmlns="http://www.w3.org/2000/svg">
<g clip-path="url(#clip0_912_2589)">
<path d="M84.3008 64.341V13.7212H99.0283C99.0283 13.7212 116.896 6.53493 129.726 19.9614C129.726 19.9614 150.055 -0.966792 172.96 25.5933C169.704 30.5957 168.329 36.5857 169.077 42.5025C169.825 48.4193 172.649 53.8811 177.048 57.9206V64.341H162.953V35.055C162.953 35.055 154.37 15.6812 136.412 31.6083V64.341H124.101V35.2802C124.101 35.2802 113.756 14.352 98.1022 31.8335V64.341H84.3008Z" fill="white"/>
<path d="M217.524 58.4101C213.664 61.5548 208.989 63.5426 204.041 64.1427C199.094 64.7428 194.077 63.9305 189.574 61.8002C185.07 59.6699 181.266 56.309 178.602 52.108C175.938 47.9069 174.523 43.0383 174.523 38.0676C174.523 33.0969 175.938 28.2282 178.602 24.0272C181.266 19.8262 185.07 16.4653 189.574 14.335C194.077 12.2046 199.094 11.3923 204.041 11.9924C208.989 12.5925 213.664 14.5804 217.524 17.7251C214.142 20.4629 211.501 24.0024 209.844 28.0202C208.214 26.5356 206.245 25.4705 204.109 24.9174C201.972 24.3643 199.733 24.34 197.585 24.8466C195.437 25.3532 193.445 26.3754 191.783 27.8243C190.122 29.2732 188.84 31.105 188.049 33.1604C187.259 35.2158 186.984 37.4326 187.248 39.6182C187.512 41.8037 188.308 43.8918 189.565 45.701C190.823 47.5102 192.504 48.9857 194.464 49.9992C196.423 51.0127 198.601 51.5336 200.809 51.5166C204.144 51.5452 207.369 50.3231 209.844 48.0924C211.5 52.1169 214.141 55.664 217.524 58.4101Z" fill="white"/>
<path d="M253.507 1.18042V16.2965C249.554 13.8689 245.023 12.5372 240.382 12.4389C235.741 12.3405 231.157 13.479 227.104 15.7369C223.051 17.9948 219.676 21.2904 217.327 25.2835C214.977 29.2766 213.738 33.8226 213.738 38.4525C213.738 43.0823 214.977 47.6284 217.327 51.6215C219.676 55.6146 223.051 58.9101 227.104 61.168C231.157 63.4259 235.741 64.5644 240.382 64.4661C245.023 64.3677 249.554 63.036 253.507 60.6085V64.731H265.908V1.18042H253.507ZM239.954 52.1155C237.246 52.1155 234.599 51.3143 232.347 49.8132C230.095 48.3121 228.341 46.1787 227.306 43.6828C226.27 41.187 226.001 38.4409 226.531 35.7921C227.061 33.1433 228.367 30.7108 230.283 28.8025C232.2 26.8942 234.641 25.5957 237.298 25.0715C239.955 24.5473 242.707 24.8209 245.208 25.8576C247.709 26.8943 249.846 28.6476 251.347 30.8956C252.848 33.1436 253.647 35.7852 253.643 38.4863C253.643 40.278 253.289 42.0521 252.6 43.7072C251.912 45.3622 250.904 46.8657 249.632 48.1316C248.361 49.3975 246.852 50.4009 245.191 51.0845C243.53 51.7681 241.751 52.1185 239.954 52.1155Z" fill="white"/>
<path d="M266.001 70.1284H84.3008V71.2548H266.001V70.1284Z" fill="white"/>
<path d="M101.987 95.4959H98.5989V83.7139L94.0813 89.4134C93.9205 89.6152 93.7162 89.7781 93.4835 89.8901C93.2508 90.0021 92.9957 90.0603 92.7373 90.0603C92.4789 90.0603 92.2239 90.0021 91.9912 89.8901C91.7585 89.7781 91.554 89.6152 91.3933 89.4134L87.3726 84.0744V95.5635H83.9844V79.0056C83.992 78.652 84.1092 78.3093 84.3199 78.0248C84.5307 77.7403 84.8246 77.5279 85.1614 77.4168C85.4981 77.3057 85.8611 77.3013 86.2005 77.4043C86.5398 77.5073 86.8388 77.7125 87.0564 77.9919L92.8163 85.6513L99.0507 77.9468C99.2715 77.6782 99.5699 77.484 99.9054 77.3906C100.241 77.2972 100.597 77.3092 100.925 77.4249C101.254 77.5406 101.538 77.7545 101.741 78.0373C101.943 78.3202 102.052 78.6583 102.055 79.0056L101.987 95.4959Z" fill="white"/>
<path d="M110.391 92.1156V88.1733H115.722V84.7265H110.346V80.7842H117.597V77.405H108.561C108.112 77.405 107.681 77.583 107.363 77.8999C107.046 78.2167 106.867 78.6465 106.867 79.0946V93.7376C106.867 94.1857 107.046 94.6155 107.363 94.9323C107.681 95.2492 108.112 95.4272 108.561 95.4272H118.048V92.048L110.391 92.1156Z" fill="white"/>
<path d="M196.814 92.1156V88.1733H202.167V84.7265H196.814V80.7842H204.042V77.405H195.007C194.557 77.405 194.126 77.583 193.809 77.8999C193.491 78.2167 193.312 78.6465 193.312 79.0946V93.7376C193.312 94.1857 193.491 94.6155 193.809 94.9323C194.126 95.2492 194.557 95.4272 195.007 95.4272H204.494V92.048L196.814 92.1156Z" fill="white"/>
<path d="M129.274 95.4958C126.877 95.4958 124.579 94.5464 122.885 92.8565C121.19 91.1666 120.238 88.8746 120.238 86.4847C120.238 84.0948 121.19 81.8028 122.885 80.1129C124.579 78.423 126.877 77.4736 129.274 77.4736C130.671 77.4745 132.048 77.7984 133.299 78.4199C134.549 79.0414 135.638 79.9436 136.479 81.0555L133.882 83.0155C133.353 82.3186 132.671 81.7527 131.887 81.362C131.103 80.9712 130.24 80.7662 129.364 80.7627C128.39 80.7695 127.434 81.0213 126.584 81.495C125.734 81.9687 125.017 82.6487 124.501 83.4722C123.985 84.2956 123.686 85.2358 123.631 86.2054C123.576 87.175 123.768 88.1427 124.188 89.0188C124.608 89.8948 125.244 90.6508 126.035 91.2166C126.826 91.7825 127.748 92.1399 128.715 92.2556C129.682 92.3713 130.662 92.2417 131.566 91.8788C132.469 91.5158 133.265 90.9312 133.882 90.1792L136.389 92.2068C135.527 93.2529 134.44 94.0919 133.208 94.6613C131.976 95.2307 130.631 95.516 129.274 95.4958Z" fill="white"/>
<path d="M142.826 78.3291H139.438V95.4952H142.826V78.3291Z" fill="white"/>
<path d="M142.826 73.8005H139.438V75.783H142.826V73.8005Z" fill="white"/>
<path d="M171.197 78.3291H167.809V95.4952H171.197V78.3291Z" fill="white"/>
<path d="M171.197 73.8005H167.809V75.783H171.197V73.8005Z" fill="white"/>
<path d="M154.234 95.4958H150.1C149.887 95.4958 149.677 95.4537 149.481 95.3719C149.285 95.2901 149.107 95.1703 148.958 95.0194C148.809 94.8685 148.691 94.6895 148.612 94.4928C148.533 94.2961 148.493 94.0857 148.496 93.8738V79.0956C148.493 78.8837 148.533 78.6733 148.612 78.4766C148.691 78.2799 148.809 78.1009 148.958 77.95C149.107 77.7991 149.285 77.6793 149.481 77.5975C149.677 77.5157 149.887 77.4736 150.1 77.4736H154.234C156.63 77.4736 158.928 78.423 160.623 80.1129C162.317 81.8028 163.269 84.0948 163.269 86.4847C163.269 88.8746 162.317 91.1666 160.623 92.8565C158.928 94.5464 156.63 95.4958 154.234 95.4958ZM151.726 92.2518H154.234C155.767 92.2518 157.238 91.6442 158.323 90.5627C159.407 89.4811 160.016 88.0142 160.016 86.4847C160.016 84.9552 159.407 83.4883 158.323 82.4068C157.238 81.3252 155.767 80.7176 154.234 80.7176H151.726V92.2518Z" fill="white"/>
<path d="M189.585 79.4335L186.852 77.4736L182.131 84.0517L177.568 77.4962L174.812 79.411L180.437 87.4985L180.527 95.4958L183.893 95.4507L183.78 87.4985L189.585 79.4335Z" fill="white"/>
<path d="M260.624 79.4335L257.891 77.4736L253.148 84.0517L248.607 77.4962L245.852 79.411L251.453 87.4985L251.566 95.4958L254.932 95.4507L254.819 87.4985L260.624 79.4335Z" fill="white"/>
<path d="M212.173 78.374H208.988V94.5489H212.173V78.374Z" fill="white"/>
<path d="M221.05 79.2759L218.407 77.4736L212.602 85.9666C212.404 86.234 212.297 86.5577 212.297 86.8902C212.297 87.2227 212.404 87.5464 212.602 87.8138L218.407 95.4958L220.96 93.5809L215.832 86.8226L221.05 79.2759Z" fill="white"/>
<path d="M232.322 73.3955H228.934V75.3779H232.322V73.3955Z" fill="white"/>
<path d="M237.966 73.3955H234.578V75.3779H237.966V73.3955Z" fill="white"/>
<path d="M233.653 77.4736C231.866 77.4736 230.119 78.0021 228.633 78.9923C227.147 79.9824 225.989 81.3898 225.305 83.0363C224.621 84.6829 224.442 86.4947 224.791 88.2427C225.139 89.9907 226 91.5963 227.264 92.8565C228.527 94.1167 230.137 94.9749 231.89 95.3226C233.642 95.6703 235.459 95.4919 237.11 94.8099C238.761 94.1278 240.172 92.9728 241.165 91.491C242.158 90.0091 242.688 88.2669 242.688 86.4847C242.688 84.0948 241.736 81.8028 240.042 80.1129C238.347 78.423 236.049 77.4736 233.653 77.4736ZM233.653 92.3644C232.487 92.3644 231.347 92.0196 230.377 91.3735C229.408 90.7274 228.652 89.8092 228.206 88.7348C227.759 87.6604 227.643 86.4782 227.87 85.3376C228.098 84.1971 228.659 83.1494 229.484 82.3271C230.308 81.5048 231.359 80.9448 232.502 80.718C233.646 80.4911 234.831 80.6075 235.909 81.0525C236.986 81.4976 237.907 82.2512 238.554 83.2181C239.202 84.185 239.548 85.3218 239.548 86.4847C239.548 88.0441 238.927 89.5396 237.821 90.6423C236.716 91.745 235.216 92.3644 233.653 92.3644Z" fill="white"/>
<path d="M140.184 101.532H139.145V117.685H140.184V101.532Z" fill="#C4C4C4"/>
<path d="M147.797 101.825L146.916 101.24L141.043 110.048L146.939 118L147.774 117.369L142.331 110.003L147.797 101.825Z" fill="#C4C4C4"/>
<path d="M135.914 118L136.907 117.459L128.437 101.24L120.418 117.482L121.434 117.978L122.519 115.725H134.761L135.914 118ZM123.083 114.643L128.459 103.74L134.152 114.643H123.083Z" fill="#C4C4C4"/>
<path d="M164.851 118L165.845 117.459L157.352 101.24L149.355 117.482L150.372 117.978L151.456 115.725H163.676L164.851 118ZM152.021 114.643L157.397 103.74L163.089 114.643H152.021Z" fill="#C4C4C4"/>
<path d="M173.751 118H167.855V101.24H173.751C175.98 101.24 178.117 102.122 179.693 103.694C181.269 105.266 182.154 107.397 182.154 109.62C182.154 111.842 181.269 113.974 179.693 115.546C178.117 117.117 175.98 118 173.751 118ZM168.917 116.941H173.751C175.698 116.941 177.565 116.17 178.942 114.797C180.319 113.424 181.092 111.562 181.092 109.62C181.092 107.678 180.319 105.816 178.942 104.443C177.565 103.07 175.698 102.298 173.751 102.298H168.917V116.941Z" fill="#C4C4C4"/>
<path d="M195.704 101.24H186.805V118H195.704V116.941H187.866V102.298H195.704V101.24Z" fill="#C4C4C4"/>
<path d="M193.017 109.395H187.867V110.453H193.017V109.395Z" fill="#C4C4C4"/>
<path d="M200.562 118H199.523V101.24L207.452 110.926L216.013 101.33V117.55H214.996V104.033L207.429 112.503L200.562 104.123V118Z" fill="#C4C4C4"/>
<path d="M221.773 101.218H220.621V118.001H221.773V101.218Z" fill="#C4C4C4"/>
<path d="M221.773 97.5444H220.621V99.2115H221.773V97.5444Z" fill="#C4C4C4"/>
<path d="M59.4523 33.5444V50.9358H58.0292C52.3008 47.4157 45.7045 45.5518 38.976 45.5518C32.2475 45.5518 25.6512 47.4157 19.9228 50.9358H18.9062V33.9274L38.7613 42.2176L59.4523 33.5444Z" fill="white"/>
<path d="M65.6873 61.4782C63.6781 58.7043 61.2202 56.2833 58.414 54.3144C52.6875 50.4111 45.9129 48.3228 38.9768 48.3228C32.0406 48.3228 25.2659 50.4111 19.5394 54.3144C16.7332 56.2833 14.2752 58.7043 12.2661 61.4782C10.3189 64.2516 8.94434 67.3837 8.22266 70.692C10.5134 64.481 14.834 59.2198 20.4882 55.7561C22.922 54.2675 25.5322 53.0869 28.2586 52.2418C28.8007 54.6973 29.4106 61.2529 22.86 68.0112C22.86 68.0112 33.2506 86.2586 36.413 97.6802V102.186H34.8544C34.8544 102.186 35.1932 107.367 37.9716 107.367V72.5618C37.1652 72.2598 36.4945 71.6788 36.0818 70.9248C35.6691 70.1708 35.5419 69.2939 35.7234 68.4542C35.9048 67.6144 36.3827 66.8677 37.07 66.35C37.7574 65.8324 38.6085 65.5784 39.468 65.6343C40.3275 65.6902 41.1383 66.0523 41.7525 66.6546C42.3666 67.2569 42.7433 68.0592 42.8138 68.9154C42.8843 69.7715 42.644 70.6244 42.1366 71.3186C41.6292 72.0127 40.8885 72.5019 40.0497 72.697V107.412C40.0497 107.412 42.7377 106.917 42.7377 101.983H41.1791C41.1791 101.983 42.4666 89.6152 54.7321 67.9211C54.7321 67.9211 47.9556 60.8925 50.2144 52.377C52.7628 53.2164 55.2038 54.3505 57.4878 55.7561C63.1481 59.2187 67.4762 64.4794 69.7758 70.692C69.0404 67.3803 67.6505 64.248 65.6873 61.4782Z" fill="white"/>
<path d="M73.1841 27.8674H72.0547V44.7181H73.1841V27.8674Z" fill="white"/>
<path d="M77.5457 25.9975L73.0732 27.8673H72.0567V28.2954L59.4524 33.5443L38.7615 42.1724L18.9064 33.8822L0 25.9975L39.7103 13.5623L77.5457 25.9975Z" fill="white"/>
<path d="M73.0712 27.8674L72.0547 28.2955V27.8674H73.0712Z" fill="white"/>
</g>
<defs>
<clipPath id="clip0_912_2589">
<rect width="266" height="118" fill="white"/>
</clipPath>
</defs>
</svg>
