<svg width="320" height="117" viewBox="0 0 320 117" fill="none" xmlns="http://www.w3.org/2000/svg">
<g clip-path="url(#clip0_72_2253)">
<path d="M145.042 103.299C145.042 103.299 144.469 102.807 144.081 103.791C142.614 107.182 138.23 108.301 134.806 108.505C129.444 108.691 124.081 106.538 119.309 104.181C112.192 100.654 105.649 95.957 98.7354 92.0231C123.019 91.0396 128.28 69.8779 128.28 69.8779C129.222 66.3872 129.465 62.7433 128.996 59.1573C128.528 55.5713 127.355 52.1146 125.548 48.9874C118.719 37.6096 100.59 37.3213 100.59 37.3213C75.9192 36.4396 66.56 51.0391 62.7489 60.9417C62.7489 60.9417 59.3762 68.4026 62.6477 72.0143C63.3262 72.943 64.2288 73.6825 65.2703 74.1631C66.3118 74.6437 67.4579 74.8496 68.6005 74.7613C69.6347 74.8223 70.6695 74.6534 71.6313 74.2665C72.5932 73.8797 73.4584 73.2844 74.1654 72.5231C74.1654 72.5231 74.7388 71.6244 74.3509 71.1496C73.963 70.6748 73.7776 71.1496 73.7776 71.1496C73.3516 71.4757 72.8434 71.6755 72.3104 71.7261C71.9777 71.737 71.6478 71.6617 71.3525 71.5072C71.0571 71.3528 70.8063 71.1245 70.6241 70.8443C69.2582 67.9956 73.1536 60.5518 73.1536 60.5518C79.5954 46.9866 89.8315 41.8996 99.0895 42.12C99.0895 42.12 129.224 41.5266 119.326 69.7761C119.326 69.7761 111.147 89.7678 89.8821 87.1226C93.6764 77.9152 98.8535 68.1991 100.607 62.7052C103.828 52.9044 99.8315 49.2757 97.7742 48.2074C97.7742 48.2074 97.302 47.9022 96.9985 48.1057C96.6949 48.3092 96.8973 48.5805 96.8973 48.5805C98.1789 55.7531 88.4656 69.1826 82.2767 83.2905C81.8888 84.2909 81.3998 85.3591 81.0119 86.3426C71.4504 83.9857 57.5044 78 46.8804 74.9648C32.0575 70.7426 16.5263 71.2513 14.216 80.8487C12.6477 87.7161 18.2126 90.5648 20.9614 91.6331C21.5347 91.8365 21.8383 91.7348 21.9226 91.5313C21.8941 91.3566 21.831 91.1893 21.7371 91.0396C21.0233 90.1385 20.584 89.0491 20.4723 87.9026C19.4943 71.6243 64.7388 86.8344 79.646 90.0561C75.7506 102.417 75.7506 114.677 83.6595 116.644C85.8907 117.309 88.286 117.138 90.401 116.162C92.516 115.186 94.2071 113.471 95.1604 111.337C95.447 110.743 95.3627 110.353 95.1604 110.353C94.958 110.353 94.6713 110.455 94.6713 110.455C93.6493 111.056 92.4822 111.361 91.2986 111.337C83.2211 110.658 84.1991 102.129 87.926 92.0231C90.0948 92.849 92.156 93.9365 94.0642 95.2618C104.975 102.553 115.278 112.727 128.466 116.118C135.211 117.814 145.042 117.102 147.774 110.234C149.005 107.216 147.69 105.164 145.042 103.299ZM91.7708 40.2887L91.1975 40.3735C90.9213 40.5011 90.6239 40.5759 90.3206 40.5939C89.9758 40.6634 89.6414 40.7774 89.3256 40.9331H89.1907C88.1121 41.1779 87.0526 41.5009 86.0204 41.8996C85.4639 42.0861 84.7725 42.3913 84.1485 42.6626C83.5246 42.9339 82.6477 43.4257 82.1081 43.7309C80.57 44.5774 79.0986 45.5411 77.7067 46.6135C76.0587 47.9463 74.5244 49.4153 73.1199 51.0052C71.5049 52.7731 70.0542 54.6858 68.786 56.7196C68.0888 57.7818 67.4471 58.8798 66.8636 60.0092C66.5769 60.5687 66.2902 61.1622 65.9867 61.8574L65.8686 62.1117C65.6494 62.5357 65.4302 62.9935 65.2278 63.4852C65.1825 63.5781 65.1132 63.657 65.0272 63.7137C64.9412 63.7704 64.8415 63.8027 64.7388 63.8074H64.6882C64.5678 63.7772 64.461 63.7074 64.3846 63.609C64.3082 63.5107 64.2667 63.3895 64.2666 63.2648C64.2982 62.9912 64.3663 62.7231 64.469 62.4678V62.3661C64.5325 62.1925 64.6057 62.0227 64.6882 61.8574C64.8568 61.2809 65.1098 60.5009 65.4133 59.6361C65.7168 58.7713 66.4251 57.3469 67.2008 55.6852C68.0661 54.0711 69.0233 52.5085 70.0676 51.0052C71.2855 49.3307 72.6822 47.7954 74.2329 46.427C75.8427 44.9038 77.6391 43.5932 79.5786 42.527C81.4753 41.4087 83.5189 40.5639 85.6494 40.0174C86.6714 39.7339 87.7148 39.5354 88.7691 39.4239H88.9378C89.8783 39.3128 90.8239 39.2505 91.7708 39.2374C91.9066 39.2373 92.0371 39.2904 92.1346 39.3853C92.2322 39.4802 92.2892 39.6096 92.2936 39.7461C92.2983 39.8171 92.2882 39.8884 92.2639 39.9553C92.2395 40.0222 92.2015 40.0831 92.1522 40.1343C92.1029 40.1854 92.0435 40.2256 91.9778 40.2522C91.9121 40.2788 91.8416 40.2912 91.7708 40.2887ZM86.7118 89.327H85.447C84.1411 89.3308 82.8374 89.2173 81.5516 88.9878C79.5879 88.7245 77.6442 88.3279 75.7337 87.8009C72.985 87.1056 70.5398 86.4274 68.0103 85.6474L62.8332 83.9518L58.7354 82.5952L56.813 81.9339C53.9631 80.9504 51.012 79.9331 47.926 78.9665C47.485 78.7735 47.0279 78.6203 46.56 78.5087H46.4588C46.0248 78.2982 45.5658 78.1443 45.0929 78.0509L44.6882 77.8983L44.3846 77.7796C44.1078 77.7441 43.8361 77.6757 43.5752 77.5761C43.3054 77.5761 43.0693 77.4404 42.8163 77.3726L42.1418 77.1861C42.0618 77.1699 41.9868 77.135 41.9226 77.0844H41.7202C41.5865 77.0706 41.4557 77.0363 41.3324 76.9826C41.1294 76.9601 40.9307 76.9087 40.7422 76.83H40.6241C40.3856 76.8139 40.1517 76.7566 39.9327 76.6605H39.8484C39.6919 76.6721 39.535 76.6429 39.3931 76.5757C39.3153 76.5926 39.2348 76.5926 39.157 76.5757H39.0221L35.7843 76.0161C33.5582 75.6145 31.3006 75.4158 29.0389 75.4226H27.3526C27.0447 75.504 26.7263 75.5383 26.4083 75.5244C26.1191 75.5128 25.8297 75.5413 25.5482 75.6091H25.1435C24.9572 75.6882 24.7552 75.7231 24.5533 75.7109H24.1991C24.0531 75.7202 23.9067 75.7202 23.7607 75.7109C23.4899 75.8057 23.2141 75.8849 22.9344 75.9483C22.6308 75.9483 22.361 76.1009 22.0912 76.1857H21.9226C21.833 76.1895 21.7442 76.1676 21.6666 76.1226C21.589 76.0775 21.5257 76.0112 21.4841 75.9313C21.4102 75.8404 21.3697 75.7266 21.3697 75.6091C21.3697 75.4917 21.4102 75.3779 21.4841 75.287V75.1852C21.5872 75.0811 21.7259 75.0204 21.872 75.0157H22.0069L22.4285 74.88L23.2717 74.6257C24.9364 74.2363 26.6273 73.9699 28.3307 73.8287H30.8433C32.5297 73.8287 34.216 73.9135 35.9023 74.0661H36.4083C36.5877 74.0829 36.7684 74.0829 36.9479 74.0661H37.1165C37.2567 74.0796 37.3979 74.0796 37.5381 74.0661L38.1452 74.1848L38.6679 74.2696L39.2582 74.3713C39.3701 74.3566 39.4835 74.3566 39.5954 74.3713C39.741 74.3521 39.8884 74.3521 40.0339 74.3713H40.2025C41.1806 74.5748 42.1418 74.8122 43.1368 75.0835C43.7438 75.253 44.3678 75.4226 45.0423 75.5752C48.415 76.6096 51.7877 77.6948 55.1604 78.8139C58.533 79.9331 62.1755 81.154 65.8012 82.4426C69.4268 83.7313 72.7826 84.8844 76.3239 85.9696C78.0103 86.5291 79.6966 87.0039 81.3829 87.4278H81.5179L83.8787 87.9874L85.3964 88.157L86.3745 88.2756C86.4992 88.2981 86.612 88.3639 86.6933 88.4615C86.7746 88.5592 86.8191 88.6824 86.8191 88.8098C86.8191 88.9371 86.7746 89.0604 86.6933 89.1581C86.612 89.2557 86.4992 89.3215 86.3745 89.3439L86.7118 89.327Z" fill="white"/>
<path d="M174.553 78.5426C174.442 78.5127 174.343 78.4466 174.273 78.3546C174.203 78.2626 174.165 78.1499 174.165 78.0339V77.8135C174.156 77.7573 174.156 77.7001 174.165 77.6439C174.177 77.5482 174.177 77.4514 174.165 77.3557C174.206 77.082 174.279 76.8144 174.385 76.5587C174.554 75.8029 174.808 75.069 175.143 74.3713C174.824 74.3737 174.511 74.4675 174.243 74.6416C173.974 74.8157 173.76 75.063 173.626 75.3548C173.406 75.9313 173.137 76.5756 172.816 77.3048C169.444 84.9691 161.18 99.9926 156.374 99.1787C156.374 99.1787 154.317 98.9922 156.948 93.0065C157.15 92.5148 157.437 92.023 157.74 91.4296C159.292 87.6143 155.683 84.8674 153.339 83.5957C153.29 83.5669 153.235 83.5489 153.179 83.5428C153.122 83.5367 153.065 83.5426 153.011 83.5602C152.957 83.5778 152.907 83.6067 152.865 83.6449C152.822 83.6832 152.789 83.7299 152.766 83.7822C151.807 86.15 150.68 88.4452 149.393 90.6496C146.577 95.7365 141.788 100.552 139.157 99.9757C135.784 99.2805 134.671 93.4983 138.179 84.3756C141.686 75.253 149.393 67.4191 153.693 70.1661C154.418 70.6176 154.966 71.3061 155.245 72.1161C156.526 74.9648 154.857 79.2887 154.182 80.5943C154.182 80.6961 154.081 80.9843 154.469 80.9843H154.57C155.936 80.8996 159.73 80.3061 160.219 76.4909C160.484 75.0085 160.305 73.4804 159.705 72.1006C159.104 70.7208 158.109 69.5517 156.847 68.7417C155.766 68.0812 154.579 67.6163 153.339 67.3683C141.147 64.8248 132.175 74.9139 129.444 84.0365C127.201 91.6839 128.28 102.57 138.213 102.689C143.272 102.79 147.083 99.2974 149.629 95.9061C149.14 99.9248 150.219 102.689 154.216 102.689C157.336 102.79 164.199 102.383 173.322 81.9509C173.811 80.8317 174.317 79.6617 174.823 78.4239H174.553V78.5426ZM135.076 78.7969L134.621 79.2378L134.165 79.7804C133.889 80.0833 133.635 80.4064 133.406 80.747C133.355 80.8204 133.287 80.8802 133.208 80.9215C133.128 80.9628 133.04 80.9844 132.951 80.9843H132.799C132.691 80.9513 132.596 80.8839 132.53 80.7922C132.463 80.7004 132.427 80.5894 132.428 80.4757V80.2721C132.428 80.2014 132.443 80.1315 132.472 80.0671C132.501 80.0027 132.544 79.9455 132.597 79.8992V79.7296C132.753 79.3201 132.951 78.9279 133.187 78.5596C134.006 77.1432 134.943 75.7989 135.987 74.5409C136.626 73.7527 137.325 73.0157 138.078 72.3365C138.919 71.5693 139.834 70.8877 140.809 70.3018C141.726 69.7611 142.699 69.3233 143.71 68.9961C144.735 68.6183 145.823 68.4399 146.914 68.4704C147.053 68.4704 147.186 68.5258 147.284 68.6244C147.382 68.7229 147.437 68.8567 147.437 68.9961C147.437 69.1371 147.382 69.2726 147.285 69.3739C147.187 69.4752 147.054 69.5343 146.914 69.5387H146.796C146.71 69.6058 146.613 69.6574 146.509 69.6913H146.374L146.189 69.81L145.885 69.9965C145.807 70.0125 145.727 70.0125 145.649 69.9965C145.563 70.0187 145.483 70.0592 145.413 70.1152L145.194 70.2509H145.093H144.975L144.789 70.3526C144.711 70.401 144.626 70.4354 144.536 70.4544C143.91 70.7883 143.312 71.1739 142.749 71.6074C141.235 72.6581 139.823 73.8503 138.533 75.1683C138.128 75.5074 137.791 75.8296 137.454 76.1687L137.319 76.3043C137.184 76.4569 137.015 76.5926 136.863 76.7452C136.588 76.988 136.329 77.2485 136.088 77.5252C135.8 77.9919 135.461 78.4243 135.076 78.8139V78.7969Z" fill="white"/>
<path d="M184.823 66.9444C182.722 67.0146 180.673 67.6172 178.866 68.6962C177.059 69.7752 175.552 71.2957 174.485 73.1166C173.74 74.4257 173.205 75.8449 172.9 77.3218C172.519 78.9137 172.667 80.5872 173.322 82.0865C173.967 83.3973 175.03 84.4536 176.34 85.0879C178.604 86.3669 180.987 87.4176 183.457 88.2248C183.648 88.239 183.833 88.3 183.996 88.4025C184.159 88.505 184.294 88.646 184.391 88.813C184.487 88.9801 184.542 89.1683 184.549 89.3613C184.557 89.5542 184.518 89.7462 184.435 89.9204C180.927 97.9578 168.347 99.8231 166.694 98.9413C166.211 98.6929 165.657 98.621 165.126 98.7379C164.907 98.8436 164.725 99.0137 164.605 99.2257C164.485 99.4377 164.431 99.6815 164.452 99.9248C164.553 101.62 165.817 105.707 175.952 104.825C188.33 102.96 192.327 95.6009 192.428 92.1757C192.529 89.1405 189.696 86.8852 184.721 85.1048C182.192 84.24 179.173 83.4091 179.173 80.1196C179.072 76.4909 185.227 68.25 188.431 69.9457C190.961 71.4209 186.391 77.6948 184.333 80.1196C184.333 80.1196 183.558 81.3065 185.126 81.493C187.309 81.8169 189.533 81.3146 191.368 80.0834C193.203 78.8522 194.518 76.9798 195.059 74.8291C195.851 72.0313 194.974 66.4357 184.823 66.9444ZM185.396 68.7926C185.251 68.9253 185.068 69.0084 184.873 69.03L184.182 69.3861C183.301 69.8116 182.445 70.2871 181.618 70.8105C179.433 72.3553 177.581 74.3277 176.172 76.6096C175.801 77.1861 175.463 77.7287 175.143 78.3053C175.113 78.3666 175.07 78.4208 175.018 78.4646C174.966 78.5084 174.905 78.5408 174.839 78.5596H174.553C174.441 78.5297 174.343 78.4636 174.273 78.3716C174.203 78.2795 174.165 78.1668 174.165 78.0509V77.8305C174.156 77.7743 174.156 77.7171 174.165 77.6609C174.176 77.5652 174.176 77.4684 174.165 77.3726C174.205 77.099 174.279 76.8313 174.384 76.5757C174.553 75.8199 174.808 75.086 175.143 74.3883V74.3035C175.384 73.7931 175.66 73.3001 175.969 72.8283C176.442 72.1051 177.009 71.4492 177.656 70.8783C178.281 70.2088 179.003 69.6373 179.797 69.1826C180.608 68.7405 181.468 68.3989 182.36 68.1652C183.197 67.9882 184.052 67.9141 184.907 67.9448C185.012 67.947 185.115 67.9804 185.202 68.0406C185.289 68.1009 185.356 68.1855 185.396 68.284C185.436 68.3597 185.457 68.4441 185.457 68.5298C185.457 68.6155 185.436 68.6999 185.396 68.7757V68.7926Z" fill="white"/>
<path d="M240.995 74.473C240.647 74.4412 240.298 74.5187 239.996 74.6949C239.694 74.8711 239.454 75.1372 239.309 75.4565C237.935 79.061 236.242 82.5341 234.25 85.8339C229.612 93.6339 223.811 99.8061 220.186 99.1787C220.186 99.1787 218.314 99.1786 220.944 93.21C222.513 89.4795 228.364 81.4422 229.376 74.9648C229.707 73.4596 229.485 71.8847 228.75 70.5316C228.015 69.1786 226.818 68.1391 225.38 67.6056C224.697 67.3385 223.97 67.2061 223.238 67.2156C217.386 67.3174 211.046 75.1682 206.745 81.8321C208.314 78.1017 209.579 75.5582 209.579 75.5582C222.057 50.1234 228.128 51.2426 229.815 52.3108C229.815 52.4126 230 52.5143 230.101 52.4126C230.202 52.3108 230.304 52.0226 230.304 51.9209C230.264 50.6044 229.777 49.3413 228.924 48.3418C228.071 47.3422 226.904 46.6665 225.616 46.4269C213.912 44.7313 201.636 73.0995 201.636 73.0995C201.636 73.0995 192.563 93.1082 195.582 100.366C195.972 101.457 196.689 102.4 197.634 103.065C198.58 103.73 199.707 104.084 200.86 104.079C200.86 104.079 201.433 104.079 201.248 103.689C200.455 102.129 201.535 98.9921 201.535 98.9921C204.553 87.6143 218.6 68.4704 221.518 69.8778C221.518 69.8778 223.963 69.8778 219.831 77.3217C214.368 88.106 206.762 102.231 217.875 102.909C220.337 103.045 226.425 102.706 233.676 91.5991C236.254 87.5377 238.466 83.2533 240.287 78.7969L239.848 79.2039C239.707 79.393 239.555 79.5741 239.393 79.7465C239.14 80.0517 238.87 80.3739 238.634 80.713C238.586 80.7861 238.521 80.8461 238.445 80.8876C238.368 80.9291 238.283 80.9506 238.196 80.9504H238.044C237.936 80.9174 237.841 80.85 237.774 80.7582C237.707 80.6665 237.672 80.5554 237.673 80.4417V80.2382C237.669 80.167 237.682 80.0958 237.712 80.0308C237.741 79.9658 237.786 79.909 237.842 79.8652L237.926 79.6956C238.082 79.2861 238.28 78.894 238.516 78.5256C239.304 77.1509 240.206 75.8461 241.214 74.6256C241.149 74.5644 241.075 74.513 240.995 74.473ZM205.885 69.1995H205.649C205.537 69.1412 205.449 69.0437 205.402 68.9252C205.356 68.8067 205.354 68.6752 205.396 68.5552C205.5 68.2641 205.636 67.9854 205.801 67.7243C206.124 66.9826 206.484 66.2582 206.88 65.5539C208.102 63.1008 209.476 60.7278 210.995 58.4491C211.961 56.9911 213.02 55.5978 214.165 54.2778L215.852 52.2261C216.526 51.5478 217.218 50.8356 217.926 50.2252L218.516 49.7843L219.106 49.3434L219.612 49.0382L220.253 48.6652C221.104 48.1227 222.047 47.7432 223.036 47.5461C223.552 47.4489 224.078 47.4091 224.604 47.4273H224.891C225.014 47.4097 225.138 47.4097 225.261 47.4273H225.413C225.54 47.4307 225.664 47.472 225.767 47.5461L225.987 47.6308C226.036 47.6162 226.089 47.6162 226.138 47.6308C227.051 48.0722 227.766 48.8402 228.145 49.7843C228.187 49.8939 228.189 50.0146 228.152 50.1258C228.115 50.237 228.041 50.332 227.943 50.3947C227.856 50.4758 227.741 50.5208 227.622 50.5208C227.504 50.5208 227.389 50.4758 227.302 50.3947H227.201C227.131 50.323 227.079 50.2359 227.049 50.1404L226.897 49.9878C226.75 49.8346 226.586 49.6981 226.408 49.5809L226.273 49.496C226.103 49.3967 225.922 49.3171 225.734 49.2587H225.38H225.211H224.891C224.49 49.2684 224.095 49.3547 223.727 49.513C222.648 49.9515 221.642 50.5518 220.742 51.2934C219.563 52.2604 218.469 53.3269 217.471 54.4813C216.189 55.8887 215.042 57.2621 213.997 58.6526L213.238 59.6869C212.277 60.9587 211.282 62.2643 210.304 63.6547C209.326 65.0452 208.617 66.0117 207.757 67.2665L206.408 69.2165C206.328 69.2618 206.237 69.2842 206.144 69.2812C206.052 69.2782 205.963 69.25 205.885 69.1995Z" fill="white"/>
<path d="M280.54 74.3713C280.192 74.3395 279.843 74.417 279.541 74.5932C279.239 74.7694 278.999 75.0354 278.854 75.3548C278.483 76.3043 277.977 77.4743 277.37 78.7461C273.66 86.6987 266.105 99.9078 261.602 99.0939C261.602 99.0939 259.545 98.9074 262.176 92.9217C262.378 92.43 262.665 91.9383 262.968 91.3448C264.52 87.5296 260.911 84.7826 258.567 83.5108C258.518 83.4821 258.463 83.4641 258.407 83.458C258.35 83.4519 258.293 83.4579 258.239 83.4755C258.185 83.493 258.135 83.5219 258.093 83.5602C258.051 83.5984 258.017 83.6452 257.994 83.6974C257.022 86.0592 255.895 88.3533 254.621 90.5648C251.788 95.6517 247.016 100.467 244.385 99.8909C241.012 99.1956 239.899 93.4135 243.407 84.2909C246.914 75.1683 254.621 67.3344 258.921 70.0813C259.646 70.5328 260.194 71.2214 260.473 72.0313C261.737 74.88 260.085 79.2039 259.393 80.5096C259.393 80.6113 259.309 80.8996 259.697 80.8996H259.798C261.164 80.8148 264.958 80.2213 265.447 76.4061C265.712 74.9237 265.533 73.3956 264.933 72.0158C264.332 70.6361 263.337 69.4669 262.075 68.657C260.989 67.9946 259.796 67.5296 258.55 67.2835C246.375 64.74 237.403 74.8291 234.672 83.9517C234.503 84.5113 234.351 85.0878 234.216 85.6474C233.814 87.5413 233.638 89.4768 233.693 91.4126C233.896 97.1948 236.527 102.485 243.441 102.621C248.5 102.723 252.311 99.2296 254.857 95.8383C254.368 99.857 255.43 102.621 259.427 102.621C261.99 102.621 267.049 102.434 273.795 91.1752C276.68 86.1829 279.151 80.9595 281.181 75.5582C281.653 74.473 280.54 74.3713 280.54 74.3713ZM241.164 77.8643C240.878 78.1918 240.574 78.5031 240.253 78.7969L239.815 79.2039C239.673 79.393 239.521 79.5741 239.36 79.7465C239.107 80.0517 238.837 80.3739 238.601 80.713C238.553 80.7861 238.488 80.8462 238.411 80.8876C238.335 80.9291 238.249 80.9507 238.162 80.9504H238.011C237.902 80.9174 237.808 80.85 237.741 80.7583C237.674 80.6665 237.638 80.5555 237.64 80.4417V80.2383C237.636 80.167 237.649 80.0958 237.678 80.0308C237.707 79.9659 237.752 79.909 237.808 79.8652L237.892 79.6956C238.048 79.2861 238.246 78.894 238.483 78.5256C239.27 77.1509 240.173 75.8462 241.181 74.6256C241.831 73.8414 242.535 73.1048 243.289 72.4213C244.128 71.6516 245.044 70.9698 246.021 70.3865C246.937 69.8459 247.91 69.4081 248.921 69.0809C249.946 68.7031 251.034 68.5248 252.125 68.5552C252.262 68.5595 252.393 68.6162 252.49 68.7139C252.587 68.8116 252.644 68.9428 252.648 69.0809C252.644 69.2206 252.588 69.3539 252.491 69.4543C252.395 69.5547 252.264 69.615 252.125 69.6235H252.007C251.921 69.6906 251.824 69.7422 251.72 69.7761H251.586L251.383 69.8948L251.08 70.0813C251.002 70.0988 250.921 70.0988 250.844 70.0813C250.76 70.1102 250.681 70.1501 250.607 70.2L250.405 70.3356H250.287H250.186L250 70.4374C249.921 70.483 249.836 70.5172 249.747 70.5391C249.72 70.5471 249.691 70.5471 249.663 70.5391C249.037 70.873 248.439 71.2587 247.876 71.6921C246.362 72.7436 244.951 73.9358 243.66 75.253C243.255 75.5922 242.918 75.9143 242.564 76.2704L242.446 76.3891L241.99 76.8131C241.722 77.052 241.474 77.3128 241.248 77.593L241.164 77.8643Z" fill="white"/>
<path d="M319.326 74.3713C318.977 74.3794 318.636 74.4811 318.34 74.666C318.043 74.8508 317.801 75.1121 317.639 75.4226C313.356 86.9022 304.283 99.3482 298.921 99.2465C297.357 99.1622 295.826 98.7631 294.418 98.0728C293.01 97.3825 291.754 96.415 290.725 95.2278C289.189 93.2808 288.043 91.0521 287.353 88.6656C289.286 88.4925 291.206 88.198 293.103 87.7839C305.784 84.8335 307.437 76.5078 307.639 74.7443C308.516 66.2661 301.501 67.2835 301.501 67.2835C295.632 67.2835 289.292 75.2361 285.008 81.7983C286.577 78.0678 287.842 75.6261 287.842 75.6261C300.32 50.1913 306.391 51.3104 308.078 52.3787C308.162 52.3787 308.263 52.4804 308.364 52.3787C308.465 52.2769 308.55 52.0904 308.55 51.9039C308.527 50.5943 308.046 49.3348 307.192 48.3458C306.338 47.3569 305.165 46.7016 303.879 46.4948C292.175 44.7991 279.697 72.9808 279.697 72.9808C279.697 72.9808 278.617 75.3887 277.336 78.8478C275.81 82.9123 274.625 87.0983 273.794 91.3617C273.137 94.9056 273.002 98.1443 273.963 100.264C274.35 101.356 275.063 102.301 276.005 102.969C276.947 103.637 278.072 103.995 279.224 103.994C279.224 103.994 279.713 103.994 279.629 103.604C279.327 102.04 279.391 100.426 279.815 98.8904C280.668 96.0718 281.798 93.3455 283.187 90.7513C283.187 90.7513 283.39 102.519 297.032 102.807C300.944 102.807 310.101 100.552 319.848 75.6769C320.354 74.473 319.326 74.3713 319.326 74.3713ZM284.418 69.1995C284.341 69.217 284.26 69.217 284.182 69.1995C284.066 69.1441 283.975 69.0478 283.925 68.929C283.876 68.8102 283.871 68.6772 283.912 68.5552C284.028 68.2609 284.169 67.9773 284.334 67.7074C284.65 66.9768 285.005 66.2636 285.396 65.5709C286.627 63.1086 288.007 60.7245 289.528 58.4322C290.506 57.0756 291.501 55.6852 292.681 54.1761C293.272 53.4978 293.862 52.7856 294.57 52.0904C295.278 51.3952 295.852 50.8017 296.543 50.1913L297.133 49.7504L297.707 49.3096C297.926 49.14 298.162 49.0043 298.364 48.8687L298.887 48.5296C299.761 48.0573 300.698 47.7146 301.67 47.5122C302.182 47.3795 302.708 47.3056 303.238 47.2917C303.346 47.2969 303.451 47.3321 303.541 47.3935H304.148C304.258 47.3935 304.364 47.4292 304.452 47.4952H304.536C304.68 47.497 304.818 47.5512 304.924 47.6478C304.992 47.6763 305.055 47.7165 305.11 47.7665C306.048 48.179 306.787 48.9466 307.167 49.903C307.208 50.0127 307.211 50.1333 307.174 50.2445C307.137 50.3558 307.063 50.4507 306.965 50.5135C306.884 50.5794 306.782 50.6153 306.678 50.6152C306.612 50.6152 306.546 50.6017 306.485 50.5754C306.424 50.5492 306.37 50.5108 306.324 50.4626C306.252 50.4093 306.194 50.3395 306.155 50.2591C306.096 50.2352 306.043 50.1984 305.999 50.1516C305.955 50.1047 305.922 50.0488 305.902 49.9878V49.903C305.807 49.8216 305.705 49.7479 305.599 49.6826L305.379 49.5469C305.191 49.4208 304.978 49.3343 304.756 49.2926C304.756 49.2926 304.671 49.2926 304.637 49.2926H304.452C304.358 49.2776 304.268 49.2491 304.182 49.2078H303.761C303.313 49.2883 302.873 49.4074 302.445 49.5639C301.368 49.946 300.368 50.5204 299.494 51.2595C298.33 52.2486 297.236 53.3196 296.223 54.4644C295.514 55.1765 294.823 56.0243 294.098 56.906C293.676 57.4317 293.221 57.9913 292.749 58.6017L291.99 59.6191C291.046 60.8908 290.051 62.1965 289.056 63.5869C288.347 64.5704 287.639 65.6047 286.914 66.7069C286.341 67.5378 285.767 68.4026 285.228 69.2504C285.178 69.3012 285.118 69.3406 285.052 69.3659C284.986 69.3912 284.916 69.4018 284.845 69.3969C284.774 69.3921 284.706 69.372 284.644 69.3379C284.582 69.3038 284.528 69.2566 284.486 69.1995H284.418ZM285.683 86.156C290.944 77.2369 297.858 68.9113 299.815 69.793C300.691 70.183 300.506 71.4887 300.017 72.93C299.781 73.7269 296.863 81.1369 285.75 86.1391L285.683 86.156Z" fill="white"/>
<path d="M46.9308 -1.52588e-05L44.4856 1.42433C38.1022 5.15542 33.4518 11.2806 31.5549 18.4556C29.658 25.6306 30.6695 33.2693 34.3675 39.6952L43.4737 55.5665L45.919 54.1422C52.3211 50.4252 56.9927 44.3032 58.906 37.1229C60.8193 29.9425 59.8176 22.292 56.1213 15.8543L46.9308 -1.52588e-05Z" fill="white"/>
<path d="M41.7707 47.8174C40.0192 40.4896 35.4447 34.1614 29.0535 30.2247C22.6622 26.288 14.9775 25.0652 7.68971 26.8252L0 28.6735L1.85497 36.4056C2.72032 40.0333 4.28793 43.4541 6.46829 46.4725C8.64864 49.4909 11.399 52.0478 14.5623 53.9972C17.7256 55.9466 21.2398 57.2502 24.9042 57.8337C28.5687 58.4172 32.3116 58.2691 35.9191 57.3978L43.6088 55.5496L41.7707 47.8174Z" fill="white"/>
</g>
<defs>
<clipPath id="clip0_72_2253">
<rect width="320" height="117" fill="white"/>
</clipPath>
</defs>
</svg>
