<svg width="166" height="119" viewBox="0 0 166 119" fill="none" xmlns="http://www.w3.org/2000/svg">
<g clip-path="url(#clip0_831_6250)">
<path d="M125.124 28.2633C130.966 26.9298 145.631 22.1324 151.809 6.9432C151.809 6.9432 138.673 5.51777 130.675 15.3272C130.453 12.3612 129.63 9.47186 128.254 6.83627C126.879 4.20068 124.981 1.87436 122.677 0C120.373 1.87436 118.475 4.20068 117.1 6.83627C115.725 9.47186 114.901 12.3612 114.679 15.3272C106.666 5.51777 93.5449 6.9432 93.5449 6.9432C99.6619 22.1171 114.389 26.8685 120.215 28.2633C121.829 28.6444 123.51 28.6444 125.124 28.2633Z" fill="white"/>
<path d="M85.3781 66.0908C85.7143 62.6175 86.6836 59.2355 88.2378 56.1128C89.7833 53.112 91.9156 50.4536 94.5077 48.296C97.0604 46.1468 99.9349 44.414 103.026 43.1614C106.121 41.8774 109.346 40.9319 112.645 40.3412C119.253 39.1918 126.009 39.1918 132.617 40.3412C139.086 41.2562 145.237 43.7336 150.539 47.5603C155.474 51.4591 158.668 57.1568 159.424 63.4086C160.294 70.0472 160.025 76.786 158.629 83.3339C155.883 96.9802 149.005 109.446 138.932 119.031C144.972 115.124 150.222 110.111 154.408 104.255C156.518 101.285 158.365 98.136 159.929 94.8445C161.49 91.5211 162.749 88.0637 163.691 84.514C164.663 80.9697 165.338 77.3501 165.71 73.6931C166.13 69.9549 166.13 66.1812 165.71 62.4429C165.241 58.5524 164.092 54.7752 162.315 51.2848C160.452 47.7366 157.843 44.6357 154.668 42.1957C151.569 39.9094 148.16 38.0773 144.545 36.7546C141.023 35.4454 137.365 34.5355 133.641 34.0417C126.279 33.0483 118.795 33.4696 111.589 35.2832C107.985 36.1784 104.503 37.5115 101.221 39.253C97.9239 40.9994 94.9248 43.2603 92.3362 45.9509C89.7848 48.6689 87.8357 51.8969 86.6168 55.4231C85.4522 58.8504 85.0299 62.4871 85.3781 66.0908Z" fill="white"/>
<path d="M145.607 63.2325C146.806 61.3484 146.687 59.1236 145.341 58.2632C143.995 57.4029 141.932 58.2329 140.733 60.117C139.534 62.0012 139.654 64.226 140.999 65.0863C142.345 65.9466 144.408 65.1166 145.607 63.2325Z" fill="white"/>
<path d="M125.107 59.1725C126.306 57.2883 126.187 55.0635 124.841 54.2032C123.495 53.3429 121.432 54.1728 120.233 56.057C119.034 57.9411 119.153 60.1659 120.499 61.0262C121.845 61.8866 123.908 61.0566 125.107 59.1725Z" fill="white"/>
<path d="M146.619 83.9691C147.818 82.085 147.699 79.8601 146.353 78.9998C145.007 78.1395 142.944 78.9695 141.745 80.8536C140.546 82.7377 140.665 84.9626 142.011 85.8229C143.357 86.6832 145.42 85.8532 146.619 83.9691Z" fill="white"/>
<path d="M23.2148 99.9331C23.2211 100.413 23.131 100.89 22.9501 101.334C22.7692 101.779 22.5011 102.182 22.1617 102.521C21.8223 102.86 21.4185 103.127 20.9742 103.306C20.5299 103.486 20.0542 103.574 19.5752 103.566H3.62515C3.14634 103.576 2.67038 103.489 2.22594 103.31C1.7815 103.132 1.3778 102.864 1.03915 102.525C0.700494 102.186 0.433913 101.781 0.255468 101.335C0.0770233 100.89 -0.00959301 100.413 0.00084235 99.9331V81.0347H7.26478V98.477H15.9509V81.0347H23.2148V99.9331ZM14.4064 83.8856C14.4038 84.5556 14.1696 85.2041 13.7436 85.7205C13.3176 86.2369 12.7262 86.5893 12.0701 86.7178C11.4139 86.8462 10.7336 86.7427 10.1451 86.4248C9.55654 86.107 9.09614 85.5944 8.84229 84.9746C8.58844 84.3547 8.55684 83.6658 8.75287 83.0252C8.94891 82.3846 9.36046 81.8319 9.91743 81.4613C10.4744 81.0906 11.1423 80.925 11.8075 80.9925C12.4726 81.0601 13.0938 81.3567 13.5653 81.8317C13.8375 82.0987 14.0526 82.4185 14.1972 82.7717C14.3418 83.1248 14.413 83.5039 14.4064 83.8856Z" fill="white"/>
<path d="M33.7201 94.8445H30.0958C29.6157 94.8552 29.1385 94.7669 28.6939 94.585C28.2493 94.403 27.8468 94.1314 27.5114 93.7869C27.1666 93.4548 26.8948 93.0543 26.7131 92.6109C26.5314 92.1675 26.4439 91.6911 26.4562 91.212V67.2556H33.7201V94.8445ZM34.286 94.8445H33.7201V89.7712H34.286V94.8445Z" fill="white"/>
<path d="M66.3394 91.1965C66.3395 92.0725 66.0184 92.9181 65.4371 93.5723C65.1103 93.9785 64.6951 94.3043 64.2233 94.5248C63.7515 94.7453 63.2355 94.8547 62.715 94.8444H33.1699V89.7711H37.3448V81.0347H44.5934V89.7711H48.2177V81.0347H55.5275V89.7711H59.1519V81.0347H66.3852L66.3394 91.1965ZM66.9052 94.8444H66.3394V89.7711H66.9052V94.8444Z" fill="white"/>
<path d="M80.8814 91.2119C80.8937 91.691 80.8062 92.1675 80.6245 92.6108C80.4428 93.0542 80.1709 93.4547 79.8262 93.7868C79.4908 94.1313 79.0883 94.403 78.6437 94.5849C78.1991 94.7668 77.7219 94.8551 77.2417 94.8444H61.3223V89.7711H73.5562V81.0347H80.8049L80.8814 91.2119ZM74.9937 99.8717C75.0227 100.271 74.9692 100.672 74.8367 101.049C74.7042 101.427 74.4955 101.773 74.2235 102.066C73.9516 102.359 73.6223 102.593 73.2563 102.753C72.8902 102.912 72.4951 102.995 72.0958 102.995C71.6965 102.995 71.3015 102.912 70.9354 102.753C70.5693 102.593 70.24 102.359 69.9681 102.066C69.6962 101.773 69.4874 101.427 69.3549 101.049C69.2224 100.672 69.169 100.271 69.1979 99.8717C69.2059 99.1059 69.5129 98.3737 70.0533 97.8322C70.5936 97.2906 71.3241 96.9829 72.0882 96.9749C72.4696 96.9708 72.848 97.0428 73.2013 97.1868C73.5547 97.3307 73.8759 97.5437 74.1464 97.8133C74.4168 98.0829 74.631 98.4038 74.7765 98.7572C74.9219 99.1105 74.9958 99.4894 74.9937 99.8717ZM80.8049 99.8717C80.8136 100.256 80.7435 100.638 80.5988 100.994C80.4541 101.35 80.238 101.672 79.9638 101.941C79.4174 102.48 78.6814 102.782 77.9146 102.782C77.1478 102.782 76.4118 102.48 75.8654 101.941C75.4612 101.534 75.1862 101.016 75.075 100.452C74.9637 99.8887 75.0213 99.3048 75.2403 98.774C75.4593 98.2432 75.8301 97.7892 76.306 97.4691C76.7818 97.1489 77.3415 96.977 77.9146 96.9749C78.2947 96.9729 78.6715 97.0464 79.0231 97.1912C79.3747 97.3361 79.6941 97.5494 79.9629 97.8188C80.2317 98.0882 80.4445 98.4084 80.589 98.7608C80.7336 99.1131 80.8069 99.4907 80.8049 99.8717Z" fill="white"/>
<path d="M95.0425 99.933C95.0488 100.413 94.9587 100.889 94.7778 101.334C94.5969 101.779 94.3288 102.182 93.9894 102.521C93.65 102.86 93.2462 103.127 92.8019 103.306C92.3576 103.486 91.8819 103.574 91.4029 103.566H84.1543V98.4769H87.7786V81.0347H95.0425V99.933Z" fill="white"/>
<path d="M105.549 94.8445H101.925C101.445 94.8552 100.967 94.7669 100.523 94.585C100.078 94.403 99.6757 94.1314 99.3402 93.7869C98.9983 93.4534 98.7292 93.0523 98.5502 92.609C98.3712 92.1657 98.2861 91.69 98.3004 91.212V67.2556H105.549V94.8445Z" fill="white"/>
<path d="M125.628 91.1966C125.62 92.0711 125.3 92.9138 124.726 93.5723C124.396 93.9789 123.978 94.3048 123.504 94.5252C123.03 94.7456 122.512 94.8548 121.989 94.8445H108.807V89.7712H118.364V86.108H110.978V81.0347H121.989C122.471 81.0131 122.953 81.0921 123.403 81.2668C123.853 81.4415 124.263 81.7081 124.605 82.0496C124.947 82.3911 125.215 82.8001 125.391 83.2507C125.567 83.7013 125.648 84.1837 125.628 84.6673V91.1966Z" fill="white"/>
<path d="M68.1131 106.999C67.788 106.674 67.4039 106.413 66.9815 106.233C66.5389 106.035 66.059 105.936 65.5746 105.941H57.0566V118.096H65.5746C66.0572 118.099 66.5356 118.005 66.9815 117.82C67.4016 117.628 67.7846 117.363 68.1131 117.038C68.4472 116.717 68.7126 116.331 68.893 115.904C69.0768 115.457 69.1703 114.978 69.1683 114.494V109.543C69.1703 109.06 69.0768 108.58 68.893 108.133C68.7126 107.706 68.4472 107.32 68.1131 106.999ZM65.5746 116.073H59.0905V107.995H65.5746C65.7847 107.994 65.9929 108.035 66.1863 108.118C66.3685 108.199 66.5344 108.314 66.6756 108.455C66.8187 108.595 66.933 108.762 67.012 108.945C67.0906 109.14 67.1321 109.348 67.1344 109.559V114.54C67.1321 114.75 67.0906 114.958 67.012 115.153C66.9382 115.34 66.8232 115.507 66.6756 115.643C66.5344 115.785 66.3685 115.899 66.1863 115.981C65.9907 116.053 65.7826 116.084 65.5746 116.073Z" fill="white"/>
<path d="M70.8203 111.107H77.809V112.639H70.8203V117.038C70.8203 117.335 70.9379 117.619 71.1473 117.829C71.3566 118.039 71.6406 118.157 71.9367 118.157H78.6959C78.992 118.157 79.276 118.039 79.4853 117.829C79.6947 117.619 79.8123 117.335 79.8123 117.038V110.263C79.8144 110.116 79.7869 109.97 79.7315 109.833C79.6761 109.696 79.594 109.572 79.4899 109.468C79.3858 109.363 79.2619 109.281 79.1256 109.226C78.9892 109.17 78.8431 109.143 78.6959 109.145H70.8203V111.107ZM77.809 114.616V116.072H72.8236V114.647L77.809 114.616Z" fill="white"/>
<path d="M83.3448 109.099H82.4425C82.1465 109.099 81.8625 109.217 81.6532 109.426C81.4438 109.636 81.3262 109.921 81.3262 110.217V118.096H83.3448V111.122H90.2417V109.099H83.2836H83.3448Z" fill="white"/>
<path d="M93.9265 109.099H91.8926V118.096H93.9265V109.099Z" fill="white"/>
<path d="M93.9265 106.907C93.9265 106.34 93.4712 105.88 92.9095 105.88C92.3479 105.88 91.8926 106.34 91.8926 106.907C91.8926 107.474 92.3479 107.934 92.9095 107.934C93.4712 107.934 93.9265 107.474 93.9265 106.907Z" fill="white"/>
<path d="M95.5169 113.498C95.5169 113.794 95.6345 114.079 95.8439 114.289C96.0532 114.499 96.3372 114.616 96.6333 114.616H102.475V116.072H95.5169V118.096H103.377C103.673 118.096 103.957 117.978 104.167 117.768C104.376 117.558 104.494 117.274 104.494 116.977V113.697C104.494 113.55 104.465 113.404 104.409 113.269C104.353 113.133 104.27 113.009 104.167 112.906C104.063 112.802 103.94 112.719 103.804 112.663C103.669 112.607 103.524 112.578 103.377 112.578H97.5355V111.045H104.463V109.022H96.6027C96.3066 109.022 96.0226 109.14 95.8133 109.35C95.6039 109.56 95.4863 109.844 95.4863 110.141L95.5169 113.498Z" fill="white"/>
<path d="M113.042 116.072H108.103V109.099H106.084V116.977C106.084 117.271 106.199 117.553 106.406 117.763C106.612 117.972 106.892 118.092 107.185 118.096H113.944C114.24 118.096 114.524 117.978 114.734 117.768C114.943 117.558 115.061 117.274 115.061 116.977V109.099H113.042V116.072Z" fill="white"/>
<path d="M125.276 110.018C125.055 109.685 124.741 109.424 124.374 109.267C124.112 109.16 123.832 109.103 123.548 109.099H116.697V118.096H118.716V112.44V111.122H123.579V118.034H125.613V111.122C125.606 110.73 125.49 110.347 125.276 110.018Z" fill="white"/>
</g>
<defs>
<clipPath id="clip0_831_6250">
<rect width="166" height="119" fill="white"/>
</clipPath>
</defs>
</svg>
