<svg width="273" height="70" viewBox="0 0 273 70" fill="none" xmlns="http://www.w3.org/2000/svg">
<g clip-path="url(#clip0_831_702)">
<path d="M224.541 69.9855C243.773 69.9855 259.364 54.3187 259.364 34.9928C259.364 15.6668 243.773 0 224.541 0C205.309 0 189.719 15.6668 189.719 34.9928C189.719 54.3187 205.309 69.9855 224.541 69.9855Z" fill="white"/>
<path d="M266.182 69.8266C269.955 69.8266 273.014 66.7528 273.014 62.961C273.014 59.1693 269.955 56.0955 266.182 56.0955C262.408 56.0955 259.35 59.1693 259.35 62.961C259.35 66.7528 262.408 69.8266 266.182 69.8266Z" fill="white"/>
<path d="M58.7279 5.62256C57.5377 5.62256 56.3963 6.09766 55.5547 6.94338C54.7131 7.78909 54.2402 8.93613 54.2402 10.1322V28.1416H58.7279V5.62256Z" fill="white"/>
<path d="M22.8263 28.0983H49.7667V21.3484C49.7667 19.5543 49.0575 17.8338 47.7951 16.5653C46.5327 15.2967 44.8205 14.584 43.0352 14.584C41.2524 14.5878 39.5439 15.3022 38.2846 16.5703C37.0253 17.8385 36.3181 19.5568 36.3181 21.3484V23.6032H27.314V14.584C26.1263 14.584 24.987 15.0571 24.1458 15.8997C23.3046 16.7423 22.8301 17.8856 22.8263 19.0792V23.6032H13.8654V19.108C13.8616 17.9145 13.3871 16.7712 12.5459 15.9286C11.7047 15.086 10.5654 14.6129 9.37769 14.6129H0.41673C0.420523 15.8039 0.893032 16.945 1.73112 17.7872C2.5692 18.6294 3.7048 19.1042 4.89002 19.108H9.36331V23.6176H4.89002C3.7023 23.6176 2.56302 24.0908 1.72183 24.9333C0.880643 25.7759 0.406151 26.9193 0.402344 28.1128H22.8119L22.8263 28.0983ZM40.8058 21.334C40.8058 20.8874 40.9378 20.4508 41.185 20.0797C41.4321 19.7086 41.7834 19.4196 42.1943 19.2494C42.6051 19.0792 43.057 19.0354 43.4927 19.1236C43.9283 19.2118 44.3281 19.4279 44.6413 19.7447C44.9546 20.0615 45.1671 20.4646 45.2521 20.903C45.337 21.3413 45.2905 21.7951 45.1185 22.2069C44.9464 22.6186 44.6566 22.9698 44.2857 23.2158C43.9148 23.4618 43.4796 23.5916 43.0352 23.5887H40.8489L40.8058 21.334Z" fill="white"/>
<path d="M27.2999 32.6367C27.0048 32.6309 26.7114 32.6841 26.4368 32.7932C26.1623 32.9023 25.9121 33.0652 25.7006 33.2723C25.4892 33.4793 25.3208 33.7266 25.2052 33.9996C25.0897 34.2726 25.0292 34.5659 25.0273 34.8626C25.0273 35.4567 25.2622 36.0266 25.6803 36.4467C26.0984 36.8669 26.6655 37.1029 27.2568 37.1029C27.8481 37.1029 28.4152 36.8669 28.8333 36.4467C29.2514 36.0266 29.4862 35.4567 29.4862 34.8626C29.4824 34.2709 29.2459 33.7048 28.8282 33.2878C28.4105 32.8707 27.8456 32.6366 27.2568 32.6367H27.2999Z" fill="white"/>
<path d="M22.8128 32.6368C22.2253 32.6368 21.6619 32.8713 21.2465 33.2888C20.8311 33.7062 20.5977 34.2723 20.5977 34.8627C20.5958 35.1562 20.6517 35.4472 20.7622 35.7189C20.8726 35.9907 21.0355 36.2378 21.2414 36.446C21.4473 36.6542 21.6921 36.8194 21.9618 36.9322C22.2315 37.045 22.5207 37.1031 22.8128 37.103C23.1049 37.1031 23.3941 37.045 23.6638 36.9322C23.9335 36.8194 24.1783 36.6542 24.3842 36.446C24.5901 36.2378 24.7529 35.9907 24.8634 35.7189C24.9738 35.4472 25.0297 35.1562 25.0278 34.8627C25.0278 34.5691 24.9701 34.2785 24.8579 34.0075C24.7457 33.7365 24.5812 33.4905 24.374 33.2836C24.1668 33.0767 23.9209 32.9131 23.6505 32.802C23.3801 32.691 23.0905 32.6349 22.7984 32.6368H22.8128Z" fill="white"/>
<path d="M94.4567 10.0743C94.4567 9.48208 94.3406 8.89568 94.1151 8.34855C93.8896 7.80142 93.559 7.30427 93.1423 6.88552C92.7256 6.46676 92.2309 6.13459 91.6864 5.90796C91.1419 5.68133 90.5584 5.5647 89.969 5.5647H76.6211V10.0743H94.4567Z" fill="white"/>
<path d="M159.599 10.0164C159.906 10.0413 160.215 10.002 160.506 9.901C160.797 9.80004 161.064 9.6396 161.29 9.42982C161.516 9.22003 161.697 8.96544 161.82 8.68207C161.944 8.39869 162.008 8.09269 162.008 7.78334C162.008 7.47398 161.944 7.16798 161.82 6.8846C161.697 6.60123 161.516 6.3466 161.29 6.13681C161.064 5.92702 160.797 5.76659 160.506 5.66563C160.215 5.56467 159.906 5.52537 159.599 5.5502C159.041 5.59538 158.52 5.85026 158.14 6.26407C157.76 6.67787 157.549 7.22028 157.549 7.78334C157.549 8.34639 157.76 8.8888 158.14 9.3026C158.52 9.71641 159.041 9.97124 159.599 10.0164Z" fill="white"/>
<path d="M155.127 10.0164C155.686 9.97124 156.207 9.71641 156.587 9.3026C156.967 8.8888 157.178 8.34639 157.178 7.78334C157.178 7.22028 156.967 6.67787 156.587 6.26407C156.207 5.85026 155.686 5.59538 155.127 5.5502C154.82 5.52537 154.512 5.56467 154.221 5.66563C153.93 5.76659 153.663 5.92702 153.436 6.13681C153.21 6.3466 153.03 6.60123 152.906 6.8846C152.783 7.16798 152.719 7.47398 152.719 7.78334C152.719 8.09269 152.783 8.39869 152.906 8.68207C153.03 8.96544 153.21 9.22003 153.436 9.42982C153.663 9.6396 153.93 9.80004 154.221 9.901C154.512 10.002 154.82 10.0413 155.127 10.0164Z" fill="white"/>
<path d="M116.968 32.5645C116.378 32.5682 115.813 32.8055 115.395 33.2248C114.978 33.6441 114.742 34.2118 114.738 34.8048C114.742 35.3978 114.978 35.9655 115.395 36.3848C115.813 36.8041 116.378 37.0414 116.968 37.0452C117.558 37.0414 118.123 36.8041 118.54 36.3848C118.957 35.9655 119.193 35.3978 119.197 34.8048C119.193 34.2118 118.957 33.6441 118.54 33.2248C118.123 32.8055 117.558 32.5682 116.968 32.5645Z" fill="white"/>
<path d="M112.479 37.0452C113.07 37.0452 113.637 36.8091 114.055 36.389C114.473 35.9688 114.708 35.399 114.708 34.8048C114.708 34.2106 114.473 33.6408 114.055 33.2206C113.637 32.8005 113.07 32.5645 112.479 32.5645C111.89 32.5683 111.327 32.806 110.912 33.2257C110.497 33.6455 110.264 34.2131 110.264 34.8048C110.264 35.3965 110.497 35.9641 110.912 36.3839C111.327 36.8036 111.89 37.0413 112.479 37.0452Z" fill="white"/>
<path d="M58.6992 37.0742H67.6602C68.8479 37.0704 69.9856 36.5936 70.8241 35.7483C71.6626 34.903 72.1335 33.7581 72.1335 32.5646V28.055H161.801V14.5407C161.21 14.5463 160.626 14.669 160.083 14.9018C159.54 15.1346 159.048 15.4729 158.635 15.8972C158.222 16.3215 157.896 16.8236 157.677 17.3746C157.458 17.9256 157.348 18.5147 157.356 19.1081V23.6177H148.395V19.1081C148.397 17.962 147.964 16.8584 147.183 16.0228C146.402 15.1873 145.334 14.683 144.195 14.6129H135.22C135.22 15.8065 135.691 16.9513 136.529 17.7966C137.368 18.6419 138.505 19.1187 139.693 19.1225H143.907V23.6321H130.459V5.53589C129.269 5.53589 128.127 6.01104 127.286 6.85675C126.444 7.70247 125.971 8.84951 125.971 10.0455V23.5598H117.01V14.5407C116.412 14.5348 115.819 14.6491 115.266 14.8768C114.713 15.1044 114.21 15.4408 113.788 15.8663C113.366 16.2918 113.033 16.7978 112.808 17.3545C112.583 17.9111 112.472 18.5074 112.479 19.1081V23.6177H103.518V5.53589C102.929 5.53589 102.345 5.65257 101.801 5.87919C101.257 6.10582 100.762 6.438 100.345 6.85675C99.9284 7.27551 99.5979 7.77265 99.3723 8.31978C99.1468 8.86691 99.0307 9.45332 99.0307 10.0455V23.5598H81.1232V19.1081H94.6006C94.6006 17.9121 94.1278 16.765 93.2862 15.9193C92.4446 15.0736 91.3031 14.5985 90.1129 14.5985H76.578V23.6177H67.617V32.6224H63.1437C62.5601 32.6224 61.9821 32.7379 61.4429 32.9624C60.9037 33.1868 60.4137 33.5158 60.001 33.9306C59.5883 34.3453 59.2609 34.8376 59.0375 35.3795C58.8142 35.9214 58.6992 36.5022 58.6992 37.0887V37.0742Z" fill="white"/>
<path d="M7.16249 45.761C5.74009 45.761 4.34963 46.1848 3.16695 46.9789C1.98427 47.773 1.06248 48.9017 0.51815 50.2223C-0.0261788 51.5428 -0.168603 52.9959 0.108894 54.3978C0.38639 55.7997 1.07134 57.0874 2.07713 58.0981C3.08292 59.1088 4.36437 59.7971 5.75944 60.076C7.15451 60.3548 8.60054 60.2117 9.91466 59.6647C11.2288 59.1177 12.352 58.1915 13.1422 57.003C13.9325 55.8145 14.3543 54.4173 14.3543 52.9879C14.3543 51.0712 13.5966 49.233 12.2478 47.8777C10.8991 46.5224 9.06987 45.761 7.16249 45.761ZM7.16249 59.2753C5.92598 59.2582 4.72209 58.8741 3.70221 58.1714C2.68232 57.4686 1.89197 56.4785 1.43052 55.3256C0.969073 54.1727 0.857124 52.9084 1.10876 51.6917C1.36039 50.475 1.96438 49.3603 2.84477 48.4876C3.72515 47.6149 4.84264 47.0233 6.05673 46.7871C7.27082 46.5509 8.52729 46.6806 9.66819 47.16C10.8091 47.6394 11.7835 48.4471 12.4688 49.4815C13.1542 50.5159 13.5199 51.7308 13.52 52.9734C13.5182 53.8078 13.3518 54.6336 13.0306 55.403C12.7094 56.1724 12.2397 56.8702 11.6485 57.4561C11.0574 58.0421 10.3566 58.5045 9.58666 58.8168C8.81667 59.129 7.99275 59.2849 7.16249 59.2753Z" fill="white"/>
<path d="M40.8502 45.8042C40.7319 45.8042 40.6185 45.8514 40.5349 45.9354C40.4513 46.0195 40.4043 46.1334 40.4043 46.2523V59.6943C40.4043 59.8132 40.4513 59.9271 40.5349 60.0112C40.6185 60.0952 40.7319 60.1424 40.8502 60.1424C40.9684 60.1424 41.0819 60.0952 41.1655 60.0112C41.2491 59.9271 41.2961 59.8132 41.2961 59.6943V46.2523C41.2961 46.1334 41.2491 46.0195 41.1655 45.9354C41.0819 45.8514 40.9684 45.8042 40.8502 45.8042Z" fill="white"/>
<path d="M27.2284 58.3791L23.0428 45.8042H17.8359V59.7233C17.8359 59.8421 17.8829 59.9561 17.9665 60.0401C18.0502 60.1241 18.1636 60.1713 18.2818 60.1713C18.4001 60.1713 18.5135 60.1241 18.5971 60.0401C18.6807 59.9561 18.7277 59.8421 18.7277 59.7233V46.7148H22.4387L26.912 60.1135H27.6311L32.162 46.7148H35.7579V59.7233C35.7769 59.8301 35.8327 59.9268 35.9155 59.9965C35.9983 60.0661 36.1029 60.1043 36.2109 60.1043C36.319 60.1043 36.4235 60.0661 36.5064 59.9965C36.5892 59.9268 36.645 59.8301 36.664 59.7233V45.8331H31.5147L27.2284 58.3791Z" fill="white"/>
<path d="M51.9965 45.7898H44.8047V60.2436H51.9965C53.9038 60.2436 55.7331 59.4823 57.0818 58.127C58.4306 56.7716 59.1882 54.9334 59.1882 53.0167C59.1882 51.1 58.4306 49.2618 57.0818 47.9065C55.7331 46.5512 53.9038 45.7898 51.9965 45.7898ZM51.9965 59.3042H45.7252V46.6859H51.9965C53.6096 46.7635 55.1312 47.4622 56.2455 48.6369C57.3599 49.8115 57.9815 51.3722 57.9815 52.9951C57.9815 54.618 57.3599 56.1786 56.2455 57.3533C55.1312 58.528 53.6096 59.2265 51.9965 59.3042Z" fill="white"/>
<path d="M85.7541 50.2705C84.9461 50.2713 84.1506 50.4722 83.4382 50.8554C82.7257 51.2386 82.1182 51.7922 81.6692 52.4674V50.7185C81.6811 50.6519 81.6782 50.5836 81.6609 50.5182C81.6436 50.4529 81.6123 50.3921 81.5691 50.3402C81.5259 50.2884 81.4719 50.2466 81.4109 50.218C81.3499 50.1894 81.2834 50.1746 81.2161 50.1746C81.1488 50.1746 81.0823 50.1894 81.0214 50.218C80.9604 50.2466 80.9064 50.2884 80.8632 50.3402C80.82 50.3921 80.7886 50.4529 80.7713 50.5182C80.754 50.5836 80.7512 50.6519 80.7631 50.7185V58.1334C80.7631 58.1334 80.7631 58.1334 80.7631 58.2345V59.6799C80.7611 59.74 80.7712 59.7998 80.7928 59.8558C80.8143 59.9119 80.8469 59.963 80.8885 60.0061C80.9301 60.0493 80.9799 60.0836 81.0349 60.107C81.09 60.1304 81.1492 60.1425 81.2089 60.1425C81.2675 60.1425 81.3255 60.1308 81.3796 60.1083C81.4337 60.0858 81.4828 60.0528 81.5242 60.0112C81.5656 59.9696 81.5985 59.9202 81.6209 59.8658C81.6433 59.8115 81.6548 59.7532 81.6548 59.6944V55.2571C81.6548 54.176 82.0822 53.1393 82.8428 52.3749C83.6035 51.6105 84.6352 51.1811 85.711 51.1811C86.7868 51.1811 87.8185 51.6105 88.5791 52.3749C89.3398 53.1393 89.7672 54.176 89.7672 55.2571V59.6655C89.7672 59.7243 89.7787 59.7825 89.8011 59.8369C89.8235 59.8913 89.8564 59.9407 89.8978 59.9823C89.9392 60.0239 89.9883 60.0569 90.0424 60.0794C90.0965 60.1019 90.1545 60.1135 90.2131 60.1135C90.2716 60.1135 90.3296 60.1019 90.3837 60.0794C90.4378 60.0569 90.4869 60.0239 90.5283 59.9823C90.5697 59.9407 90.6026 59.8913 90.625 59.8369C90.6474 59.7825 90.6589 59.7243 90.6589 59.6655V55.2571C90.6337 53.9524 90.1106 52.7073 89.1978 51.7792C88.2849 50.8511 87.0521 50.311 85.7541 50.2705Z" fill="white"/>
<path d="M108.194 45.7754C108.076 45.7754 107.962 45.8226 107.879 45.9066C107.795 45.9906 107.748 46.1046 107.748 46.2235V59.7233C107.748 59.7822 107.76 59.8404 107.782 59.8948C107.804 59.9492 107.837 59.9986 107.879 60.0402C107.92 60.0818 107.969 60.1148 108.023 60.1373C108.077 60.1598 108.135 60.1714 108.194 60.1714C108.253 60.1714 108.31 60.1598 108.365 60.1373C108.419 60.1148 108.468 60.0818 108.509 60.0402C108.551 59.9986 108.583 59.9492 108.606 59.8948C108.628 59.8404 108.64 59.7822 108.64 59.7233V46.2235C108.64 46.1046 108.593 45.9906 108.509 45.9066C108.426 45.8226 108.312 45.7754 108.194 45.7754Z" fill="white"/>
<path d="M121.613 50.1549C121.495 50.1549 121.381 50.2021 121.298 50.2861C121.214 50.3701 121.167 50.4841 121.167 50.6029V59.492H117.14C116.584 59.5025 116.032 59.395 115.52 59.1767C115.008 58.9583 114.548 58.634 114.169 58.2248C113.79 57.8156 113.502 57.3308 113.322 56.802C113.143 56.2732 113.076 55.7123 113.127 55.1559V50.4873C113.107 50.3804 113.052 50.2837 112.969 50.214C112.886 50.1444 112.781 50.1062 112.673 50.1062C112.565 50.1062 112.461 50.1444 112.378 50.214C112.295 50.2837 112.239 50.3804 112.22 50.4873V55.2426C112.181 55.9094 112.278 56.5773 112.504 57.2053C112.731 57.8334 113.082 58.4085 113.537 58.8954C113.992 59.3824 114.541 59.7711 115.151 60.0377C115.76 60.3043 116.417 60.4432 117.082 60.446H121.095C121.003 61.3098 120.597 62.109 119.954 62.6905C119.312 63.272 118.479 63.5947 117.614 63.5969H112.594C112.476 63.5969 112.363 63.6441 112.279 63.7281C112.195 63.8122 112.148 63.9261 112.148 64.045C112.148 64.1638 112.195 64.2778 112.279 64.3618C112.363 64.4459 112.476 64.493 112.594 64.493H117.614C118.708 64.4784 119.757 64.0538 120.555 63.3025C121.353 62.5511 121.843 61.5272 121.929 60.4315V50.6463C121.944 50.5398 121.92 50.4316 121.862 50.3414C121.804 50.2512 121.715 50.185 121.613 50.1549Z" fill="white"/>
<path d="M135.062 59.4777H127.151L135.58 50.9933V50.2561H126.173C126.055 50.2561 125.941 50.3033 125.858 50.3874C125.774 50.4714 125.727 50.5853 125.727 50.7042C125.727 50.823 125.774 50.937 125.858 51.021C125.941 51.105 126.055 51.1523 126.173 51.1523H134.156L125.713 59.5789V60.4027H135.048C135.166 60.4027 135.279 60.3555 135.363 60.2715C135.447 60.1875 135.494 60.0735 135.494 59.9547C135.494 59.8358 135.447 59.7219 135.363 59.6378C135.279 59.5538 135.166 59.5066 135.048 59.5066L135.062 59.4777Z" fill="white"/>
<path d="M148.985 52.9011C148.982 52.2021 148.703 51.5331 148.209 51.0401C147.716 50.5472 147.049 50.2705 146.353 50.2705H139.334V55.1126C139.334 55.1126 139.334 55.1126 139.334 55.2137C139.334 55.3149 139.334 55.2137 139.334 55.3149V60.3882H148.496C148.615 60.3882 148.728 60.341 148.812 60.257C148.895 60.1729 148.942 60.059 148.942 59.9401C148.942 59.8213 148.895 59.7073 148.812 59.6233C148.728 59.5393 148.615 59.4921 148.496 59.4921H140.226V55.6618H146.209C146.573 55.6676 146.934 55.6003 147.272 55.464C147.609 55.3276 147.916 55.125 148.175 54.8679C148.433 54.6108 148.638 54.3044 148.777 53.9666C148.917 53.6289 148.987 53.2667 148.985 52.9011ZM140.24 54.7657V51.1666H146.368C146.827 51.1666 147.267 51.3489 147.593 51.6738C147.919 51.9986 148.104 52.4398 148.108 52.9011C148.108 53.3956 147.912 53.8699 147.564 54.2196C147.217 54.5692 146.745 54.7657 146.252 54.7657H140.24Z" fill="white"/>
<path d="M161.672 50.2705H157.472C156.734 50.3004 156.014 50.5044 155.369 50.866C154.725 51.2276 154.174 51.7366 153.761 52.3519V50.6607C153.742 50.5539 153.686 50.4572 153.603 50.3875C153.521 50.3179 153.416 50.2797 153.308 50.2797C153.2 50.2797 153.095 50.3179 153.013 50.3875C152.93 50.4572 152.874 50.5539 152.855 50.6607V55.4305C152.848 55.4688 152.848 55.5079 152.855 55.5462V59.969C152.855 60.0879 152.902 60.2018 152.985 60.2859C153.069 60.3699 153.183 60.4171 153.301 60.4171C153.419 60.4171 153.532 60.3699 153.616 60.2859C153.7 60.2018 153.747 60.0879 153.747 59.969V55.2426C153.719 54.2076 154.094 53.2026 154.793 52.4413C155.491 51.6801 156.458 51.2227 157.486 51.1666H161.672C161.79 51.1666 161.904 51.1194 161.987 51.0354C162.071 50.9514 162.118 50.8374 162.118 50.7186C162.118 50.5997 162.071 50.4858 161.987 50.4017C161.904 50.3177 161.79 50.2705 161.672 50.2705Z" fill="white"/>
<path d="M71.1417 45.761H67.3301V59.6801C67.3301 59.7989 67.377 59.9129 67.4607 59.9969C67.5443 60.0809 67.6577 60.1281 67.776 60.1281C67.8942 60.1281 68.0076 60.0809 68.0913 59.9969C68.1749 59.9129 68.2219 59.7989 68.2219 59.6801V55.6763H76.291V59.6801C76.291 59.7989 76.338 59.9129 76.4216 59.9969C76.5053 60.0809 76.6187 60.1281 76.7369 60.1281C76.8552 60.1281 76.9686 60.0809 77.0522 59.9969C77.1358 59.9129 77.1828 59.7989 77.1828 59.6801V51.8316C77.179 50.2228 76.5413 48.6809 75.4092 47.5432C74.2771 46.4056 72.7427 45.7648 71.1417 45.761ZM76.291 54.7658H68.1787V46.6571H71.0554C72.4199 46.6609 73.7275 47.2073 74.6923 48.1769C75.6572 49.1465 76.2009 50.4604 76.2047 51.8316L76.291 54.7658Z" fill="white"/>
<path d="M104.136 50.762V50.2561H94.2402V60.2004H94.7005C96.4934 60.1964 98.2482 59.6808 99.7608 58.7135C101.273 57.7463 102.481 56.3672 103.244 54.7368V59.7523C103.244 59.8711 103.291 59.9851 103.375 60.0691C103.459 60.1532 103.572 60.2004 103.69 60.2004C103.749 60.2024 103.808 60.1922 103.863 60.1704C103.918 60.1486 103.968 60.1156 104.01 60.0736C104.052 60.0316 104.085 59.9814 104.106 59.9261C104.128 59.8709 104.138 59.8117 104.136 59.7523V50.762ZM95.1464 59.2898V51.1667H103.23C103.101 53.2739 102.212 55.2615 100.729 56.757C99.2464 58.2524 97.2716 59.153 95.1752 59.2898H95.1464Z" fill="white"/>
</g>
<defs>
<clipPath id="clip0_831_702">
<rect width="273" height="70" fill="white"/>
</clipPath>
</defs>
</svg>
