<svg width="400" height="400" viewBox="0 0 400 400" fill="none" xmlns="http://www.w3.org/2000/svg">
<g clip-path="url(#clip0_831_727)">
<path d="M178.196 288.142C239.67 288.142 289.504 238.308 289.504 176.833C289.504 115.359 239.67 65.5247 178.196 65.5247C116.721 65.5247 66.8867 115.359 66.8867 176.833C66.8867 238.308 116.721 288.142 178.196 288.142Z" fill="#1C1C3A"/>
<path d="M311.289 287.594C323.342 287.594 333.112 277.823 333.112 265.771C333.112 253.719 323.342 243.948 311.289 243.948C299.237 243.948 289.467 253.719 289.467 265.771C289.467 277.823 299.237 287.594 311.289 287.594Z" fill="#1C1C3A"/>
<path d="M178.195 288.086C239.638 288.086 289.447 238.276 289.447 176.834C289.447 115.391 239.638 65.5815 178.195 65.5815C116.753 65.5815 66.9434 115.391 66.9434 176.834C66.9434 238.276 116.753 288.086 178.195 288.086Z" stroke="#7D7DA7" stroke-width="0.5" stroke-miterlimit="10" stroke-linecap="round"/>
<path d="M311.536 288.086C323.724 288.086 333.604 278.205 333.604 266.017C333.604 253.829 323.724 243.948 311.536 243.948C299.347 243.948 289.467 253.829 289.467 266.017C289.467 278.205 299.347 288.086 311.536 288.086Z" stroke="#7D7DA7" stroke-width="0.5" stroke-miterlimit="10" stroke-linecap="round"/>
<path d="M289.449 0.246094V399.773" stroke="#7D7DA7" stroke-width="0.25" stroke-miterlimit="10" stroke-linecap="round"/>
<path d="M333.605 0.246094V399.773" stroke="#7D7DA7" stroke-width="0.25" stroke-miterlimit="10" stroke-linecap="round"/>
<path d="M66.3945 0.246094V399.773" stroke="#7D7DA7" stroke-width="0.25" stroke-miterlimit="10" stroke-linecap="round"/>
<path d="M399.773 65.5247H0.246094" stroke="#7D7DA7" stroke-width="0.25" stroke-miterlimit="10" stroke-linecap="round"/>
<path d="M399.773 243.948H0.246094" stroke="#7D7DA7" stroke-width="0.25" stroke-miterlimit="10" stroke-linecap="round"/>
<path d="M399.773 288.142H0.246094" stroke="#7D7DA7" stroke-width="0.25" stroke-miterlimit="10" stroke-linecap="round"/>
</g>
<defs>
<clipPath id="clip0_831_727">
<rect width="400" height="400" fill="white"/>
</clipPath>
</defs>
</svg>
