<svg width="872" height="190" viewBox="0 0 872 190" fill="none" xmlns="http://www.w3.org/2000/svg">
<g clip-path="url(#clip0_831_825)">
<path d="M168.745 35.6981V154.301C168.752 157.628 168.102 160.922 166.831 163.995C165.56 167.068 163.695 169.857 161.342 172.202C159.005 174.557 156.227 176.425 153.167 177.7C150.107 178.974 146.827 179.628 143.514 179.626H25.2316C21.9186 179.628 18.6378 178.974 15.578 177.7C12.5183 176.425 9.73999 174.557 7.40297 172.202C5.05037 169.857 3.18472 167.068 1.91403 163.995C0.643338 160.922 -0.00718499 157.628 5.98539e-05 154.301V35.6981C-0.00491943 32.372 0.646668 29.0778 1.91723 26.0055C3.18779 22.9332 5.05221 20.1435 7.40297 17.7973C9.74101 15.445 12.52 13.5798 15.5798 12.3092C18.6396 11.0385 21.9198 10.3875 25.2316 10.3936H143.514C146.825 10.3875 150.106 11.0385 153.165 12.3092C156.225 13.5798 159.004 15.445 161.342 17.7973C163.693 20.1435 165.557 22.9332 166.828 26.0055C168.098 29.0778 168.75 32.372 168.745 35.6981Z" fill="#EDECEC"/>
<path d="M777.263 190.021C764.82 190.023 752.499 187.568 741.003 182.794C729.506 178.021 719.06 171.023 710.261 162.2C701.462 153.377 694.481 142.902 689.719 131.374C684.957 119.845 682.506 107.489 682.506 95.0103C682.506 69.812 692.487 45.6458 710.254 27.8279C728.02 10.01 752.117 0 777.242 0C802.368 0 826.465 10.01 844.231 27.8279C861.998 45.6458 871.979 69.812 871.979 95.0103C871.979 120.209 861.998 144.375 844.231 162.193C826.465 180.011 802.368 190.021 777.242 190.021" fill="#EDECEC"/>
<path d="M23.627 95.0101C23.6273 107.915 28.5095 120.339 37.2877 129.774C46.066 139.209 58.0867 144.953 70.9233 145.846H77.9355C90.772 144.953 102.793 139.209 111.571 129.774C120.349 120.339 125.231 107.915 125.232 95.0101C125.232 81.5003 119.88 68.5438 110.355 58.991C100.83 49.4381 87.9105 44.0713 74.4396 44.0713C60.9687 44.0713 48.0496 49.4381 38.5242 58.991C28.9988 68.5438 23.6475 81.5003 23.6475 95.0101" fill="url(#paint0_linear_831_825)"/>
<path d="M716.518 95.0101C716.518 107.915 721.4 120.339 730.178 129.774C738.957 139.209 750.977 144.953 763.814 145.846H770.764C783.601 144.953 795.622 139.209 804.4 129.774C813.178 120.339 818.06 107.915 818.061 95.0101C818.061 88.3208 816.747 81.6969 814.194 75.5167C811.642 69.3365 807.901 63.7211 803.184 58.991C798.468 54.2608 792.868 50.5087 786.706 47.9487C780.544 45.3888 773.939 44.0713 767.269 44.0713C753.798 44.0713 740.879 49.4381 731.353 58.991C721.828 68.5438 716.477 81.5003 716.477 95.0101" fill="url(#paint1_linear_831_825)"/>
<path d="M135.246 145.846C140.788 145.846 145.281 141.34 145.281 135.782C145.281 130.224 140.788 125.718 135.246 125.718C129.704 125.718 125.211 130.224 125.211 135.782C125.211 141.34 129.704 145.846 135.246 145.846Z" fill="url(#paint2_linear_831_825)"/>
<path d="M828.139 145.784C833.681 145.784 838.174 141.279 838.174 135.72C838.174 130.162 833.681 125.656 828.139 125.656C822.596 125.656 818.104 130.162 818.104 135.72C818.104 141.279 822.596 145.784 828.139 145.784Z" fill="url(#paint3_linear_831_825)"/>
</g>
<defs>
<linearGradient id="paint0_linear_831_825" x1="43.2241" y1="125.739" x2="110.266" y2="60.0826" gradientUnits="userSpaceOnUse">
<stop stop-color="#4D4394"/>
<stop offset="0.24" stop-color="#7F3F8D"/>
<stop offset="0.47" stop-color="#A83C88"/>
<stop offset="0.69" stop-color="#C63A84"/>
<stop offset="0.87" stop-color="#D83882"/>
<stop offset="1" stop-color="#DE3881"/>
</linearGradient>
<linearGradient id="paint1_linear_831_825" x1="732.701" y1="130.729" x2="802.392" y2="59.2241" gradientUnits="userSpaceOnUse">
<stop stop-color="#4D4394"/>
<stop offset="1" stop-color="#DE3881"/>
</linearGradient>
<linearGradient id="paint2_linear_831_825" x1="129.077" y1="142.835" x2="141.043" y2="129.237" gradientUnits="userSpaceOnUse">
<stop stop-color="#4D4394"/>
<stop offset="1" stop-color="#DE3881"/>
</linearGradient>
<linearGradient id="paint3_linear_831_825" x1="821.969" y1="142.753" x2="833.935" y2="129.176" gradientUnits="userSpaceOnUse">
<stop stop-color="#4D4394"/>
<stop offset="1" stop-color="#DE3881"/>
</linearGradient>
<clipPath id="clip0_831_825">
<rect width="872" height="190" fill="white"/>
</clipPath>
</defs>
</svg>
