<svg width="300" height="43" viewBox="0 0 300 43" fill="none" xmlns="http://www.w3.org/2000/svg">
<g clip-path="url(#clip0_831_369)">
<path d="M96.0499 13.02C99.6073 10.0203 103.051 8.25301 107.369 8.36651C111.686 8.48 114.888 10.6851 117.41 14.3657C119.38 11.6239 122.238 9.65255 125.495 8.78804C131.802 7.06934 139.725 10.1663 140.566 17.5113C140.695 18.5652 140.824 19.6191 140.905 20.7541C140.905 21.4189 140.905 22.0999 140.905 22.7647C140.905 29.3639 140.905 35.9468 140.905 42.6919H132.109V39.0599C132.109 34.5362 132.109 29.9962 132.109 25.4724C132.122 24.2431 132.063 23.0141 131.931 21.7918C131.51 18.3544 130.039 16.5384 127.419 16.1007C125.928 15.7673 124.368 15.9594 123.001 16.6446C121.635 17.3297 120.545 18.4661 119.917 19.8624C119.117 21.9951 118.685 24.2485 118.639 26.5264C118.445 31.2609 118.639 36.0279 118.639 40.7786V42.5946H109.859C109.859 38.1681 109.859 33.7579 109.859 29.3477C109.859 27.0615 109.859 24.7752 109.633 22.489C109.325 18.5976 107.482 16.3763 104.474 16.0034C102.764 15.7883 101.034 16.2137 99.6169 17.1981C98.1996 18.1824 97.1944 19.6565 96.7937 21.3378C96.3411 23.2393 96.1131 25.1876 96.1146 27.1425C96.0175 32.2338 96.1146 37.3088 96.1146 42.546H87.3828V8.4962H96.0822L96.0499 13.02Z" fill="white"/>
<path d="M0 0.0486406H8.42453V10.9122L21.3604 0C28.3674 5.88034 35.3312 11.7499 42.2519 17.6086C42.603 17.9379 42.8119 18.3917 42.8341 18.8733C42.8341 26.7858 42.8341 34.7145 42.8341 42.7405H34.2317V41.1191C34.2317 35.201 34.2317 29.2666 34.2317 23.2835C34.1983 22.4325 33.8324 21.6288 33.213 21.046C29.6556 17.9005 25.985 14.9008 22.3791 11.8039C21.6515 11.1716 21.1987 11.0905 20.4226 11.8039C16.7844 14.9333 13.0491 17.9653 9.44322 21.1433C8.85467 21.7598 8.51974 22.5762 8.50537 23.4295C8.50537 29.299 8.50537 35.1523 8.50537 41.0219V42.6433H0V0.0486406Z" fill="white"/>
<path d="M154.098 25.2455C154.039 26.5182 154.238 27.7896 154.682 28.9835C155.125 30.1773 155.805 31.269 156.68 32.1927C157.555 33.1165 158.607 33.8533 159.774 34.359C160.94 34.8646 162.196 35.1286 163.467 35.1352C164.737 35.1418 165.996 34.8907 167.167 34.3971C168.339 33.9035 169.398 33.1776 170.283 32.2629C171.167 31.3483 171.858 30.2638 172.314 29.0746C172.77 27.8854 172.982 26.616 172.936 25.3428C172.995 24.0701 172.796 22.7986 172.353 21.6047C171.909 20.4109 171.229 19.3193 170.354 18.3955C169.479 17.4718 168.427 16.7349 167.261 16.2293C166.094 15.7236 164.838 15.4596 163.568 15.453C162.297 15.4464 161.038 15.6975 159.867 16.1911C158.696 16.6847 157.636 17.4106 156.751 18.3253C155.867 19.2399 155.176 20.3245 154.72 21.5137C154.264 22.7029 154.053 23.9722 154.098 25.2455ZM181.118 42.5622H172.532V38.3141C170.732 40.125 168.503 41.4482 166.054 42.16C163.605 42.8717 161.016 42.9487 158.529 42.3838C154.439 41.4684 150.859 39.0057 148.536 35.509C146.388 32.2081 145.344 28.3067 145.556 24.3709C145.769 20.4351 147.226 16.6694 149.716 13.6199C151.087 11.9913 152.778 10.6639 154.684 9.72088C156.59 8.77787 158.67 8.23951 160.793 8.1395C162.942 8.04175 165.088 8.38699 167.099 9.15392C169.11 9.92085 170.942 11.0932 172.483 12.5984V8.4638H181.118V42.5136V42.5622Z" fill="white"/>
<path d="M239.557 35.1847H238.684C236.146 35.1847 233.711 34.1735 231.915 32.3733C230.12 30.5732 229.112 28.1317 229.112 25.586C229.112 23.0402 230.12 20.5987 231.915 18.7986C233.711 16.9985 236.146 15.9872 238.684 15.9872H239.493C240.915 16.0406 242.305 16.4296 243.55 17.1226C244.795 17.8156 245.859 18.7932 246.656 19.9759C247.681 21.5995 248.215 23.4862 248.192 25.4076C248.202 27.3794 247.641 29.3117 246.575 30.9691C245.8 32.1599 244.759 33.1543 243.536 33.8745C242.313 34.5946 240.94 35.0209 239.525 35.1199M254.078 16.2466L253.884 15.971C252.994 14.7261 251.95 13.5985 250.779 12.6146C249.522 11.55 248.13 10.6559 246.64 9.95548C243.279 8.33417 239.503 7.78967 235.823 8.39597C232.143 9.00226 228.738 10.73 226.072 13.3443C224.063 15.1092 222.531 17.3542 221.618 19.8712C220.705 22.3882 220.44 25.0957 220.849 27.7424C221.542 31.9758 223.709 35.8256 226.966 38.6074C230.223 41.3892 234.358 42.9227 238.636 42.9352C240.592 42.5622 242.597 42.3352 244.489 41.7839C245.171 41.5933 245.841 41.3604 246.494 41.0867C249.494 39.9154 252.054 37.8353 253.819 35.1361L254.062 34.747C255.142 32.9444 255.907 30.9704 256.326 28.9099C256.856 26.7589 256.93 24.5203 256.543 22.3389C256.156 20.1575 255.316 18.082 254.078 16.2466Z" fill="white"/>
<path opacity="0.7" d="M272.074 28.9748C271.627 31.1845 270.784 33.2943 269.584 35.201C269.205 35.7643 268.795 36.3056 268.355 36.8224C266.566 38.8542 264.298 40.4039 261.757 41.3299C261.265 41.5241 260.763 41.6919 260.254 41.8326C258.346 42.3839 256.341 42.6109 254.384 42.9838C251.661 42.95 248.979 42.3191 246.525 41.1354C249.525 39.964 252.085 37.8839 253.85 35.1848H254.4C255.828 35.2072 257.242 34.9018 258.534 34.292C259.826 33.6821 260.962 32.784 261.854 31.6663C263.215 29.88 263.938 27.6875 263.908 25.4401C263.952 23.2508 263.25 21.1118 261.919 19.3759C261.008 18.2723 259.856 17.3929 258.552 16.8054C257.249 16.2179 255.828 15.938 254.4 15.9872H253.915C253.025 14.7423 251.982 13.6147 250.81 12.6309C249.553 11.5662 248.161 10.6722 246.671 9.97173C249.044 8.83521 251.633 8.2265 254.262 8.18732C256.891 8.14814 259.498 8.67944 261.903 9.74476C263.572 10.484 265.129 11.4556 266.528 12.6309C267.166 13.1773 267.771 13.7621 268.339 14.382C268.802 14.8956 269.234 15.437 269.632 16.0034C270.949 17.8604 271.85 19.9815 272.271 22.2207C272.693 24.4599 272.625 26.7641 272.074 28.9748Z" fill="white"/>
<g opacity="0.5">
<mask id="mask0_831_369" style="mask-type:luminance" maskUnits="userSpaceOnUse" x="254" y="2" width="41" height="42">
<path d="M294.341 2.74023H254.725V43.7783H294.341V2.74023Z" fill="white"/>
</mask>
<g mask="url(#mask0_831_369)">
<path opacity="0.5" d="M286.87 28.9748C286.45 31.0529 285.679 33.0436 284.59 34.8606C282.487 38.2177 279.213 40.6688 275.405 41.7354L275.049 41.8489C273.141 42.4002 271.136 42.6271 269.18 43.0001C266.622 42.9715 264.096 42.4197 261.758 41.3787C264.298 40.4527 266.566 38.9029 268.355 36.8711C268.795 36.3543 269.205 35.813 269.584 35.2497C271.807 35.1927 273.938 34.3483 275.599 32.8662C276.605 31.9315 277.402 30.7935 277.937 29.5275C278.472 28.2614 278.733 26.896 278.704 25.5212C278.756 24.2966 278.56 23.0741 278.128 21.9278C277.695 20.7815 277.034 19.7354 276.186 18.8529C275.337 17.9704 274.319 17.27 273.193 16.7941C272.066 16.3182 270.855 16.0768 269.633 16.0845C269.235 15.5182 268.803 14.9767 268.339 14.4631C267.771 13.8432 267.166 13.2584 266.528 12.712C265.129 11.5367 263.573 10.5651 261.903 9.82588C266.262 7.90024 271.196 7.74906 275.664 9.40429C277.724 10.1479 279.639 11.2452 281.323 12.6471C282.596 13.7112 283.712 14.9504 284.638 16.3278C285.867 18.1579 286.701 20.2257 287.085 22.3982C287.47 24.5708 287.396 26.8 286.87 28.9424" fill="white"/>
</g>
</g>
<g opacity="0.3">
<mask id="mask1_831_369" style="mask-type:luminance" maskUnits="userSpaceOnUse" x="268" y="2" width="40" height="42">
<path d="M307.049 2.74023H268.371V43.7783H307.049V2.74023Z" fill="white"/>
</mask>
<g mask="url(#mask1_831_369)">
<path opacity="0.3" d="M294.032 12.6796C291.531 10.556 288.512 9.13663 285.285 8.56685C282.057 7.99707 278.737 8.29728 275.663 9.43679C277.723 10.1804 279.638 11.2777 281.322 12.6796C282.596 13.7478 283.716 14.9862 284.653 16.3602C286.654 16.8661 288.42 18.0491 289.651 19.7094C290.883 21.3697 291.505 23.4055 291.412 25.4726C291.485 27.577 290.852 29.6452 289.616 31.3469C288.379 33.0485 286.609 34.2856 284.589 34.8606C282.486 38.2178 279.212 40.6688 275.404 41.7354C277.468 42.5384 279.659 42.9666 281.872 43.0001C283.829 42.6272 285.834 42.4002 287.726 41.8489C290.655 40.9939 293.299 39.3611 295.379 37.1232C297.459 34.8852 298.897 32.1253 299.542 29.1352C300.186 26.1451 300.013 23.0359 299.04 20.1365C298.068 17.237 296.332 14.655 294.016 12.6634" fill="white"/>
</g>
</g>
<path d="M216.53 42.6596H207.863C207.863 41.6057 207.863 40.6815 207.863 39.7411C207.863 33.8716 207.766 28.002 207.556 22.1487C207.427 18.8086 205.939 16.9277 203.465 16.2954C202.059 15.8689 200.55 15.9351 199.186 16.4833C197.822 17.0314 196.685 18.0288 195.962 19.3112C195.022 21.07 194.471 23.011 194.345 25.0024C194.086 30.2395 194.2 35.493 194.151 40.7464V42.6596H185.436V8.48016H194.103V12.6148C194.927 12.0959 195.461 11.7716 195.962 11.4149C198.806 9.29924 202.287 8.22353 205.826 8.36664C208.001 8.52231 210.086 9.29575 211.839 10.5965C213.591 11.8972 214.938 13.6715 215.722 15.7117C216.229 17.4125 216.507 19.1739 216.546 20.9488C216.643 28.1479 216.546 35.3632 216.546 42.6596" fill="white"/>
<path d="M74.4614 25.6508C74.5397 24.4048 74.3599 23.156 73.9334 21.9831C73.5069 20.8101 72.843 19.7384 71.9834 18.8352C71.1237 17.9321 70.087 17.2172 68.9383 16.7354C67.7897 16.2536 66.5541 16.0154 65.3092 16.0358C64.0529 15.9622 62.7949 16.1488 61.6136 16.584C60.4323 17.0191 59.353 17.6934 58.4428 18.565C57.5327 19.4365 56.8113 20.4866 56.3234 21.6499C55.8356 22.8132 55.5918 24.0647 55.6073 25.3265C55.5861 26.5679 55.8089 27.8013 56.263 28.9563C56.7171 30.1113 57.3937 31.1654 58.2541 32.0582C59.1144 32.951 60.1417 33.6652 61.2774 34.1599C62.413 34.6546 63.6347 34.9202 64.8726 34.9415C66.1106 34.9628 67.3407 34.7394 68.4925 34.284C69.6444 33.8286 70.6955 33.1502 71.5859 32.2875C72.4763 31.4248 73.1885 30.3946 73.6819 29.2559C74.1753 28.1172 74.4402 26.8922 74.4614 25.6508ZM64.8726 42.9999C60.7109 42.9718 56.6862 41.5046 53.4782 38.846C50.2701 36.1874 48.0751 32.5004 47.2636 28.4072C46.7291 25.64 46.9336 22.7802 47.8565 20.1179C48.7794 17.4555 50.3879 15.0851 52.5188 13.2469C54.5315 11.2332 57.0087 9.74898 59.7308 8.92588C62.4529 8.10278 65.3355 7.96635 68.1228 8.52864C71.2608 9.01139 74.2128 10.3275 76.6724 12.3405C79.1319 14.3534 81.0093 16.9897 82.1097 19.9758C85.6671 29.1044 79.5226 39.4329 70.7908 41.865C68.8828 42.4001 66.8939 42.627 64.9373 42.9999" fill="white"/>
<path d="M25.4356 25.8455H17.2051V42.7082H25.4356V25.8455Z" fill="white"/>
</g>
<defs>
<clipPath id="clip0_831_369">
<rect width="300" height="43" fill="white"/>
</clipPath>
</defs>
</svg>
