<svg width="400" height="400" viewBox="0 0 400 400" fill="none" xmlns="http://www.w3.org/2000/svg">
<g clip-path="url(#clip0_831_390)">
<path d="M110.779 86.2456H145.697V130.985L199.302 85.9875C228.329 110.278 257.189 134.386 285.943 158.631C287.375 159.98 288.234 161.828 288.341 163.792C288.478 196.478 288.432 229.163 288.432 262.213H252.756V255.534C252.756 231.122 252.908 206.695 252.574 182.283C252.385 178.779 250.877 175.476 248.353 173.038C233.582 160.103 218.34 147.7 203.432 134.917C200.395 132.336 198.482 131.987 195.264 134.75C180.174 147.67 164.704 160.164 149.72 173.22C147.294 175.77 145.922 179.143 145.879 182.663C145.56 206.847 145.697 231.046 145.697 255.23V262.274H110.779V86.2456Z" fill="#D0AE29"/>
<path d="M216.29 192.516H182.162V262.062H216.29V192.516Z" fill="#D0AE29"/>
<path d="M110.779 399.985C110.754 399.987 110.729 399.984 110.705 399.976C110.681 399.967 110.659 399.954 110.641 399.937C110.622 399.92 110.607 399.899 110.597 399.876C110.587 399.853 110.582 399.828 110.582 399.803V0.18217C110.586 0.132502 110.608 0.0861197 110.645 0.0523306C110.682 0.0185415 110.73 -0.000146718 110.779 8.67517e-07C110.828 8.67516e-07 110.874 0.0191851 110.908 0.0533499C110.942 0.0875147 110.962 0.133854 110.962 0.18217V399.803C110.962 399.851 110.942 399.897 110.908 399.931C110.874 399.966 110.828 399.985 110.779 399.985Z" fill="white"/>
<path d="M145.529 399.985C145.504 399.987 145.479 399.984 145.455 399.976C145.431 399.967 145.409 399.954 145.391 399.937C145.372 399.92 145.357 399.899 145.347 399.876C145.337 399.853 145.332 399.828 145.332 399.803V0.18217C145.336 0.132502 145.358 0.0861197 145.395 0.0523306C145.432 0.0185415 145.48 -0.000146718 145.529 8.67517e-07C145.578 8.67516e-07 145.624 0.0191851 145.658 0.0533499C145.692 0.0875147 145.712 0.133854 145.712 0.18217V399.803C145.712 399.851 145.692 399.897 145.658 399.931C145.624 399.966 145.578 399.985 145.529 399.985Z" fill="white"/>
<path d="M182.131 399.985C182.083 399.985 182.037 399.966 182.003 399.931C181.968 399.897 181.949 399.851 181.949 399.803V0.18217C181.949 0.133854 181.968 0.0875147 182.003 0.0533499C182.037 0.0191851 182.083 8.67517e-07 182.131 8.67517e-07C182.181 -0.000146718 182.229 0.0185415 182.266 0.0523306C182.302 0.0861197 182.325 0.132502 182.329 0.18217V399.803C182.329 399.828 182.324 399.853 182.314 399.876C182.303 399.899 182.289 399.92 182.27 399.937C182.252 399.954 182.23 399.967 182.206 399.976C182.182 399.984 182.157 399.987 182.131 399.985Z" fill="white"/>
<path d="M199.225 399.985C199.177 399.985 199.131 399.966 199.096 399.931C199.062 399.897 199.043 399.851 199.043 399.803V0.18217C199.043 0.133854 199.062 0.0875147 199.096 0.0533499C199.131 0.0191851 199.177 8.67517e-07 199.225 8.67517e-07C199.275 -0.000146718 199.323 0.0185415 199.36 0.0523306C199.396 0.0861197 199.419 0.132502 199.423 0.18217V399.803C199.423 399.828 199.417 399.853 199.407 399.876C199.397 399.899 199.382 399.92 199.364 399.937C199.345 399.954 199.323 399.967 199.3 399.976C199.276 399.984 199.25 399.987 199.225 399.985Z" fill="white"/>
<path d="M216.29 399.985C216.241 399.985 216.195 399.966 216.161 399.931C216.127 399.897 216.107 399.851 216.107 399.803V0.18217C216.107 0.133854 216.127 0.0875147 216.161 0.0533499C216.195 0.0191851 216.241 8.67517e-07 216.29 8.67517e-07C216.339 -0.000146718 216.387 0.0185415 216.424 0.0523306C216.461 0.0861197 216.483 0.132502 216.487 0.18217V399.803C216.487 399.828 216.482 399.853 216.472 399.876C216.462 399.899 216.447 399.92 216.428 399.937C216.41 399.954 216.388 399.967 216.364 399.976C216.34 399.984 216.315 399.987 216.29 399.985Z" fill="white"/>
<path d="M252.512 399.985C252.464 399.985 252.418 399.966 252.383 399.931C252.349 399.897 252.33 399.851 252.33 399.803V0.18217C252.33 0.133854 252.349 0.0875147 252.383 0.0533499C252.418 0.0191851 252.464 8.67517e-07 252.512 8.67517e-07C252.562 -0.000146718 252.61 0.0185415 252.647 0.0523306C252.683 0.0861197 252.706 0.132502 252.71 0.18217V399.803C252.71 399.828 252.705 399.853 252.694 399.876C252.684 399.899 252.67 399.92 252.651 399.937C252.632 399.954 252.611 399.967 252.587 399.976C252.563 399.984 252.537 399.987 252.512 399.985Z" fill="white"/>
<path d="M288.477 399.985C288.451 399.987 288.426 399.984 288.402 399.976C288.378 399.967 288.357 399.954 288.338 399.937C288.319 399.92 288.305 399.899 288.294 399.876C288.284 399.853 288.279 399.828 288.279 399.803V0.18217C288.283 0.132502 288.306 0.0861197 288.342 0.0523306C288.379 0.0185415 288.427 -0.000146718 288.477 8.67517e-07C288.525 8.67516e-07 288.571 0.0191851 288.605 0.0533499C288.64 0.0875147 288.659 0.133854 288.659 0.18217V399.803C288.659 399.851 288.64 399.897 288.605 399.931C288.571 399.966 288.525 399.985 288.477 399.985Z" fill="white"/>
<path d="M399.818 262.456H0.197941C0.169747 262.463 0.140425 262.463 0.112045 262.458C0.0836658 262.452 0.0569352 262.44 0.0337476 262.422C0.01056 262.405 -0.00852451 262.383 -0.0221264 262.357C-0.0357283 262.331 -0.043482 262.303 -0.0449208 262.274C-0.0450086 262.249 -0.0398141 262.224 -0.0297245 262.201C-0.0196349 262.178 -0.0048258 262.157 0.013733 262.14C0.0322918 262.122 0.0541531 262.109 0.0780391 262.101C0.101925 262.093 0.127276 262.09 0.152445 262.092H399.773C399.821 262.092 399.867 262.111 399.902 262.145C399.936 262.179 399.955 262.226 399.955 262.274C399.954 262.315 399.94 262.354 399.916 262.387C399.891 262.419 399.857 262.444 399.818 262.456Z" fill="white"/>
<path d="M399.818 192.698H0.197273C0.147458 192.698 0.0994283 192.679 0.0628235 192.645C0.0262187 192.612 0.00383177 192.565 0 192.515C0 192.463 0.0207153 192.413 0.0577272 192.376C0.0947391 192.339 0.14493 192.318 0.197273 192.318H399.818C399.867 192.322 399.914 192.344 399.948 192.381C399.981 192.418 400 192.466 400 192.515C399.996 192.563 399.976 192.607 399.943 192.64C399.909 192.674 399.865 192.694 399.818 192.698Z" fill="white"/>
<path d="M399.818 174.313H0.197273C0.147458 174.313 0.0994283 174.295 0.0628235 174.261C0.0262187 174.227 0.00383177 174.181 0 174.131C0 174.079 0.0207153 174.028 0.0577272 173.991C0.0947391 173.954 0.14493 173.934 0.197273 173.934H399.818C399.867 173.937 399.914 173.96 399.948 173.997C399.981 174.033 400 174.081 400 174.131C399.996 174.178 399.976 174.222 399.943 174.256C399.909 174.289 399.865 174.31 399.818 174.313Z" fill="white"/>
<path d="M399.818 133.399H0.197941C0.170906 133.406 0.142767 133.407 0.115381 133.402C0.087995 133.397 0.0620626 133.386 0.0391219 133.37C0.0161812 133.354 -0.00320118 133.334 -0.0176787 133.31C-0.0321563 133.286 -0.0414419 133.26 -0.0449208 133.232C-0.0450086 133.207 -0.0398141 133.182 -0.0297245 133.159C-0.0196349 133.136 -0.0048258 133.115 0.013733 133.098C0.0322918 133.08 0.0541531 133.067 0.0780391 133.059C0.101925 133.051 0.127276 133.048 0.152445 133.05H399.773C399.821 133.05 399.867 133.069 399.902 133.103C399.936 133.137 399.955 133.184 399.955 133.232C399.951 133.27 399.936 133.306 399.912 133.336C399.887 133.366 399.855 133.388 399.818 133.399Z" fill="white"/>
<path d="M399.818 86.1698H0.197274C0.172105 86.1719 0.146847 86.1688 0.122961 86.1606C0.099075 86.1523 0.0771211 86.1393 0.0585622 86.1221C0.0400034 86.105 0.0251943 86.0842 0.0151047 86.061C0.00501511 86.0379 -8.67472e-05 86.0129 1.11578e-06 85.9876C1.11578e-06 85.9353 0.0207164 85.8851 0.0577283 85.8481C0.0947402 85.8111 0.144932 85.7903 0.197274 85.7903H399.818C399.867 85.7941 399.914 85.8166 399.948 85.8532C399.981 85.8898 400 85.9378 400 85.9876C400 86.036 399.981 86.0823 399.947 86.1164C399.912 86.1506 399.866 86.1698 399.818 86.1698Z" fill="white"/>
</g>
<defs>
<clipPath id="clip0_831_390">
<rect width="400" height="400" fill="white"/>
</clipPath>
</defs>
</svg>
