<svg width="874" height="202" viewBox="0 0 874 202" fill="none" xmlns="http://www.w3.org/2000/svg">
<g clip-path="url(#clip0_831_480)">
<path d="M772.589 202.022C752.531 202.022 732.925 196.098 716.248 184.999C699.571 173.899 686.573 158.124 678.897 139.666C671.222 121.209 669.213 100.899 673.126 81.3047C677.039 61.7105 686.698 43.7121 700.88 29.5855C715.063 15.4588 733.133 5.83847 752.804 1.94094C772.476 -1.95659 792.866 0.0437836 811.397 7.68906C829.927 15.3343 845.765 28.2812 856.909 44.8923C868.052 61.5035 873.999 81.0329 873.999 101.011C873.999 127.801 863.315 153.493 844.297 172.437C825.279 191.38 799.484 202.022 772.589 202.022Z" fill="#BF9E2E"/>
<path d="M180.633 42.4261V168.52C180.627 175.655 177.781 182.497 172.717 187.544C167.654 192.592 160.788 195.433 153.624 195.444H27.0091C19.8455 195.433 12.9791 192.592 7.91579 187.544C2.85249 182.497 0.00581925 175.655 0 168.52V42.4261C0 35.2911 2.84562 28.4483 7.91082 23.4031C12.976 18.3578 19.8458 15.5234 27.0091 15.5234H153.624C160.787 15.5234 167.657 18.3578 172.722 23.4031C177.788 28.4483 180.633 35.2911 180.633 42.4261Z" fill="#EDECEC"/>
<path d="M48.4707 64.1765H64.914V85.1592L90.1621 64.0449C103.832 75.4462 117.435 86.7598 130.973 98.1392C131.65 98.7653 132.054 99.6315 132.096 100.551C132.096 115.899 132.096 131.247 132.096 146.748H115.3V143.591C115.3 132.146 115.3 120.679 115.3 109.233C115.219 107.575 114.511 106.009 113.319 104.848C106.341 98.775 99.1652 92.9647 92.1432 86.9571C90.7345 85.7512 89.832 85.5978 88.3131 86.9571C81.2031 93.0086 73.895 98.8847 66.8511 105.002C65.7233 106.189 65.0798 107.753 65.0461 109.387C64.892 120.744 65.0461 132.08 65.0461 143.437V146.726H48.6028L48.4707 64.1765Z" fill="#3D3D3B"/>
<path d="M98.153 114.013H82.084V146.638H98.153V114.013Z" fill="#3D3D3B"/>
<path d="M730.744 64.1765H747.187V85.1592L772.436 64.0449C786.105 75.4462 799.709 86.7598 813.246 98.1392C813.924 98.7653 814.327 99.6315 814.369 100.551C814.369 115.899 814.369 131.247 814.369 146.748H797.574V143.591C797.574 132.146 797.574 120.679 797.574 109.233C797.493 107.575 796.785 106.009 795.593 104.848C788.615 98.775 781.439 92.9647 774.417 86.9571C773.008 85.7512 772.215 85.5978 770.587 86.9571C763.477 93.0086 756.19 98.8847 749.125 105.002C747.997 106.189 747.353 107.753 747.319 109.387C747.165 120.744 747.319 132.08 747.319 143.437V146.726H730.876L730.744 64.1765Z" fill="white"/>
<path d="M780.426 114.013H764.357V146.638H780.426V114.013Z" fill="white"/>
</g>
<defs>
<clipPath id="clip0_831_480">
<rect width="874" height="202" fill="white"/>
</clipPath>
</defs>
</svg>
