<svg width="400" height="400" viewBox="0 0 400 400" fill="none" xmlns="http://www.w3.org/2000/svg">
<g clip-path="url(#clip0_831_7068)">
<path d="M291.823 173.878C292.053 174.149 292.271 174.425 292.478 174.706L299.675 181.814C311.109 193.101 308.93 211.341 296.76 220C298.671 218.931 300.492 217.711 302.205 216.353C302.55 216.087 302.885 215.806 303.221 215.53L303.388 215.385C304.51 214.438 305.58 213.434 306.593 212.375C310.282 208.341 313.096 203.604 314.863 198.457C316.63 193.309 317.312 187.859 316.869 182.441C306.812 180.806 297.222 176.396 291 173C291.284 173.291 291.559 173.587 291.823 173.898" fill="#083C7A"/>
<path d="M274.379 146.045H273.937H273.729C253.467 147.843 237.289 164.594 237.005 185.011C236.872 193.36 239.429 201.535 244.307 208.366C247.748 213.117 252.212 217.063 257.38 219.92C262.549 222.778 268.294 224.477 274.206 224.896C282.112 225.462 290.009 223.701 296.895 219.836C309.074 211.213 311.23 193.049 299.807 181.809L292.622 174.73C292.881 175.075 293.129 175.424 293.368 175.784C295.955 179.729 296.929 184.492 296.095 189.115C295.262 193.739 292.681 197.88 288.873 200.707C285.065 203.535 280.311 204.838 275.566 204.356C270.821 203.874 266.438 201.643 263.296 198.11C263.215 198.015 263.129 197.93 263.047 197.835C260.895 195.303 259.467 192.252 258.91 188.996C258.353 185.741 258.686 182.398 259.876 179.311C259.878 179.301 259.878 179.291 259.876 179.281C259.876 179.231 259.911 179.176 259.932 179.126C261.033 176.042 262.962 173.31 265.514 171.218C269.081 168.51 273.498 167.118 277.999 167.281C282.5 167.444 286.801 169.154 290.156 172.112C290.496 172.392 290.818 172.692 291.12 173.011V173.046C291.134 173.057 291.146 173.071 291.155 173.086C297.372 176.439 306.952 180.81 317 182.458C316.296 173.696 312.645 165.414 306.624 158.922C300.604 152.431 292.557 148.1 283.757 146.614C282.899 146.47 282.036 146.34 281.174 146.245C280.737 146.195 280.301 146.16 279.865 146.12H279.646C278.631 146.04 277.598 146 276.546 146C275.825 146 275.1 146 274.379 146.06" fill="#083C7A"/>
<path d="M185.379 192.199C185.531 191.351 185.657 190.504 185.753 189.646C185.804 189.22 185.844 188.789 185.88 188.358V188.137C186.016 186.407 186.037 184.67 185.94 182.938C185.94 182.792 185.94 182.647 185.915 182.502V182.291C184.095 162.275 167.141 146.286 146.475 146.005C138.025 145.874 129.75 148.4 122.837 153.22C118.027 156.62 114.033 161.032 111.141 166.139C108.248 171.247 106.529 176.925 106.105 182.767C105.531 190.577 107.316 198.38 111.232 205.18C119.955 217.213 138.34 219.344 149.722 208.063L156.881 200.958C156.533 201.214 156.179 201.459 155.82 201.695C151.827 204.258 147.003 205.226 142.319 204.405C137.636 203.583 133.44 201.033 130.575 197.268C127.711 193.502 126.391 188.801 126.882 184.11C127.372 179.418 129.636 175.085 133.218 171.982C133.314 171.902 133.4 171.817 133.496 171.742C136.064 169.599 139.163 168.177 142.472 167.623C145.782 167.068 149.18 167.401 152.316 168.588H152.346L152.503 168.643C155.62 169.723 158.386 171.618 160.507 174.128C163.249 177.653 164.659 182.018 164.494 186.467C164.329 190.915 162.598 195.166 159.602 198.481C159.317 198.816 159.013 199.134 158.692 199.434H158.656C158.643 199.444 158.631 199.456 158.621 199.469C155.198 205.611 150.753 215.072 149.105 225C157.974 224.304 166.356 220.697 172.927 214.748C179.497 208.799 183.881 200.849 185.384 192.153" fill="#083C7A"/>
<path d="M158.083 199.823C157.807 200.052 157.525 200.265 157.238 200.478L149.986 207.677C138.457 219.107 119.835 216.928 111 204.756C112.087 206.669 113.33 208.49 114.718 210.202C114.99 210.547 115.277 210.882 115.558 211.218L115.707 211.385C116.677 212.511 117.712 213.582 118.805 214.591C122.922 218.281 127.757 221.096 133.012 222.864C138.267 224.631 143.831 225.313 149.361 224.868C151.031 214.809 155.507 205.223 159 199C158.703 199.279 158.401 199.554 158.083 199.823Z" fill="#083C7A"/>
<path d="M186.518 155.055C182.197 158.622 178.677 163.046 176.183 168.043C173.688 173.041 172.276 178.5 172.036 184.071C172.036 184.384 172 184.691 172 184.988V235.924C172.494 235.968 172.992 235.993 173.493 236C177.925 235.702 182.162 234.083 185.651 231.356C189.139 228.629 191.717 224.92 193.046 220.716C193.218 220.177 193.371 219.628 193.498 219.073C193.632 218.145 193.7 217.209 193.701 216.272V187.291C193.638 186.397 193.638 185.499 193.701 184.605C193.735 182.161 194.379 179.763 195.575 177.626C196.713 175.136 198.4 172.931 200.513 171.176C204.304 168.133 209.146 166.686 214 167.144C213.263 166.882 212.06 166.449 211.968 166.424C205.222 164.539 195.062 160.966 186.604 155C186.604 155 186.564 155 186.523 155.071" fill="#083C7A"/>
<path d="M251.318 193.315C251.316 193.307 251.316 193.298 251.318 193.29C251.393 192.89 251.465 192.49 251.533 192.09C251.533 192.015 251.558 191.94 251.569 191.865C251.635 191.48 251.691 191.09 251.742 190.7C251.74 190.672 251.74 190.643 251.742 190.615C251.793 190.19 251.845 189.765 251.88 189.34C251.88 189.275 251.88 189.21 251.88 189.15C251.911 188.817 251.937 188.467 251.957 188.1C251.957 187.995 251.957 187.895 251.957 187.795C251.957 187.42 251.993 187.045 251.998 186.675C252.001 186.633 252.001 186.592 251.998 186.55C251.998 186.145 251.998 185.74 251.998 185.335C251.998 185.22 251.998 185.105 251.998 184.99C251.998 184.69 251.998 184.39 251.998 184.085V183.71C251.998 183.325 251.957 182.945 251.926 182.565C251.926 182.565 251.926 182.52 251.926 182.5C251.246 174.075 247.824 166.084 242.161 159.7C241.798 159.29 241.425 158.885 241.041 158.49C240.908 158.35 240.765 158.21 240.627 158.07L239.921 157.35L239.359 156.85L238.771 156.32C238.551 156.12 238.321 155.925 238.096 155.73L237.651 155.35C236.27 154.211 234.812 153.165 233.285 152.22C228.767 149.421 223.728 147.521 218.457 146.63C217.593 146.485 216.729 146.355 215.855 146.26C215.42 146.21 214.981 146.175 214.541 146.135H214.316C212.858 146.026 211.396 145.994 209.934 146.04C200.419 145.95 176 146.04 176 146.04C178.619 149.708 181.827 152.938 185.5 155.605C193.839 161.565 203.962 165.19 210.906 167.155C211.825 167.112 212.745 167.133 213.662 167.215C214.019 167.25 214.372 167.295 214.73 167.345H214.786C215.134 167.4 215.482 167.46 215.809 167.53H215.865C216.213 167.6 216.561 167.685 216.888 167.78L217 167.81C217.327 167.9 217.65 168 217.972 168.105H218.028C218.36 168.215 218.682 168.34 219.005 168.47L219.173 168.54C219.48 168.665 219.782 168.795 220.078 168.94H220.129C220.436 169.09 220.738 169.245 221.034 169.41L221.234 169.525C221.53 169.69 221.827 169.865 222.113 170.025C223.086 170.61 224.003 171.279 224.854 172.025C225.195 172.306 225.519 172.607 225.825 172.925V172.96L225.861 173C226.142 173.285 226.418 173.58 226.689 173.89C226.96 174.2 227.134 174.435 227.349 174.715C227.563 174.995 227.86 175.41 228.1 175.77C230.707 179.719 231.689 184.485 230.848 189.113C230.008 193.74 227.409 197.885 223.572 200.715C219.734 203.545 214.945 204.85 210.164 204.367C205.384 203.885 200.967 201.651 197.801 198.115C197.72 198.02 197.633 197.935 197.556 197.84C197.326 197.575 197.111 197.305 196.901 197.035L196.758 196.84C196.349 196.299 195.971 195.734 195.628 195.15L195.511 194.95C195.182 194.374 194.883 193.781 194.616 193.175L194.524 192.96C194.273 192.355 194.054 191.745 193.864 191.125L193.798 190.895C193.711 190.59 193.629 190.285 193.563 189.98C193.343 189.039 193.201 188.083 193.138 187.12V215.87C193.138 216.802 193.069 217.733 192.934 218.655C192.806 219.205 192.653 219.75 192.479 220.285L193.046 220.57L193.353 220.725L193.43 220.76L193.614 220.855L193.829 220.96L194.095 221.08L194.734 221.375L195.199 221.585L196.155 221.985L196.595 222.16L197.397 222.47L197.873 222.64L198.579 222.885L199.059 223.04C199.33 223.13 199.606 223.215 199.882 223.295L200.24 223.405C200.619 223.515 201.007 223.615 201.391 223.715L201.815 223.82L202.628 224.015L203.088 224.115L203.952 224.285L204.233 224.345H204.315C204.786 224.43 205.261 224.505 205.742 224.575L205.962 224.605C206.442 224.675 206.928 224.735 207.414 224.785H207.475C207.91 224.83 208.344 224.87 208.784 224.9C210.067 224.995 211.34 225.015 212.613 224.99H213.181C213.575 224.99 213.963 224.955 214.352 224.93H214.715C215.149 224.895 215.579 224.855 216.008 224.81L216.264 224.785C216.688 224.74 217.108 224.68 217.527 224.62L217.818 224.58L218.503 224.465H218.544C219.955 224.229 221.351 223.916 222.727 223.53L222.993 223.455C223.391 223.34 223.79 223.22 224.184 223.09L224.629 222.945L225.258 222.735C225.569 222.625 225.876 222.515 226.178 222.4L226.659 222.215L227.487 221.88L227.86 221.72C228.197 221.575 228.535 221.425 228.883 221.27L229.174 221.135C229.542 220.965 229.91 220.785 230.273 220.6L230.488 220.49C230.872 220.29 231.255 220.09 231.633 219.88C232.012 219.67 232.477 219.38 232.891 219.15L233.316 218.89L234.118 218.39L234.63 218.065C234.987 217.83 235.34 217.565 235.688 217.335C236.199 216.99 236.654 216.63 237.125 216.26C237.472 215.995 237.81 215.715 238.147 215.44L238.316 215.295C239.446 214.353 240.523 213.352 241.542 212.295C245.83 207.663 248.933 202.103 250.597 196.07L250.674 195.785L250.842 195.135L250.965 194.635C251.001 194.5 251.032 194.36 251.062 194.225V194.2C251.113 193.98 251.16 193.755 251.206 193.535C251.206 193.485 251.206 193.435 251.231 193.385V193.35" fill="#083C7A"/>
<path d="M105.747 399.985C105.723 399.985 105.7 399.98 105.679 399.971C105.657 399.962 105.637 399.949 105.621 399.932C105.604 399.915 105.591 399.895 105.582 399.872C105.573 399.85 105.568 399.827 105.568 399.803V0.182337C105.568 0.134021 105.587 0.0876813 105.621 0.0535165C105.654 0.0193517 105.7 0.000144306 105.747 0.000144306C105.772 -0.00196058 105.797 0.00120231 105.82 0.00941031C105.843 0.0176183 105.865 0.0306867 105.883 0.0478179C105.901 0.0649491 105.916 0.0857732 105.926 0.108927C105.936 0.132081 105.941 0.15708 105.941 0.182337V399.803C105.941 399.828 105.936 399.853 105.926 399.876C105.916 399.899 105.901 399.92 105.883 399.937C105.865 399.954 105.843 399.967 105.82 399.976C105.797 399.984 105.772 399.987 105.747 399.985Z" fill="black"/>
<path d="M172.13 399.985C172.107 399.985 172.084 399.98 172.062 399.971C172.04 399.962 172.021 399.949 172.004 399.932C171.987 399.915 171.974 399.895 171.965 399.873C171.956 399.85 171.952 399.827 171.952 399.803V0.182337C171.952 0.134021 171.971 0.0876813 172.004 0.0535165C172.038 0.0193517 172.083 0.000144306 172.13 0.000144306C172.155 -0.00196058 172.18 0.00120231 172.203 0.00941031C172.227 0.0176183 172.248 0.0306867 172.267 0.0478179C172.285 0.0649491 172.299 0.0857732 172.309 0.108927C172.319 0.132081 172.324 0.15708 172.324 0.182337V399.803C172.324 399.828 172.319 399.853 172.309 399.876C172.299 399.899 172.285 399.92 172.267 399.937C172.248 399.954 172.227 399.968 172.203 399.976C172.18 399.984 172.155 399.987 172.13 399.985Z" fill="black"/>
<path d="M244.353 399.985C244.329 399.985 244.306 399.98 244.284 399.971C244.263 399.962 244.243 399.949 244.226 399.932C244.21 399.915 244.197 399.895 244.188 399.872C244.179 399.85 244.174 399.827 244.174 399.803V0.182337C244.174 0.134021 244.193 0.0876813 244.226 0.0535165C244.26 0.0193517 244.305 0.000144306 244.353 0.000144306C244.378 -0.00196058 244.402 0.00120231 244.426 0.00941031C244.449 0.0176183 244.471 0.0306867 244.489 0.0478179C244.507 0.0649491 244.522 0.0857732 244.532 0.108927C244.542 0.132081 244.547 0.15708 244.547 0.182337V399.803C244.547 399.828 244.542 399.853 244.532 399.876C244.522 399.899 244.507 399.92 244.489 399.937C244.471 399.954 244.449 399.967 244.426 399.976C244.402 399.984 244.378 399.987 244.353 399.985Z" fill="black"/>
<path d="M316.69 399.985C316.665 399.987 316.64 399.984 316.617 399.976C316.593 399.967 316.572 399.954 316.553 399.937C316.535 399.92 316.521 399.899 316.511 399.876C316.501 399.853 316.496 399.828 316.496 399.803V0.182337C316.496 0.15708 316.501 0.132081 316.511 0.108927C316.521 0.0857732 316.535 0.0649491 316.553 0.0478179C316.572 0.0306867 316.593 0.0176183 316.617 0.00941031C316.64 0.00120231 316.665 -0.00196058 316.69 0.000144306C316.737 0.000144306 316.783 0.0193517 316.816 0.0535165C316.85 0.0876813 316.868 0.134021 316.868 0.182337V399.803C316.868 399.827 316.864 399.85 316.855 399.872C316.846 399.895 316.833 399.915 316.816 399.932C316.799 399.949 316.78 399.962 316.758 399.971C316.736 399.98 316.713 399.985 316.69 399.985Z" fill="black"/>
<path d="M399.821 112.039H7.65758C7.63288 112.041 7.6081 112.038 7.58466 112.03C7.56122 112.021 7.53967 112.008 7.52146 111.991C7.50325 111.974 7.48871 111.953 7.47881 111.93C7.46891 111.907 7.4639 111.882 7.46399 111.857C7.46399 111.804 7.48432 111.754 7.52064 111.717C7.55696 111.68 7.60622 111.659 7.65758 111.659H399.821C399.87 111.663 399.916 111.686 399.949 111.722C399.982 111.759 400 111.807 400 111.857C400 111.905 399.981 111.951 399.948 111.986C399.914 112.02 399.869 112.039 399.821 112.039Z" fill="black"/>
<path d="M399.821 146.156H7.6577C7.60634 146.156 7.55708 146.135 7.52076 146.098C7.48444 146.061 7.46411 146.011 7.46411 145.959C7.46403 145.933 7.46903 145.908 7.47893 145.885C7.48884 145.862 7.50337 145.841 7.52158 145.824C7.53979 145.807 7.56134 145.794 7.58478 145.786C7.60822 145.778 7.63301 145.774 7.6577 145.777H399.821C399.869 145.777 399.914 145.796 399.948 145.83C399.981 145.864 400 145.91 400 145.959C400 146.008 399.982 146.057 399.949 146.093C399.916 146.13 399.87 146.152 399.821 146.156Z" fill="black"/>
<path d="M392.342 225.12H0.193684C0.168985 225.122 0.144107 225.119 0.120667 225.11C0.0972263 225.102 0.075682 225.089 0.0574695 225.072C0.039257 225.055 0.0247242 225.034 0.0148228 225.011C0.00492153 224.988 -8.51285e-05 224.963 1.09496e-06 224.937C1.09496e-06 224.885 0.0204208 224.835 0.056742 224.798C0.0930633 224.761 0.142318 224.74 0.193684 224.74H392.342C392.394 224.74 392.443 224.761 392.479 224.798C392.516 224.835 392.536 224.885 392.536 224.937C392.536 224.963 392.531 224.988 392.521 225.011C392.511 225.034 392.497 225.055 392.479 225.072C392.46 225.089 392.439 225.102 392.415 225.11C392.392 225.119 392.367 225.122 392.342 225.12Z" fill="black"/>
<path d="M392.342 236.827H0.193684C0.142318 236.827 0.0930633 236.806 0.056742 236.769C0.0204208 236.732 1.09496e-06 236.682 1.09496e-06 236.63C-8.51285e-05 236.604 0.00492153 236.579 0.0148228 236.556C0.0247242 236.533 0.039257 236.512 0.0574695 236.495C0.075682 236.478 0.0972263 236.465 0.120667 236.457C0.144107 236.448 0.168985 236.445 0.193684 236.447H392.342C392.367 236.445 392.392 236.448 392.415 236.457C392.439 236.465 392.46 236.478 392.479 236.495C392.497 236.512 392.511 236.533 392.521 236.556C392.531 236.579 392.536 236.604 392.536 236.63C392.536 236.682 392.516 236.732 392.479 236.769C392.443 236.806 392.394 236.827 392.342 236.827Z" fill="black"/>
<path d="M392.342 288.325H0.193724C0.167122 288.33 0.13992 288.328 0.113887 288.321C0.0878543 288.314 0.063536 288.302 0.0425061 288.285C0.0214761 288.267 0.00421238 288.246 -0.00823344 288.222C-0.0206793 288.197 -0.0280419 288.171 -0.0297841 288.143C-0.0298703 288.118 -0.0247727 288.093 -0.0148714 288.07C-0.00497008 288.047 0.00956273 288.026 0.0277752 288.009C0.0459878 287.992 0.0674411 287.979 0.0908814 287.97C0.114322 287.962 0.1392 287.959 0.163899 287.961H392.313C392.337 287.959 392.362 287.962 392.386 287.97C392.409 287.979 392.431 287.992 392.449 288.009C392.467 288.026 392.481 288.047 392.491 288.07C392.501 288.093 392.506 288.118 392.506 288.143C392.503 288.188 392.486 288.231 392.456 288.264C392.426 288.297 392.386 288.319 392.342 288.325Z" fill="black"/>
<path d="M275.047 225C274.958 224.993 274.876 224.953 274.817 224.887C274.758 224.821 274.728 224.736 274.732 224.648C274.731 224.603 274.741 224.559 274.759 224.517C274.777 224.476 274.804 224.439 274.837 224.408C274.871 224.378 274.911 224.355 274.954 224.34C274.997 224.325 275.042 224.32 275.088 224.323C275.176 224.33 275.259 224.371 275.317 224.437C275.376 224.502 275.407 224.588 275.403 224.675C275.403 224.761 275.369 224.844 275.307 224.905C275.245 224.966 275.161 225 275.074 225H275.047ZM280.2 224.594C280.196 224.55 280.202 224.505 280.215 224.462C280.229 224.42 280.251 224.381 280.281 224.347C280.31 224.313 280.346 224.285 280.386 224.265C280.426 224.244 280.47 224.232 280.515 224.229C280.56 224.225 280.606 224.23 280.649 224.244C280.692 224.257 280.732 224.279 280.766 224.308C280.8 224.337 280.829 224.373 280.849 224.412C280.87 224.452 280.882 224.495 280.885 224.54C280.889 224.584 280.884 224.629 280.87 224.672C280.856 224.714 280.834 224.753 280.805 224.787C280.775 224.821 280.74 224.849 280.699 224.869C280.659 224.89 280.615 224.902 280.57 224.905C280.489 224.915 280.408 224.895 280.34 224.851C280.272 224.806 280.222 224.739 280.2 224.662V224.594ZM269.565 224.35C269.477 224.331 269.401 224.28 269.35 224.207C269.299 224.134 269.278 224.045 269.29 223.958C269.307 223.87 269.358 223.793 269.433 223.742C269.507 223.691 269.599 223.672 269.688 223.687C269.733 223.694 269.776 223.709 269.814 223.733C269.853 223.756 269.886 223.788 269.912 223.824C269.938 223.861 269.955 223.903 269.964 223.947C269.973 223.991 269.972 224.036 269.962 224.08C269.949 224.158 269.909 224.229 269.849 224.28C269.789 224.332 269.713 224.362 269.633 224.364H269.565V224.35ZM285.614 223.809C285.604 223.766 285.602 223.721 285.61 223.676C285.618 223.632 285.634 223.59 285.658 223.553C285.683 223.515 285.714 223.482 285.751 223.457C285.788 223.431 285.83 223.413 285.874 223.403C285.918 223.393 285.964 223.392 286.009 223.4C286.053 223.407 286.096 223.423 286.134 223.447C286.172 223.471 286.205 223.502 286.231 223.539C286.257 223.575 286.276 223.617 286.285 223.66C286.295 223.704 286.297 223.749 286.289 223.793C286.281 223.837 286.265 223.879 286.241 223.917C286.217 223.955 286.185 223.987 286.148 224.013C286.111 224.039 286.069 224.057 286.025 224.066C285.936 224.083 285.844 224.066 285.768 224.018C285.692 223.97 285.637 223.896 285.614 223.809ZM264.219 222.957C264.176 222.945 264.137 222.924 264.102 222.896C264.068 222.867 264.04 222.832 264.021 222.793C264.001 222.753 263.991 222.71 263.99 222.666C263.988 222.622 263.997 222.578 264.014 222.537C264.042 222.454 264.102 222.384 264.182 222.344C264.261 222.303 264.353 222.295 264.439 222.321C264.524 222.351 264.595 222.413 264.636 222.494C264.676 222.575 264.684 222.668 264.658 222.754C264.635 222.821 264.59 222.88 264.531 222.922C264.472 222.963 264.401 222.985 264.329 222.984L264.219 222.957ZM290.877 222.28C290.846 222.196 290.85 222.103 290.889 222.022C290.927 221.94 290.997 221.878 291.082 221.847C291.168 221.817 291.262 221.821 291.344 221.859C291.426 221.897 291.49 221.966 291.521 222.05C291.552 222.134 291.548 222.227 291.509 222.309C291.47 222.39 291.401 222.453 291.315 222.483H291.192C291.125 222.483 291.06 222.464 291.004 222.428C290.948 222.392 290.904 222.341 290.877 222.28ZM259.135 220.859C259.094 220.839 259.057 220.811 259.028 220.777C258.998 220.743 258.975 220.703 258.961 220.66C258.947 220.618 258.942 220.572 258.946 220.528C258.95 220.483 258.963 220.439 258.984 220.399C259.025 220.321 259.095 220.262 259.179 220.234C259.264 220.207 259.356 220.212 259.436 220.25C259.515 220.291 259.575 220.36 259.603 220.443C259.631 220.527 259.625 220.618 259.587 220.697C259.56 220.754 259.518 220.802 259.464 220.836C259.411 220.869 259.349 220.887 259.285 220.886L259.135 220.859ZM295.866 220.061C295.825 219.981 295.817 219.889 295.842 219.804C295.868 219.719 295.925 219.646 296.003 219.601C296.042 219.579 296.086 219.566 296.131 219.561C296.175 219.556 296.221 219.56 296.264 219.573C296.307 219.585 296.348 219.606 296.383 219.634C296.418 219.662 296.447 219.697 296.469 219.736C296.49 219.774 296.504 219.816 296.508 219.859C296.513 219.903 296.509 219.946 296.496 219.988C296.483 220.03 296.462 220.068 296.434 220.102C296.406 220.135 296.371 220.163 296.332 220.183C296.277 220.195 296.221 220.195 296.167 220.183C296.111 220.186 296.054 220.177 296.002 220.156C295.95 220.135 295.903 220.102 295.866 220.061ZM254.379 218.072C254.342 218.046 254.31 218.013 254.286 217.976C254.262 217.938 254.245 217.896 254.238 217.852C254.23 217.808 254.231 217.763 254.241 217.719C254.251 217.675 254.27 217.634 254.296 217.598C254.322 217.561 254.355 217.53 254.394 217.506C254.432 217.482 254.475 217.466 254.519 217.459C254.564 217.451 254.609 217.452 254.654 217.462C254.698 217.472 254.739 217.491 254.776 217.517C254.813 217.542 254.845 217.575 254.869 217.613C254.893 217.651 254.91 217.693 254.917 217.737C254.925 217.781 254.924 217.826 254.914 217.869C254.903 217.913 254.885 217.954 254.858 217.99C254.825 218.034 254.782 218.07 254.731 218.093C254.681 218.117 254.626 218.128 254.571 218.126C254.502 218.129 254.435 218.11 254.379 218.072ZM300.498 217.165C300.435 217.102 300.4 217.017 300.4 216.928C300.4 216.84 300.435 216.755 300.498 216.691C300.534 216.663 300.576 216.643 300.62 216.632C300.665 216.621 300.711 216.62 300.756 216.627C300.801 216.635 300.844 216.652 300.883 216.677C300.921 216.702 300.953 216.734 300.978 216.773C301.041 216.836 301.076 216.921 301.076 217.009C301.076 217.098 301.041 217.183 300.978 217.246C300.919 217.29 300.846 217.314 300.772 217.314C300.718 217.311 300.665 217.296 300.618 217.271C300.57 217.245 300.529 217.209 300.498 217.165ZM250.061 214.675C250.028 214.643 250.002 214.606 249.984 214.564C249.966 214.522 249.957 214.477 249.957 214.431C249.957 214.386 249.966 214.341 249.984 214.299C250.002 214.257 250.028 214.219 250.061 214.188C250.092 214.156 250.129 214.13 250.171 214.112C250.212 214.094 250.256 214.085 250.301 214.085C250.346 214.085 250.391 214.094 250.432 214.112C250.473 214.13 250.51 214.156 250.541 214.188C250.604 214.251 250.639 214.336 250.639 214.425C250.639 214.513 250.604 214.598 250.541 214.662C250.509 214.698 250.468 214.726 250.423 214.745C250.378 214.763 250.33 214.772 250.281 214.77C250.199 214.763 250.122 214.73 250.061 214.675ZM304.692 213.687C304.659 213.656 304.632 213.618 304.614 213.576C304.596 213.534 304.587 213.489 304.587 213.444C304.587 213.398 304.596 213.353 304.614 213.311C304.632 213.269 304.659 213.232 304.692 213.2C304.756 213.138 304.842 213.103 304.932 213.103C305.022 213.103 305.108 213.138 305.172 213.2C305.205 213.23 305.231 213.267 305.249 213.308C305.266 213.349 305.276 213.392 305.276 213.437C305.276 213.481 305.266 213.525 305.249 213.566C305.231 213.607 305.205 213.643 305.172 213.674C305.142 213.704 305.105 213.729 305.065 213.745C305.025 213.761 304.982 213.769 304.939 213.768C304.894 213.772 304.849 213.767 304.807 213.753C304.765 213.739 304.725 213.717 304.692 213.687ZM246.265 210.724C246.232 210.692 246.205 210.654 246.187 210.612C246.169 210.571 246.16 210.526 246.16 210.48C246.16 210.435 246.169 210.39 246.187 210.348C246.205 210.306 246.232 210.268 246.265 210.237C246.296 210.204 246.333 210.178 246.374 210.161C246.415 210.143 246.46 210.134 246.505 210.134C246.55 210.134 246.594 210.143 246.636 210.161C246.677 210.178 246.714 210.204 246.745 210.237C246.807 210.3 246.843 210.385 246.843 210.473C246.843 210.562 246.807 210.647 246.745 210.71C246.682 210.76 246.605 210.788 246.525 210.791C246.48 210.798 246.433 210.795 246.388 210.784C246.343 210.772 246.302 210.752 246.265 210.724ZM308.351 209.668C308.319 209.638 308.293 209.601 308.275 209.56C308.257 209.52 308.248 209.476 308.248 209.431C308.248 209.387 308.257 209.343 308.275 209.302C308.293 209.262 308.319 209.225 308.351 209.195C308.378 209.159 308.412 209.129 308.451 209.106C308.49 209.084 308.533 209.069 308.577 209.063C308.622 209.056 308.667 209.059 308.711 209.07C308.754 209.081 308.795 209.1 308.831 209.127C308.864 209.157 308.89 209.194 308.908 209.235C308.926 209.275 308.935 209.319 308.935 209.364C308.935 209.408 308.926 209.452 308.908 209.493C308.89 209.533 308.864 209.57 308.831 209.601C308.801 209.644 308.76 209.68 308.712 209.703C308.664 209.727 308.611 209.738 308.557 209.736C308.484 209.732 308.413 209.709 308.351 209.668ZM243.03 206.285C242.984 206.21 242.97 206.119 242.99 206.033C243.011 205.947 243.065 205.872 243.14 205.825C243.179 205.8 243.222 205.784 243.267 205.776C243.312 205.768 243.358 205.769 243.403 205.779C243.448 205.789 243.49 205.808 243.527 205.834C243.565 205.861 243.596 205.895 243.62 205.933C243.666 206.009 243.68 206.099 243.66 206.185C243.639 206.271 243.586 206.346 243.51 206.393C243.452 206.411 243.39 206.411 243.332 206.393C243.277 206.401 243.22 206.395 243.168 206.376C243.115 206.357 243.068 206.326 243.03 206.285ZM311.422 205.189C311.344 205.144 311.287 205.07 311.264 204.984C311.241 204.898 311.253 204.806 311.298 204.729C311.344 204.652 311.419 204.596 311.506 204.574C311.593 204.551 311.686 204.563 311.764 204.607C311.804 204.628 311.839 204.657 311.867 204.692C311.895 204.727 311.916 204.768 311.927 204.811C311.939 204.854 311.941 204.899 311.935 204.943C311.928 204.987 311.912 205.03 311.888 205.067C311.858 205.117 311.816 205.158 311.766 205.187C311.715 205.215 311.658 205.23 311.6 205.23C311.538 205.231 311.477 205.217 311.422 205.189ZM240.467 201.454C240.449 201.413 240.44 201.369 240.439 201.325C240.438 201.28 240.446 201.236 240.462 201.194C240.479 201.153 240.504 201.115 240.535 201.083C240.567 201.051 240.604 201.025 240.646 201.008C240.686 200.99 240.73 200.981 240.774 200.98C240.818 200.979 240.862 200.987 240.903 201.004C240.944 201.02 240.981 201.045 241.012 201.075C241.043 201.106 241.068 201.143 241.084 201.184C241.122 201.264 241.126 201.357 241.095 201.44C241.064 201.524 241.001 201.592 240.92 201.63H240.783C240.719 201.635 240.654 201.62 240.598 201.589C240.542 201.558 240.497 201.511 240.467 201.454ZM313.834 200.345C313.752 200.306 313.687 200.24 313.652 200.157C313.617 200.075 313.613 199.983 313.642 199.898C313.658 199.856 313.683 199.817 313.715 199.785C313.747 199.753 313.785 199.727 313.827 199.709C313.87 199.691 313.915 199.682 313.961 199.682C314.007 199.682 314.052 199.691 314.094 199.709C314.137 199.725 314.176 199.75 314.209 199.781C314.242 199.813 314.268 199.85 314.286 199.892C314.303 199.934 314.313 199.978 314.313 200.024C314.313 200.069 314.304 200.114 314.286 200.155C314.259 200.216 314.215 200.267 314.159 200.303C314.103 200.339 314.038 200.358 313.971 200.358H313.834V200.345ZM238.59 196.285C238.577 196.242 238.573 196.198 238.578 196.154C238.583 196.109 238.597 196.067 238.618 196.028C238.64 195.989 238.669 195.954 238.704 195.926C238.739 195.899 238.78 195.878 238.823 195.866C238.91 195.84 239.004 195.851 239.084 195.894C239.163 195.937 239.222 196.009 239.248 196.096C239.273 196.182 239.263 196.274 239.219 196.353C239.176 196.432 239.102 196.49 239.015 196.515H238.919C238.851 196.519 238.784 196.503 238.725 196.47C238.667 196.436 238.62 196.386 238.59 196.326V196.285ZM315.547 195.162C315.46 195.14 315.386 195.084 315.34 195.009C315.294 194.933 315.279 194.842 315.3 194.756C315.31 194.712 315.328 194.671 315.354 194.634C315.38 194.598 315.413 194.567 315.452 194.543C315.49 194.519 315.532 194.503 315.577 194.495C315.622 194.488 315.667 194.489 315.711 194.499C315.756 194.51 315.798 194.529 315.834 194.557C315.871 194.584 315.901 194.618 315.924 194.657C315.947 194.696 315.962 194.739 315.968 194.784C315.974 194.829 315.97 194.875 315.958 194.918C315.94 194.991 315.898 195.056 315.838 195.102C315.779 195.149 315.705 195.175 315.629 195.175H315.547V195.162ZM237.425 190.94C237.417 190.851 237.444 190.762 237.5 190.691C237.556 190.621 237.637 190.574 237.726 190.561C237.815 190.549 237.905 190.573 237.977 190.626C238.049 190.679 238.097 190.758 238.11 190.845C238.118 190.89 238.117 190.935 238.106 190.979C238.096 191.023 238.077 191.065 238.05 191.101C238.023 191.138 237.989 191.169 237.95 191.192C237.911 191.216 237.868 191.231 237.822 191.238C237.74 191.244 237.658 191.221 237.591 191.174C237.523 191.128 237.474 191.059 237.452 190.98L237.425 190.94ZM316.493 189.844C316.403 189.83 316.322 189.784 316.266 189.713C316.21 189.643 316.183 189.554 316.191 189.465C316.201 189.377 316.246 189.298 316.315 189.242C316.384 189.186 316.472 189.16 316.561 189.167C316.653 189.177 316.738 189.223 316.797 189.293C316.855 189.364 316.884 189.455 316.876 189.546C316.864 189.627 316.822 189.702 316.76 189.756C316.697 189.811 316.617 189.842 316.534 189.844H316.493ZM237 185.5C237 185.41 237.036 185.324 237.1 185.261C237.165 185.197 237.252 185.162 237.343 185.162C237.434 185.162 237.521 185.197 237.585 185.261C237.649 185.324 237.685 185.41 237.685 185.5C237.685 185.59 237.649 185.676 237.585 185.739C237.521 185.803 237.434 185.838 237.343 185.838C237.273 185.822 237.211 185.784 237.164 185.731C237.117 185.677 237.089 185.611 237.082 185.541L237 185.5ZM316.314 184.147C316.311 184.102 316.316 184.057 316.331 184.014C316.346 183.972 316.37 183.933 316.401 183.899C316.431 183.866 316.469 183.84 316.511 183.822C316.553 183.804 316.598 183.795 316.643 183.795C316.688 183.793 316.733 183.8 316.776 183.815C316.818 183.831 316.857 183.854 316.89 183.884C316.923 183.915 316.95 183.951 316.968 183.991C316.987 184.032 316.998 184.075 317 184.12C317.002 184.164 316.995 184.209 316.979 184.25C316.963 184.292 316.94 184.33 316.909 184.363C316.879 184.396 316.842 184.422 316.801 184.441C316.76 184.459 316.716 184.47 316.671 184.472C316.598 184.455 316.532 184.416 316.483 184.36C316.433 184.304 316.403 184.234 316.397 184.16L316.314 184.147ZM237.411 183.267C237.319 183.26 237.233 183.218 237.172 183.15C237.111 183.082 237.078 182.993 237.082 182.902C237.086 182.857 237.098 182.814 237.119 182.774C237.139 182.735 237.167 182.699 237.202 182.67C237.236 182.641 237.276 182.619 237.319 182.606C237.362 182.592 237.407 182.587 237.452 182.591C237.541 182.598 237.623 182.638 237.682 182.704C237.741 182.769 237.771 182.855 237.768 182.942C237.764 183.03 237.726 183.112 237.662 183.173C237.599 183.233 237.513 183.267 237.425 183.267H237.411ZM315.752 178.815C315.736 178.727 315.756 178.637 315.808 178.563C315.859 178.49 315.938 178.439 316.027 178.423C316.071 178.413 316.117 178.412 316.161 178.421C316.206 178.429 316.248 178.447 316.285 178.472C316.323 178.498 316.354 178.531 316.378 178.569C316.402 178.607 316.418 178.649 316.424 178.693C316.434 178.737 316.435 178.782 316.426 178.826C316.417 178.87 316.4 178.912 316.374 178.949C316.348 178.986 316.315 179.017 316.276 179.04C316.238 179.064 316.195 179.079 316.15 179.086H316.081C316.02 179.07 315.965 179.037 315.921 178.992C315.878 178.946 315.848 178.89 315.835 178.829L315.752 178.815ZM238.096 177.895C238.053 177.887 238.011 177.87 237.974 177.846C237.937 177.822 237.906 177.79 237.881 177.754C237.857 177.717 237.84 177.676 237.833 177.633C237.825 177.59 237.826 177.545 237.836 177.503C237.853 177.415 237.904 177.337 237.978 177.286C238.053 177.236 238.144 177.216 238.233 177.232C238.278 177.242 238.32 177.26 238.357 177.285C238.394 177.311 238.425 177.344 238.449 177.381C238.474 177.419 238.49 177.461 238.498 177.505C238.505 177.549 238.504 177.594 238.494 177.638C238.481 177.714 238.44 177.784 238.38 177.833C238.32 177.883 238.243 177.91 238.165 177.909L238.096 177.895ZM314.588 173.619C314.561 173.535 314.57 173.443 314.611 173.365C314.652 173.287 314.722 173.227 314.807 173.199C314.85 173.185 314.896 173.178 314.941 173.181C314.987 173.184 315.031 173.196 315.072 173.216C315.113 173.237 315.15 173.265 315.179 173.299C315.209 173.333 315.231 173.373 315.245 173.416C315.26 173.459 315.265 173.504 315.261 173.548C315.258 173.593 315.244 173.637 315.222 173.676C315.2 173.716 315.17 173.75 315.134 173.778C315.098 173.805 315.057 173.825 315.012 173.835H314.916C314.845 173.839 314.775 173.82 314.715 173.781C314.656 173.742 314.611 173.685 314.588 173.619ZM239.659 172.699C239.576 172.665 239.508 172.602 239.47 172.522C239.432 172.442 239.426 172.35 239.453 172.266C239.484 172.181 239.548 172.113 239.63 172.075C239.712 172.036 239.806 172.032 239.892 172.063C239.935 172.076 239.975 172.098 240.01 172.128C240.044 172.158 240.072 172.194 240.091 172.235C240.11 172.275 240.121 172.32 240.122 172.364C240.123 172.409 240.115 172.454 240.097 172.496C240.075 172.56 240.032 172.615 239.975 172.654C239.919 172.693 239.851 172.713 239.782 172.712H239.659V172.699ZM312.573 168.639C312.535 168.558 312.532 168.466 312.562 168.383C312.593 168.299 312.656 168.231 312.737 168.193C312.82 168.154 312.914 168.148 313 168.175C313.087 168.203 313.16 168.262 313.203 168.341C313.238 168.425 313.241 168.518 313.21 168.603C313.18 168.687 313.119 168.758 313.039 168.801H312.888C312.817 168.819 312.742 168.813 312.675 168.783C312.608 168.754 312.552 168.703 312.518 168.639H312.573ZM241.811 167.719C241.77 167.699 241.733 167.671 241.704 167.637C241.674 167.602 241.652 167.562 241.639 167.519C241.626 167.475 241.623 167.43 241.629 167.385C241.635 167.34 241.65 167.297 241.674 167.259C241.694 167.218 241.722 167.182 241.757 167.153C241.792 167.124 241.833 167.102 241.876 167.09C241.92 167.077 241.966 167.073 242.012 167.079C242.057 167.085 242.101 167.1 242.14 167.124C242.179 167.145 242.214 167.174 242.243 167.208C242.271 167.243 242.292 167.283 242.305 167.325C242.318 167.368 242.322 167.413 242.317 167.457C242.312 167.502 242.298 167.545 242.277 167.584C242.247 167.637 242.203 167.681 242.15 167.712C242.097 167.743 242.037 167.76 241.975 167.76L241.811 167.719ZM309.859 163.984C309.812 163.91 309.795 163.821 309.813 163.735C309.831 163.649 309.882 163.573 309.955 163.524C309.993 163.499 310.035 163.481 310.08 163.472C310.124 163.463 310.17 163.463 310.215 163.472C310.26 163.481 310.302 163.498 310.34 163.523C310.378 163.549 310.41 163.581 310.435 163.619C310.46 163.655 310.478 163.696 310.487 163.739C310.495 163.782 310.495 163.826 310.486 163.869C310.477 163.912 310.46 163.953 310.434 163.989C310.409 164.025 310.376 164.056 310.339 164.079C310.276 164.099 310.209 164.099 310.147 164.079C310.087 164.097 310.022 164.098 309.961 164.081C309.901 164.064 309.846 164.031 309.804 163.984H309.859ZM244.634 163.091C244.571 163.028 244.536 162.943 244.536 162.854C244.536 162.766 244.571 162.681 244.634 162.617C244.659 162.581 244.691 162.55 244.728 162.527C244.765 162.503 244.806 162.487 244.85 162.479C244.893 162.472 244.938 162.473 244.981 162.482C245.024 162.492 245.064 162.511 245.1 162.536C245.137 162.562 245.169 162.594 245.193 162.632C245.217 162.67 245.233 162.712 245.241 162.756C245.249 162.8 245.247 162.845 245.237 162.889C245.227 162.932 245.209 162.973 245.182 163.01C245.153 163.055 245.112 163.092 245.064 163.118C245.016 163.144 244.963 163.158 244.908 163.159C244.852 163.171 244.793 163.171 244.736 163.159C244.68 163.148 244.626 163.124 244.579 163.091H244.634ZM306.488 159.708C306.425 159.645 306.39 159.56 306.39 159.471C306.39 159.383 306.425 159.298 306.488 159.234C306.517 159.2 306.554 159.173 306.595 159.154C306.637 159.135 306.682 159.125 306.727 159.125C306.773 159.125 306.818 159.135 306.859 159.154C306.901 159.173 306.938 159.2 306.967 159.234C307.002 159.264 307.03 159.3 307.049 159.341C307.068 159.382 307.078 159.426 307.078 159.471C307.078 159.516 307.068 159.561 307.049 159.602C307.03 159.642 307.002 159.679 306.967 159.708C306.907 159.762 306.829 159.791 306.748 159.789C306.701 159.795 306.654 159.791 306.609 159.777C306.564 159.762 306.523 159.739 306.488 159.708ZM248.033 158.842C248 158.812 247.974 158.775 247.956 158.734C247.938 158.693 247.929 158.649 247.929 158.605C247.929 158.561 247.938 158.517 247.956 158.476C247.974 158.435 248 158.399 248.033 158.368C248.097 158.306 248.183 158.272 248.273 158.272C248.363 158.272 248.449 158.306 248.513 158.368C248.546 158.4 248.572 158.438 248.59 158.48C248.608 158.521 248.618 158.566 248.618 158.612C248.618 158.657 248.608 158.702 248.59 158.744C248.572 158.786 248.546 158.824 248.513 158.855C248.482 158.89 248.444 158.918 248.402 158.937C248.359 158.956 248.313 158.965 248.266 158.964C248.224 158.966 248.181 158.961 248.141 158.947C248.101 158.933 248.064 158.911 248.033 158.883V158.842ZM302.609 155.96C302.546 155.896 302.511 155.811 302.511 155.723C302.511 155.634 302.546 155.549 302.609 155.486C302.64 155.454 302.677 155.428 302.718 155.41C302.759 155.393 302.804 155.383 302.849 155.383C302.894 155.383 302.938 155.393 302.979 155.41C303.021 155.428 303.058 155.454 303.088 155.486C303.121 155.516 303.147 155.553 303.165 155.594C303.183 155.634 303.192 155.678 303.192 155.723C303.192 155.767 303.183 155.811 303.165 155.852C303.147 155.893 303.121 155.929 303.088 155.96C303.057 155.997 303.017 156.028 302.972 156.049C302.927 156.07 302.878 156.081 302.828 156.081C302.748 156.078 302.671 156.05 302.609 156V155.96ZM252.021 155.148C251.959 155.084 251.923 154.999 251.923 154.911C251.923 154.822 251.959 154.737 252.021 154.674C252.052 154.642 252.089 154.616 252.13 154.598C252.172 154.581 252.216 154.572 252.261 154.572C252.306 154.572 252.351 154.581 252.392 154.598C252.433 154.616 252.47 154.642 252.501 154.674C252.534 154.704 252.56 154.741 252.578 154.782C252.596 154.823 252.605 154.866 252.605 154.911C252.605 154.955 252.596 154.999 252.578 155.04C252.56 155.081 252.534 155.117 252.501 155.148C252.444 155.196 252.37 155.22 252.295 155.215C252.25 155.23 252.203 155.235 252.155 155.23C252.108 155.226 252.063 155.211 252.021 155.188V155.148ZM298.25 152.766C298.174 152.716 298.12 152.639 298.1 152.551C298.079 152.463 298.094 152.37 298.141 152.292C298.193 152.219 298.272 152.169 298.362 152.151C298.451 152.133 298.543 152.15 298.62 152.198C298.658 152.221 298.691 152.252 298.716 152.288C298.741 152.324 298.759 152.364 298.768 152.407C298.777 152.45 298.777 152.495 298.768 152.538C298.759 152.581 298.742 152.622 298.716 152.658C298.69 152.71 298.648 152.753 298.597 152.782C298.546 152.81 298.487 152.824 298.429 152.82C298.369 152.834 298.307 152.829 298.25 152.807V152.766ZM256.489 152.022C256.444 151.944 256.432 151.853 256.455 151.767C256.478 151.681 256.535 151.607 256.613 151.562C256.689 151.516 256.781 151.502 256.868 151.522C256.955 151.542 257.031 151.595 257.079 151.67C257.126 151.748 257.14 151.84 257.12 151.928C257.1 152.017 257.046 152.094 256.969 152.144C256.91 152.156 256.85 152.156 256.791 152.144C256.738 152.155 256.683 152.153 256.63 152.139C256.578 152.125 256.529 152.099 256.489 152.062V152.022ZM293.495 150.195C293.413 150.157 293.35 150.089 293.32 150.005C293.289 149.921 293.293 149.829 293.33 149.748C293.369 149.668 293.438 149.606 293.522 149.576C293.607 149.545 293.701 149.549 293.782 149.586C293.824 149.604 293.861 149.629 293.893 149.661C293.924 149.693 293.949 149.731 293.966 149.773C293.982 149.814 293.99 149.858 293.989 149.903C293.988 149.948 293.979 149.992 293.961 150.033C293.93 150.09 293.885 150.139 293.83 150.175C293.775 150.21 293.711 150.231 293.645 150.236C293.591 150.25 293.535 150.25 293.481 150.236L293.495 150.195ZM261.382 149.532C261.362 149.492 261.351 149.449 261.349 149.405C261.347 149.361 261.355 149.317 261.372 149.276C261.389 149.235 261.415 149.198 261.447 149.167C261.479 149.137 261.518 149.113 261.56 149.099C261.602 149.081 261.646 149.071 261.692 149.07C261.737 149.07 261.782 149.078 261.824 149.094C261.866 149.11 261.904 149.135 261.936 149.166C261.969 149.197 261.995 149.234 262.013 149.275C262.045 149.359 262.043 149.453 262.007 149.536C261.972 149.619 261.905 149.685 261.821 149.721H261.684C261.622 149.728 261.56 149.718 261.504 149.692C261.449 149.665 261.402 149.624 261.369 149.572L261.382 149.532ZM288.423 148.3C288.336 148.275 288.263 148.217 288.219 148.138C288.175 148.06 288.165 147.967 288.19 147.881C288.219 147.797 288.278 147.726 288.357 147.684C288.436 147.641 288.528 147.629 288.615 147.651C288.704 147.679 288.777 147.74 288.821 147.821C288.864 147.902 288.874 147.996 288.848 148.084C288.827 148.153 288.783 148.213 288.724 148.255C288.664 148.296 288.592 148.317 288.519 148.314H288.423V148.3ZM266.494 147.746C266.482 147.703 266.478 147.658 266.483 147.614C266.488 147.57 266.501 147.527 266.523 147.488C266.545 147.449 266.574 147.415 266.609 147.387C266.644 147.359 266.684 147.339 266.727 147.326C266.772 147.314 266.818 147.311 266.863 147.316C266.909 147.322 266.952 147.337 266.992 147.359C267.032 147.382 267.066 147.412 267.094 147.448C267.121 147.485 267.141 147.526 267.152 147.57C267.165 147.612 267.168 147.657 267.162 147.701C267.156 147.745 267.141 147.787 267.118 147.825C267.095 147.863 267.064 147.896 267.028 147.922C266.991 147.948 266.95 147.966 266.906 147.976H266.823C266.763 147.972 266.704 147.953 266.654 147.919C266.603 147.886 266.562 147.84 266.536 147.786L266.494 147.746ZM283.078 147.123C283.034 147.118 282.99 147.104 282.951 147.082C282.912 147.06 282.878 147.031 282.851 146.995C282.824 146.96 282.805 146.919 282.795 146.876C282.784 146.833 282.783 146.788 282.79 146.744C282.795 146.7 282.809 146.657 282.832 146.619C282.854 146.58 282.884 146.547 282.92 146.52C282.956 146.494 282.997 146.474 283.041 146.464C283.085 146.454 283.13 146.452 283.174 146.46C283.263 146.473 283.343 146.521 283.397 146.592C283.45 146.662 283.474 146.751 283.462 146.839C283.449 146.92 283.408 146.995 283.345 147.049C283.283 147.103 283.203 147.134 283.119 147.137L283.078 147.123ZM271.853 146.677C271.848 146.632 271.851 146.587 271.863 146.544C271.875 146.501 271.896 146.46 271.924 146.425C271.952 146.39 271.987 146.36 272.026 146.338C272.066 146.317 272.11 146.303 272.155 146.298C272.244 146.286 272.334 146.309 272.406 146.362C272.477 146.416 272.525 146.494 272.539 146.582C272.546 146.627 272.545 146.673 272.533 146.717C272.522 146.761 272.501 146.802 272.473 146.837C272.445 146.873 272.409 146.903 272.368 146.924C272.328 146.945 272.283 146.958 272.237 146.961C272.161 146.962 272.087 146.938 272.025 146.894C271.964 146.851 271.918 146.789 271.894 146.717L271.853 146.677ZM277.665 146.677C277.574 146.677 277.487 146.641 277.422 146.578C277.358 146.514 277.322 146.428 277.322 146.338C277.322 146.249 277.358 146.163 277.422 146.099C277.487 146.036 277.574 146 277.665 146C277.757 146.004 277.844 146.042 277.908 146.108C277.972 146.173 278.007 146.261 278.007 146.352C278.004 146.439 277.966 146.522 277.902 146.582C277.838 146.643 277.753 146.677 277.665 146.677Z" fill="black"/>
<path d="M210.047 225C209.958 224.993 209.876 224.953 209.817 224.887C209.758 224.821 209.728 224.736 209.732 224.648C209.731 224.603 209.741 224.559 209.759 224.517C209.777 224.476 209.804 224.439 209.837 224.408C209.871 224.378 209.911 224.355 209.954 224.34C209.997 224.325 210.042 224.32 210.088 224.323C210.176 224.33 210.259 224.371 210.317 224.437C210.376 224.502 210.407 224.588 210.403 224.675C210.403 224.761 210.369 224.844 210.307 224.905C210.245 224.966 210.161 225 210.074 225H210.047ZM215.2 224.594C215.196 224.55 215.202 224.505 215.215 224.462C215.229 224.42 215.251 224.381 215.281 224.347C215.31 224.313 215.346 224.285 215.386 224.265C215.426 224.244 215.47 224.232 215.515 224.229C215.56 224.225 215.606 224.23 215.649 224.244C215.692 224.257 215.732 224.279 215.766 224.308C215.8 224.337 215.829 224.373 215.849 224.412C215.87 224.452 215.882 224.495 215.885 224.54C215.889 224.584 215.884 224.629 215.87 224.672C215.856 224.714 215.834 224.753 215.805 224.787C215.775 224.821 215.74 224.849 215.699 224.869C215.659 224.89 215.615 224.902 215.57 224.905C215.489 224.915 215.408 224.895 215.34 224.851C215.272 224.806 215.222 224.739 215.2 224.662V224.594ZM204.565 224.35C204.477 224.331 204.401 224.28 204.35 224.207C204.299 224.134 204.278 224.045 204.29 223.958C204.307 223.87 204.358 223.793 204.433 223.742C204.507 223.691 204.599 223.672 204.688 223.687C204.733 223.694 204.776 223.709 204.814 223.733C204.853 223.756 204.886 223.788 204.912 223.824C204.938 223.861 204.955 223.903 204.964 223.947C204.973 223.991 204.972 224.036 204.962 224.08C204.949 224.158 204.909 224.229 204.849 224.28C204.789 224.332 204.713 224.362 204.633 224.364H204.565V224.35ZM220.614 223.809C220.604 223.766 220.602 223.721 220.61 223.676C220.618 223.632 220.634 223.59 220.658 223.553C220.683 223.515 220.714 223.482 220.751 223.457C220.788 223.431 220.83 223.413 220.874 223.403C220.918 223.393 220.964 223.392 221.009 223.4C221.053 223.407 221.096 223.423 221.134 223.447C221.172 223.471 221.205 223.502 221.231 223.539C221.257 223.575 221.276 223.617 221.285 223.66C221.295 223.704 221.297 223.749 221.289 223.793C221.281 223.837 221.265 223.879 221.241 223.917C221.217 223.955 221.185 223.987 221.148 224.013C221.111 224.039 221.069 224.057 221.025 224.066C220.936 224.083 220.844 224.066 220.768 224.018C220.692 223.97 220.637 223.896 220.614 223.809ZM199.219 222.957C199.176 222.945 199.137 222.924 199.102 222.896C199.068 222.867 199.04 222.832 199.021 222.793C199.001 222.753 198.991 222.71 198.99 222.666C198.988 222.622 198.997 222.578 199.014 222.537C199.042 222.454 199.102 222.384 199.182 222.344C199.261 222.303 199.353 222.295 199.439 222.321C199.524 222.351 199.595 222.413 199.636 222.494C199.676 222.575 199.684 222.668 199.658 222.754C199.635 222.821 199.59 222.88 199.531 222.922C199.472 222.963 199.401 222.985 199.329 222.984L199.219 222.957ZM225.877 222.28C225.846 222.196 225.85 222.103 225.889 222.022C225.927 221.94 225.997 221.878 226.082 221.847C226.168 221.817 226.262 221.821 226.344 221.859C226.426 221.897 226.49 221.966 226.521 222.05C226.552 222.134 226.548 222.227 226.509 222.309C226.47 222.39 226.401 222.453 226.315 222.483H226.192C226.125 222.483 226.06 222.464 226.004 222.428C225.948 222.392 225.904 222.341 225.877 222.28ZM194.135 220.859C194.094 220.839 194.057 220.811 194.028 220.777C193.998 220.743 193.975 220.703 193.961 220.66C193.947 220.618 193.942 220.572 193.946 220.528C193.95 220.483 193.963 220.439 193.984 220.399C194.025 220.321 194.095 220.262 194.179 220.234C194.264 220.207 194.356 220.212 194.436 220.25C194.515 220.291 194.575 220.36 194.603 220.443C194.631 220.527 194.625 220.618 194.587 220.697C194.56 220.754 194.518 220.802 194.464 220.836C194.411 220.869 194.349 220.887 194.285 220.886L194.135 220.859ZM230.866 220.061C230.825 219.981 230.817 219.889 230.842 219.804C230.868 219.719 230.925 219.646 231.003 219.601C231.042 219.579 231.086 219.566 231.131 219.561C231.175 219.556 231.221 219.56 231.264 219.573C231.307 219.585 231.348 219.606 231.383 219.634C231.418 219.662 231.447 219.697 231.469 219.736C231.49 219.774 231.504 219.816 231.508 219.859C231.513 219.903 231.509 219.946 231.496 219.988C231.483 220.03 231.462 220.068 231.434 220.102C231.406 220.135 231.371 220.163 231.332 220.183C231.277 220.195 231.221 220.195 231.167 220.183C231.111 220.186 231.054 220.177 231.002 220.156C230.95 220.135 230.903 220.102 230.866 220.061ZM189.379 218.072C189.342 218.046 189.31 218.013 189.286 217.976C189.262 217.938 189.245 217.896 189.238 217.852C189.23 217.808 189.231 217.763 189.241 217.719C189.251 217.675 189.27 217.634 189.296 217.598C189.322 217.561 189.355 217.53 189.394 217.506C189.432 217.482 189.475 217.466 189.519 217.459C189.564 217.451 189.609 217.452 189.654 217.462C189.698 217.472 189.739 217.491 189.776 217.517C189.813 217.542 189.845 217.575 189.869 217.613C189.893 217.651 189.91 217.693 189.917 217.737C189.925 217.781 189.924 217.826 189.914 217.869C189.903 217.913 189.885 217.954 189.858 217.99C189.825 218.034 189.782 218.07 189.731 218.093C189.681 218.117 189.626 218.128 189.571 218.126C189.502 218.129 189.435 218.11 189.379 218.072ZM235.498 217.165C235.435 217.102 235.4 217.017 235.4 216.928C235.4 216.84 235.435 216.755 235.498 216.691C235.534 216.663 235.576 216.643 235.62 216.632C235.665 216.621 235.711 216.62 235.756 216.627C235.801 216.635 235.844 216.652 235.883 216.677C235.921 216.702 235.953 216.734 235.978 216.773C236.041 216.836 236.076 216.921 236.076 217.009C236.076 217.098 236.041 217.183 235.978 217.246C235.919 217.29 235.846 217.314 235.772 217.314C235.718 217.311 235.665 217.296 235.618 217.271C235.57 217.245 235.529 217.209 235.498 217.165ZM185.061 214.675C185.028 214.643 185.002 214.606 184.984 214.564C184.966 214.522 184.957 214.477 184.957 214.431C184.957 214.386 184.966 214.341 184.984 214.299C185.002 214.257 185.028 214.219 185.061 214.188C185.092 214.156 185.129 214.13 185.171 214.112C185.212 214.094 185.256 214.085 185.301 214.085C185.346 214.085 185.391 214.094 185.432 214.112C185.473 214.13 185.51 214.156 185.541 214.188C185.604 214.251 185.639 214.336 185.639 214.425C185.639 214.513 185.604 214.598 185.541 214.662C185.509 214.698 185.468 214.726 185.423 214.745C185.378 214.763 185.33 214.772 185.281 214.77C185.199 214.763 185.122 214.73 185.061 214.675ZM239.692 213.687C239.659 213.656 239.632 213.618 239.614 213.576C239.596 213.534 239.587 213.489 239.587 213.444C239.587 213.398 239.596 213.353 239.614 213.311C239.632 213.269 239.659 213.232 239.692 213.2C239.756 213.138 239.842 213.103 239.932 213.103C240.022 213.103 240.108 213.138 240.172 213.2C240.205 213.23 240.231 213.267 240.249 213.308C240.266 213.349 240.276 213.392 240.276 213.437C240.276 213.481 240.266 213.525 240.249 213.566C240.231 213.607 240.205 213.643 240.172 213.674C240.142 213.704 240.105 213.729 240.065 213.745C240.025 213.761 239.982 213.769 239.939 213.768C239.894 213.772 239.849 213.767 239.807 213.753C239.765 213.739 239.725 213.717 239.692 213.687ZM181.265 210.724C181.232 210.692 181.205 210.654 181.187 210.612C181.169 210.571 181.16 210.526 181.16 210.48C181.16 210.435 181.169 210.39 181.187 210.348C181.205 210.306 181.232 210.268 181.265 210.237C181.296 210.204 181.333 210.178 181.374 210.161C181.415 210.143 181.46 210.134 181.505 210.134C181.55 210.134 181.594 210.143 181.636 210.161C181.677 210.178 181.714 210.204 181.745 210.237C181.807 210.3 181.843 210.385 181.843 210.473C181.843 210.562 181.807 210.647 181.745 210.71C181.682 210.76 181.605 210.788 181.525 210.791C181.48 210.798 181.433 210.795 181.388 210.784C181.343 210.772 181.302 210.752 181.265 210.724ZM243.351 209.668C243.319 209.638 243.293 209.601 243.275 209.56C243.257 209.52 243.248 209.476 243.248 209.431C243.248 209.387 243.257 209.343 243.275 209.302C243.293 209.262 243.319 209.225 243.351 209.195C243.378 209.159 243.412 209.129 243.451 209.106C243.49 209.084 243.533 209.069 243.577 209.063C243.622 209.056 243.667 209.059 243.711 209.07C243.754 209.081 243.795 209.1 243.831 209.127C243.864 209.157 243.89 209.194 243.908 209.235C243.926 209.275 243.935 209.319 243.935 209.364C243.935 209.408 243.926 209.452 243.908 209.493C243.89 209.533 243.864 209.57 243.831 209.601C243.801 209.644 243.76 209.68 243.712 209.703C243.664 209.727 243.611 209.738 243.557 209.736C243.484 209.732 243.413 209.709 243.351 209.668ZM178.03 206.285C177.984 206.21 177.97 206.119 177.99 206.033C178.011 205.947 178.065 205.872 178.14 205.825C178.179 205.8 178.222 205.784 178.267 205.776C178.312 205.768 178.358 205.769 178.403 205.779C178.448 205.789 178.49 205.808 178.527 205.834C178.565 205.861 178.596 205.895 178.62 205.933C178.666 206.009 178.68 206.099 178.66 206.185C178.639 206.271 178.586 206.346 178.51 206.393C178.452 206.411 178.39 206.411 178.332 206.393C178.277 206.401 178.22 206.395 178.168 206.376C178.115 206.357 178.068 206.326 178.03 206.285ZM246.422 205.189C246.344 205.144 246.287 205.07 246.264 204.984C246.241 204.898 246.253 204.806 246.298 204.729C246.344 204.652 246.419 204.596 246.506 204.574C246.593 204.551 246.686 204.563 246.764 204.607C246.804 204.628 246.839 204.657 246.867 204.692C246.895 204.727 246.916 204.768 246.927 204.811C246.939 204.854 246.941 204.899 246.935 204.943C246.928 204.987 246.912 205.03 246.888 205.067C246.858 205.117 246.816 205.158 246.766 205.187C246.715 205.215 246.658 205.23 246.6 205.23C246.538 205.231 246.477 205.217 246.422 205.189ZM175.467 201.454C175.449 201.413 175.44 201.369 175.439 201.325C175.438 201.28 175.446 201.236 175.462 201.194C175.479 201.153 175.504 201.115 175.535 201.083C175.567 201.051 175.604 201.025 175.646 201.008C175.686 200.99 175.73 200.981 175.774 200.98C175.818 200.979 175.862 200.987 175.903 201.004C175.944 201.02 175.981 201.045 176.012 201.075C176.043 201.106 176.068 201.143 176.084 201.184C176.122 201.264 176.126 201.357 176.095 201.44C176.064 201.524 176.001 201.592 175.92 201.63H175.783C175.719 201.635 175.654 201.62 175.598 201.589C175.542 201.558 175.497 201.511 175.467 201.454ZM248.834 200.345C248.752 200.306 248.687 200.24 248.652 200.157C248.617 200.075 248.613 199.983 248.642 199.898C248.658 199.856 248.683 199.817 248.715 199.785C248.747 199.753 248.785 199.727 248.827 199.709C248.87 199.691 248.915 199.682 248.961 199.682C249.007 199.682 249.052 199.691 249.094 199.709C249.137 199.725 249.176 199.75 249.209 199.781C249.242 199.813 249.268 199.85 249.286 199.892C249.303 199.934 249.313 199.978 249.313 200.024C249.313 200.069 249.304 200.114 249.286 200.155C249.259 200.216 249.215 200.267 249.159 200.303C249.103 200.339 249.038 200.358 248.971 200.358H248.834V200.345ZM173.59 196.285C173.577 196.242 173.573 196.198 173.578 196.154C173.583 196.109 173.597 196.067 173.618 196.028C173.64 195.989 173.669 195.954 173.704 195.926C173.739 195.899 173.78 195.878 173.823 195.866C173.91 195.84 174.004 195.851 174.084 195.894C174.163 195.937 174.222 196.009 174.248 196.096C174.273 196.182 174.263 196.274 174.219 196.353C174.176 196.432 174.102 196.49 174.015 196.515H173.919C173.851 196.519 173.784 196.503 173.725 196.47C173.667 196.436 173.62 196.386 173.59 196.326V196.285ZM250.547 195.162C250.46 195.14 250.386 195.084 250.34 195.009C250.294 194.933 250.279 194.842 250.3 194.756C250.31 194.712 250.328 194.671 250.354 194.634C250.38 194.598 250.413 194.567 250.452 194.543C250.49 194.519 250.532 194.503 250.577 194.495C250.622 194.488 250.667 194.489 250.711 194.499C250.756 194.51 250.798 194.529 250.834 194.557C250.871 194.584 250.901 194.618 250.924 194.657C250.947 194.696 250.962 194.739 250.968 194.784C250.974 194.829 250.97 194.875 250.958 194.918C250.94 194.991 250.898 195.056 250.838 195.102C250.779 195.149 250.705 195.175 250.629 195.175H250.547V195.162ZM172.425 190.94C172.417 190.851 172.444 190.762 172.5 190.691C172.556 190.621 172.637 190.574 172.726 190.561C172.815 190.549 172.905 190.573 172.977 190.626C173.049 190.679 173.097 190.758 173.11 190.845C173.118 190.89 173.117 190.935 173.106 190.979C173.096 191.023 173.077 191.065 173.05 191.101C173.023 191.138 172.989 191.169 172.95 191.192C172.911 191.216 172.868 191.231 172.822 191.238C172.74 191.244 172.658 191.221 172.591 191.174C172.523 191.128 172.474 191.059 172.452 190.98L172.425 190.94ZM251.493 189.844C251.403 189.83 251.322 189.784 251.266 189.713C251.21 189.643 251.183 189.554 251.191 189.465C251.201 189.377 251.246 189.298 251.315 189.242C251.384 189.186 251.472 189.16 251.561 189.167C251.653 189.177 251.738 189.223 251.797 189.293C251.855 189.364 251.884 189.455 251.876 189.546C251.864 189.627 251.822 189.702 251.76 189.756C251.697 189.811 251.617 189.842 251.534 189.844H251.493ZM172 185.5C172 185.41 172.036 185.324 172.1 185.261C172.165 185.197 172.252 185.162 172.343 185.162C172.434 185.162 172.521 185.197 172.585 185.261C172.649 185.324 172.685 185.41 172.685 185.5C172.685 185.59 172.649 185.676 172.585 185.739C172.521 185.803 172.434 185.838 172.343 185.838C172.273 185.822 172.211 185.784 172.164 185.731C172.117 185.677 172.089 185.611 172.082 185.541L172 185.5ZM251.314 184.147C251.311 184.102 251.316 184.057 251.331 184.014C251.346 183.972 251.37 183.933 251.401 183.899C251.431 183.866 251.469 183.84 251.511 183.822C251.553 183.804 251.598 183.795 251.643 183.795C251.688 183.793 251.733 183.8 251.776 183.815C251.818 183.831 251.857 183.854 251.89 183.884C251.923 183.915 251.95 183.951 251.968 183.991C251.987 184.032 251.998 184.075 252 184.12C252.002 184.164 251.995 184.209 251.979 184.25C251.963 184.292 251.94 184.33 251.909 184.363C251.879 184.396 251.842 184.422 251.801 184.441C251.76 184.459 251.716 184.47 251.671 184.472C251.598 184.455 251.532 184.416 251.483 184.36C251.433 184.304 251.403 184.234 251.397 184.16L251.314 184.147ZM172.411 183.267C172.319 183.26 172.233 183.218 172.172 183.15C172.111 183.082 172.078 182.993 172.082 182.902C172.086 182.857 172.098 182.814 172.119 182.774C172.139 182.735 172.167 182.699 172.202 182.67C172.236 182.641 172.276 182.619 172.319 182.606C172.362 182.592 172.407 182.587 172.452 182.591C172.541 182.598 172.623 182.638 172.682 182.704C172.741 182.769 172.771 182.855 172.768 182.942C172.764 183.03 172.726 183.112 172.662 183.173C172.599 183.233 172.513 183.267 172.425 183.267H172.411ZM250.752 178.815C250.736 178.727 250.756 178.637 250.808 178.563C250.859 178.49 250.938 178.439 251.027 178.423C251.071 178.413 251.117 178.412 251.161 178.421C251.206 178.429 251.248 178.447 251.285 178.472C251.323 178.498 251.354 178.531 251.378 178.569C251.402 178.607 251.418 178.649 251.424 178.693C251.434 178.737 251.435 178.782 251.426 178.826C251.417 178.87 251.4 178.912 251.374 178.949C251.348 178.986 251.315 179.017 251.276 179.04C251.238 179.064 251.195 179.079 251.15 179.086H251.081C251.02 179.07 250.965 179.037 250.921 178.992C250.878 178.946 250.848 178.89 250.835 178.829L250.752 178.815ZM173.096 177.895C173.053 177.887 173.011 177.87 172.974 177.846C172.937 177.822 172.906 177.79 172.881 177.754C172.857 177.717 172.84 177.676 172.833 177.633C172.825 177.59 172.826 177.545 172.836 177.503C172.853 177.415 172.904 177.337 172.978 177.286C173.053 177.236 173.144 177.216 173.233 177.232C173.278 177.242 173.32 177.26 173.357 177.285C173.394 177.311 173.425 177.344 173.449 177.381C173.474 177.419 173.49 177.461 173.498 177.505C173.505 177.549 173.504 177.594 173.494 177.638C173.481 177.714 173.44 177.784 173.38 177.833C173.32 177.883 173.243 177.91 173.165 177.909L173.096 177.895ZM249.588 173.619C249.561 173.535 249.57 173.443 249.611 173.365C249.652 173.287 249.722 173.227 249.807 173.199C249.85 173.185 249.896 173.178 249.941 173.181C249.987 173.184 250.031 173.196 250.072 173.216C250.113 173.237 250.15 173.265 250.179 173.299C250.209 173.333 250.231 173.373 250.245 173.416C250.26 173.459 250.265 173.504 250.261 173.548C250.258 173.593 250.244 173.637 250.222 173.676C250.2 173.716 250.17 173.75 250.134 173.778C250.098 173.805 250.057 173.825 250.012 173.835H249.916C249.845 173.839 249.775 173.82 249.715 173.781C249.656 173.742 249.611 173.685 249.588 173.619ZM174.659 172.699C174.576 172.665 174.508 172.602 174.47 172.522C174.432 172.442 174.426 172.35 174.453 172.266C174.484 172.181 174.548 172.113 174.63 172.075C174.712 172.036 174.806 172.032 174.892 172.063C174.935 172.076 174.975 172.098 175.01 172.128C175.044 172.158 175.072 172.194 175.091 172.235C175.11 172.275 175.121 172.32 175.122 172.364C175.123 172.409 175.115 172.454 175.097 172.496C175.075 172.56 175.032 172.615 174.975 172.654C174.919 172.693 174.851 172.713 174.782 172.712H174.659V172.699ZM247.573 168.639C247.535 168.558 247.532 168.466 247.562 168.383C247.593 168.299 247.656 168.231 247.737 168.193C247.82 168.154 247.914 168.148 248 168.175C248.087 168.203 248.16 168.262 248.203 168.341C248.238 168.425 248.241 168.518 248.21 168.603C248.18 168.687 248.119 168.758 248.039 168.801H247.888C247.817 168.819 247.742 168.813 247.675 168.783C247.608 168.754 247.552 168.703 247.518 168.639H247.573ZM176.811 167.719C176.77 167.699 176.733 167.671 176.704 167.637C176.674 167.602 176.652 167.562 176.639 167.519C176.626 167.475 176.623 167.43 176.629 167.385C176.635 167.34 176.65 167.297 176.674 167.259C176.694 167.218 176.722 167.182 176.757 167.153C176.792 167.124 176.833 167.102 176.876 167.09C176.92 167.077 176.966 167.073 177.012 167.079C177.057 167.085 177.101 167.1 177.14 167.124C177.179 167.145 177.214 167.174 177.243 167.208C177.271 167.243 177.292 167.283 177.305 167.325C177.318 167.368 177.322 167.413 177.317 167.457C177.312 167.502 177.298 167.545 177.277 167.584C177.247 167.637 177.203 167.681 177.15 167.712C177.097 167.743 177.037 167.76 176.975 167.76L176.811 167.719ZM244.859 163.984C244.812 163.91 244.795 163.821 244.813 163.735C244.831 163.649 244.882 163.573 244.955 163.524C244.993 163.499 245.035 163.481 245.08 163.472C245.124 163.463 245.17 163.463 245.215 163.472C245.26 163.481 245.302 163.498 245.34 163.523C245.378 163.549 245.41 163.581 245.435 163.619C245.46 163.655 245.478 163.696 245.487 163.739C245.495 163.782 245.495 163.826 245.486 163.869C245.477 163.912 245.46 163.953 245.434 163.989C245.409 164.025 245.376 164.056 245.339 164.079C245.276 164.099 245.209 164.099 245.147 164.079C245.087 164.097 245.022 164.098 244.961 164.081C244.901 164.064 244.846 164.031 244.804 163.984H244.859ZM179.634 163.091C179.571 163.028 179.536 162.943 179.536 162.854C179.536 162.766 179.571 162.681 179.634 162.617C179.659 162.581 179.691 162.55 179.728 162.527C179.765 162.503 179.806 162.487 179.85 162.479C179.893 162.472 179.938 162.473 179.981 162.482C180.024 162.492 180.064 162.511 180.1 162.536C180.137 162.562 180.169 162.594 180.193 162.632C180.217 162.67 180.233 162.712 180.241 162.756C180.249 162.8 180.247 162.845 180.237 162.889C180.227 162.932 180.209 162.973 180.182 163.01C180.153 163.055 180.112 163.092 180.064 163.118C180.016 163.144 179.963 163.158 179.908 163.159C179.852 163.171 179.793 163.171 179.736 163.159C179.68 163.148 179.626 163.124 179.579 163.091H179.634ZM241.488 159.708C241.425 159.645 241.39 159.56 241.39 159.471C241.39 159.383 241.425 159.298 241.488 159.234C241.517 159.2 241.554 159.173 241.595 159.154C241.637 159.135 241.682 159.125 241.727 159.125C241.773 159.125 241.818 159.135 241.859 159.154C241.901 159.173 241.938 159.2 241.967 159.234C242.002 159.264 242.03 159.3 242.049 159.341C242.068 159.382 242.078 159.426 242.078 159.471C242.078 159.516 242.068 159.561 242.049 159.602C242.03 159.642 242.002 159.679 241.967 159.708C241.907 159.762 241.829 159.791 241.748 159.789C241.701 159.795 241.654 159.791 241.609 159.777C241.564 159.762 241.523 159.739 241.488 159.708ZM183.033 158.842C183 158.812 182.974 158.775 182.956 158.734C182.938 158.693 182.929 158.649 182.929 158.605C182.929 158.561 182.938 158.517 182.956 158.476C182.974 158.435 183 158.399 183.033 158.368C183.097 158.306 183.183 158.272 183.273 158.272C183.363 158.272 183.449 158.306 183.513 158.368C183.546 158.4 183.572 158.438 183.59 158.48C183.608 158.521 183.618 158.566 183.618 158.612C183.618 158.657 183.608 158.702 183.59 158.744C183.572 158.786 183.546 158.824 183.513 158.855C183.482 158.89 183.444 158.918 183.402 158.937C183.359 158.956 183.313 158.965 183.266 158.964C183.224 158.966 183.181 158.961 183.141 158.947C183.101 158.933 183.064 158.911 183.033 158.883V158.842ZM237.609 155.96C237.546 155.896 237.511 155.811 237.511 155.723C237.511 155.634 237.546 155.549 237.609 155.486C237.64 155.454 237.677 155.428 237.718 155.41C237.759 155.393 237.804 155.383 237.849 155.383C237.894 155.383 237.938 155.393 237.979 155.41C238.021 155.428 238.058 155.454 238.088 155.486C238.121 155.516 238.147 155.553 238.165 155.594C238.183 155.634 238.192 155.678 238.192 155.723C238.192 155.767 238.183 155.811 238.165 155.852C238.147 155.893 238.121 155.929 238.088 155.96C238.057 155.997 238.017 156.028 237.972 156.049C237.927 156.07 237.878 156.081 237.828 156.081C237.748 156.078 237.671 156.05 237.609 156V155.96ZM187.021 155.148C186.959 155.084 186.923 154.999 186.923 154.911C186.923 154.822 186.959 154.737 187.021 154.674C187.052 154.642 187.089 154.616 187.13 154.598C187.172 154.581 187.216 154.572 187.261 154.572C187.306 154.572 187.351 154.581 187.392 154.598C187.433 154.616 187.47 154.642 187.501 154.674C187.534 154.704 187.56 154.741 187.578 154.782C187.596 154.823 187.605 154.866 187.605 154.911C187.605 154.955 187.596 154.999 187.578 155.04C187.56 155.081 187.534 155.117 187.501 155.148C187.444 155.196 187.37 155.22 187.295 155.215C187.25 155.23 187.203 155.235 187.155 155.23C187.108 155.226 187.063 155.211 187.021 155.188V155.148ZM233.25 152.766C233.174 152.716 233.12 152.639 233.1 152.551C233.079 152.463 233.094 152.37 233.141 152.292C233.193 152.219 233.272 152.169 233.362 152.151C233.451 152.133 233.543 152.15 233.62 152.198C233.658 152.221 233.691 152.252 233.716 152.288C233.741 152.324 233.759 152.364 233.768 152.407C233.777 152.45 233.777 152.495 233.768 152.538C233.759 152.581 233.742 152.622 233.716 152.658C233.69 152.71 233.648 152.753 233.597 152.782C233.546 152.81 233.487 152.824 233.429 152.82C233.369 152.834 233.307 152.829 233.25 152.807V152.766ZM191.489 152.022C191.444 151.944 191.432 151.853 191.455 151.767C191.478 151.681 191.535 151.607 191.613 151.562C191.689 151.516 191.781 151.502 191.868 151.522C191.955 151.542 192.031 151.595 192.079 151.67C192.126 151.748 192.14 151.84 192.12 151.928C192.1 152.017 192.046 152.094 191.969 152.144C191.91 152.156 191.85 152.156 191.791 152.144C191.738 152.155 191.683 152.153 191.63 152.139C191.578 152.125 191.529 152.099 191.489 152.062V152.022ZM228.495 150.195C228.413 150.157 228.35 150.089 228.32 150.005C228.289 149.921 228.293 149.829 228.33 149.748C228.369 149.668 228.438 149.606 228.522 149.576C228.607 149.545 228.701 149.549 228.782 149.586C228.824 149.604 228.861 149.629 228.893 149.661C228.924 149.693 228.949 149.731 228.966 149.773C228.982 149.814 228.99 149.858 228.989 149.903C228.988 149.948 228.979 149.992 228.961 150.033C228.93 150.09 228.885 150.139 228.83 150.175C228.775 150.21 228.711 150.231 228.645 150.236C228.591 150.25 228.535 150.25 228.481 150.236L228.495 150.195ZM196.382 149.532C196.362 149.492 196.351 149.449 196.349 149.405C196.347 149.361 196.355 149.317 196.372 149.276C196.389 149.235 196.415 149.198 196.447 149.167C196.479 149.137 196.518 149.113 196.56 149.099C196.602 149.081 196.646 149.071 196.692 149.07C196.737 149.07 196.782 149.078 196.824 149.094C196.866 149.11 196.904 149.135 196.936 149.166C196.969 149.197 196.995 149.234 197.013 149.275C197.045 149.359 197.043 149.453 197.007 149.536C196.972 149.619 196.905 149.685 196.821 149.721H196.684C196.622 149.728 196.56 149.718 196.504 149.692C196.449 149.665 196.402 149.624 196.369 149.572L196.382 149.532ZM223.423 148.3C223.336 148.275 223.263 148.217 223.219 148.138C223.175 148.06 223.165 147.967 223.19 147.881C223.219 147.797 223.278 147.726 223.357 147.684C223.436 147.641 223.528 147.629 223.615 147.651C223.704 147.679 223.777 147.74 223.821 147.821C223.864 147.902 223.874 147.996 223.848 148.084C223.827 148.153 223.783 148.213 223.724 148.255C223.664 148.296 223.592 148.317 223.519 148.314H223.423V148.3ZM201.494 147.746C201.482 147.703 201.478 147.658 201.483 147.614C201.488 147.57 201.501 147.527 201.523 147.488C201.545 147.449 201.574 147.415 201.609 147.387C201.644 147.359 201.684 147.339 201.727 147.326C201.772 147.314 201.818 147.311 201.863 147.316C201.909 147.322 201.952 147.337 201.992 147.359C202.032 147.382 202.066 147.412 202.094 147.448C202.121 147.485 202.141 147.526 202.152 147.57C202.165 147.612 202.168 147.657 202.162 147.701C202.156 147.745 202.141 147.787 202.118 147.825C202.095 147.863 202.064 147.896 202.028 147.922C201.991 147.948 201.95 147.966 201.906 147.976H201.823C201.763 147.972 201.704 147.953 201.654 147.919C201.603 147.886 201.562 147.84 201.536 147.786L201.494 147.746ZM218.078 147.123C218.034 147.118 217.99 147.104 217.951 147.082C217.912 147.06 217.878 147.031 217.851 146.995C217.824 146.96 217.805 146.919 217.795 146.876C217.784 146.833 217.783 146.788 217.79 146.744C217.795 146.7 217.809 146.657 217.832 146.619C217.854 146.58 217.884 146.547 217.92 146.52C217.956 146.494 217.997 146.474 218.041 146.464C218.085 146.454 218.13 146.452 218.174 146.46C218.263 146.473 218.343 146.521 218.397 146.592C218.45 146.662 218.474 146.751 218.462 146.839C218.449 146.92 218.408 146.995 218.345 147.049C218.283 147.103 218.203 147.134 218.119 147.137L218.078 147.123ZM206.853 146.677C206.848 146.632 206.851 146.587 206.863 146.544C206.875 146.501 206.896 146.46 206.924 146.425C206.952 146.39 206.987 146.36 207.026 146.338C207.066 146.317 207.11 146.303 207.155 146.298C207.244 146.286 207.334 146.309 207.406 146.362C207.477 146.416 207.525 146.494 207.539 146.582C207.546 146.627 207.545 146.673 207.533 146.717C207.522 146.761 207.501 146.802 207.473 146.837C207.445 146.873 207.409 146.903 207.368 146.924C207.328 146.945 207.283 146.958 207.237 146.961C207.161 146.962 207.087 146.938 207.025 146.894C206.964 146.851 206.918 146.789 206.894 146.717L206.853 146.677ZM212.665 146.677C212.574 146.677 212.487 146.641 212.422 146.578C212.358 146.514 212.322 146.428 212.322 146.338C212.322 146.249 212.358 146.163 212.422 146.099C212.487 146.036 212.574 146 212.665 146C212.757 146.004 212.844 146.042 212.908 146.108C212.972 146.173 213.007 146.261 213.007 146.352C213.004 146.439 212.966 146.522 212.902 146.582C212.838 146.643 212.753 146.677 212.665 146.677Z" fill="black"/>
<path d="M144.047 225C143.958 224.993 143.876 224.953 143.817 224.887C143.758 224.821 143.728 224.736 143.732 224.648C143.731 224.603 143.741 224.559 143.759 224.517C143.777 224.476 143.804 224.439 143.837 224.408C143.871 224.378 143.911 224.355 143.954 224.34C143.997 224.325 144.042 224.32 144.088 224.323C144.176 224.33 144.259 224.371 144.317 224.437C144.376 224.502 144.407 224.588 144.403 224.675C144.403 224.761 144.369 224.844 144.307 224.905C144.245 224.966 144.161 225 144.074 225H144.047ZM149.2 224.594C149.196 224.55 149.202 224.505 149.215 224.462C149.229 224.42 149.251 224.381 149.281 224.347C149.31 224.313 149.346 224.285 149.386 224.265C149.426 224.244 149.47 224.232 149.515 224.229C149.56 224.225 149.606 224.23 149.649 224.244C149.692 224.257 149.732 224.279 149.766 224.308C149.8 224.337 149.829 224.373 149.849 224.412C149.87 224.452 149.882 224.495 149.885 224.54C149.889 224.584 149.884 224.629 149.87 224.672C149.856 224.714 149.834 224.753 149.805 224.787C149.775 224.821 149.74 224.849 149.699 224.869C149.659 224.89 149.615 224.902 149.57 224.905C149.489 224.915 149.408 224.895 149.34 224.851C149.272 224.806 149.222 224.739 149.2 224.662V224.594ZM138.565 224.35C138.477 224.331 138.401 224.28 138.35 224.207C138.299 224.134 138.278 224.045 138.29 223.958C138.307 223.87 138.358 223.793 138.433 223.742C138.507 223.691 138.599 223.672 138.688 223.687C138.733 223.694 138.776 223.709 138.814 223.733C138.853 223.756 138.886 223.788 138.912 223.824C138.938 223.861 138.955 223.903 138.964 223.947C138.973 223.991 138.972 224.036 138.962 224.08C138.949 224.158 138.909 224.229 138.849 224.28C138.789 224.332 138.713 224.362 138.633 224.364H138.565V224.35ZM154.614 223.809C154.604 223.766 154.602 223.721 154.61 223.676C154.618 223.632 154.634 223.59 154.658 223.553C154.683 223.515 154.714 223.482 154.751 223.457C154.788 223.431 154.83 223.413 154.874 223.403C154.918 223.393 154.964 223.392 155.009 223.4C155.053 223.407 155.096 223.423 155.134 223.447C155.172 223.471 155.205 223.502 155.231 223.539C155.257 223.575 155.276 223.617 155.285 223.66C155.295 223.704 155.297 223.749 155.289 223.793C155.281 223.837 155.265 223.879 155.241 223.917C155.217 223.955 155.185 223.987 155.148 224.013C155.111 224.039 155.069 224.057 155.025 224.066C154.936 224.083 154.844 224.066 154.768 224.018C154.692 223.97 154.637 223.896 154.614 223.809ZM133.219 222.957C133.176 222.945 133.137 222.924 133.102 222.896C133.068 222.867 133.04 222.832 133.021 222.793C133.001 222.753 132.991 222.71 132.99 222.666C132.988 222.622 132.997 222.578 133.014 222.537C133.042 222.454 133.102 222.384 133.182 222.344C133.261 222.303 133.353 222.295 133.439 222.321C133.524 222.351 133.595 222.413 133.636 222.494C133.676 222.575 133.684 222.668 133.658 222.754C133.635 222.821 133.59 222.88 133.531 222.922C133.472 222.963 133.401 222.985 133.329 222.984L133.219 222.957ZM159.877 222.28C159.846 222.196 159.85 222.103 159.889 222.022C159.927 221.94 159.997 221.878 160.082 221.847C160.168 221.817 160.262 221.821 160.344 221.859C160.426 221.897 160.49 221.966 160.521 222.05C160.552 222.134 160.548 222.227 160.509 222.309C160.47 222.39 160.401 222.453 160.315 222.483H160.192C160.125 222.483 160.06 222.464 160.004 222.428C159.948 222.392 159.904 222.341 159.877 222.28ZM128.135 220.859C128.094 220.839 128.057 220.811 128.028 220.777C127.998 220.743 127.975 220.703 127.961 220.66C127.947 220.618 127.942 220.572 127.946 220.528C127.95 220.483 127.963 220.439 127.984 220.399C128.025 220.321 128.095 220.262 128.179 220.234C128.264 220.207 128.356 220.212 128.436 220.25C128.515 220.291 128.575 220.36 128.603 220.443C128.631 220.527 128.625 220.618 128.587 220.697C128.56 220.754 128.518 220.802 128.464 220.836C128.411 220.869 128.349 220.887 128.285 220.886L128.135 220.859ZM164.866 220.061C164.825 219.981 164.817 219.889 164.842 219.804C164.868 219.719 164.925 219.646 165.003 219.601C165.042 219.579 165.086 219.566 165.131 219.561C165.175 219.556 165.221 219.56 165.264 219.573C165.307 219.585 165.348 219.606 165.383 219.634C165.418 219.662 165.447 219.697 165.469 219.736C165.49 219.774 165.504 219.816 165.508 219.859C165.513 219.903 165.509 219.946 165.496 219.988C165.483 220.03 165.462 220.068 165.434 220.102C165.406 220.135 165.371 220.163 165.332 220.183C165.277 220.195 165.221 220.195 165.167 220.183C165.111 220.186 165.054 220.177 165.002 220.156C164.95 220.135 164.903 220.102 164.866 220.061ZM123.379 218.072C123.342 218.046 123.31 218.013 123.286 217.976C123.262 217.938 123.245 217.896 123.238 217.852C123.23 217.808 123.231 217.763 123.241 217.719C123.251 217.675 123.27 217.634 123.296 217.598C123.322 217.561 123.355 217.53 123.394 217.506C123.432 217.482 123.475 217.466 123.519 217.459C123.564 217.451 123.609 217.452 123.654 217.462C123.698 217.472 123.739 217.491 123.776 217.517C123.813 217.542 123.845 217.575 123.869 217.613C123.893 217.651 123.91 217.693 123.917 217.737C123.925 217.781 123.924 217.826 123.914 217.869C123.903 217.913 123.885 217.954 123.858 217.99C123.825 218.034 123.782 218.07 123.731 218.093C123.681 218.117 123.626 218.128 123.571 218.126C123.502 218.129 123.435 218.11 123.379 218.072ZM169.498 217.165C169.435 217.102 169.4 217.017 169.4 216.928C169.4 216.84 169.435 216.755 169.498 216.691C169.534 216.663 169.576 216.643 169.62 216.632C169.665 216.621 169.711 216.62 169.756 216.627C169.801 216.635 169.844 216.652 169.883 216.677C169.921 216.702 169.953 216.734 169.978 216.773C170.041 216.836 170.076 216.921 170.076 217.009C170.076 217.098 170.041 217.183 169.978 217.246C169.919 217.29 169.846 217.314 169.772 217.314C169.718 217.311 169.665 217.296 169.618 217.271C169.57 217.245 169.529 217.209 169.498 217.165ZM119.061 214.675C119.028 214.643 119.002 214.606 118.984 214.564C118.966 214.522 118.957 214.477 118.957 214.431C118.957 214.386 118.966 214.341 118.984 214.299C119.002 214.257 119.028 214.219 119.061 214.188C119.092 214.156 119.129 214.13 119.171 214.112C119.212 214.094 119.256 214.085 119.301 214.085C119.346 214.085 119.391 214.094 119.432 214.112C119.473 214.13 119.51 214.156 119.541 214.188C119.604 214.251 119.639 214.336 119.639 214.425C119.639 214.513 119.604 214.598 119.541 214.662C119.509 214.698 119.468 214.726 119.423 214.745C119.378 214.763 119.33 214.772 119.281 214.77C119.199 214.763 119.122 214.73 119.061 214.675ZM173.692 213.687C173.659 213.656 173.632 213.618 173.614 213.576C173.596 213.534 173.587 213.489 173.587 213.444C173.587 213.398 173.596 213.353 173.614 213.311C173.632 213.269 173.659 213.232 173.692 213.2C173.756 213.138 173.842 213.103 173.932 213.103C174.022 213.103 174.108 213.138 174.172 213.2C174.205 213.23 174.231 213.267 174.249 213.308C174.266 213.349 174.276 213.392 174.276 213.437C174.276 213.481 174.266 213.525 174.249 213.566C174.231 213.607 174.205 213.643 174.172 213.674C174.142 213.704 174.105 213.729 174.065 213.745C174.025 213.761 173.982 213.769 173.939 213.768C173.894 213.772 173.849 213.767 173.807 213.753C173.765 213.739 173.725 213.717 173.692 213.687ZM115.265 210.724C115.232 210.692 115.205 210.654 115.187 210.612C115.169 210.571 115.16 210.526 115.16 210.48C115.16 210.435 115.169 210.39 115.187 210.348C115.205 210.306 115.232 210.268 115.265 210.237C115.296 210.204 115.333 210.178 115.374 210.161C115.415 210.143 115.46 210.134 115.505 210.134C115.55 210.134 115.594 210.143 115.636 210.161C115.677 210.178 115.714 210.204 115.745 210.237C115.807 210.3 115.843 210.385 115.843 210.473C115.843 210.562 115.807 210.647 115.745 210.71C115.682 210.76 115.605 210.788 115.525 210.791C115.48 210.798 115.433 210.795 115.388 210.784C115.343 210.772 115.302 210.752 115.265 210.724ZM177.351 209.668C177.319 209.638 177.293 209.601 177.275 209.56C177.257 209.52 177.248 209.476 177.248 209.431C177.248 209.387 177.257 209.343 177.275 209.302C177.293 209.262 177.319 209.225 177.351 209.195C177.378 209.159 177.412 209.129 177.451 209.106C177.49 209.084 177.533 209.069 177.577 209.063C177.622 209.056 177.667 209.059 177.711 209.07C177.754 209.081 177.795 209.1 177.831 209.127C177.864 209.157 177.89 209.194 177.908 209.235C177.926 209.275 177.935 209.319 177.935 209.364C177.935 209.408 177.926 209.452 177.908 209.493C177.89 209.533 177.864 209.57 177.831 209.601C177.801 209.644 177.76 209.68 177.712 209.703C177.664 209.727 177.611 209.738 177.557 209.736C177.484 209.732 177.413 209.709 177.351 209.668ZM112.03 206.285C111.984 206.21 111.97 206.119 111.99 206.033C112.011 205.947 112.065 205.872 112.14 205.825C112.179 205.8 112.222 205.784 112.267 205.776C112.312 205.768 112.358 205.769 112.403 205.779C112.448 205.789 112.49 205.808 112.527 205.834C112.565 205.861 112.596 205.895 112.62 205.933C112.666 206.009 112.68 206.099 112.66 206.185C112.639 206.271 112.586 206.346 112.51 206.393C112.452 206.411 112.39 206.411 112.332 206.393C112.277 206.401 112.22 206.395 112.168 206.376C112.115 206.357 112.068 206.326 112.03 206.285ZM180.422 205.189C180.344 205.144 180.287 205.07 180.264 204.984C180.241 204.898 180.253 204.806 180.298 204.729C180.344 204.652 180.419 204.596 180.506 204.574C180.593 204.551 180.686 204.563 180.764 204.607C180.804 204.628 180.839 204.657 180.867 204.692C180.895 204.727 180.916 204.768 180.927 204.811C180.939 204.854 180.941 204.899 180.935 204.943C180.928 204.987 180.912 205.03 180.888 205.067C180.858 205.117 180.816 205.158 180.766 205.187C180.715 205.215 180.658 205.23 180.6 205.23C180.538 205.231 180.477 205.217 180.422 205.189ZM109.467 201.454C109.449 201.413 109.44 201.369 109.439 201.325C109.438 201.28 109.446 201.236 109.462 201.194C109.479 201.153 109.504 201.115 109.535 201.083C109.567 201.051 109.604 201.025 109.646 201.008C109.686 200.99 109.73 200.981 109.774 200.98C109.818 200.979 109.862 200.987 109.903 201.004C109.944 201.02 109.981 201.045 110.012 201.075C110.043 201.106 110.068 201.143 110.084 201.184C110.122 201.264 110.126 201.357 110.095 201.44C110.064 201.524 110.001 201.592 109.92 201.63H109.783C109.719 201.635 109.654 201.62 109.598 201.589C109.542 201.558 109.497 201.511 109.467 201.454ZM182.834 200.345C182.752 200.306 182.687 200.24 182.652 200.157C182.617 200.075 182.613 199.983 182.642 199.898C182.658 199.856 182.683 199.817 182.715 199.785C182.747 199.753 182.785 199.727 182.827 199.709C182.87 199.691 182.915 199.682 182.961 199.682C183.007 199.682 183.052 199.691 183.094 199.709C183.137 199.725 183.176 199.75 183.209 199.781C183.242 199.813 183.268 199.85 183.286 199.892C183.303 199.934 183.313 199.978 183.313 200.024C183.313 200.069 183.304 200.114 183.286 200.155C183.259 200.216 183.215 200.267 183.159 200.303C183.103 200.339 183.038 200.358 182.971 200.358H182.834V200.345ZM107.59 196.285C107.577 196.242 107.573 196.198 107.578 196.154C107.583 196.109 107.597 196.067 107.618 196.028C107.64 195.989 107.669 195.954 107.704 195.926C107.739 195.899 107.78 195.878 107.823 195.866C107.91 195.84 108.004 195.851 108.084 195.894C108.163 195.937 108.222 196.009 108.248 196.096C108.273 196.182 108.263 196.274 108.219 196.353C108.176 196.432 108.102 196.49 108.015 196.515H107.919C107.851 196.519 107.784 196.503 107.725 196.47C107.667 196.436 107.62 196.386 107.59 196.326V196.285ZM184.547 195.162C184.46 195.14 184.386 195.084 184.34 195.009C184.294 194.933 184.279 194.842 184.3 194.756C184.31 194.712 184.328 194.671 184.354 194.634C184.38 194.598 184.413 194.567 184.452 194.543C184.49 194.519 184.532 194.503 184.577 194.495C184.622 194.488 184.667 194.489 184.711 194.499C184.756 194.51 184.798 194.529 184.834 194.557C184.871 194.584 184.901 194.618 184.924 194.657C184.947 194.696 184.962 194.739 184.968 194.784C184.974 194.829 184.97 194.875 184.958 194.918C184.94 194.991 184.898 195.056 184.838 195.102C184.779 195.149 184.705 195.175 184.629 195.175H184.547V195.162ZM106.425 190.94C106.417 190.851 106.444 190.762 106.5 190.691C106.556 190.621 106.637 190.574 106.726 190.561C106.815 190.549 106.905 190.573 106.977 190.626C107.049 190.679 107.097 190.758 107.11 190.845C107.118 190.89 107.117 190.935 107.106 190.979C107.096 191.023 107.077 191.065 107.05 191.101C107.023 191.138 106.989 191.169 106.95 191.192C106.911 191.216 106.868 191.231 106.822 191.238C106.74 191.244 106.658 191.221 106.591 191.174C106.523 191.128 106.474 191.059 106.452 190.98L106.425 190.94ZM185.493 189.844C185.403 189.83 185.322 189.784 185.266 189.713C185.21 189.643 185.183 189.554 185.191 189.465C185.201 189.377 185.246 189.298 185.315 189.242C185.384 189.186 185.472 189.16 185.561 189.167C185.653 189.177 185.738 189.223 185.797 189.293C185.855 189.364 185.884 189.455 185.876 189.546C185.864 189.627 185.822 189.702 185.76 189.756C185.697 189.811 185.617 189.842 185.534 189.844H185.493ZM106 185.5C106 185.41 106.036 185.324 106.1 185.261C106.165 185.197 106.252 185.162 106.343 185.162C106.434 185.162 106.521 185.197 106.585 185.261C106.649 185.324 106.685 185.41 106.685 185.5C106.685 185.59 106.649 185.676 106.585 185.739C106.521 185.803 106.434 185.838 106.343 185.838C106.273 185.822 106.211 185.784 106.164 185.731C106.117 185.677 106.089 185.611 106.082 185.541L106 185.5ZM185.314 184.147C185.311 184.102 185.316 184.057 185.331 184.014C185.346 183.972 185.37 183.933 185.401 183.899C185.431 183.866 185.469 183.84 185.511 183.822C185.553 183.804 185.598 183.795 185.643 183.795C185.688 183.793 185.733 183.8 185.776 183.815C185.818 183.831 185.857 183.854 185.89 183.884C185.923 183.915 185.95 183.951 185.968 183.991C185.987 184.032 185.998 184.075 186 184.12C186.002 184.164 185.995 184.209 185.979 184.25C185.963 184.292 185.94 184.33 185.909 184.363C185.879 184.396 185.842 184.422 185.801 184.441C185.76 184.459 185.716 184.47 185.671 184.472C185.598 184.455 185.532 184.416 185.483 184.36C185.433 184.304 185.403 184.234 185.397 184.16L185.314 184.147ZM106.411 183.267C106.319 183.26 106.233 183.218 106.172 183.15C106.111 183.082 106.078 182.993 106.082 182.902C106.086 182.857 106.098 182.814 106.119 182.774C106.139 182.735 106.167 182.699 106.202 182.67C106.236 182.641 106.276 182.619 106.319 182.606C106.362 182.592 106.407 182.587 106.452 182.591C106.541 182.598 106.623 182.638 106.682 182.704C106.741 182.769 106.771 182.855 106.768 182.942C106.764 183.03 106.726 183.112 106.662 183.173C106.599 183.233 106.513 183.267 106.425 183.267H106.411ZM184.752 178.815C184.736 178.727 184.756 178.637 184.808 178.563C184.859 178.49 184.938 178.439 185.027 178.423C185.071 178.413 185.117 178.412 185.161 178.421C185.206 178.429 185.248 178.447 185.285 178.472C185.323 178.498 185.354 178.531 185.378 178.569C185.402 178.607 185.418 178.649 185.424 178.693C185.434 178.737 185.435 178.782 185.426 178.826C185.417 178.87 185.4 178.912 185.374 178.949C185.348 178.986 185.315 179.017 185.276 179.04C185.238 179.064 185.195 179.079 185.15 179.086H185.081C185.02 179.07 184.965 179.037 184.921 178.992C184.878 178.946 184.848 178.89 184.835 178.829L184.752 178.815ZM107.096 177.895C107.053 177.887 107.011 177.87 106.974 177.846C106.937 177.822 106.906 177.79 106.881 177.754C106.857 177.717 106.84 177.676 106.833 177.633C106.825 177.59 106.826 177.545 106.836 177.503C106.853 177.415 106.904 177.337 106.978 177.286C107.053 177.236 107.144 177.216 107.233 177.232C107.278 177.242 107.32 177.26 107.357 177.285C107.394 177.311 107.425 177.344 107.449 177.381C107.474 177.419 107.49 177.461 107.498 177.505C107.505 177.549 107.504 177.594 107.494 177.638C107.481 177.714 107.44 177.784 107.38 177.833C107.32 177.883 107.243 177.91 107.165 177.909L107.096 177.895ZM183.588 173.619C183.561 173.535 183.57 173.443 183.611 173.365C183.652 173.287 183.722 173.227 183.807 173.199C183.85 173.185 183.896 173.178 183.941 173.181C183.987 173.184 184.031 173.196 184.072 173.216C184.113 173.237 184.15 173.265 184.179 173.299C184.209 173.333 184.231 173.373 184.245 173.416C184.26 173.459 184.265 173.504 184.261 173.548C184.258 173.593 184.244 173.637 184.222 173.676C184.2 173.716 184.17 173.75 184.134 173.778C184.098 173.805 184.057 173.825 184.012 173.835H183.916C183.845 173.839 183.775 173.82 183.715 173.781C183.656 173.742 183.611 173.685 183.588 173.619ZM108.659 172.699C108.576 172.665 108.508 172.602 108.47 172.522C108.432 172.442 108.426 172.35 108.453 172.266C108.484 172.181 108.548 172.113 108.63 172.075C108.712 172.036 108.806 172.032 108.892 172.063C108.935 172.076 108.975 172.098 109.01 172.128C109.044 172.158 109.072 172.194 109.091 172.235C109.11 172.275 109.121 172.32 109.122 172.364C109.123 172.409 109.115 172.454 109.097 172.496C109.075 172.56 109.032 172.615 108.975 172.654C108.919 172.693 108.851 172.713 108.782 172.712H108.659V172.699ZM181.573 168.639C181.535 168.558 181.532 168.466 181.562 168.383C181.593 168.299 181.656 168.231 181.737 168.193C181.82 168.154 181.914 168.148 182 168.175C182.087 168.203 182.16 168.262 182.203 168.341C182.238 168.425 182.241 168.518 182.21 168.603C182.18 168.687 182.119 168.758 182.039 168.801H181.888C181.817 168.819 181.742 168.813 181.675 168.783C181.608 168.754 181.552 168.703 181.518 168.639H181.573ZM110.811 167.719C110.77 167.699 110.733 167.671 110.704 167.637C110.674 167.602 110.652 167.562 110.639 167.519C110.626 167.475 110.623 167.43 110.629 167.385C110.635 167.34 110.65 167.297 110.674 167.259C110.694 167.218 110.722 167.182 110.757 167.153C110.792 167.124 110.833 167.102 110.876 167.09C110.92 167.077 110.966 167.073 111.012 167.079C111.057 167.085 111.101 167.1 111.14 167.124C111.179 167.145 111.214 167.174 111.243 167.208C111.271 167.243 111.292 167.283 111.305 167.325C111.318 167.368 111.322 167.413 111.317 167.457C111.312 167.502 111.298 167.545 111.277 167.584C111.247 167.637 111.203 167.681 111.15 167.712C111.097 167.743 111.037 167.76 110.975 167.76L110.811 167.719ZM178.859 163.984C178.812 163.91 178.795 163.821 178.813 163.735C178.831 163.649 178.882 163.573 178.955 163.524C178.993 163.499 179.035 163.481 179.08 163.472C179.124 163.463 179.17 163.463 179.215 163.472C179.26 163.481 179.302 163.498 179.34 163.523C179.378 163.549 179.41 163.581 179.435 163.619C179.46 163.655 179.478 163.696 179.487 163.739C179.495 163.782 179.495 163.826 179.486 163.869C179.477 163.912 179.46 163.953 179.434 163.989C179.409 164.025 179.376 164.056 179.339 164.079C179.276 164.099 179.209 164.099 179.147 164.079C179.087 164.097 179.022 164.098 178.961 164.081C178.901 164.064 178.846 164.031 178.804 163.984H178.859ZM113.634 163.091C113.571 163.028 113.536 162.943 113.536 162.854C113.536 162.766 113.571 162.681 113.634 162.617C113.659 162.581 113.691 162.55 113.728 162.527C113.765 162.503 113.806 162.487 113.85 162.479C113.893 162.472 113.938 162.473 113.981 162.482C114.024 162.492 114.064 162.511 114.1 162.536C114.137 162.562 114.169 162.594 114.193 162.632C114.217 162.67 114.233 162.712 114.241 162.756C114.249 162.8 114.247 162.845 114.237 162.889C114.227 162.932 114.209 162.973 114.182 163.01C114.153 163.055 114.112 163.092 114.064 163.118C114.016 163.144 113.963 163.158 113.908 163.159C113.852 163.171 113.793 163.171 113.736 163.159C113.68 163.148 113.626 163.124 113.579 163.091H113.634ZM175.488 159.708C175.425 159.645 175.39 159.56 175.39 159.471C175.39 159.383 175.425 159.298 175.488 159.234C175.517 159.2 175.554 159.173 175.595 159.154C175.637 159.135 175.682 159.125 175.727 159.125C175.773 159.125 175.818 159.135 175.859 159.154C175.901 159.173 175.938 159.2 175.967 159.234C176.002 159.264 176.03 159.3 176.049 159.341C176.068 159.382 176.078 159.426 176.078 159.471C176.078 159.516 176.068 159.561 176.049 159.602C176.03 159.642 176.002 159.679 175.967 159.708C175.907 159.762 175.829 159.791 175.748 159.789C175.701 159.795 175.654 159.791 175.609 159.777C175.564 159.762 175.523 159.739 175.488 159.708ZM117.033 158.842C117 158.812 116.974 158.775 116.956 158.734C116.938 158.693 116.929 158.649 116.929 158.605C116.929 158.561 116.938 158.517 116.956 158.476C116.974 158.435 117 158.399 117.033 158.368C117.097 158.306 117.183 158.272 117.273 158.272C117.363 158.272 117.449 158.306 117.513 158.368C117.546 158.4 117.572 158.438 117.59 158.48C117.608 158.521 117.618 158.566 117.618 158.612C117.618 158.657 117.608 158.702 117.59 158.744C117.572 158.786 117.546 158.824 117.513 158.855C117.482 158.89 117.444 158.918 117.402 158.937C117.359 158.956 117.313 158.965 117.266 158.964C117.224 158.966 117.181 158.961 117.141 158.947C117.101 158.933 117.064 158.911 117.033 158.883V158.842ZM171.609 155.96C171.546 155.896 171.511 155.811 171.511 155.723C171.511 155.634 171.546 155.549 171.609 155.486C171.64 155.454 171.677 155.428 171.718 155.41C171.759 155.393 171.804 155.383 171.849 155.383C171.894 155.383 171.938 155.393 171.979 155.41C172.021 155.428 172.058 155.454 172.088 155.486C172.121 155.516 172.147 155.553 172.165 155.594C172.183 155.634 172.192 155.678 172.192 155.723C172.192 155.767 172.183 155.811 172.165 155.852C172.147 155.893 172.121 155.929 172.088 155.96C172.057 155.997 172.017 156.028 171.972 156.049C171.927 156.07 171.878 156.081 171.828 156.081C171.748 156.078 171.671 156.05 171.609 156V155.96ZM121.021 155.148C120.959 155.084 120.923 154.999 120.923 154.911C120.923 154.822 120.959 154.737 121.021 154.674C121.052 154.642 121.089 154.616 121.13 154.598C121.172 154.581 121.216 154.572 121.261 154.572C121.306 154.572 121.351 154.581 121.392 154.598C121.433 154.616 121.47 154.642 121.501 154.674C121.534 154.704 121.56 154.741 121.578 154.782C121.596 154.823 121.605 154.866 121.605 154.911C121.605 154.955 121.596 154.999 121.578 155.04C121.56 155.081 121.534 155.117 121.501 155.148C121.444 155.196 121.37 155.22 121.295 155.215C121.25 155.23 121.203 155.235 121.155 155.23C121.108 155.226 121.063 155.211 121.021 155.188V155.148ZM167.25 152.766C167.174 152.716 167.12 152.639 167.1 152.551C167.079 152.463 167.094 152.37 167.141 152.292C167.193 152.219 167.272 152.169 167.362 152.151C167.451 152.133 167.543 152.15 167.62 152.198C167.658 152.221 167.691 152.252 167.716 152.288C167.741 152.324 167.759 152.364 167.768 152.407C167.777 152.45 167.777 152.495 167.768 152.538C167.759 152.581 167.742 152.622 167.716 152.658C167.69 152.71 167.648 152.753 167.597 152.782C167.546 152.81 167.487 152.824 167.429 152.82C167.369 152.834 167.307 152.829 167.25 152.807V152.766ZM125.489 152.022C125.444 151.944 125.432 151.853 125.455 151.767C125.478 151.681 125.535 151.607 125.613 151.562C125.689 151.516 125.781 151.502 125.868 151.522C125.955 151.542 126.031 151.595 126.079 151.67C126.126 151.748 126.14 151.84 126.12 151.928C126.1 152.017 126.046 152.094 125.969 152.144C125.91 152.156 125.85 152.156 125.791 152.144C125.738 152.155 125.683 152.153 125.63 152.139C125.578 152.125 125.529 152.099 125.489 152.062V152.022ZM162.495 150.195C162.413 150.157 162.35 150.089 162.32 150.005C162.289 149.921 162.293 149.829 162.33 149.748C162.369 149.668 162.438 149.606 162.522 149.576C162.607 149.545 162.701 149.549 162.782 149.586C162.824 149.604 162.861 149.629 162.893 149.661C162.924 149.693 162.949 149.731 162.966 149.773C162.982 149.814 162.99 149.858 162.989 149.903C162.988 149.948 162.979 149.992 162.961 150.033C162.93 150.09 162.885 150.139 162.83 150.175C162.775 150.21 162.711 150.231 162.645 150.236C162.591 150.25 162.535 150.25 162.481 150.236L162.495 150.195ZM130.382 149.532C130.362 149.492 130.351 149.449 130.349 149.405C130.347 149.361 130.355 149.317 130.372 149.276C130.389 149.235 130.415 149.198 130.447 149.167C130.479 149.137 130.518 149.113 130.56 149.099C130.602 149.081 130.646 149.071 130.692 149.07C130.737 149.07 130.782 149.078 130.824 149.094C130.866 149.11 130.904 149.135 130.936 149.166C130.969 149.197 130.995 149.234 131.013 149.275C131.045 149.359 131.043 149.453 131.007 149.536C130.972 149.619 130.905 149.685 130.821 149.721H130.684C130.622 149.728 130.56 149.718 130.504 149.692C130.449 149.665 130.402 149.624 130.369 149.572L130.382 149.532ZM157.423 148.3C157.336 148.275 157.263 148.217 157.219 148.138C157.175 148.06 157.165 147.967 157.19 147.881C157.219 147.797 157.278 147.726 157.357 147.684C157.436 147.641 157.528 147.629 157.615 147.651C157.704 147.679 157.777 147.74 157.821 147.821C157.864 147.902 157.874 147.996 157.848 148.084C157.827 148.153 157.783 148.213 157.724 148.255C157.664 148.296 157.592 148.317 157.519 148.314H157.423V148.3ZM135.494 147.746C135.482 147.703 135.478 147.658 135.483 147.614C135.488 147.57 135.501 147.527 135.523 147.488C135.545 147.449 135.574 147.415 135.609 147.387C135.644 147.359 135.684 147.339 135.727 147.326C135.772 147.314 135.818 147.311 135.863 147.316C135.909 147.322 135.952 147.337 135.992 147.359C136.032 147.382 136.066 147.412 136.094 147.448C136.121 147.485 136.141 147.526 136.152 147.57C136.165 147.612 136.168 147.657 136.162 147.701C136.156 147.745 136.141 147.787 136.118 147.825C136.095 147.863 136.064 147.896 136.028 147.922C135.991 147.948 135.95 147.966 135.906 147.976H135.823C135.763 147.972 135.704 147.953 135.654 147.919C135.603 147.886 135.562 147.84 135.536 147.786L135.494 147.746ZM152.078 147.123C152.034 147.118 151.99 147.104 151.951 147.082C151.912 147.06 151.878 147.031 151.851 146.995C151.824 146.96 151.805 146.919 151.795 146.876C151.784 146.833 151.783 146.788 151.79 146.744C151.795 146.7 151.809 146.657 151.832 146.619C151.854 146.58 151.884 146.547 151.92 146.52C151.956 146.494 151.997 146.474 152.041 146.464C152.085 146.454 152.13 146.452 152.174 146.46C152.263 146.473 152.343 146.521 152.397 146.592C152.45 146.662 152.474 146.751 152.462 146.839C152.449 146.92 152.408 146.995 152.345 147.049C152.283 147.103 152.203 147.134 152.119 147.137L152.078 147.123ZM140.853 146.677C140.848 146.632 140.851 146.587 140.863 146.544C140.875 146.501 140.896 146.46 140.924 146.425C140.952 146.39 140.987 146.36 141.026 146.338C141.066 146.317 141.11 146.303 141.155 146.298C141.244 146.286 141.334 146.309 141.406 146.362C141.477 146.416 141.525 146.494 141.539 146.582C141.546 146.627 141.545 146.673 141.533 146.717C141.522 146.761 141.501 146.802 141.473 146.837C141.445 146.873 141.409 146.903 141.368 146.924C141.328 146.945 141.283 146.958 141.237 146.961C141.161 146.962 141.087 146.938 141.025 146.894C140.964 146.851 140.918 146.789 140.894 146.717L140.853 146.677ZM146.665 146.677C146.574 146.677 146.487 146.641 146.422 146.578C146.358 146.514 146.322 146.428 146.322 146.338C146.322 146.249 146.358 146.163 146.422 146.099C146.487 146.036 146.574 146 146.665 146C146.757 146.004 146.844 146.042 146.908 146.108C146.972 146.173 147.007 146.261 147.007 146.352C147.004 146.439 146.966 146.522 146.902 146.582C146.838 146.643 146.753 146.677 146.665 146.677Z" fill="black"/>
</g>
<defs>
<clipPath id="clip0_831_7068">
<rect width="400" height="400" fill="white"/>
</clipPath>
</defs>
</svg>
