<svg width="244" height="151" viewBox="0 0 244 151" fill="none" xmlns="http://www.w3.org/2000/svg">
<g clip-path="url(#clip0_832_8520)">
<path d="M47.9305 129.113C46.2335 128.229 44.3473 127.767 42.4328 127.767C40.5182 127.767 38.6321 128.229 36.9351 129.113C35.2891 130.027 33.9423 131.395 33.0567 133.053C32.1101 135.026 31.6188 137.185 31.6188 139.372C31.6188 141.559 32.1101 143.718 33.0567 145.691C33.9454 147.35 35.2911 148.721 36.9351 149.642C38.6189 150.562 40.5133 151.03 42.4328 151C44.3505 151.027 46.243 150.563 47.9305 149.654C49.5814 148.74 50.9324 147.37 51.8206 145.708C52.767 143.733 53.2582 141.571 53.2582 139.381C53.2582 137.191 52.767 135.029 51.8206 133.053C50.932 131.393 49.581 130.025 47.9305 129.113ZM47.0328 143.115C46.6828 144.046 46.059 144.85 45.2432 145.422C44.6289 145.848 43.9249 146.129 43.1852 146.242C42.4455 146.356 41.6896 146.299 40.9751 146.076C40.2607 145.854 39.6067 145.471 39.0631 144.958C38.5195 144.445 38.1007 143.815 37.8386 143.115C37.0017 140.698 37.0017 138.07 37.8386 135.652C38.1851 134.714 38.8116 133.904 39.6336 133.332C40.4556 132.761 41.4336 132.454 42.4357 132.454C43.4378 132.454 44.4158 132.761 45.2378 133.332C46.0598 133.904 46.6863 134.714 47.0328 135.652C47.8697 138.07 47.8697 140.698 47.0328 143.115Z" fill="#29A9E1"/>
<path d="M69.317 129.078C67.9367 128.381 66.4043 128.037 64.8578 128.077H55.3644V151H56.3853C56.9814 151 57.5716 150.883 58.1223 150.655C58.6729 150.427 59.1732 150.093 59.5944 149.673C60.0157 149.252 60.3496 148.752 60.5772 148.203C60.8048 147.653 60.9216 147.064 60.9208 146.469V143.882H64.6935C66.2674 143.921 67.828 143.586 69.2466 142.904C70.4712 142.293 71.4907 141.339 72.1803 140.159C72.8942 138.894 73.253 137.46 73.2188 136.009C73.2513 134.562 72.899 133.132 72.1978 131.864C71.5184 130.676 70.51 129.709 69.2935 129.078M67.0228 137.859C66.7288 138.387 66.2806 138.814 65.7379 139.082C65.0831 139.394 64.3627 139.545 63.6374 139.521H60.9208V132.543H63.6608C64.3822 132.521 65.099 132.666 65.7555 132.965C66.2988 133.226 66.7491 133.647 67.0463 134.171C67.3516 134.735 67.5033 135.368 67.4864 136.009C67.5011 136.651 67.3495 137.286 67.0463 137.853" fill="#29A9E1"/>
<path d="M94.8341 133.053C93.9456 131.393 92.5946 130.025 90.944 129.113C89.247 128.229 87.3609 127.767 85.4463 127.767C83.5318 127.767 81.6456 128.229 79.9486 129.113C78.3014 130.025 76.9543 131.393 76.0703 133.053C75.1237 135.026 74.6323 137.185 74.6323 139.372C74.6323 141.559 75.1237 143.718 76.0703 145.691C76.9573 147.351 78.3034 148.722 79.9486 149.642C81.6325 150.562 83.5268 151.03 85.4463 151C87.364 151.027 89.2566 150.563 90.944 149.654C92.595 148.74 93.946 147.37 94.8341 145.708C95.7806 143.733 96.2718 141.571 96.2718 139.381C96.2718 137.191 95.7806 135.029 94.8341 133.053ZM90.0463 143.115C89.7104 144.051 89.082 144.854 88.2538 145.406C87.4255 145.959 86.4413 146.231 85.4463 146.183C84.4498 146.226 83.4656 145.949 82.6386 145.393C81.8116 144.836 81.1854 144.03 80.8522 143.092C80.0153 140.674 80.0153 138.046 80.8522 135.628C81.2037 134.695 81.8294 133.889 82.6476 133.316C83.4939 132.807 84.4637 132.537 85.4522 132.537C86.4407 132.537 87.4105 132.807 88.2568 133.316C89.0609 133.895 89.6737 134.7 90.017 135.628C90.8539 138.046 90.8539 140.674 90.017 143.092" fill="#29A9E1"/>
<path d="M111.855 151H117.265V134.024H116.408C115.201 134.024 114.043 134.503 113.189 135.355C112.335 136.207 111.855 137.362 111.855 138.567V151Z" fill="white"/>
<path d="M114.56 127.773C113.868 127.761 113.199 128.02 112.694 128.493C112.451 128.712 112.257 128.98 112.124 129.279C111.991 129.578 111.923 129.901 111.923 130.228C111.923 130.555 111.991 130.879 112.124 131.178C112.257 131.477 112.451 131.744 112.694 131.964C113.202 132.439 113.876 132.697 114.572 132.684C115.263 132.697 115.93 132.438 116.432 131.964C116.675 131.744 116.869 131.477 117.002 131.178C117.135 130.879 117.203 130.555 117.203 130.228C117.203 129.901 117.135 129.578 117.002 129.279C116.869 128.98 116.675 128.712 116.432 128.493C115.927 128.017 115.255 127.758 114.56 127.773Z" fill="white"/>
<path d="M134.321 134.616C133.378 134.066 132.298 133.79 131.206 133.82C130.062 133.788 128.935 134.095 127.967 134.704C127.07 135.283 126.391 136.144 126.037 137.15H125.849V134.036H120.703V151.012H126.107V141.324C126.096 140.752 126.218 140.184 126.465 139.667C126.683 139.224 127.031 138.856 127.463 138.614C127.919 138.36 128.436 138.233 128.959 138.245C129.332 138.224 129.705 138.285 130.053 138.422C130.4 138.56 130.714 138.771 130.971 139.041C131.485 139.658 131.739 140.448 131.681 141.248V151H137.097V140.188C137.13 139.032 136.88 137.885 136.369 136.846C135.907 135.924 135.193 135.151 134.31 134.616" fill="white"/>
<path d="M153.285 135.014C152.557 134.511 151.747 134.139 150.891 133.913C149.914 133.648 148.905 133.518 147.893 133.527C146.558 133.492 145.23 133.731 143.991 134.229C142.988 134.639 142.111 135.303 141.444 136.155C140.83 136.962 140.436 137.914 140.3 138.918L145.293 139.094C145.394 138.576 145.69 138.117 146.121 137.812C146.634 137.483 147.237 137.321 147.846 137.349C148.411 137.32 148.97 137.483 149.43 137.812C149.625 137.969 149.781 138.171 149.883 138.4C149.985 138.629 150.031 138.879 150.017 139.129V139.158C150.024 139.315 149.99 139.471 149.919 139.612C149.848 139.752 149.742 139.872 149.612 139.96C149.218 140.192 148.781 140.34 148.327 140.393C147.74 140.493 146.954 140.586 145.98 140.674C145.157 140.74 144.342 140.881 143.545 141.096C142.824 141.287 142.142 141.6 141.527 142.021C140.945 142.426 140.473 142.969 140.154 143.601C139.801 144.345 139.631 145.161 139.655 145.983C139.619 146.963 139.872 147.932 140.382 148.77C140.861 149.509 141.552 150.087 142.366 150.426C143.962 151.061 145.724 151.149 147.376 150.678C147.981 150.493 148.542 150.189 149.025 149.782C149.508 149.378 149.907 148.883 150.199 148.325H150.333V150.666H155.444V139.158C155.452 138.324 155.25 137.501 154.857 136.764C154.476 136.065 153.938 135.464 153.285 135.008M150.052 144.678C150.062 145.194 149.915 145.7 149.629 146.13C149.348 146.548 148.962 146.885 148.509 147.107C148.018 147.346 147.477 147.467 146.93 147.459C146.386 147.482 145.848 147.327 145.399 147.02C145.203 146.87 145.048 146.675 144.945 146.452C144.843 146.228 144.797 145.983 144.812 145.738C144.804 145.398 144.903 145.064 145.094 144.783C145.304 144.496 145.585 144.269 145.91 144.122C146.325 143.939 146.763 143.813 147.212 143.747L147.998 143.63C148.274 143.583 148.538 143.531 148.796 143.472C149.054 143.414 149.289 143.349 149.512 143.285C149.705 143.229 149.891 143.154 150.069 143.063L150.052 144.678Z" fill="white"/>
<path d="M172.336 134.616C171.392 134.066 170.313 133.79 169.221 133.82C168.075 133.788 166.946 134.096 165.976 134.703C165.082 135.285 164.405 136.145 164.051 137.15H163.864V134.036H158.718V151.012H164.128V141.324C164.121 140.751 164.245 140.185 164.491 139.667C164.709 139.225 165.054 138.858 165.483 138.614C165.943 138.361 166.461 138.234 166.985 138.245C167.357 138.224 167.73 138.284 168.076 138.422C168.423 138.559 168.735 138.771 168.992 139.041C169.507 139.657 169.764 140.448 169.708 141.248V151H175.123V140.188C175.156 139.032 174.907 137.885 174.396 136.846C173.929 135.926 173.216 135.154 172.336 134.616Z" fill="white"/>
<path d="M184.839 138.128C185.317 137.779 185.896 137.596 186.488 137.607C186.837 137.594 187.185 137.652 187.51 137.779C187.835 137.906 188.13 138.098 188.377 138.345C188.89 138.909 189.2 139.628 189.258 140.388H194.315C194.306 139.101 193.943 137.841 193.265 136.747C192.596 135.706 191.646 134.874 190.525 134.347C189.238 133.756 187.834 133.465 186.418 133.498C184.817 133.454 183.233 133.836 181.829 134.604C180.574 135.324 179.555 136.391 178.896 137.677C178.218 139.106 177.866 140.668 177.866 142.249C177.866 143.83 178.218 145.391 178.896 146.821C179.556 148.106 180.575 149.173 181.829 149.894C183.241 150.664 184.833 151.046 186.441 151C187.859 151.03 189.264 150.734 190.548 150.134C191.665 149.594 192.605 148.75 193.259 147.699C193.924 146.588 194.286 145.322 194.309 144.028H191.34C190.819 144.035 190.308 144.179 189.86 144.443C189.411 144.708 189.039 145.086 188.782 145.539C188.555 145.934 188.225 146.26 187.826 146.481C187.358 146.723 186.832 146.832 186.307 146.796C185.781 146.76 185.275 146.58 184.845 146.276C184.333 145.876 183.949 145.335 183.742 144.719C183.218 143.074 183.218 141.307 183.742 139.662C183.954 139.052 184.337 138.515 184.845 138.116" fill="white"/>
<path d="M213.108 143.502V142.155C213.137 140.895 212.938 139.64 212.522 138.45C212.153 137.433 211.574 136.505 210.82 135.728C210.084 134.989 209.195 134.419 208.215 134.06C207.152 133.666 206.027 133.468 204.894 133.474C203.335 133.434 201.795 133.814 200.435 134.575C199.183 135.296 198.165 136.361 197.501 137.642C196.782 139.068 196.426 140.648 196.463 142.243C196.419 143.865 196.774 145.472 197.495 146.926C198.159 148.205 199.194 149.256 200.464 149.941C201.883 150.674 203.466 151.037 205.064 150.994C206.4 151.019 207.729 150.788 208.978 150.315C210.037 149.915 210.978 149.257 211.718 148.401C212.42 147.573 212.888 146.572 213.073 145.503L209.676 145.41C209.279 145.399 208.884 145.469 208.515 145.614C208.146 145.76 207.81 145.98 207.528 146.259L207.476 146.311C207.184 146.574 206.84 146.774 206.466 146.897C206.046 147.035 205.606 147.102 205.164 147.096C204.538 147.112 203.918 146.962 203.369 146.663C202.868 146.384 202.46 145.964 202.195 145.457C201.91 144.895 201.769 144.271 201.784 143.642V143.496L213.108 143.502ZM203.357 137.8C203.854 137.526 204.414 137.387 204.982 137.396C205.536 137.384 206.084 137.515 206.572 137.777C207.024 138.023 207.402 138.387 207.663 138.83C207.932 139.297 208.072 139.826 208.068 140.364H201.796C201.815 139.843 201.967 139.336 202.236 138.889C202.513 138.432 202.906 138.057 203.374 137.8" fill="white"/>
<path d="M106.933 133.433C106.911 133.03 107.034 132.631 107.279 132.309C107.449 132.152 107.652 132.033 107.873 131.962C108.093 131.89 108.327 131.867 108.558 131.894C108.821 131.896 109.084 131.917 109.344 131.958C109.479 131.958 109.608 132.005 109.72 132.034V127.995L109.444 127.948C108.754 127.833 108.055 127.776 107.355 127.779C106.323 127.757 105.301 127.975 104.369 128.417C103.516 128.829 102.812 129.494 102.35 130.319C101.831 131.305 101.581 132.409 101.623 133.521V134.364H99.3872V138.262H101.623V151H102.468C103.652 151 104.787 150.531 105.625 149.695C106.462 148.86 106.933 147.727 106.933 146.545V138.262H110.113V134.364H106.933V133.433Z" fill="white"/>
<path d="M214.921 32.7802C215.187 33.0963 215.44 33.4183 215.678 33.7461L223.992 42.0407C237.2 55.2113 234.683 76.4951 220.624 86.5984C222.832 85.3509 224.936 83.9277 226.914 82.3429C227.313 82.0326 227.7 81.7048 228.088 81.3829L228.281 81.2131C229.577 80.1088 230.813 78.9364 231.984 77.7009C236.244 72.9937 239.495 67.467 241.536 61.4604C243.578 55.4537 244.366 49.0941 243.853 42.7724C232.236 40.8641 221.158 35.7188 213.971 31.7559C214.299 32.0954 214.616 32.4407 214.921 32.8037" fill="#29A9E1"/>
<path d="M194.573 0.0819818H194.063H193.822C170.394 2.18929 151.689 21.8165 151.36 45.7402C151.207 55.5228 154.163 65.1025 159.803 73.1059C163.782 78.6735 168.943 83.2964 174.919 86.6446C180.895 89.9928 187.538 91.9838 194.374 92.4755C203.514 93.1388 212.646 91.0747 220.607 86.5458C234.689 76.4425 237.182 55.1587 223.975 41.9881L215.667 33.6935C215.966 34.0974 216.253 34.5071 216.529 34.9286C219.52 39.5512 220.647 45.1318 219.683 50.5492C218.719 55.9666 215.735 60.8192 211.332 64.1321C206.929 67.4449 201.432 68.9725 195.946 68.4079C190.46 67.8433 185.392 65.2283 181.759 61.0884C181.665 60.9772 181.565 60.8777 181.472 60.7665C178.983 57.7994 177.332 54.2247 176.688 50.41C176.043 46.5952 176.429 42.6781 177.804 39.0612C177.807 39.0497 177.807 39.0377 177.804 39.0261C177.804 38.9676 177.846 38.9032 177.869 38.8447C179.143 35.2314 181.373 32.0294 184.323 29.5784C188.447 26.4058 193.555 24.7736 198.759 24.965C203.963 25.1564 208.936 27.1593 212.815 30.6262C213.208 30.9539 213.581 31.3058 213.93 31.6798V31.7208C213.946 31.7335 213.96 31.7495 213.971 31.7676C221.158 35.6954 232.236 40.8173 243.853 42.749C243.039 32.4813 238.818 22.7773 231.857 15.171C224.895 7.56465 215.592 2.49002 205.416 0.749294C204.425 0.579539 203.427 0.427342 202.43 0.316123C201.925 0.257587 201.421 0.216611 200.916 0.169783H200.664C199.49 0.0761246 198.295 0.0292969 197.079 0.0292969C196.246 0.0292969 195.407 0.0292985 194.573 0.0995419" fill="white"/>
<path d="M92.1176 54.0522C92.2936 53.063 92.4403 52.0737 92.5518 51.0728C92.6105 50.5752 92.6574 50.0718 92.6985 49.5684V49.3108C92.8569 47.2912 92.8804 45.2633 92.7689 43.2406C92.7689 43.0709 92.7689 42.9011 92.7395 42.7313V42.4855C90.6273 19.1178 70.954 0.450643 46.9741 0.12284C37.1686 -0.0299614 27.5664 2.91875 19.5442 8.5462C13.9625 12.5158 9.32815 17.666 5.97201 23.6289C2.61588 29.5918 0.620772 36.2205 0.129148 43.0416C-0.537399 52.1595 1.53385 61.2688 6.07864 69.2073C16.1998 83.256 37.5336 85.7438 50.741 72.5731L59.0492 64.2785C58.6443 64.5771 58.2336 64.8639 57.817 65.139C53.1837 68.131 47.5865 69.2612 42.1516 68.3023C36.7167 67.3433 31.8476 64.3664 28.5239 59.9705C25.2003 55.5745 23.6688 50.0858 24.2376 44.6089C24.8065 39.1319 27.4334 34.0731 31.5899 30.4504C31.7014 30.3568 31.8012 30.2573 31.9126 30.1695C34.8928 27.6684 38.4892 26.0081 42.3291 25.3607C46.169 24.7133 50.1125 25.1024 53.7509 26.4875H53.7861L53.968 26.5519C57.5858 27.8128 60.7948 30.0254 63.2561 32.9558C66.4376 37.0708 68.0745 42.1673 67.8827 47.3607C67.6908 52.5542 65.6824 57.5166 62.2058 61.3868C61.8756 61.7776 61.5229 62.1489 61.1497 62.499H61.1086C61.0935 62.5112 61.0797 62.5249 61.0676 62.54C57.0954 69.7107 51.9379 80.7565 50.0252 92.3466C60.317 91.5342 70.0438 87.3227 77.6679 80.3779C85.2921 73.4331 90.3787 64.1512 92.1235 53.9996" fill="#29A9E1"/>
<path d="M60.0114 63.5411C59.6945 63.8045 59.3718 64.0503 59.0433 64.2962L50.7351 72.5908C37.5276 85.7614 16.1939 83.2502 6.07275 69.2249C7.31777 71.4296 8.74246 73.5284 10.3324 75.5C10.6434 75.8981 10.972 76.2844 11.2947 76.6707L11.4648 76.8639C12.5767 78.1614 13.7619 79.3947 15.0146 80.5575C19.7308 84.8095 25.2694 88.0536 31.2894 90.0901C37.3094 92.1267 43.6834 92.9125 50.0193 92.3994C51.932 80.8092 57.0601 69.7635 61.0616 62.5928C60.7213 62.9147 60.3751 63.2308 60.0114 63.5411Z" fill="white"/>
<path d="M103.412 87.7634L104.063 88.0854L103.412 87.7517" fill="#29A9E1"/>
<path d="M92.5928 10.8234C87.6022 14.9667 83.5358 20.1058 80.6549 25.9106C77.774 31.7153 76.1424 38.0572 75.8649 44.5286C75.8649 44.8915 75.8239 45.2486 75.8239 45.5939V104.762C76.3949 104.813 76.9699 104.842 77.5489 104.85C82.6673 104.503 87.5615 102.623 91.591 99.4553C95.6205 96.2875 98.5975 91.9799 100.132 87.0961C100.332 86.4698 100.508 85.8317 100.655 85.1878C100.81 84.1099 100.888 83.0223 100.889 81.9332V48.269C100.816 47.2303 100.816 46.1878 100.889 45.1491C100.928 42.3097 101.672 39.5242 103.054 37.0418C104.368 34.1491 106.317 31.5884 108.757 29.5492C113.136 26.0147 118.728 24.3335 124.335 24.8663C123.484 24.5619 122.094 24.0585 121.988 24.0292C114.196 21.8399 102.462 17.6897 92.6925 10.759C92.6925 10.759 92.6456 10.759 92.5986 10.841" fill="white"/>
<path d="M167.607 55.4104C167.605 55.4008 167.605 55.3908 167.607 55.3811C167.693 54.9128 167.775 54.4445 167.853 53.9763C167.853 53.8885 167.883 53.8006 167.894 53.7128C167.971 53.2621 168.035 52.8055 168.094 52.3489C168.091 52.3158 168.091 52.2825 168.094 52.2494C168.153 51.7519 168.211 51.2543 168.252 50.7568C168.252 50.6807 168.252 50.6046 168.252 50.5343C168.288 50.1441 168.317 49.7343 168.34 49.3051C168.34 49.1821 168.34 49.0651 168.34 48.948C168.34 48.509 168.381 48.07 168.387 47.6368C168.39 47.5881 168.39 47.5392 168.387 47.4904C168.387 47.0163 168.387 46.5422 168.387 46.068C168.387 45.9334 168.387 45.7987 168.387 45.6641C168.387 45.3129 168.387 44.9617 168.387 44.6046V44.1656C168.387 43.7149 168.34 43.27 168.305 42.8251C168.305 42.8251 168.305 42.7724 168.305 42.749C167.525 32.8854 163.597 23.5307 157.099 16.0565C156.682 15.5765 156.254 15.1024 155.814 14.6399C155.661 14.476 155.497 14.3121 155.338 14.1482L154.529 13.3053L153.883 12.7199L153.209 12.0995C152.956 11.8653 152.692 11.637 152.434 11.4087L151.924 10.9639C150.339 9.62986 148.665 8.40554 146.913 7.29948C141.728 4.02214 135.946 1.79818 129.897 0.755135C128.906 0.58538 127.914 0.433187 126.911 0.321968C126.412 0.263432 125.908 0.222456 125.403 0.175627H125.145C123.472 0.0477924 121.793 0.0106634 120.117 0.0644071C109.197 -0.0409581 81.1749 0.0644071 81.1749 0.0644071C84.18 4.35888 87.8614 8.14034 92.0765 11.2624C101.646 18.2399 113.264 22.4838 121.231 24.7843C122.286 24.7344 123.343 24.7579 124.394 24.8545C124.805 24.8955 125.209 24.9482 125.62 25.0067H125.685C126.084 25.0711 126.483 25.1413 126.858 25.2233H126.923C127.322 25.3052 127.721 25.4047 128.096 25.516L128.225 25.5511C128.601 25.6564 128.97 25.7735 129.34 25.8964H129.405C129.786 26.0252 130.156 26.1716 130.525 26.3238L130.719 26.4057C131.071 26.552 131.417 26.7042 131.757 26.874H131.816C132.168 27.0496 132.514 27.2311 132.855 27.4242L133.083 27.5589C133.424 27.752 133.764 27.9569 134.093 28.1442C135.209 28.829 136.262 29.6126 137.238 30.4857C137.629 30.8152 138.001 31.167 138.352 31.5393V31.5803L138.393 31.6271C138.716 31.9608 139.033 32.3062 139.344 32.6691C139.655 33.032 139.854 33.3071 140.101 33.6349C140.347 33.9627 140.688 34.4486 140.963 34.87C143.954 39.4926 145.081 45.0733 144.117 50.4907C143.153 55.908 140.169 60.7607 135.766 64.0735C131.363 67.3864 125.866 68.914 120.38 68.3494C114.894 67.7848 109.826 65.1698 106.193 61.0299C106.099 60.9187 106 60.8191 105.912 60.7079C105.648 60.3977 105.401 60.0816 105.161 59.7655L104.996 59.5372C104.526 58.9031 104.093 58.2425 103.7 57.5587L103.565 57.3245C103.187 56.6497 102.845 55.9561 102.538 55.2465L102.432 54.9948C102.145 54.2865 101.893 53.5724 101.675 52.8465L101.599 52.5772C101.499 52.2202 101.406 51.8631 101.329 51.506C101.077 50.4048 100.914 49.2851 100.842 48.1578V81.8161C100.842 82.9071 100.763 83.9966 100.608 85.0765C100.461 85.7204 100.285 86.3585 100.085 86.9848L100.737 87.3185L101.089 87.4999L101.177 87.5409L101.388 87.6521L101.634 87.7751L101.94 87.9156L102.673 88.2609L103.207 88.5068L104.304 88.9751L104.809 89.1799L105.73 89.5429L106.276 89.7419L107.085 90.0287L107.637 90.2102C107.948 90.3155 108.265 90.415 108.581 90.5087L108.992 90.6375C109.426 90.7663 109.872 90.8833 110.312 91.0004L110.799 91.1233L111.732 91.3516L112.26 91.4687L113.252 91.6677L113.575 91.738H113.668C114.208 91.8375 114.754 91.9253 115.305 92.0072L115.558 92.0423C116.109 92.1243 116.667 92.1945 117.224 92.2531H117.294C117.793 92.3058 118.292 92.3526 118.796 92.3877C120.269 92.4989 121.73 92.5223 123.191 92.4931H123.842C124.294 92.4931 124.74 92.4521 125.186 92.4228H125.603C126.101 92.3819 126.594 92.335 127.087 92.2823L127.38 92.2531C127.867 92.2004 128.349 92.1301 128.83 92.0599L129.164 92.0131L129.95 91.8784H129.997C131.616 91.6015 133.218 91.2361 134.797 90.7838L135.102 90.696C135.559 90.5614 136.017 90.4209 136.469 90.2687L136.979 90.0989L137.701 89.8531C138.059 89.7243 138.411 89.5955 138.757 89.4609L139.309 89.2443L140.259 88.8521L140.688 88.6648C141.075 88.4951 141.462 88.3194 141.861 88.138L142.195 87.9799C142.618 87.7809 143.04 87.5702 143.457 87.3536L143.703 87.2248C144.143 86.9907 144.583 86.7565 145.018 86.5107C145.452 86.2648 145.986 85.9253 146.461 85.6561L146.948 85.3517L147.869 84.7663L148.456 84.3858C148.867 84.1107 149.271 83.8005 149.67 83.5312C150.257 83.1273 150.779 82.7058 151.319 82.2727C151.718 81.9624 152.105 81.6346 152.493 81.3127L152.686 81.1429C153.983 80.0401 155.219 78.8676 156.389 77.6307C161.309 72.2081 164.871 65.6982 166.78 58.6357L166.868 58.3021L167.061 57.5411L167.202 56.9558C167.243 56.7977 167.278 56.6338 167.314 56.4758V56.4465C167.372 56.1889 167.425 55.9255 167.478 55.6679C167.478 55.6094 167.478 55.5509 167.507 55.4923V55.4514" fill="#29A9E1"/>
</g>
<defs>
<clipPath id="clip0_832_8520">
<rect width="244" height="151" fill="white"/>
</clipPath>
</defs>
</svg>
